<svg width="846" height="116" viewBox="0 0 846 116" fill="none" xmlns="http://www.w3.org/2000/svg">
<path d="M337.916 36.7214C335.458 35.4259 332.948 34.5025 330.412 33.9638C327.876 33.4251 325.482 33.1557 323.243 33.1557C318.892 33.1557 314.94 33.7842 311.401 35.054C307.848 36.3238 304.823 38.1451 302.326 40.5179C299.829 42.9036 297.924 45.7895 296.624 49.1756C295.324 52.5745 294.667 56.3967 294.667 60.655C294.667 66.3627 295.826 71.3008 298.143 75.4949C300.46 79.6763 303.781 82.9085 308.08 85.1915C312.392 87.4618 317.437 88.6033 323.243 88.6033C325.482 88.6033 327.838 88.3339 330.309 87.7952C332.768 87.2565 335.239 86.3715 337.697 85.1402C339.075 84.4861 340.04 83.5754 340.581 82.3826C341.121 81.1898 341.34 79.9713 341.237 78.7015C341.134 77.4445 340.735 76.3158 340.04 75.341C339.345 74.3662 338.431 73.6993 337.273 73.3401C336.114 72.981 334.814 73.1606 333.36 73.8788C331.905 74.6741 330.464 75.2384 329.009 75.5591C327.555 75.8797 326.177 76.0465 324.877 76.0465C320.604 76.0465 317.283 74.6997 314.94 71.9806C312.585 69.2742 311.414 65.5418 311.414 60.7705C311.414 58.3207 311.722 56.153 312.34 54.2804C312.958 52.4078 313.821 50.8302 314.953 49.5732C316.073 48.3162 317.476 47.3415 319.137 46.6488C320.797 45.9691 322.728 45.6227 324.89 45.6227C326.19 45.6227 327.593 45.8023 329.073 46.1615C330.554 46.5206 331.982 47.0978 333.36 47.893C334.814 48.6113 336.114 48.8165 337.273 48.483C338.431 48.1623 339.397 47.5082 340.156 46.5334C340.915 45.5586 341.366 44.4427 341.52 43.173C341.662 41.916 341.469 40.6847 340.928 39.4918C340.388 38.299 339.384 37.3755 337.942 36.7342L337.916 36.7214Z" fill="#131A21"/>
<path d="M373.635 75.0588C373.056 75.0588 372.516 75.0973 372.001 75.1614C371.499 75.2384 370.945 75.264 370.366 75.264C368.268 75.264 366.582 74.5586 365.307 73.1477C364.033 71.7368 363.402 69.5564 363.402 66.5935V18.4056C363.402 15.6608 362.695 13.5829 361.279 12.1849C359.863 10.7868 357.855 10.0686 355.242 10.0686C352.629 10.0686 350.518 10.774 349.102 12.1849C347.686 13.5958 346.978 15.6736 346.978 18.4056V67.2349C346.978 74.3149 348.574 79.6378 351.754 83.2034C354.946 86.782 359.76 88.5648 366.208 88.5648C367.071 88.5648 367.985 88.5135 368.924 88.3981C369.864 88.2954 370.701 88.1928 371.422 88.1287C373.236 87.7696 374.575 87.0256 375.437 85.9098C376.3 84.7939 376.738 83.1521 376.738 80.9845C376.738 78.5347 376.506 76.893 376.03 76.0593C375.553 75.2256 374.742 74.8921 373.584 75.0332L373.635 75.0588Z" fill="#131A21"/>
<path d="M422.779 36.5033C418.544 34.2716 413.563 33.1429 407.835 33.1429C403.562 33.1429 399.687 33.7714 396.212 35.0411C392.737 36.3109 389.75 38.1451 387.253 40.5564C384.756 42.9805 382.851 45.8793 381.551 49.2782C380.251 52.6771 379.595 56.4993 379.595 60.7576C379.595 66.4653 380.753 71.4034 383.07 75.5975C385.387 79.7789 388.669 82.9982 392.904 85.23C397.139 87.4618 402.12 88.5905 407.848 88.5905C412.121 88.5905 416.009 87.962 419.536 86.6922C423.049 85.4352 426.036 83.5754 428.494 81.1128C430.953 78.663 432.858 75.7386 434.196 72.3397C435.535 68.9536 436.204 65.0801 436.204 60.7576C436.204 55.0628 435.02 50.1504 432.677 46.0332C430.322 41.916 427.027 38.7479 422.792 36.5033H422.779ZM418.171 69.4794C417.154 71.7497 415.777 73.4684 414.039 74.6227C412.302 75.7771 410.242 76.3543 407.848 76.3543C404.373 76.3543 401.541 75.0717 399.378 72.5064C397.203 69.9412 396.122 66.0292 396.122 60.7576C396.122 57.2176 396.611 54.3189 397.589 52.0487C398.568 49.7784 399.945 48.0982 401.721 47.008C403.497 45.9306 405.544 45.379 407.861 45.379C411.413 45.379 414.271 46.6232 416.446 49.1115C418.622 51.5997 419.703 55.4861 419.703 60.7448C419.703 64.2848 419.201 67.1836 418.184 69.4666L418.171 69.4794Z" fill="#131A21"/>
<path d="M484.654 36.7214C482.195 35.4259 479.685 34.5025 477.149 33.9638C474.614 33.4251 472.22 33.1557 469.98 33.1557C465.629 33.1557 461.678 33.7842 458.138 35.054C454.585 36.3238 451.561 38.1451 449.063 40.5179C446.566 42.8908 444.661 45.7895 443.361 49.1756C442.061 52.5745 441.405 56.3967 441.405 60.655C441.405 66.3627 442.563 71.3008 444.88 75.4949C447.197 79.6763 450.518 82.9085 454.817 85.1915C459.116 87.4746 464.175 88.6033 469.98 88.6033C472.22 88.6033 474.575 88.3339 477.046 87.7952C479.505 87.2565 481.976 86.3715 484.435 85.1402C485.812 84.4861 486.765 83.5754 487.318 82.3826C487.859 81.1898 488.077 79.9713 487.974 78.7015C487.872 77.4445 487.472 76.3158 486.777 75.341C486.082 74.3662 485.168 73.6993 484.01 73.3401C482.852 72.981 481.552 73.1606 480.097 73.8788C478.643 74.6741 477.201 75.2384 475.746 75.5591C474.292 75.8797 472.928 76.0465 471.615 76.0465C467.341 76.0465 464.02 74.6997 461.678 71.9806C459.322 69.2742 458.151 65.5418 458.151 60.7705C458.151 58.3207 458.46 56.153 459.078 54.2804C459.695 52.4078 460.558 50.8302 461.691 49.5732C462.81 48.3162 464.213 47.3415 465.874 46.6488C467.534 45.9691 469.465 45.6227 471.627 45.6227C472.928 45.6227 474.331 45.8023 475.811 46.1615C477.291 46.5206 478.733 47.0978 480.097 47.893C481.539 48.6113 482.852 48.8165 484.01 48.483C485.168 48.1623 486.134 47.5082 486.893 46.5334C487.653 45.5586 488.103 44.4427 488.245 43.173C488.386 41.916 488.193 40.6847 487.653 39.4918C487.112 38.299 486.108 37.3755 484.666 36.7342L484.654 36.7214Z" fill="#131A21"/>
<path d="M526.448 59.6674L540.349 44.1862C541.804 42.5317 542.499 40.8899 542.473 39.261C542.434 37.6321 541.817 36.2468 540.632 35.0925C539.435 33.9381 537.711 33.3609 535.471 33.3609C533.231 33.3609 531.429 33.8099 530.091 34.7077C528.752 35.6183 527.285 36.9651 525.688 38.7736L509.933 56.2044H509.715V18.4184C509.715 15.6736 509.007 13.5958 507.591 12.1977C506.175 10.7869 504.167 10.0814 501.554 10.0814C498.941 10.0814 496.83 10.7869 495.414 12.1977C493.998 13.6086 493.29 15.6865 493.29 18.4184V80.0354C493.29 82.7033 493.998 84.7683 495.414 86.2048C496.83 87.6413 498.877 88.3724 501.554 88.3724C506.986 88.3724 509.702 85.5891 509.702 80.0354V64.4388H509.921L526.332 82.6263C527.851 84.5759 529.357 86.0252 530.837 86.9616C532.317 87.8979 534.3 88.3724 536.758 88.3724C538.792 88.3724 540.452 87.8466 541.752 86.8076C543.052 85.7559 543.799 84.4091 543.979 82.7417C544.159 81.0872 543.567 79.4198 542.19 77.7652L526.448 59.6803V59.6674Z" fill="#131A21"/>
<path d="M632.832 34.8872C631.712 33.874 630.129 33.3737 628.108 33.3737C626.512 33.3737 625.032 33.8098 623.655 34.6692C622.277 35.5414 621.157 37.119 620.282 39.4277L609.47 68.774L598.336 38.4529C597.679 36.7983 596.791 35.5285 595.672 34.6563C594.552 33.7842 593.084 33.3609 591.269 33.3609C589.454 33.3609 587.987 33.7713 586.867 34.605C585.747 35.4387 584.898 36.7214 584.319 38.4529L573.172 68.2609L562.475 39.8638C561.6 37.337 560.558 35.6311 559.322 34.7205C558.086 33.8226 556.529 33.3737 554.65 33.3737C552.397 33.3737 550.646 33.8611 549.385 34.8359C548.111 35.8107 547.338 37.0805 547.042 38.6196C546.746 40.1716 547.004 41.9544 547.802 43.981L563.119 81.7669C564.059 84.0756 565.294 85.7559 566.813 86.8076C568.332 87.8465 570.186 88.3724 572.361 88.3724C574.536 88.3724 576.377 87.808 577.909 86.6922C579.44 85.5763 580.625 83.8961 581.5 81.6515L590.716 57.2304L600.189 81.7669C601.129 84.0115 602.378 85.6661 603.935 86.7435C605.493 87.8209 607.32 88.3724 609.418 88.3724C611.517 88.3724 613.46 87.8337 615.018 86.7435C616.575 85.6661 617.785 83.9987 618.66 81.7669L633.875 43.981C634.673 42.1084 634.982 40.3768 634.801 38.7864C634.621 37.1959 633.965 35.9005 632.845 34.8872H632.832Z" fill="#131A21"/>
<path d="M679.312 36.5033C675.077 34.2716 670.096 33.1429 664.368 33.1429C660.094 33.1429 656.22 33.7714 652.745 35.0411C649.269 36.3109 646.283 38.1451 643.786 40.5564C641.289 42.9805 639.384 45.8793 638.084 49.2782C636.784 52.6771 636.127 56.4993 636.127 60.7576C636.127 66.4653 637.286 71.4034 639.603 75.5975C641.92 79.7789 645.202 82.9982 649.437 85.23C653.672 87.4618 658.653 88.5905 664.381 88.5905C668.654 88.5905 672.541 87.962 676.068 86.6922C679.582 85.4352 682.568 83.5754 685.027 81.1128C687.485 78.6502 689.39 75.7386 690.729 72.3397C692.068 68.9536 692.737 65.0801 692.737 60.7576C692.737 55.0628 691.553 50.1504 689.21 46.0332C686.855 41.916 683.56 38.7479 679.325 36.5033H679.312ZM674.704 69.4794C673.687 71.7497 672.31 73.4684 670.572 74.6227C668.834 75.7771 666.762 76.3543 664.381 76.3543C660.905 76.3543 658.074 75.0717 655.911 72.5064C653.736 69.9412 652.655 66.0292 652.655 60.7576C652.655 57.2176 653.144 54.3189 654.122 52.0487C655.1 49.7784 656.478 48.0982 658.254 47.008C660.03 45.9306 662.077 45.379 664.394 45.379C667.946 45.379 670.804 46.6232 672.979 49.1115C675.154 51.5997 676.236 55.4861 676.236 60.7448C676.236 64.2848 675.734 67.1836 674.717 69.4666L674.704 69.4794Z" fill="#131A21"/>
<path d="M730.824 33.1557C726.113 33.4507 722.278 34.7846 719.304 37.1574C717.232 38.8249 715.687 40.9668 714.632 43.5834V41.5953C714.632 38.9275 713.937 36.8881 712.572 35.4772C711.195 34.0663 709.2 33.3609 706.6 33.3609C704 33.3609 702.095 34.0663 700.679 35.4772C699.263 36.8881 698.555 38.9275 698.555 41.5953V80.0354C698.555 82.7032 699.276 84.7682 700.73 86.2048C702.185 87.6413 704.283 88.3724 707.038 88.3724C709.792 88.3724 711.762 87.6541 713.177 86.2048C714.593 84.7682 715.301 82.7032 715.301 80.0354V59.8983C715.301 56.0761 716.292 53.1517 718.287 51.1252C720.283 49.0986 723.346 47.9186 727.465 47.5467L729.962 47.3286C732.421 47.0464 734.184 46.2512 735.227 44.9429C736.282 43.6475 736.733 41.8775 736.591 39.6329C736.514 37.2472 735.999 35.5414 735.021 34.4896C734.042 33.4507 732.652 32.9889 730.837 33.1429L730.824 33.1557Z" fill="#131A21"/>
<path d="M776.287 59.6674L790.188 44.1862C791.63 42.5317 792.338 40.8899 792.312 39.261C792.274 37.6321 791.656 36.2468 790.459 35.0925C789.262 33.9381 787.537 33.3609 785.297 33.3609C783.058 33.3609 781.256 33.8099 779.917 34.7077C778.578 35.6183 777.111 36.9651 775.515 38.7736L759.76 56.2044H759.541V18.4184C759.541 15.6736 758.833 13.5958 757.417 12.1977C756.001 10.7997 753.993 10.0814 751.38 10.0814C748.767 10.0814 746.656 10.7869 745.241 12.1977C743.825 13.6086 743.117 15.6865 743.117 18.4184V80.0354C743.117 82.7033 743.825 84.7683 745.241 86.2048C746.656 87.6413 748.703 88.3724 751.38 88.3724C756.812 88.3724 759.528 85.5891 759.528 80.0354V64.4388H759.747L776.158 82.6263C777.677 84.5759 779.183 86.0252 780.663 86.9616C782.144 87.8979 784.126 88.3724 786.584 88.3724C788.618 88.3724 790.279 87.8466 791.579 86.8076C792.879 85.7559 793.625 84.4091 793.805 82.7417C793.986 81.0872 793.394 79.4198 792.016 77.7652L776.274 59.6803L776.287 59.6674Z" fill="#131A21"/>
<path d="M839.796 75.2768H818.133L841.855 47.0208C843.091 45.7253 843.863 44.3273 844.198 42.8523C844.52 41.3773 844.481 40.0049 844.095 38.7351C843.696 37.4781 842.911 36.4007 841.752 35.5413C840.594 34.6692 839.036 34.2459 837.08 34.2459H805.673C803.716 34.2459 802.198 34.7718 801.103 35.8107C800.022 36.8624 799.469 38.3887 799.469 40.4153C799.469 42.2879 800.009 43.7757 801.103 44.8531C802.185 45.9305 803.716 46.4821 805.673 46.4821H826.087L802.635 74.5201C801.4 75.8156 800.589 77.2264 800.19 78.7399C799.791 80.2534 799.765 81.6643 800.138 82.9597C800.499 84.2552 801.219 85.3198 802.313 86.1535C803.395 86.9872 804.733 87.3976 806.329 87.3976H839.796C841.752 87.3976 843.271 86.8717 844.365 85.8328C845.446 84.7811 846 83.2932 846 81.3436C846 77.3034 843.94 75.2768 839.809 75.2768H839.796Z" fill="#131A21"/>
<path d="M211.34 80.2919C209.036 80.2919 206.732 79.4197 204.969 77.6626L192.071 64.8107C190.385 63.1305 189.433 60.8474 189.433 58.4618V40.6718C189.433 35.7081 193.461 31.6935 198.443 31.6935C203.424 31.6935 207.453 35.7081 207.453 40.6718V54.7422L217.712 64.9518C221.226 68.4533 221.226 74.1482 217.712 77.6497C215.948 79.4069 213.644 80.2791 211.34 80.2791V80.2919Z" fill="#131A21"/>
<path d="M57.5364 84.3065C52.5551 84.3065 48.5263 80.2919 48.5263 75.3282V61.2579L37.5725 50.3428C34.0585 46.8413 34.0585 41.1464 37.5725 37.6449C41.0865 34.1433 46.8015 34.1433 50.3154 37.6449L63.9079 51.1893C65.5941 52.8696 66.5466 55.1526 66.5466 57.5383V75.3282C66.5466 80.2919 62.5178 84.3065 57.5364 84.3065Z" fill="#131A21"/>
<path d="M58.1927 115.987C57.2273 115.987 56.262 115.962 55.3095 115.923C25.1769 114.474 0.900913 89.7833 0.0256389 59.7187C-0.437741 43.8912 5.39313 28.9359 16.4499 17.5975C27.5067 6.25918 42.3348 0.0128265 58.1927 0.0128265H58.5917C70.1762 0.0769574 81.5419 4.52764 90.5135 12.5697L177.063 90.1168C182.186 94.7085 188.531 97.4918 194.929 97.9279C196.55 98.0433 198.224 98.0562 199.871 97.9792C220.62 96.9403 237.341 79.9071 237.946 59.1928C238.267 48.2649 234.239 37.927 226.606 30.1031C218.973 22.2663 208.74 17.9567 197.786 17.9567C197.117 17.9567 196.434 17.9695 195.765 18.008C188.982 18.3414 182.314 21.1632 176.998 25.9602L155.953 44.9301C152.259 48.2521 146.57 47.9699 143.223 44.2888C139.889 40.6077 140.172 34.9385 143.867 31.6037L164.912 12.6338C173.304 5.06634 183.936 0.615659 194.864 0.0769589C195.817 0.0256541 196.795 0 197.786 0C213.657 0 228.472 6.24635 239.529 17.5847C250.586 28.923 256.416 43.8784 255.953 59.7059C255.078 89.7063 230.84 114.397 200.772 115.897C198.404 116.013 196.01 115.987 193.667 115.833C183.28 115.115 173.111 110.716 165.002 103.456L78.4527 25.9089C72.7763 20.8169 65.6583 17.9951 58.4115 17.9567H58.1927C47.2389 17.9567 37.006 22.2663 29.3731 30.1031C21.7402 37.927 17.7242 48.2521 18.0331 59.1928C18.6381 79.9456 35.397 96.9788 56.1847 97.9792C57.8452 98.0562 59.5056 98.0433 61.1403 97.9279C67.5504 97.4662 73.8962 94.6701 79.0191 90.0655L100.026 71.134C103.72 67.812 109.409 68.0942 112.756 71.7753C116.09 75.4564 115.806 81.1256 112.112 84.4604L91.1056 103.392C83.0222 110.677 72.8407 115.102 62.4532 115.846C61.0502 115.949 59.6344 116 58.2056 116L58.1927 115.987Z" fill="#131A21"/>
</svg>
