<svg id="Layer_1" data-name="Layer 1" xmlns="http://www.w3.org/2000/svg" viewBox="0 0 1366 768"><defs><style>.ansible-1{fill:#221f1f;}.ansible-2{fill:#fefefe;}</style></defs><title>ansible</title><path class="ansible-1" d="M1073.49,384c0,212.16-172.15,384.07-384.59,384-211.54,0-383.32-172.57-383.23-384.93C305.75,171.66,478.46,0,690.94.18,901.48.33,1073.48,172.88,1073.49,384Z"/><path class="ansible-2" d="M689.33,751.4c-202.3,0-367.1-165-367.06-367.44S487.32,16.66,690.06,16.78c202.44.12,367,165.28,366.83,368.13C1056.71,586.86,891.66,751.43,689.33,751.4Z"/><path class="ansible-1" d="M629.1,408.68c-12.18,30.49-24.16,60.45-36.13,90.41-9.07,22.72-18.2,45.42-27.12,68.21-1.21,3.09-2.76,4-6,4-17-.17-34-.08-51.07-.08-.67-1.66.37-2.76.85-3.91Q590.53,372.6,671.47,177.94c4.75-11.42,13.39-17.52,24.63-17.27,11.81.26,19.22,6.62,23.64,17.26Q793.8,356.31,867.92,534.67c7.29,17.56.55,33.45-16.06,38.44-8.7,2.62-16.84,1.21-23.93-4.27-12.37-9.57-24.51-19.43-36.67-29.26q-79.82-64.44-159.6-128.93C631,410.08,630.22,409.54,629.1,408.68Z"/><path class="ansible-2" d="M695.93,241.37c32.4,80,64.39,158.94,96.37,237.89l-.86.49q-24-18.86-47.94-37.72-47-37-93.93-74c-1.8-1.42-3.49-2.32-2.24-5.43C663.47,322.63,679.44,282.58,695.93,241.37Z"/></svg>