<svg id="Layer_6" data-name="Layer 6" xmlns="http://www.w3.org/2000/svg" viewBox="0 0 1366 768"><defs><style>.circleci-1{fill:#343434;}</style></defs><title>circleci</title><path class="circleci-1" d="M707.69.26h4.42a18.61,18.61,0,0,0,7.58,0h4.42c2,.7,4.09.14,6.12.32,1.33-.17,2.71.35,4-.32h1.27c1.24.67,2.58.16,3.87.32h3C768.51.43,794,4.87,819.28,11.32a376.72,376.72,0,0,1,80.88,31,384.55,384.55,0,0,1,73.78,50c7.1,6.12,14,12.45,20.61,19.06a387.27,387.27,0,0,1,41.6,49.06,395,395,0,0,1,33.69,57,382.75,382.75,0,0,1,24,64.06,396.19,396.19,0,0,1,11.76,63.52,185.47,185.47,0,0,1,1.08,20.14c0,7.36.33,14.72.35,22.08a366.3,366.3,0,0,1-17.08,110.85,382,382,0,0,1-45,95.35,394,394,0,0,1-39.08,50.28,382.54,382.54,0,0,1-96.36,76.28,377.48,377.48,0,0,1-107.18,40.22,267.76,267.76,0,0,1-31.72,5.19c-5,.44-10.06.76-15.1.78-19.48.07-39-.19-58.43.08-20.12.28-39.82-2.46-59.38-6.84a381.79,381.79,0,0,1-165.73-83c-8.87-7.63-17.54-15.45-25.64-23.87a393.61,393.61,0,0,1-59.79-79.9,384.91,384.91,0,0,1-32.19-74.65c-2.4-7.71-5.18-15.39-5.19-23.63,0-11.56,7.1-18.73,18.65-18.74q77.07,0,154.14-.05c8.46,0,14.32,3.93,18,11.14a259.31,259.31,0,0,0,16.6,29,202.7,202.7,0,0,0,59.58,57.42,198.51,198.51,0,0,0,69.54,27.18,216.15,216.15,0,0,0,26.28,3c19.94,1.35,39.49-1,58.75-5.73a194.18,194.18,0,0,0,79.89-41c30.72-26.09,52-58.51,63.38-97.25a195.51,195.51,0,0,0,7.37-41.84c2.63-37.73-5.11-73.22-22.43-106.67a194.46,194.46,0,0,0-27.7-39.8,199,199,0,0,0-88.85-57.88,188.41,188.41,0,0,0-43.21-8.59c-37-3-72.31,3.44-105.68,19.79a196.16,196.16,0,0,0-42.87,28.76A201.84,201.84,0,0,0,540.9,299c-4.42,9.29-11.5,13.41-21.58,13.4q-74.54-.09-149.08,0a28.3,28.3,0,0,1-5.66-.43c-9.75-2-16.6-9.23-15.36-21,.92-8.79,3.76-17,6.43-25.32a378.62,378.62,0,0,1,48.83-99.39,391.73,391.73,0,0,1,30.57-38.95A384.1,384.1,0,0,1,620.62,12.42,392.4,392.4,0,0,1,675.69,1.71c7.29-.9,14.68-.72,22-1.14,1-.06,2.07.31,3-.31h4.42A2.36,2.36,0,0,0,707.69.26Z"/><path class="circleci-1" d="M630.82,384c-.19-50,40.55-91,90.76-91.23a91.19,91.19,0,0,1,91.55,90.77c.26,50.33-40.51,91.22-91.19,91.47C671.66,475.22,631,434.63,630.82,384Z"/></svg>