<svg id="Layer_1" data-name="Layer 1" xmlns="http://www.w3.org/2000/svg" viewBox="0 0 1366 768"><defs><style>.elk-1{fill:#3cbeb1;}.elk-2{fill:#f4bd19;}.elk-3{fill:#176655;}.elk-4{fill:#2c458f;}.elk-5{fill:#e9478c;}.elk-6{fill:#95c63d;}</style></defs><title>elastic</title><path class="elk-1" d="M552.22,768c-50.08-.42-94.56-16.43-133-48.65-33.93-28.47-56.47-64.33-67.7-107.22a204.37,204.37,0,0,1-6.21-41.48,223.16,223.16,0,0,1,2.91-47,11,11,0,0,1,3.68-7q47.7-42.86,95.26-85.89Q477.54,403.4,507.84,376c6.6-6,13.26-11.85,19.77-17.91,1.45-1.35,2.52-1.29,4.18-.53q47.38,21.72,94.83,43.32Q668.46,419.92,710.3,439a8,8,0,0,1,4.13,3.77q18.92,36.21,38,72.33a8.74,8.74,0,0,1,1,6.15c-3.56,18.44-7,36.9-10.5,55.36q-6.43,34.06-12.87,68.12c-1.95,10.29-4,20.57-5.88,30.87a9.69,9.69,0,0,1-1.77,4Q675,745.27,596,763.38A187.61,187.61,0,0,1,552.22,768Z"/><path class="elk-2" d="M704.41-.25c52.73.65,99.08,18,138.33,53.42,33.3,30,54.43,67.25,63.79,111.08a201.46,201.46,0,0,1,4.12,51.33,212.18,212.18,0,0,1-3.37,29.18,6.68,6.68,0,0,1-2.31,4q-55,48.1-109.86,96.28-35.62,31.24-71.22,62.51c-1.69,1.49-2.94,1.4-4.79.55Q656.85,379.52,594.55,351q-26.41-12.09-52.85-24.11a8.24,8.24,0,0,1-4.37-4.41q-16.12-34.92-32.42-69.75a11.56,11.56,0,0,1-.91-7.55c5-25.36,9.82-50.75,14.73-76.13,4.67-24.15,9.51-48.27,13.94-72.46a32.27,32.27,0,0,1,6.38-14q40-53,103.1-73.23a197.69,197.69,0,0,1,39-8.23A214.17,214.17,0,0,1,704.41-.25Z"/><path class="elk-3" d="M1014.75,400.78c0,59.68-37.88,113.08-92.25,132.29a10.18,10.18,0,0,1-6,.33Q851,518.07,785.43,502.9a8.13,8.13,0,0,1-6-4.7Q763,466.49,746.36,434.88c-.32-.6-.6-1.23-1-1.8-.8-1.21-.41-2,.66-2.86,1.35-1.05,2.59-2.24,3.87-3.37Q836.46,351.21,923,275.51c1.89-1.66,3.36-2,5.7-1,45.81,20.34,74,54.86,83.92,104.1A124.49,124.49,0,0,1,1014.75,400.78Z"/><path class="elk-4" d="M241.91,364c0-58.16,37.34-111.2,91.79-130.42a11.15,11.15,0,0,1,6.62-.37q59.52,14,119.07,27.78c4.44,1,8.85,2.15,13.31,3.06a4.48,4.48,0,0,1,3.49,2.79q14.94,32.25,30,64.44c1.11,2.39,1.1,2.42-1.17,4.48L451.5,384.15,335.09,489.5c-4.17,3.77-4.22,3.86-9.32,1.57q-64.95-29.19-80.87-98.62A126.42,126.42,0,0,1,241.91,364Z"/><path class="elk-5" d="M441,69.1A95.13,95.13,0,0,1,497.26,86a15.68,15.68,0,0,0,1.67,1.17c1.93,1,2.26,2.51,1.84,4.55q-4.66,23.08-9.21,46.2-6.31,32-12.57,64c-1.74,8.82-3.64,17.61-5.2,26.46-.53,3-.72,3.32-4,2.54l-43.51-10.26-74.42-17.51a9,9,0,0,0-1.65-.39c-2.1-.07-2.8-1.41-3.39-3.19a97.59,97.59,0,0,1-4.54-21.33c-1.55-16.25.22-32.15,6.71-47.2,14.39-33.45,39.53-53.78,75.35-60.75a67.33,67.33,0,0,1,8.11-1.14C435.27,69,438.13,69.1,441,69.1Z"/><path class="elk-6" d="M815.9,697.47c-21.11.06-40-6.53-57.2-18.62-2-1.4-2.67-2.69-2.15-5.32,5.7-28.81,11.2-57.66,16.77-86.49q4.78-24.81,9.6-49.62c.5-2.62.67-2.7,3.47-2q29.07,6.84,58.16,13.68c20.16,4.74,40.32,9.5,60.5,14.14,2.73.62,4.25,1.8,5.06,4.57,10.28,35.28,4.09,67.26-19.6,95.39-15.49,18.39-35.62,29.12-59.28,33.22A86.38,86.38,0,0,1,815.9,697.47Z"/></svg>