<svg id="Layer_1" data-name="Layer 1" xmlns="http://www.w3.org/2000/svg" viewBox="0 0 1366 768"><defs><style>.gcp-1{fill:#4284ee;}.gcp-2{fill:#fabb38;}.gcp-3{fill:#e8443c;}.gcp-4{fill:#37a75a;}.gcp-5{fill:#fefefe;}</style></defs><title>gcp</title><path class="gcp-1" d="M937.51,93.86c2.65-1.76,3.65.86,5,2.06q77.44,70.52,106.56,171.16c1.32,4.58,4,7.22,7.57,9.82,61.62,45,99.39,105.37,108.87,180.88,12.39,98.69-20.77,181.07-97.72,244.55-48.37,39.91-105,58.53-167.5,58.75-67,.25-134.07.07-201.1,0-2.16,0-4.58.86-6.44-1.12-2.15-2.69-2.1-5.9-2.1-9.07q-.06-73,0-146.06a21.65,21.65,0,0,1,.85-7.38c2.19-4.09,6.19-3.23,9.67-3.25,19.56-.12,39.11-.06,58.66-.06q71.63,0,143.24,0c50.87,0,95.53-45.24,96.38-96,.51-30-8.82-55.4-30.06-76.26-17.33-17-38.5-26.27-62.69-28.45-8.89-.8-9.73-1.38-9.74-10.18,0-19.09.19-38.11-3.9-57q-13.8-63.58-60.72-108.37c-2.48-2.37-5.4-4.16-8-6.39-2.54-2.72-1-5,.9-7.14,2.23-2.57,4.73-4.88,7.14-7.29q48.82-48.84,97.69-97.64C932.24,97.24,934,94.31,937.51,93.86Z"/><path class="gcp-2" d="M326.79,705.35c-52.55-40.74-86.29-93.6-98.94-158.8-17.24-88.88,6-167.13,65.77-234.7,13.13-14.84,29.11-26.58,44.49-38.93.42-2.58,2.5-3.6,4.42-4.82,36-22.91,75.06-37.21,117.54-41.91,27-3,53.85-1.35,80.56,3.19,30.29,7,59.2,17.54,86,33.58a264.39,264.39,0,0,1,71.64,62.24c3.34,4.18,3.5,7.25-.36,11.1q-55.27,55.17-110.5,110.37c-5.35,5.33-6.47,5.1-10.42-1.91-10.07-17.88-23.74-32.21-42-41.57-62.72-32.05-137.21,6.21-146.77,75.95-5.59,40.81,12.3,77.41,46.55,99.15,3.6,2.28,7.87,3.68,10.37,7.49.5,3.22-1.85,5-3.72,6.83Q386.9,647.19,332.31,701.7C330.73,703.27,329.31,705.17,326.79,705.35Z"/><path class="gcp-3" d="M541.4,230.87c-12.45-.34-24.7-2.68-37.1-3.72-14.64-1.23-29.11-.48-43.45,1a253.74,253.74,0,0,0-96.28,29.47c-8.95,4.86-17.65,10.2-26.46,15.33-3-2.88-.14-5.65.58-8.07,16.61-55.5,44.21-104.8,84-147.08C479.76,57,549.24,18.67,631.62,5.41,743-12.52,842.65,15.14,930.32,86c2.72,2.2,6.26,3.88,7.19,7.83Q904.15,127.41,870.79,161c-14.25,14.31-28.58,28.55-42.82,42.88-1.68,1.69-4.2,2.94-4,5.95-3.29,1.32-5-1.46-7-2.95-27.6-20.22-58-33.92-92-38.67-60.85-8.5-115.18,6.5-162.52,46a161.12,161.12,0,0,0-14.7,13.18C546,229.14,544.16,230.84,541.4,230.87Z"/><path class="gcp-4" d="M326.79,705.35Q383.4,648.65,440,591.94c1.76-1.76,3.39-3.65,5.08-5.48,2.74-1.56,5.35-.36,7.85.58,14.49,5.42,29.67,6.74,44.9,6.79,61.32.19,122.65,0,184,.13,3.91,0,8.29-1.18,11.42,2.62q-.11,77.28-.23,154.57c0,3-.19,5.89-.29,8.83-70.84-.07-141.69.41-212.52-.38-55.11-.61-105-18.29-149.7-50.44C329,708.12,327.32,707.3,326.79,705.35Z"/><path class="gcp-5" d="M693.23,596.58c-2.51-1.6-5.31-.87-8-.87q-93.56-.08-187.1,0c-18.31,0-36.13-2-53.1-9.27-16.47-8.7-30.83-19.83-41.57-35.34-43.75-63.23-4.77-150.53,71.5-160,43.38-5.4,83.82,15.65,104.28,54.29.73,1.39,1.45,2.78,2.37,4.55,1.7-1.55,3.24-2.85,4.66-4.27q55-54.93,110-109.8c3.56-3.53,4.08-5.6.65-9.77q-58.68-71.44-148.49-92.86c-2.39-.57-4.69-1.56-7-2.35,9.51-8.38,18.35-17.48,28.46-25.21,74.91-57.23,179.8-55.57,253.43,4.13.14.11.45,0,.67,0,3.52.34,5.47,3.11,7.72,5.21,43.73,40.82,66.36,91.07,67.26,151,.1,6.81.17,13.64-.1,20.44-.16,3.86,1.2,4.9,5,5.12,47,2.64,84.59,34.09,95.37,79.48,14.7,62-31.71,123.89-95.41,125-68.81,1.23-137.66.41-206.5.48C696,596.51,694.59,596.55,693.23,596.58Z"/></svg>