<svg id="Layer_1" data-name="Layer 1" xmlns="http://www.w3.org/2000/svg" viewBox="0 0 1366 768"><defs><style>.git-1{fill:#ef5033;}</style></defs><title>git</title><path class="git-1" d="M672.51,767h-20c-15.69-1.09-27.17-8.92-38.23-20.06Q456.7,588.25,298.06,430.64c-10.47-10.41-18.86-21-20.06-36.13v-24c1.39-15,9.59-25.8,20.11-36.22,69.68-69,138.86-138.58,208.26-207.9,15.58-15.57,16.31-15.56,31.81-.09,22.67,22.62,45.26,45.33,68,67.89,5.55,5.52,7.47,11.28,5.75,18.89-6.14,27,2.77,47.8,26.57,62,4.11,2.46,6.23,5.78,6.47,10.51.16,3.34.33,6.67.34,10,0,61.39-.09,122.78.12,184.17,0,10.43-2.16,17.74-12.19,23.74-19.9,11.93-27.59,36.51-20.8,59.71,6.19,21.14,26.8,36.35,49.72,36.67,23.59.33,44.2-14,51.47-35.67,7.18-21.43-.37-46.79-18.93-59.85-8-5.62-11.12-12.07-11.09-21.66.18-60.72.06-121.44.13-182.16a49.46,49.46,0,0,1,.36-7c1.34-9.22,6.5-11.34,13.66-5.25,8.12,6.93,15.32,14.86,22.88,22.4,14.64,14.62,29.12,29.39,43.93,43.82,6.33,6.17,8.44,12.11,6.32,21.24-6.53,28.17,11.6,56.89,38.77,63.19,29.39,6.82,57.42-10,64.86-38.95,9.17-35.64-22.24-71-58.51-65-10.52,1.75-17.53-.65-24.75-8.05-22.57-23.19-45.58-45.95-68.58-68.72-6.14-6.07-8.83-12.08-7.49-21.21,3.55-24.09-5-43.1-26.37-55.9-11.65-7-24.26-7.12-36.88-5.34-7.51,1.05-12.7-1-17.82-6.16-24.49-24.58-49.14-49-73.52-73.69-10.12-10.24-10.21-13.25-.45-23.22,20.77-21.22,42-41.95,62.85-63.12,7.26-7.38,17-6.6,25.49-9.63h24c15.11,1.2,25.72,9.59,36.13,20.06q157.71,158.55,316.3,316.2c11.14,11.06,19,22.54,20.06,38.23v22c-1.61,17.12-12.47,28.37-24,39.83Q866.84,590.3,713,744.6C701.39,756.27,689.54,765.91,672.51,767Z"/></svg>