<svg id="Layer_1" data-name="Layer 1" xmlns="http://www.w3.org/2000/svg" viewBox="0 0 1366 768"><defs><style>.haproxy-1{fill:#5898d3;}.haproxy-2{fill:#26405f;}.haproxy-3{fill:#3d6da4;}.haproxy-4,.haproxy-5,.haproxy-6{fill:none;stroke-miterlimit:10;}.haproxy-4,.haproxy-5{stroke:#284a6a;}.haproxy-4{stroke-width:0.26px;}.haproxy-5{stroke-width:0.13px;}.haproxy-6{stroke:#24405d;stroke-width:0.1px;}.haproxy-7{fill:#256ea5;}.haproxy-8{fill:#3378bc;}.haproxy-9{fill:#169bd6;}.haproxy-10{fill:#00a8da;}</style></defs><title>haproxy</title><path class="haproxy-1" d="M405,708.66c0-16.29.21-32.59-.12-48.88-.11-5.61,1.27-7.7,7.28-7.63,14.39.17,14.39-.14,14.39,14.46,0,8.56.36,17.14-.12,25.68-.34,6,2,7.43,7.58,7.29,13.8-.35,27.62-.31,41.42,0,5.31.11,7.39-1.36,7.18-7-.39-10.48.42-21-.29-31.47-.52-7.67,2.38-9.95,9.38-8.87a14.29,14.29,0,0,0,4.13,0c5.86-.84,7.49,1.68,7.45,7.42q-.37,48.88,0,97.76c.05,6.12-1.52,8.8-7.84,7.87a25.66,25.66,0,0,0-6.61,0c-5.3.65-6.55-1.89-6.43-6.72.27-11-.06-22.09.14-33.14.09-4.66-1.66-6.3-6.3-6.24-14.64.2-29.28.25-43.91,0-5-.09-6,2.06-5.87,6.44.21,11.31-.07,22.64.14,34,.08,4.24-1.28,5.64-5.65,5.8-16,.62-16,.8-16-15.31Z"/><path class="haproxy-2" d="M1099.63,653.21c-11.67,16.77-23,33.33-34.72,49.62-2.7,3.76-2.76,6.1,0,9.92,12.06,16.76,23.7,33.82,36.57,52.32-8.45,0-15.42,0-22.38,0-3.12,0-3.85-2.84-5.19-4.76-7.41-10.64-14.9-21.24-22-32.1-2.86-4.41-4.28-5.52-7.59-.26-6.33,10-13.81,19.33-19.91,29.48-3.61,6-7.7,8.64-14.62,7.8-4.35-.54-8.82-.1-13.18-.1-1.53-2.44.55-3.62,1.55-5.06,10.8-15.67,21.48-31.44,32.61-46.88,3-4.12,2.86-6.84,0-10.85-11.52-16.08-22.7-32.42-35.15-50.31,8.31,0,15,0,21.71,0,3.5,0,4.41,3,5.88,5.16,8.09,11.84,16.06,23.75,24.76,36.65,6.31-9.22,13.29-17.24,17.75-26.47C1072.86,652.62,1083.71,648.75,1099.63,653.21Z"/><path class="haproxy-2" d="M1110.16,652c8.7,0,15.58.19,22.44-.07,4.34-.16,5.47,3,7.18,5.79,8.25,13.32,16.5,26.66,25.25,40.8,8.53-13.26,16.83-25.55,24.41-38.26,3.64-6.12,7.67-9.45,15.14-8.39,4.85.68,9.88.12,15.49.12-1.18,5.57-4.81,9-7.45,12.92q-16.27,24-33,47.63a19.35,19.35,0,0,0-3.78,12.27c.26,11.32-.06,22.66.15,34,.09,4.28-.59,6.37-5.73,6.48-15.88.35-17.17.47-15.56-15.25,2.33-22.86-4.35-41.76-18.53-59.35C1126.86,679.15,1119.52,666.09,1110.16,652Z"/><path class="haproxy-2" d="M839.73,725.08c13.34-3.6,22.51-10.14,26.41-22.73,7.69-24.88-7.22-48.05-33.17-49.83-17.59-1.2-35.31-.49-53-1-5.46-.16-7,1.57-6.91,7,.26,30.64.12,61.28.12,91.93,0,15.17,0,15,15.54,14.78,4.62-.06,6.31-1.24,6.12-6-.34-8.82-.14-17.67-.06-26.5,0-1.79-.78-3.91,1.41-5.18,3.81-2.23,19.89.66,23,4.21,6.93,7.87,14.9,15.08,20.48,23.82,9,14,21.49,8.51,35.44,9.61ZM831,707.52c-5.47.52-11,.09-16.54.09-19.7.27-19.7.27-19.7-19.31,0-16.41,0-16.44,16.28-16.4,6.62,0,13.28-.21,19.85.41,9.89.93,15.72,8,15.57,18C846.33,699.82,840.54,706.6,831,707.52Z"/><path class="haproxy-2" d="M938.25,649.55c-34.22,0-58.16,24.72-58.06,59.84,1,39.63,25.15,58.6,58.07,58.61,32.15,0,57.06-18,58.12-59.62C997.25,674.28,972.09,649.51,938.25,649.55Zm-.14,98.31c-22.5-.12-37.22-15.84-37.1-39.63.12-23.07,15.18-39,37-39.05,22.41-.11,37.32,15.62,37.33,39.4C975.4,732.61,960.81,748,938.11,747.86Z"/><path class="haproxy-3" d="M640.81,757.14c-13.66-30.4-28-60.5-40.66-91.33-4.73-11.56-10.87-15.15-22.58-14.07-5.86.55-8.6,2.23-10.81,7.52C561.05,673,554.68,686.43,548.57,700c-8.81,19.59-17.67,39.16-26.35,58.81-.83,1.88-4.33,4.86.43,6.25,11.71,3.42,20.11-.63,25.14-11.75a32.52,32.52,0,0,0,2.06-4.51c1.18-4.23,4-5.16,8.08-5.11q24,.32,48,0c4.24-.06,7,1.11,7.82,5.3,3,14.38,12.21,18.62,25.71,16.18,1.08-.2,2.19-.17,4.39-.33C642.61,761.64,641.81,759.35,640.81,757.14ZM598.5,723.82c-12.1,0-24.19,0-37.58,0l20.88-48c7.29,16.66,13.93,31.84,20.81,47.55C600.56,723.59,599.53,723.82,598.5,723.82Z"/><path class="haproxy-2" d="M754.91,681.73c-4.1-18.05-18.76-29.48-39.55-30-15.73-.4-31.49.26-47.22,0-6-.11-7.3,2.18-7.19,7.72.34,16.29.12,32.59.12,48.88v44.75c0,12.08,0,11.6,12.44,12.23,7.37.37,9.66-1.78,9.12-9.13-.56-7.63-2.66-17.79,1.21-22.42,4.49-5.38,15-1.56,22.85-1.75,10-.23,19.93-.16,29-5C751.73,718.39,759.2,700.66,754.91,681.73Zm-36.39,30c-10.63,1-21.42.35-32.14.54-3.57.07-3.94-2.06-3.92-4.79,0-5.23,0-10.45,0-15.68,0-19.51,0-19.52,19.7-19.51,4.68,0,9.36-.13,14,.11,10.63.56,18,7.86,18.74,18.22C735.66,701.5,729.24,710.66,718.52,711.69Z"/><path class="haproxy-4" d="M815.17,215.48,748.71,147.1"/><path class="haproxy-5" d="M605.57,162.89l52,69.12"/><path class="haproxy-4" d="M815.17,215.57l65.73-69.13m13.74,145.42,78-59.84m-78,59.75,78,62.46m-91,78.91-66.45-67.06m-66.46,67.06,66.46-67.06M657.68,351.6l75.13-59.83m-75.12-59.86,75.13,59.84m82.35-76.28-157.5,16.44m157.5-16.43,157.49,16.43"/><path class="haproxy-4" d="M894.64,291.77,880.89,146.44m13.75,145.33-13,141.36"/><path class="haproxy-4" d="M972.65,354.23,815.16,366.05M657.68,351.59l157.5,14.55"/><path class="haproxy-4" d="M748.71,433.14l-16-141.37m16-144.66-16,144.65"/><path class="haproxy-5" d="M585.44,250.33l72.25-18.41M672.85,97.8l75.95,49.31m17.25-80.22-17.34,80.22m17.34-80.22,114.84,79.55"/><path class="haproxy-5" d="M863.57,66.89l17.32,79.55M956.76,97.8l-76,48.66m143.86,16.43L880.89,146.44m91.76,85.48,52-69.12m-52,69.12,73.69,18.41"/><path class="haproxy-5" d="M972.65,231.92l72.26,100m-181.34-265L748.7,147.11"/><path class="haproxy-5" d="M972.65,231.92l-16-134.13m16,256.44,72.26-22.36"/><path class="haproxy-5" d="M972.65,354.23l73.69-103.9m-73.69,103.9,52,63.78m-52-63.78-16,128.86m-75-49.95,75.13,50"/><path class="haproxy-5" d="M881.63,433.14l143-15.13m-143,15.13-17.22,80.77m17.22-80.77L766.05,513.91m-17.34-80.77,17.34,81"/><path class="haproxy-5" d="M748.71,433.14l115.7,80.77m-115.6-80.77-75.95,50m75.95-50L605.57,418.66m52.11-67.06-52.11,67.06"/><path class="haproxy-5" d="M657.68,351.6l15.17,131.5M657.68,351.6l-72.95-20.38m72.95-99.3-72.95,99.29"/><path class="haproxy-5" d="M657.68,351.6,585.43,250.34M672.85,97.81,657.68,231.94"/><path class="haproxy-5" d="M605.57,162.89l143-15.78"/><path class="haproxy-6" d="M672.85,97.8,617.23,74.13M672.85,97.8l-4.32-55.23m97.52,24.32L668.53,42.57"/><path class="haproxy-6" d="M766.05,66.89l-41.9-46.68m41.9,46.68,17.33-56M672.85,97.8l51.29-77.59M863.57,66.89l-80.19-56"/><path class="haproxy-6" d="M863.57,66.89,845.42,9M766,66.88,845.42,9m18.15,57.85,41.9-46.68m51.29,77.59L905.38,20.21"/><path class="haproxy-6" d="M956.76,97.8l5.06-55.23M863.57,66.89,961.8,42.56m-5,55.24,57-26.31m-57,26.31,99,13.81"/><path class="haproxy-6" d="M1024.67,162.89l31.06-51.28m-31.06,51.28-10.84-91.4m10.84,91.4,65-4.61m-65,4.61,88.94,46"/><path class="haproxy-6" d="M1046.34,250.33l43.34-92.05m-43.34,92.05,67.18-41.42m-67.18,41.42,75.13,13.81m-76.58,67.73,76.58-67.73"/><path class="haproxy-6" d="M1044.89,331.87l78.75-13.15m-77.3-68.39,77.3,68.39m-78.75,13.15,67.18,40.77M1024.67,418l87.41-45.37"/><path class="haproxy-6" d="M1024.67,418l64.3,5.91m-44-92.05,44,92.05m-64.2-5.91,30.34,51.84M1024.77,418l-11.56,90.73"/><path class="haproxy-6" d="M1013.11,508.74l-56.35-25.65m0,0,4.34,57.31m-4.34-57.31L1055,469.94m-98.24,13.15L905.38,562"/><path class="haproxy-6" d="M864.41,513.91l41,48m-41-48,96.8,26.31m-96.8-26.31-19,59.18m19-59.18L783.5,573.09"/><path class="haproxy-6" d="M766.05,513.91l17.34,59.18m-17.34-59.18,79.37,59.18m-79.37-59.18-41.17,48m-52-78.82,52,78.91"/><path class="haproxy-6" d="M766.05,513.91l-98.24,27.62m5-58.44-5.06,58.53m5.06-58.53-56.34,28.27m-10.94-92.7,10.84,92.71"/><path class="haproxy-6" d="M672.85,483.09l-99-12.47m31.68-52-31.78,51.85m31.78-51.85-65,5.91m65-5.91-89.48-45.37m68.63-42.08-68.63,42.08m68.63-42.08-78-12.49"/><path class="haproxy-6" d="M584.72,331.21l-44,93.37m44.69-174.25-78.75,68.39"/><path class="haproxy-6" d="M584.72,331.21l-78-67.07m78.75-13.81-67.19-40.76"/><path class="haproxy-6" d="M585.44,250.33l-78.75,13.81m78.75-13.81-44.79-92.05"/><path class="haproxy-6" d="M605.57,162.89l-65-4.61m65,4.61-87.31,46.68m87.31-46.68-31-48.65m31,48.65,11.57-88.78"/><path class="haproxy-6" d="M672.85,97.8l-98.26,16.44"/><path class="haproxy-7" d="M694.14,326l.53-69.13,76,.48-.53,69.13Zm82.22-76.15.53-69.13,76,.48-.53,69.13Zm0,151.62.53-69.12,76,.48-.53,69.13Zm82.95-76.13.53-69.13,76,.49-.53,69.12Z"/><path class="haproxy-8" d="M854.91,170.49l.37-48,53,.34-.37,48Zm-132.41,0,.37-48,53,.34-.37,48ZM630.84,256l.37-48,53,.34-.37,48Zm-.06,120.58.55-48,52.94.5-.55,48Zm315.77-.9.37-48,53,.33-.37,48Zm1.07-119.34.55-48,53,.5-.55,48Z"/><path class="haproxy-9" d="M587.92,178.55l.24-31.56,34.6.22-.24,31.56Zm67.65-64.23.24-31.57,34.61.22-.24,31.56Zm93.14-31.78L749,51l34.61.22-.24,31.56ZM567.54,266l.24-31.56,34.38.22-.24,31.56Zm439.64-118.54,34.68-.21.24,31.49-34.68.22ZM939.5,82.12l34.67-.22.24,31.5-34.67.22Zm-93.44-31,34.67-.22.24,31.5-34.67.22Zm181.28,183.6,34.68-.21.24,31.49-34.68.22Z"/><path class="haproxy-8" d="M721.77,458.43l.37-48,53,.34-.37,48Zm132.41,0,.37-48,53,.34-.37,48Z"/><path class="haproxy-9" d="M1007,434.14l.24-31.56,34.61.22-.24,31.56ZM940,499l.24-31.56,34.6.22-.24,31.56Zm-93.14,31.11.24-31.56,34.6.21-.24,31.57Zm180.44-183.41.24-31.56,34.61.22-.24,31.56ZM588,402.58l34.67-.22.24,31.5-34.67.22Zm67.67,64.65,34.68-.22.24,31.5-34.68.22Zm92.7,31L783,498l.24,31.5-34.68.22ZM567.8,315.26l34.68-.22.24,31.5-34.68.22Z"/><path id="B" class="haproxy-10" d="M1079.7,166.74l.13-17.1,19.15.12-.13,17.1Z"/><path class="haproxy-10" d="M1104.43,218.39l.13-17.1,19.15.12-.13,17.1Z"/><path class="haproxy-10" d="M1046.25,121.05l.13-17.1,19.14.11-.13,17.1Z"/><path class="haproxy-10" d="M607.57,82l.13-17.1,19.15.12-.13,17.1Z"/><path class="haproxy-10" d="M497.71,272.66l.13-17.1,19.15.12-.13,17.1Z"/><path class="haproxy-10" d="M1004.05,82l.13-17.1,19.15.12-.13,17.1Z"/><path class="haproxy-10" d="M508.64,218.37l.13-17.1,19.14.12-.13,17.1Z"/><path class="haproxy-10" d="M715.22,29l.13-17.1L734.5,12l-.13,17.1Z"/><path class="haproxy-10" d="M531.9,166.73l.13-17.1,19.15.11-.13,17.1Z"/><path class="haproxy-10" d="M566.1,120.39l.13-17.1,19.15.12-.13,17.1Z"/><path class="haproxy-10" d="M658.84,33.93l18.79-.12.13,17.43L659,51.35ZM774.88.31,793.67.19l.13,17.43L775,17.74Z"/><path class="haproxy-10" d="M953.12,51.53l.13-17.1,19.14.12-.13,17.1Z"/><path class="haproxy-10" d="M1113.9,272l.13-17.1,19.15.12-.13,17.1Z"/><path class="haproxy-10" d="M836,17.1,836.12,0l19.15.12-.13,17.1Z"/><path class="haproxy-10" d="M895.65,28.35l.13-17.1,19.15.12-.13,17.1Z"/><path class="haproxy-10" d="M1004,517.67l.13-17.1,19.15.12-.13,17.1Z"/><path class="haproxy-10" d="M1113.9,327l.13-17.1,19.15.12-.13,17.1Z"/><path class="haproxy-10" d="M607.55,517.66l.13-17.1,19.15.12-.13,17.1Z"/><path class="haproxy-10" d="M1104.43,382l.13-17.1,19.15.12-.13,17.1Z"/><path class="haproxy-10" d="M895.63,571.31l.13-17.1,19.15.11-.13,17.1Z"/><path class="haproxy-10" d="M1079.69,433.58l.13-17.1,19.15.12-.13,17.1Z"/><path class="haproxy-10" d="M1046.24,479.93l.13-17.1,19.14.12-.13,17.1Z"/><path class="haproxy-10" d="M952.35,532.41l18.79-.12.13,17.43-18.79.12ZM837,564.7l18.79-.12.13,17.43-18.79.12Z"/><path class="haproxy-10" d="M659.21,550.11l.13-17.1,19.15.12-.13,17.1Z"/><path class="haproxy-10" d="M531.17,432.9l.13-17.1,19.15.12-.13,17.1Z"/><path class="haproxy-10" d="M508.62,381.93l.13-17.1,19.14.12-.13,17.1Z"/><path class="haproxy-10" d="M565.35,479.91l.13-17.1,19.15.12L584.5,480Z"/><path class="haproxy-10" d="M497.71,327l.13-17.1L517,310l-.13,17.1Z"/><path class="haproxy-10" d="M775.6,581.89l.13-17.1,19.15.12-.13,17.1Z"/><path class="haproxy-10" d="M714.5,570.63l.13-17.1,19.15.12-.13,17.1Z"/></svg>