<svg id="Layer_1" data-name="Layer 1" xmlns="http://www.w3.org/2000/svg" viewBox="0 0 1366 768"><defs><style>.kubs-1{fill:#456ab2;}.kubs-2{fill:#999;}.kubs-3{fill:#bcbcbc;}.kubs-4{fill:#a0a0a0;}.kubs-5{fill:#f0f0f0;}.kubs-6{fill:#ccc;}.kubs-7{fill:#ababab;}.kubs-8{fill:#eee;}.kubs-9{fill:#f3f3f3;}.kubs-10{fill:#f5f5f5;}.kubs-11{fill:#dedede;}.kubs-12{fill:#f4f4f4;}.kubs-13{fill:#f2f2f2;}.kubs-14{fill:#f6f6f6;}.kubs-15{fill:#ebebeb;}.kubs-16{fill:#bebebe;}.kubs-17{fill:#e8e8e8;}.kubs-18{fill:#e9e9e9;}.kubs-19{fill:#fefefe;}.kubs-20{fill:#a3a3a3;}.kubs-21{fill:#b3b3b3;}.kubs-22{fill:#bababa;}.kubs-23{fill:#ddd;}.kubs-24{fill:#dbdbdb;}.kubs-25{fill:#dfdfdf;}.kubs-26{fill:#dcdcdc;}.kubs-27{fill:#dadada;}.kubs-28{fill:#e5e5e5;}.kubs-29{fill:#b2b2b2;}.kubs-30{fill:silver;}.kubs-31{fill:#aeaeae;}.kubs-32{fill:#456bb2;}.kubs-33{fill:#c6c6c6;}.kubs-34{fill:#cacaca;}</style></defs><title>kubernetes</title><path class="kubs-1" d="M714.88,726.32c-48.6,0-97.2.18-145.8-.11a45,45,0,0,1-35.51-17.08c-28.6-35.08-56.86-70.44-85.24-105.7Q401,544.65,353.65,485.89c-11.07-13.65-14.5-28.84-10.61-45.77q25.8-112.36,51.68-224.71c4-17.39,7.95-34.79,12.07-52.15,3.6-15.18,12.26-26.68,26.34-33.46q79.2-38.12,158.55-75.87c33.38-16,66.81-31.8,100.14-47.85,15.86-7.64,31.46-7.78,47.38-.16Q868.35,67.68,997.57,129.29c14.22,6.81,23.46,18.17,27,33.5q32.36,139.88,64.32,279.83c3.41,15,.13,29-9.55,41.11q-34.68,43.41-69.59,86.65Q955.56,637.81,901.4,705.24c-11.3,14.13-25.55,21.21-43.74,21.14C810.06,726.19,762.47,726.32,714.88,726.32Z"/><path class="kubs-2" d="M538.38,733.81c10.64,5.91,22.07,7.37,34.15,7.34q144.09-.33,288.16,0c21.23.09,37.14-7.92,50.21-24.4,37.52-47.31,75.58-94.18,113.41-141.24q34.93-43.45,69.81-87c10.25-12.86,13.45-27.69,9.84-43.58-12-52.89-24.36-105.7-36.53-158.56q-14.17-61.62-28.25-123.26c-.35-1.53-.92-3-1.38-4.52,2-2.24,2.69,0,3.35,1.12a50.74,50.74,0,0,1,5.35,14.09q4.88,19.88,9.34,39.86c3.76,16.83,7.66,33.64,11.53,50.45,2.94,12.75,6,25.48,8.8,38.24,3.65,16.41,7.65,32.73,11.29,49.14,3.54,16,7.32,31.95,11,47.91q4.52,19.31,8.8,38.66c2.06,9.26,4.63,18.4,6.16,27.77a48.57,48.57,0,0,1-5.38,31.72c-13.14,16.94-26.79,33.5-40.22,50.22-21,26.15-41.86,52.43-63.16,78.34a14.14,14.14,0,0,0-3,3.58c-1.36,2.37-3.54,4.15-4.72,6.65a5.39,5.39,0,0,1-.62,1c-.84.8-1.84,1.42-2.63,2.3-7.69,9.3-15.12,18.81-22.67,28.23a49.15,49.15,0,0,1-3.71,4.19,13.83,13.83,0,0,0-2.91,3.59c-5.64,7.62-12,14.71-17.75,22.21a15.36,15.36,0,0,0-2.86,3.37,9.78,9.78,0,0,1-1,1.28,15.92,15.92,0,0,0-2.66,3.4c-1.72,2-3.06,4.28-5,6.09a14,14,0,0,0-2.82,3.62c-7,8.78-13.65,17.79-21.43,25.9a31.24,31.24,0,0,1-6.75,5.36A47.38,47.38,0,0,1,877,755.19c-36.92.09-73.83,0-110.75,0q-94.53,0-189.06,0c-14.43,0-26.6-5.33-36.5-15.81C539.2,737.89,537.35,736.39,538.38,733.81Z"/><path class="kubs-3" d="M342.78,496c15.8,18.27,30.46,37.46,45.69,56.18,17.43,21.42,34.65,43,51.94,64.53,18.37,22.88,36.53,45.92,55.14,68.59,11.95,14.56,22.95,29.89,35.95,43.57a110.11,110.11,0,0,0,20.2,20.38,52.75,52.75,0,0,0,27.27,7q147.71,0,295.4,0c9.83,0,19.17-1.91,27.74-6.87.4-.24.81-.49,1.2-.75.89-.57,1.89-1,2.76-1.62.31-.23.64-.44,1-.64a6.8,6.8,0,0,0,2.75-2.62,22.31,22.31,0,0,1,5.33-5.29c1.38-.62,2.24-2.55,4.21-1.71a2.17,2.17,0,0,1,.08,1.86c-2.77,3.84-6.35,6.9-9.75,10.14-10.62,7.77-22.5,10.9-35.65,10.88q-147.87-.21-295.73,0a55.64,55.64,0,0,1-32.81-10.12c-7.06-5.53-12.55-12.52-18.15-19.44-13.26-16.39-26.34-32.93-39.65-49.28-8.22-10.54-16.5-21-25.15-31.23-13.43-17.23-27.3-34.11-41-51.14-7.65-9.53-15.18-19.14-23.07-28.48-12.61-15.84-25.38-31.57-38-47.38-5.74-7.17-12-13.94-16.73-21.9C342.86,499.24,341.48,497.85,342.78,496Z"/><path class="kubs-4" d="M549.6,748.8a90.72,90.72,0,0,1-17.81-18.22c-.4-.54-1.15-1-.29-1.74l6.88,5c3,6.45,8.67,10.27,14.34,13.81,9.75,6.09,20.79,6.45,32,6.44q145.5-.13,291,0c10.28,0,19.8-2.49,28.33-8.38a3.48,3.48,0,0,1,1.25-.28,2.43,2.43,0,0,1,0,2.12,3.28,3.28,0,0,1-.93,1.34h0c-8.78,5.49-18.36,7.83-28.71,7.83q-148.92-.09-297.83,0A52.27,52.27,0,0,1,549.6,748.8Z"/><path class="kubs-5" d="M899.2,757.47l-2.59.87c-2.73,1.38-5.86,1.45-8.66,2.59a23.42,23.42,0,0,1-7.22.89q-152.79,0-305.57-.05c-17.42,0-31.11-8.06-42.31-20.79-3.88-4.4-7.31-9.19-10.94-13.8-.61-1.66-2.92-2.29-2.7-4.45a2.09,2.09,0,0,1,1.14-.37c4.12,2.55,6.23,6.91,9.24,10.44,5,5.84,9.7,12,16,16.47a49,49,0,0,0,17.83,8.43c1.4.95,3.13.4,4.62,1a4.29,4.29,0,0,0,1.47.47c23.35.14,46.69.05,70,.06q119.51,0,239,0c2.15,0,4.32.28,6.44-.34,5-.75,9.54-3.23,14.63-3.57C900.94,756.31,899.92,756.86,899.2,757.47Z"/><path class="kubs-6" d="M1035.93,150c-1-.61-.79-1.66-.91-2.59,1.36-2.34,2.29-.23,2.91.49a49.42,49.42,0,0,1,6.83,9.4c5.44,9.42,7,20.07,9.33,30.42q7.47,32.58,15,65.15,17.3,75,34.52,150.08c4.5,19.47,9.12,38.92,13.44,58.44,3.69,16.7.13,31.95-9.86,45.76a5.63,5.63,0,0,1-3.36,3.32,2.28,2.28,0,0,1-1.31-.23,2.41,2.41,0,0,1-.69-1.78,10.73,10.73,0,0,1,.8-3.05c1-2,2.6-3.71,3.86-5.59a12.61,12.61,0,0,1,1.35-1.48c6.89-11.32,8.07-23.57,5.29-36.2-5-22.9-10.5-45.7-15.74-68.55Q1083.49,333,1069.52,272.5c-.22-1.56,0-3.16-.57-4.68-.89-3.51-1.45-7.12-2.76-10.52a6.31,6.31,0,0,1-.64-1.13,28.36,28.36,0,0,1-1.26-5.69c-.09-1.87.07-3.8-1.26-5.38a25.86,25.86,0,0,1-1.33-5.74c-.14-1.89.11-3.86-1.25-5.47a25.46,25.46,0,0,1-1.34-5.77c-.12-1.92.06-3.91-1.28-5.55a8,8,0,0,1-.55-2.68c0-5.7-2.1-11-3.22-16.45-1.48-7.32-3.42-14.54-5-21.85-.62-2.5-.86-5.12-2.43-7.3-.6-2.49-1.63-4.86-2.17-7.36-.28-3.71-1.48-7-4.43-9.44a4.86,4.86,0,0,1-1.36-2C1038.71,153.22,1036.87,151.84,1035.93,150Z"/><path class="kubs-7" d="M1065.34,250.38q.45,3,.88,6c1.26,1.18.53,2.95,1.29,4.28.53,2.28,1.09,4.54,1.67,6.8.74,1.4.27,3,.77,4.46a7.85,7.85,0,0,1,.21,1.36c6,25.06,11.68,50.21,17.49,75.32,5.55,24,11.12,47.94,16.51,71.94,3.55,15.87,8.1,31.53,10.47,47.64,1.65,11.19-.92,21.73-6.86,31.4l-.86.88a1.91,1.91,0,0,1,0-2.64c7-13.12,7.3-26.81,3.82-41s-6.58-28.42-9.89-42.63c-3.82-16.45-7.73-32.87-11.5-49.33-2.91-12.68-5.59-25.42-8.5-38.1-2.24-9.76-4.78-19.45-7-29.22-4.63-20.21-9.08-40.47-13.73-60.68-2.92-12.68-6.28-25.27-9-38-2.38-10.91-4.64-21.85-8.09-32.48a71.92,71.92,0,0,0-3.36-7.46c-.44-.95-1.09-.66-1.76-.35.47-1.49-1.82-2.84-.24-4.39,1-.51,1.33.39,1.82.94.3.56.6,1.13.91,1.69,2.78,2.61,3.64,6.26,5.15,9.55.42,2.62,2.07,5,1.76,7.77,1.27,2.15,1.37,4.67,2.17,7,.66,1.46.11,3.18,1,4.6,2.72,11.43,5.06,23,8.08,34.31,0,.85,0,1.71,0,2.57,1.38,1.47.55,3.67,1.71,5.21.3,2,.59,4,.89,6,1.38,1.47.55,3.67,1.71,5.21l.88,6C1065,246.64,1064.19,248.84,1065.34,250.38Z"/><path class="kubs-8" d="M1087,324.79q3.43,14.56,6.88,29.12c4,16.71,8.17,33.37,11.83,50.15,3.88,17.76,8.06,35.45,12.24,53.15,3.2,13.58,3.06,27.07-3.23,40-1.17,2.4-2,5.07-4.35,6.76a.68.68,0,0,1-1.1-.42c10.1-15.83,9.85-32.66,5.64-50.25q-12.62-52.69-24.5-105.57c-1.34-6-2.64-12-4.22-18a9.44,9.44,0,0,1-.42-4.62A.83.83,0,0,1,1087,324.79Z"/><path class="kubs-9" d="M1007.37,633.73C989.59,656,971.89,678.29,954,700.46c-11.22,13.92-22.68,27.63-34,41.43a35.77,35.77,0,0,1-6.92,6.93l-4.33,3.46c-1.06.56-1.93,1.66-3.36,1.11-.84-1.67.59-2.14,1.51-2.95,1.47-1.29,3.54-1.84,4.59-3.65a71,71,0,0,1,6.93-7,6.69,6.69,0,0,0,2.66-3.34,4.48,4.48,0,0,1,1-1.29,7,7,0,0,0,2.36-3,4.82,4.82,0,0,1,1.06-1.32,12.23,12.23,0,0,0,3.66-4.2c7.82-10,15.72-19.85,23.85-29.57,5.68-4.95,9.61-11.38,14.43-17a8.77,8.77,0,0,1,.67-.93,11.36,11.36,0,0,0,2.2-3.19,4.74,4.74,0,0,1,1.08-1.32,7.33,7.33,0,0,0,2.43-3.1,5.34,5.34,0,0,1,1.12-1.38,89.31,89.31,0,0,0,10-12.73c5.93-7.68,12.12-15.16,18.14-22.76,1.08-1.37,2.13-3.17,4.44-2.59A1.38,1.38,0,0,1,1007.37,633.73Z"/><path class="kubs-10" d="M1007.37,633.73V632c-.1-3.54,2.49-5.67,4.44-8,11.17-13.32,22-26.88,32.93-40.42,1.12-1.53,2.68-2.73,3.41-4.55a4.86,4.86,0,0,1,1-1.33,8.36,8.36,0,0,0,2.7-3.47c6.45-7.47,12.18-15.51,18.5-23.09a13.39,13.39,0,0,1,2.66-2.76,6.36,6.36,0,0,0,2.87-3.22,4.92,4.92,0,0,1,1.08-1.32c1.62-.85,2.38-3.23,4.78-2.71-1.88,4.43-5.47,7.62-8.36,11.29-10,12.7-20.32,25.2-30.46,37.81q-16.68,20.76-33.3,41.58A14.92,14.92,0,0,1,1007.37,633.73Z"/><path class="kubs-5" d="M1033.32,143.07c-.78-.5-1.18-1.19-1-2.68a55,55,0,0,1,13.92,16.26c5.47,9.55,7,20.29,9.48,30.74,5.56,23.58,11,47.18,16.41,70.78a14.72,14.72,0,0,1,.16,2.58c.48,1.17,1,2.34-.87,2.76-2.47-5.56-3.1-11.61-4.46-17.45-5.9-25.41-11.69-50.85-17.66-76.24a46.16,46.16,0,0,0-4.85-12c-1.87-4.53-5-8.15-8.45-11.55A22.68,22.68,0,0,1,1033.32,143.07Z"/><path class="kubs-11" d="M342.78,496c2,6.66,6.85,11.48,11,16.71,11.36,14.34,22.85,28.58,34.33,42.82,3.75,4.65,8.07,8.84,10.95,14.16a.63.63,0,0,1,.28.65q-.09.36-.21.36c-1.16.38-1.91-.33-2.67-1a6.38,6.38,0,0,1-.73-.9,19.12,19.12,0,0,0-2.82-3.47,8.28,8.28,0,0,1-.67-.89,18.49,18.49,0,0,0-2.76-3.41,6.38,6.38,0,0,1-.67-.88,11.44,11.44,0,0,0-3.29-3.6,4.56,4.56,0,0,1-1-1.31,7.09,7.09,0,0,0-2.4-3,4.86,4.86,0,0,1-1.06-1.33,7.09,7.09,0,0,0-2.42-3,5.27,5.27,0,0,1-1.06-1.34c-.63-1.92-2.23-3-3.56-4.4-10.21-12.41-20.49-24.77-30.15-37.61a35.86,35.86,0,0,1-5.32-10.32c-.36-1.11-1.54-2.69.81-3.24C340.12,492.88,342.6,493.63,342.78,496Z"/><path class="kubs-12" d="M339.31,491c-.48,5.91,3.15,10.2,6.33,14.34,9.51,12.39,19.41,24.48,29.16,36.68a1.89,1.89,0,0,1,0,2.59c-6.39-7.86-12.75-15.74-19.17-23.58-6.08-7.42-12.72-14.44-16.78-23.28-1.37-3-3.33-5.92-2.92-9.72A5.4,5.4,0,0,1,339.31,491Z"/><path class="kubs-9" d="M1071.43,263.36c1-.64.81-1.66.84-2.61,3,5.64,3.25,12.05,4.88,18.06,2.93,10.73,5.1,21.66,7.45,32.54,1,4.44,2.69,8.77,2.39,13.44h-.88c-2.41-.49-1.66-2.84-1.95-4.12q-6.47-28.08-13.07-56.14A1.46,1.46,0,0,1,1071.43,263.36Z"/><path class="kubs-9" d="M496,695.16c-6.09-7.4-12.21-14.78-18.26-22.2S465.61,658,459.61,650.54a24.3,24.3,0,0,1-1.74-3,1.82,1.82,0,0,1,1.11-.44c4.29,2.49,6,7.39,9.86,10.35,6.16,6.67,11.39,14.1,17.25,21,2.71,4.18,6.2,7.76,9.2,11.71a5.86,5.86,0,0,1,1.44,2.58A2.67,2.67,0,0,1,496,695.16Z"/><path class="kubs-8" d="M1081.79,541.13l-4.35,3.45c-.87-1-.42-2,.22-2.73,8.71-10.53,16.22-22,25.79-31.84a5.89,5.89,0,0,0,2.57-2.63,10.17,10.17,0,0,1,3.47-3.46h.87c-2.16,5.6-6.78,9.43-10.28,14.06C1094.16,525.83,1087.9,533.43,1081.79,541.13Z"/><path class="kubs-13" d="M458.75,647.57h-.88l-32-39.81c-.78-1.22-1.79-2.26-2.61-3.45l-.86-.87a1.38,1.38,0,0,1-.2-1.72c2.2-.74,3.14,1.08,4.07,2.31,3.65,4.86,7.73,9.38,11.39,14.23a9,9,0,0,0,2.44,3.7,10,10,0,0,1,1,1.3,14.89,14.89,0,0,0,2.41,3,10.54,10.54,0,0,1,1.08,1.32,20.39,20.39,0,0,0,2.84,3.51,7.47,7.47,0,0,1,.68.89,13,13,0,0,0,2.32,3,8.87,8.87,0,0,1,1,1.27,13.75,13.75,0,0,0,2.77,3.31,36.59,36.59,0,0,1,4.95,6.4A1.6,1.6,0,0,1,458.75,647.57Z"/><path class="kubs-9" d="M422.4,601.69c0,.58,0,1.17,0,1.75-6.23-6.34-11.33-13.64-17.07-20.39-2.22-2.62-4.2-5.44-6.29-8.17a2.46,2.46,0,0,1-.59-1.7,2,2,0,0,1,.59-1,1.53,1.53,0,0,1,1.52.77,51.52,51.52,0,0,0,7.83,9.41c4.89,5.15,8.92,11,13.51,16.39C422.64,599.57,423.39,600.49,422.4,601.69Z"/><path class="kubs-14" d="M399,573.15v1.73q-11.55-14.08-23.09-28.18c-.24-.3-.19-.83-.27-1.25,1.17-.61,1.85.21,2.58.88l.86.87c.79,1.21,1.81,2.25,2.61,3.46l.85.87c.79,1.21,1.81,2.25,2.61,3.45l.86.87c1,1.6,2.49,2.74,3.47,4.32h0c.94,1.61,2.49,2.74,3.46,4.33h0c.94,1.61,2.49,2.74,3.46,4.32h0C397.39,570.21,398.61,571.44,399,573.15Z"/><path class="kubs-14" d="M519.32,722.85c.6,1.6,2.68,2.32,2.59,4.33-5.59-5.14-9.89-11.39-14.6-17.27-3.62-4.52-7.89-8.58-10.49-13.89a2.23,2.23,0,0,1,2.27.17,3.78,3.78,0,0,1,.9.74,32.38,32.38,0,0,0,2.93,3.47,6.44,6.44,0,0,1,.68.9,18.43,18.43,0,0,0,2.79,3.44,7.14,7.14,0,0,1,.67.89,16.63,16.63,0,0,0,2,2.68c.25.3.48.61.7.93a69.66,69.66,0,0,0,7.19,8.61,9.78,9.78,0,0,1,1.11,1.37C518.58,720.4,520,721.29,519.32,722.85Z"/><path class="kubs-15" d="M1033.32,143.07c4.76,3.8,8.79,8.18,11.26,13.85-.29.41-.58.41-.88,0-2.06-2.69-4.1-5.41-6.21-8.07-.6-.75-.9-2.26-2.47-1.45A5.17,5.17,0,0,1,1033.32,143.07Z"/><path class="kubs-12" d="M905.25,753.14l3.47-.86c-2.42,3.1-6,4-9.52,5.19l.87-1.74C900.88,753,902.65,752.27,905.25,753.14Z"/><path class="kubs-12" d="M913.05,748.82a32.48,32.48,0,0,1,6.92-6.93A11.5,11.5,0,0,1,913.05,748.82Z"/><path class="kubs-16" d="M1039.38,155.2l-1.82-.94c-.73-1.35-1.93-2.52-1.63-4.27C1037.81,151.24,1039.63,152.53,1039.38,155.2Z"/><path class="kubs-12" d="M888,760.93c2.6-1.81,5.67-2.06,8.66-2.59C894.12,760.54,891,760.65,888,760.93Z"/><path class="kubs-17" d="M378.25,546.33l-2.58-.88-.86-.87c0-.86,0-1.72,0-2.59C376.41,543.08,378.06,544.13,378.25,546.33Z"/><path class="kubs-18" d="M499.41,696.9l-2.59-.88-.86-.86c0-.87,0-1.73,0-2.59C498.36,693,500,694.05,499.41,696.9Z"/><path class="kubs-9" d="M423.25,604.31c1.4.75,2.54,1.7,2.61,3.45C424.47,607,423.33,606.05,423.25,604.31Z"/><path class="kubs-19" d="M704,153.09a227.48,227.48,0,0,0-3.34-30.1c-.89-5.27-1.26-10.63.23-15.84,2.29-8.09,8.92-12.57,16.85-11.72,7,.75,12.91,7.56,13.57,15.25s-1.1,15.18-2.16,22.72a154.55,154.55,0,0,0-1.69,24.13c.06,3.32.73,6.32,3.35,8.54,1.88,1.59,2.22,3.64,2.07,5.86s.63,2.94,2.89,3.19q72.24,7.94,123.66,59.35c2.27,2.27,3.86,2.43,6,.34a6,6,0,0,1,5.12-1.74c3.82.51,7-.91,9.92-3.29A196.82,196.82,0,0,0,902,209.06a69.94,69.94,0,0,1,11-10.3c7.85-5.48,17.65-4.51,22.92,2.27,5.12,6.58,3.37,16.6-3.89,22.77a78.44,78.44,0,0,1-13,8.48,158.54,158.54,0,0,0-24.81,16.48c-2.65,2.23-4.66,4.76-4.59,8.4,0,2.24-1.48,3.4-3,4.48-2.35,1.71-2.33,3.18-.73,5.65a198.21,198.21,0,0,1,28.37,70,190.24,190.24,0,0,1,2.37,63.19c-.4,2.92.37,4.31,3.2,4.71a4.24,4.24,0,0,1,3.35,1.74c3.38,5.82,9.18,6.85,15.07,7.94,10.22,1.91,20.6,2.24,30.9,3.29a48.77,48.77,0,0,1,8.86,1.84c8.31,2.5,13.26,10.14,12,18.15-1.18,7.28-7.91,12.24-16.54,12.23-5.6,0-10.76-1.74-15.83-3.86-10.5-4.4-21.15-8.35-32.37-10.56-2.09-.41-4.15-.46-5.87.62-2.8,1.78-5.5,2.67-8.87,1.64-2.55-.78-2.51,1.77-3,3.25a201.63,201.63,0,0,1-30.2,57,197.34,197.34,0,0,1-54.62,49.83c-2.89,1.77-3.92,3.41-2.19,6.44.63,1.11,1.18,2.31.46,3.67-2.23,4.23-.68,8.08,1.22,11.9a172.85,172.85,0,0,0,14.56,24,65.63,65.63,0,0,1,8.06,13.75c3.53,8.8.56,17.94-7,21.57s-16.87,0-21.47-8.4c-4.34-7.94-5.7-16.88-8.87-25.21C805.17,590,803,583.9,800,578.15c-1.49-2.82-3.53-5-6.63-5.79a5,5,0,0,1-3.71-3.28c-1.09-3.09-2.84-3.15-5.67-2.11a190.35,190.35,0,0,1-52.21,11.17,199.54,199.54,0,0,1-83.64-11.43c-3.36-1.23-4.95-.82-6.12,2.41-.42,1.18-1.07,2.5-2.5,2.8-5.75,1.18-8,5.78-10,10.43a222.56,222.56,0,0,0-8.9,25.22c-1.5,5.14-3.11,10.2-5.84,14.82-4.57,7.72-13.47,11-20.7,7.71-7.44-3.41-10.67-12.45-7.51-21.06a58.11,58.11,0,0,1,7.62-13.49,165.78,165.78,0,0,0,16.34-27.43c.92-2,1.86-4.11,1.09-6.23-1.25-3.43-1.38-6.63.53-9.84,1.52-2.56-1.06-2.89-2.29-3.66a210.43,210.43,0,0,1-35-27.35,199.14,199.14,0,0,1-50.3-79.1c-.94-2.73-1.78-4.33-5-3.11a5.91,5.91,0,0,1-5.37-.74c-3.38-2.21-7-2-10.82-1.15a178.06,178.06,0,0,0-28.21,9.46,66.72,66.72,0,0,1-14.43,4.38c-8.33,1.49-16.62-3.37-18.81-10.93s2-15.61,9.95-18.85c5-2,10.26-2.64,15.63-2.92a178.81,178.81,0,0,0,32.08-4.16c2.46-.59,4.73-1.55,6.22-3.62,1.92-2.66,4.08-4.65,7.52-5.25,3.12-.55,1.78-3.23,1.58-5a197.28,197.28,0,0,1-1.44-29.76A200.59,200.59,0,0,1,545,267.56c1.75-2.76,1.89-4.42-.92-6.18a3.84,3.84,0,0,1-2.13-3.08c-.2-5.11-3.27-8.35-7.11-11.22a188,188,0,0,0-23.26-14.94A65.16,65.16,0,0,1,499,223.73c-7-6.25-8.57-15.87-3.51-22.47s15.26-7.68,23-2.19a70.73,70.73,0,0,1,11.3,10.65c6.85,7.6,14,14.93,22.18,21.15,2.64,2,5.46,3.17,8.83,2.47,1.31-.28,2.65-.33,3.64.73,3.3,3.53,5.44,1.68,8.23-1.08q51-50.46,122.47-57.92c2.52-.26,3.73-1,3.48-3.62-.12-1.28-.18-2.81.79-3.71C704.46,163,704.31,157,704,153.09Z"/><path class="kubs-4" d="M904.42,747.14l.84-1.79c6.79-5.35,11.85-12.27,17.25-18.89,3.14-3.84,6.38-7.6,9.57-11.39.81-1.2,1.83-2.24,2.6-3.46,1.84-1.93,2.71-4.68,5.19-6.06.81-1.2,1.83-2.24,2.6-3.46l.86-.87c.81-1.19,1.83-2.24,2.6-3.46,5.6-7.87,11.82-15.23,18.17-22.5.81-1.19,1.82-2.24,2.6-3.46q12.56-15.79,25.14-31.57a9.6,9.6,0,0,1,1.68-1.32,2.15,2.15,0,0,1,.69,1.69c-1.67,5.26-6.05,8.61-9.27,12.76-6.5,8.39-12.92,16.85-19.82,24.93a9,9,0,0,1-.68.94,23.32,23.32,0,0,0-3.23,3.91,9.49,9.49,0,0,1-1.06,1.31,14.53,14.53,0,0,0-3.44,4.39c-9,11.57-18.21,23-27.42,34.42-4.41,5.47-8.7,11-13.68,16a19.37,19.37,0,0,0-5.17,5.16c-1.19.83-2.25,1.83-3.46,2.63h0A2,2,0,0,1,904.42,747.14Z"/><path class="kubs-20" d="M1106.88,497.86l0,2.64c-1.17,1.72-2.35,3.43-3.52,5.14-4.76,6.32-9.94,12.3-14.59,18.7a7.2,7.2,0,0,1-.69.95,21.71,21.71,0,0,0-2.92,3.56,7.2,7.2,0,0,1-.69.95,96.43,96.43,0,0,0-6.23,7.75,9.64,9.64,0,0,1-.71,1c-9.92,10.86-18.44,22.83-27.68,34.24-3,3.68-6.26,7.13-9,11-8.64,11.53-18,22.49-26.85,33.85-2.81,3.6-5.3,7.54-9.17,10.23a1.59,1.59,0,0,1-1.18-.22,1.37,1.37,0,0,1,.21-1.72Q1028,596,1052.07,566.06c9.75-12.17,19.3-24.5,29.14-36.6,8.21-10.11,16.61-20.06,24.29-30.6A6,6,0,0,1,1106.88,497.86Z"/><path class="kubs-21" d="M1003.92,627.67c5.8-5.51,10.36-12.06,15.33-18.27,7-8.67,14-17.25,21-25.87a.8.8,0,0,1,1.09,0c.79,1.87-.63,2.93-1.57,4.13-11,14-22.5,27.63-33.42,41.7-1.15,1.55-2.78,2.75-3.42,4.68a4.73,4.73,0,0,1-.67,1c-9.5,10.64-18,22.09-27,33.13-3.09,3.77-5.75,8-10,10.71a1.41,1.41,0,0,1-1.16-.2c2.34-4.78,6.35-8.3,9.51-12.46,6.52-8.63,13.27-17.08,19.92-25.6a14,14,0,0,1,2.59-3.48c0-.28,0-.56,0-.84C999.19,633.86,1000.87,630.16,1003.92,627.67Z"/><path class="kubs-20" d="M1003.92,627.67c-2.09,3.35-3.64,7.17-7.78,8.67.88-3,3.19-4.82,5.17-6.94.79-.7,1-2.28,2.6-1.74Z"/><path class="kubs-20" d="M996.12,637.18c-.06,1.76-1.21,2.7-2.59,3.48,0-.59,0-1.17,0-1.75A2.64,2.64,0,0,1,996.12,637.18Z"/><path class="kubs-4" d="M966.7,671.8c-.07,1.75-1.21,2.7-2.6,3.46C964.17,673.51,965.31,672.56,966.7,671.8Z"/><path class="kubs-4" d="M945.93,697.76c-.07,1.75-1.21,2.7-2.6,3.46C943.41,699.47,944.54,698.52,945.93,697.76Z"/><path class="kubs-4" d="M942.47,702.09c-.07,1.75-1.21,2.7-2.6,3.46C939.94,703.8,941.08,702.85,942.47,702.09Z"/><path class="kubs-4" d="M934.68,711.61c-.07,1.75-1.21,2.7-2.6,3.46C932.16,713.32,933.29,712.37,934.68,711.61Z"/><path class="kubs-4" d="M1003.91,627.66l-2.6,1.74c.07-1.75,1.21-2.7,2.6-3.47Z"/><path class="kubs-22" d="M549.6,748.8c5.95,2,11.26,5.74,17.74,6.44a49.32,49.32,0,0,0,5.55.5h308.2c5.84,0,11.31-1.69,16.61-4,2.23-1,4.2-2.53,6.69-2.92-5.32,4.85-12,6.43-18.78,7.76s-13.75.89-20.64.89q-144.26,0-288.49-.08C566.81,757.36,557.42,755.25,549.6,748.8Z"/><path class="kubs-23" d="M905.25,753.14a9.83,9.83,0,0,0-5.18,2.59c-4.76.58-9,3.18-13.82,3.48-1.51.77-3.12.39-4.68.39q-154.56,0-309.13,0c-1.56,0-3.17.39-4.67-.39h0c-1.29-1.08-3,.14-4.33-.87-6.8-1.32-13-3.82-18.18-8.62-.47-.51-1.38-.81-.85-1.79,5.66,2.73,10.78,6.5,17,8.19a52.88,52.88,0,0,0,14,2.25q150.24-.06,300.48,0a53.87,53.87,0,0,0,31.62-9.57c.95-.65,2-1.16,3-1.73a1.2,1.2,0,0,1,1.75,0C910.74,750.1,906.93,750.4,905.25,753.14Z"/><path class="kubs-24" d="M399.9,573.15l-.87-.88a1.16,1.16,0,0,1,0-1.71l0-.9c5.58,5,9.75,11.24,14.45,17q18.88,23.16,37.41,46.64c4.16,5.25,8.94,10,12.2,16a1.57,1.57,0,0,1-1,.45c-1.53-.94-2.16-2.65-3.34-3.89-2.45-1.4-3.35-4.14-5.18-6.07-.78-1.22-1.79-2.27-2.61-3.45l-.85-.87c-.78-1.23-1.79-2.27-2.6-3.47h0c-.94-1.61-2.48-2.74-3.47-4.32l-.86-.87c-.77-1.22-1.78-2.27-2.6-3.45l-.86-.87c-.78-1.23-1.78-2.28-2.6-3.46-5-5.67-8.84-12.37-14.7-17.33-3.37-6.09-8.39-10.93-12.55-16.41-.68-.9-1.44-1.75-2.16-2.61C405.12,579.46,402.49,576.32,399.9,573.15Z"/><path class="kubs-25" d="M544.41,747.93l.85,1.78c-5.06-2.6-8.4-7.1-12-11.22-4.48-5.1-8.71-10.42-13-15.64-.82-1.19-1.77-2.28-2.62-3.45l-.86-.87c-2.54-3.21-5.19-6.34-7.78-9.52h0c-.77-1.23-1.79-2.26-2.6-3.46h0c-.93-1.62-2.48-2.74-3.46-4.33h0c-.94-1.61-2.48-2.75-3.46-4.32h0c-.21-2.2-1.85-3.25-3.46-4.33-3.35-4.71-7.74-8.63-10.42-13.84,1.64-.59,1.84,1,2.66,1.72,5.95,5.8,10.64,12.66,15.91,19C517.49,715.67,529.75,732.79,544.41,747.93Z"/><path class="kubs-22" d="M964.1,678.72H965a2.12,2.12,0,0,1,.64,1.72c-3,5.76-7.72,10.28-11.74,15.3-9.13,11.39-18.37,22.69-27.36,34.2-1.65,1.14-2.45,3-3.85,4.38-1,1-1.53,2.84-3.54,2.38l-3.52,2.58c3.27-5.88,8.08-10.6,12.17-15.84,9.3-11.91,19-23.49,28.53-35.21,1-1.58,2.53-2.71,3.46-4.34l.85-.86c1-1.56,2.54-2.7,3.48-4.32Z"/><path class="kubs-26" d="M488.19,680.45l-2.65-1.72c-4.85-4.51-8.24-10.25-12.67-15.12-1.64-1.8-3.08-3.77-4.61-5.66-1.92-3-5.15-5-6.06-8.65h.91c5.79,5,9.81,11.45,14.55,17.29C481.32,671.08,485.52,675.19,488.19,680.45Z"/><path class="kubs-27" d="M912.18,747.08h-1.75a55,55,0,0,1,8.65-8.67l.38.35a1.36,1.36,0,0,1-.36,1.39A35.22,35.22,0,0,0,912.18,747.08Z"/><path class="kubs-27" d="M919.13,736.71c2.86-1.76,3.77-5.44,6.88-7l.37.34a1.34,1.34,0,0,1-.35,1.4l-.87.87c-.8,1.2-1.82,2.24-2.59,3.46l-.87.87c-.78.69-1,2.27-2.58,1.74l0,0C919.1,737.84,919.12,737.28,919.13,736.71Z"/><path class="kubs-22" d="M907,747.08a4.3,4.3,0,0,1,3.46-2.63C909.72,745.89,908.75,747,907,747.08Z"/><path class="kubs-22" d="M904.42,747.14l2.57-.06a2.59,2.59,0,0,1-2.61,1.73C904.39,748.25,904.41,747.69,904.42,747.14Z"/><path class="kubs-25" d="M567.77,759.21H886.25c-1.3,1.37-3,.83-4.5.83q-154.75,0-309.49,0C570.74,760,569.05,760.6,567.77,759.21Z"/><path class="kubs-18" d="M517.57,719.4c1.41.74,2.52,1.71,2.62,3.45h-.87C518.82,721.66,517.47,720.9,517.57,719.4Z"/><path class="kubs-25" d="M563.44,758.34c1.46.21,3.12-.59,4.33.87C566.31,759,564.65,759.76,563.44,758.34Z"/><path class="kubs-28" d="M1043.7,156.92h.88c6.52,11.62,7.81,24.82,11,37.4,3.71,14.41,6.7,29,10,43.52q2.89,12.75,5.81,25.52,6.9,29.79,13.82,59.57a10.13,10.13,0,0,0,.86,1.87c0,5.81,2.29,11.18,3.48,16.74q5.76,26.83,12.16,53.52c5.49,22.8,11.24,45.55,15.65,68.58,2.74,14.28.48,28-7.91,40.28a8.88,8.88,0,0,1-3.47,3.46c2.17-4.81,5.56-8.91,7.54-13.91a52.84,52.84,0,0,0,2.43-31.69c-7.06-31.32-14.45-62.56-21.69-93.84q-11.38-49.23-22.73-98.45-11.37-49.44-22.65-98.91C1047.82,165.76,1045.22,161.56,1043.7,156.92Z"/><path class="kubs-29" d="M1107.77,499.62c1.44-4.66,3.92-8.9,5.22-13.65,3-10.83.77-21.24-1.67-31.76-7.63-32.78-15.07-65.61-22.63-98.42q-9.37-40.6-18.85-81.2a14.78,14.78,0,0,1-.16-2.59.52.52,0,0,1,.86,0q10.39,45,20.76,90c8,34.61,16.08,69.18,23.67,103.86,2.36,10.8,0,21.42-4.81,31.37C1109.69,498.18,1108.58,498.83,1107.77,499.62Z"/><path class="kubs-11" d="M1103.45,510c-2,4.71-6,7.82-8.94,11.8-5,6.87-10.46,13.48-15.75,20.16a4.38,4.38,0,0,0-1.32,2.61l-.85.87c-.79,1.21-1.82,2.24-2.6,3.47-5.76,5.8-10.32,12.58-15.49,18.86-2,2.41-4.09,4.74-6.13,7.1-.63.78-1.08,1.76-2.2,2a1.14,1.14,0,0,1-.84-.78c.25-3.15,2.89-4.81,4.54-7.05,3-4,6.33-7.77,9.27-11.82,11.59-14.61,23.47-29,35-43.61,1.15-1.46,1.93-3.63,4.37-3.64Z"/><path class="kubs-30" d="M1102.55,510q-18.61,23.14-37.24,46.28a9.93,9.93,0,0,1-1.66,1.34.77.77,0,0,1-1.07-.05c.19-3.49,3.21-5.21,5-7.63,3.11-4.21,6.44-8.28,9.89-12.24h0c2.36-2.83,4.73-5.67,6.92-8.65h0c1-1.59,2.52-2.72,3.46-4.33h0c3.55-4.77,7.56-9.17,11.11-14,.83-1.13,1.62-2.79,3.58-2.51Z"/><path class="kubs-16" d="M1058.42,220.1c-2.83-2.55-2.39-6.28-3.19-9.47-2.1-8.31-3.68-16.76-5.46-25.16-.78-1.2-.3-2.52-.36-3.8l.37-.53C1053.13,194,1056.75,206.84,1058.42,220.1Z"/><path class="kubs-31" d="M1102.54,508.23c-4.48,3.61-7.22,8.74-11.1,12.89-1.16,1.24-2,2.72-3.59,3.57,4.39-7,9.12-13.71,15.54-19.05C1103.11,506.5,1102.83,507.37,1102.54,508.23Z"/><path class="kubs-16" d="M1045.44,166.44c-2.35-2.84-3.59-6.28-5.15-9.55C1044.38,158.79,1045,162.55,1045.44,166.44Z"/><path class="kubs-16" d="M1068.8,267.7a13.4,13.4,0,0,1-1.72-6.94,5.09,5.09,0,0,1,0-4.3,41.57,41.57,0,0,1,2.62,11.22l-.43.33Z"/><path class="kubs-16" d="M1048.9,181.16a12.48,12.48,0,0,1-1.7-6.95c2.91,1.55,2.16,4.46,2.58,6.93l0,0C1049.47,181.58,1049.18,181.56,1048.9,181.16Z"/><path class="kubs-16" d="M1060.15,227.88c-1.66-1.38-1.82-3.25-1.71-5.21C1061.52,223.58,1059.61,226.14,1060.15,227.88Z"/><path class="kubs-16" d="M1062.75,239.13c-1.66-1.38-1.83-3.25-1.71-5.21C1064.12,234.83,1062.2,237.38,1062.75,239.13Z"/><path class="kubs-16" d="M1065.34,250.38c-1.65-1.38-1.82-3.25-1.71-5.21C1066.71,246.08,1064.8,248.63,1065.34,250.38Z"/><path class="kubs-16" d="M1070.54,272h-.86a5.08,5.08,0,0,1,0-4.31l0,0C1071.09,268.9,1070.35,270.54,1070.54,272Z"/><path class="kubs-29" d="M1067.06,256.46c0,1.43,0,2.86,0,4.3-1.44-1.22-.66-2.88-.86-4.34Z"/><path class="kubs-29" d="M1048.9,181.16h.86c0,1.44,0,2.88,0,4.31C1048.34,184.27,1049.12,182.61,1048.9,181.16Z"/><path class="kubs-29" d="M1069.66,267.7l0,4.31c-1.44-1.21-.66-2.86-.88-4.31Z"/><path class="kubs-28" d="M1002.15,634.57c0-.27.05-.54.06-.82,1.36-1.58,3.17-2.77,4.13-4.71,11.82-14.89,23.67-29.75,35.8-44.39a5.27,5.27,0,0,1,2.74-1.33l.58.22c-1.82,4.3-5.35,7.36-8.09,11q-7.66,10.1-16,19.7c-5,5.73-10,11.36-14,17.79-5.83,4.76-9.46,11.4-14.44,16.91-2.58,2.85-4.8,6-7.19,9.05a.73.73,0,0,1-1.07,0c-.81-1.54.44-2.46,1.19-3.38C991.28,647.9,996.54,641.09,1002.15,634.57Z"/><path class="kubs-27" d="M926,729.76c3-5.75,7.64-10.25,11.56-15.28,8.95-11.48,18.24-22.7,27.4-34,.81-1,1.17-2.49,2.7-2.83a1.24,1.24,0,0,1,1.05.37,1.34,1.34,0,0,1-.3,1.59h0c-5,6-9.72,12.18-14.7,18.18q-11.34,14-22.67,28a14,14,0,0,1-1.55,1.43c-1,1-1.4,2.94-3.46,2.61Z"/><path class="kubs-18" d="M953.72,697.76a94.22,94.22,0,0,1,14.7-18.18A92.23,92.23,0,0,1,953.72,697.76Z"/><path class="kubs-18" d="M984.86,658h.88a66.31,66.31,0,0,1-10.41,13,2.1,2.1,0,0,1-.61-1.75c2.18-4,5.57-7.11,8.22-10.78A1.51,1.51,0,0,1,984.86,658Z"/><path class="kubs-23" d="M926,729.79l3.46-2.61c-.24,2.18-1.85,3.26-3.47,4.32C926,730.93,926,730.36,926,729.79Z"/><path class="kubs-27" d="M975.35,669.2c0,.57,0,1.15,0,1.72l-.85.87c-.62.78-1.06,1.74-2.15,2a1.13,1.13,0,0,1-.88-.72C971.93,671,973,669.45,975.35,669.2Z"/><path class="kubs-27" d="M971.87,675.25l-.85.87c-.78.7-1,2.27-2.58,1.75l0,0c-.66-2.9,1.24-3.74,3.46-4.32l0,0A1.15,1.15,0,0,1,971.87,675.25Z"/><path class="kubs-18" d="M968.44,677.87l2.58-1.75c-.06,1.76-1.2,2.71-2.6,3.46C968.43,679,968.44,678.44,968.44,677.87Z"/><path class="kubs-18" d="M971.87,675.25c0-.57,0-1.14,0-1.71l2.57-1.75C974.42,673.56,973.29,674.51,971.87,675.25Z"/><path class="kubs-23" d="M919.12,738.44l2.58-1.74c-.07,1.75-1.2,2.7-2.6,3.45C919.11,739.58,919.11,739,919.12,738.44Z"/><path class="kubs-23" d="M922.57,735.83c.07-1.75,1.21-2.7,2.59-3.46C925.09,734.12,924,735.08,922.57,735.83Z"/><path class="kubs-28" d="M1048.9,579.21c-.2,2.19-1.85,3.24-3.45,4.33h0a1.85,1.85,0,0,1-.61-1.64,2.82,2.82,0,0,1,.9-1.55C1046.7,579.72,1047.5,578.61,1048.9,579.21Z"/><path class="kubs-11" d="M1048.9,579.21l-2.62,1.71c-.82-3,.74-4.15,3.48-4.32l0,0a1.17,1.17,0,0,1,0,1.72Z"/><path class="kubs-8" d="M1074,548.92c.08-1.75,1.22-2.7,2.6-3.47C1076.54,547.21,1075.4,548.16,1074,548.92Z"/><path class="kubs-28" d="M1049.77,578.34c0-.58,0-1.15,0-1.72l2.58-1.74C1052.3,576.63,1051.17,577.58,1049.77,578.34Z"/><path class="kubs-17" d="M396.43,568.82c-1.61-1.07-3.24-2.13-3.46-4.32C394.58,565.57,396.22,566.63,396.43,568.82Z"/><path class="kubs-17" d="M393,564.5c-1.61-1.08-3.24-2.14-3.46-4.33C391.12,561.25,392.76,562.3,393,564.5Z"/><path class="kubs-17" d="M389.51,560.17c-1.62-1.07-3.23-2.14-3.47-4.32C387.67,556.91,389.29,558,389.51,560.17Z"/><path class="kubs-17" d="M399,570.56v2.59c-1.13-1.28-2.4-2.48-2.6-4.33Z"/><path class="kubs-17" d="M385.18,555c-1.38-.76-2.51-1.72-2.61-3.45C384,552.27,385.11,553.22,385.18,555Z"/><path class="kubs-17" d="M381.72,550.66c-1.39-.77-2.52-1.72-2.61-3.46C380.52,547.94,381.65,548.9,381.72,550.66Z"/><path class="kubs-17" d="M462.2,649.3c1.72,3.09,4.91,5.16,6.06,8.65-4.11-2.6-5.88-7.34-9.51-10.38,0-.58,0-1.15,0-1.72C460.45,646.43,460.93,648.27,462.2,649.3Z"/><path class="kubs-17" d="M444,627.67c1.63,1.07,3.24,2.14,3.47,4.32C445.88,630.92,444.25,629.86,444,627.67Z"/><path class="kubs-17" d="M450.94,636.33c1.4.75,2.53,1.7,2.61,3.45C452.16,639,451,638.07,450.94,636.33Z"/><path class="kubs-17" d="M447.49,632c1.39.77,2.53,1.71,2.6,3.47C448.7,634.69,447.56,633.75,447.49,632Z"/><path class="kubs-17" d="M440.56,623.35c1.4.75,2.53,1.7,2.6,3.45C441.78,626,440.64,625.09,440.56,623.35Z"/><path class="kubs-17" d="M437.1,619c1.39.75,2.53,1.7,2.6,3.46C438.31,621.71,437.17,620.76,437.1,619Z"/><path class="kubs-17" d="M399.9,573.15a26.76,26.76,0,0,1,7.79,9.52A26.35,26.35,0,0,1,399.9,573.15Z"/><path class="kubs-18" d="M508.93,709a26.42,26.42,0,0,1,7.78,9.52A26.53,26.53,0,0,1,508.93,709Z"/><path class="kubs-18" d="M502.87,701.22c1.61,1.08,3.25,2.14,3.46,4.33C504.72,704.47,503.09,703.41,502.87,701.22Z"/><path class="kubs-18" d="M499.41,696.9c1.61,1.07,3.24,2.13,3.46,4.32C501.26,700.15,499.63,699.09,499.41,696.9Z"/><path class="kubs-18" d="M506.33,705.55c1.4.76,2.53,1.71,2.6,3.46C507.54,708.25,506.41,707.3,506.33,705.55Z"/><path class="kubs-32" d="M770.79,431c-.07-7.9,6.06-14.34,14-13.54,10,1,19.9,2.91,29.83,4.55,16.45,2.74,32.87,5.69,49.34,8.29,3.47.55,3.48,1.74,2.4,4.49a161.42,161.42,0,0,1-60.51,75.72c-2.55,1.74-3.22.88-4.18-1.46q-14.52-35.29-29.16-70.55A17.82,17.82,0,0,1,770.79,431Z"/><path class="kubs-32" d="M695.9,220c-1.53,26.77-2.9,51.18-4.35,75.59-.36,6-2.32,11.32-8.28,14.11-5.8,2.73-10.87.88-15.72-2.57q-31-22-62-43.89c-2.33-1.64-2.64-2.68-.39-4.75a162.6,162.6,0,0,1,87-41.72C696,216.16,696,216.25,695.9,220Z"/><path class="kubs-32" d="M554.68,375c-.07-28.43,7.22-54.91,21.24-79.61,1.47-2.59,2.26-3.64,5.12-1.05C599.38,311,617.93,327.42,636.41,344c4.55,4.07,8.35,8.57,7.13,15.26s-6.12,10-12.34,11.83c-22.54,6.48-45.07,13-67.62,19.5C555,393,555,392.92,554.7,384,554.61,381,554.68,378,554.68,375Z"/><path class="kubs-32" d="M853,291.88a162.87,162.87,0,0,1,22.88,65,189.77,189.77,0,0,1,.92,31.89c-.12,3.17-.86,3.8-4.06,2.85-23.86-7-47.77-13.82-71.66-20.72a37.55,37.55,0,0,1-5.24-2c-8.8-4.09-11.2-14.6-4.4-21.51s14.13-13.11,21.3-19.55C826,316,839.29,304.1,853,291.88Z"/><path class="kubs-32" d="M715.72,537.7a171.67,171.67,0,0,1-47.63-7.31c-3.18-1-3.69-1.84-2-4.92,12.27-21.82,24.31-43.78,36.47-65.67,6.85-12.34,19.28-12.68,26.23-.42,12.56,22.16,24.7,44.56,37.15,66.78,1.75,3.13.14,3.55-2.19,4.25A173.62,173.62,0,0,1,715.72,537.7Z"/><path class="kubs-32" d="M645.75,417.52c10.34.05,16.8,8.45,14.32,17.58-2.19,8.06-6,15.53-9.2,23.24C644,475.1,637,491.81,630.16,508.59c-1,2.59-1.83,3.15-4.38,1.41a162.36,162.36,0,0,1-60.35-75.38c-1.16-2.9-.35-3.6,2.31-4.05q31.5-5.24,63-10.59C636.1,419.07,641.5,418.21,645.75,417.52Z"/><path class="kubs-32" d="M828.06,261.31c-21.9,15.52-43.51,30.85-65.15,46.13-4.77,3.37-9.95,4.58-15.43,1.7s-7.26-7.69-7.58-13.58q-2-37.51-4.3-75c-.19-3.14.3-4.41,3.87-3.83,32.72,5.34,61.37,19,85.82,41.46.64.58,1.24,1.2,1.83,1.84A15.45,15.45,0,0,1,828.06,261.31Z"/><path class="kubs-32" d="M716,351.18c9.33-3.14,14.4,2.06,20,8.7,6,7.06,7.43,13.33,5.25,22.4-2.08,8.64-5.75,13.51-13.81,17.46-8.48,4.14-15,4.08-23.46,0-8.05-3.93-11.68-8.8-13.8-17.44-2.25-9.13-.65-15.3,5.24-22.41C701.17,352.93,706.56,348.12,716,351.18Z"/><path class="kubs-21" d="M964.1,678.72c-.22,2.2-1.84,3.27-3.48,4.32C960.88,680.87,962.48,679.79,964.1,678.72Z"/><path class="kubs-21" d="M959.77,683.9c-.19,2.21-1.84,3.26-3.46,4.34C956.53,686.05,958.18,685,959.77,683.9Z"/><path class="kubs-31" d="M1077.47,537.67c-3.18,6-8.22,10.55-12.1,16-.91,1.28-1.75,2.6-2.63,3.91-3.22,5.8-8,10.38-11.93,15.69-2.11,2.88-4.52,5.55-6.68,8.42-.74,1-1.32,2.34-3,1.86h-.88c2.57-5,6.84-8.71,10.2-13.11,7.11-9.34,14.57-18.42,21.84-27.63A21.71,21.71,0,0,1,1077.47,537.67Z"/><path class="kubs-31" d="M1084.39,529a19.57,19.57,0,0,1-6.92,8.65A22,22,0,0,1,1084.39,529Z"/><path class="kubs-31" d="M1087.85,524.69c-.22,2.19-1.85,3.25-3.46,4.33C1084.6,526.82,1086.23,525.76,1087.85,524.69Z"/><path class="kubs-33" d="M1041.13,583.54c7.17-7.79,13.43-16.31,20.06-24.53a14.13,14.13,0,0,1,1.55-1.44l.91,0c-3.17,5.89-8.14,10.43-12,15.8-.74,1-1.9,1.76-1.9,3.21-1.61,1.08-3.2,2.17-3.48,4.32l-.84.87c-.79,1.21-1.82,2.25-2.61,3.47-6,6.07-10.81,13.2-16.29,19.73-6.77,8.06-13.36,16.27-20,24.42a.58.58,0,0,1-.92,0c3.25-5.91,8-10.66,12.15-15.9,7.5-9.54,15.25-18.87,22.87-28.32A4.76,4.76,0,0,0,1041.13,583.54Z"/><path class="kubs-34" d="M971.87,673.52c-1.58,1.09-3.21,2.16-3.46,4.32L965,680.45c0-.57,0-1.15,0-1.72,12.14-14,23.29-28.69,35-43a2.93,2.93,0,0,1,2.21-1.14c-3.16,6.07-8.32,10.65-12.19,16.19-1.69,2.41-4.25,4.19-5.1,7.19-3.77,3.24-6.23,7.59-9.51,11.25C973.73,670.27,972.13,671.35,971.87,673.52Z"/><path class="kubs-34" d="M1005.6,629.37l.92,0a5.23,5.23,0,0,1-4.31,4.34C1002.33,631.51,1004.05,630.51,1005.6,629.37Z"/><path class="kubs-11" d="M1042.83,585.26c.1-1.74,1.24-2.69,2.61-3.47v1.74Z"/></svg>