<svg id="Layer_1" data-name="Layer 1" xmlns="http://www.w3.org/2000/svg" viewBox="0 0 1366 768"><defs><style>.linkerd-1{fill:#2beca6;}.linkerd-2{fill:#19c1cb;}.linkerd-3{fill:#19c1cc;}.linkerd-4{fill:#1bc7c6;}.linkerd-5{fill:#099cec;}.linkerd-6{fill:#0da7e3;}.linkerd-7{fill:#1ecdc1;}.linkerd-8{fill:#26e0b1;}.linkerd-9{fill:#0695f2;}.linkerd-10{fill:#17bdcf;}.linkerd-11{fill:#0ea8e1;}.linkerd-12{fill:#1ac4c9;}.linkerd-13{fill:#0a9eea;}.linkerd-14{fill:#1fd0bf;}.linkerd-15{fill:#16bbd1;}.linkerd-16{fill:#0798f0;}.linkerd-17{fill:#0696f1;}.linkerd-18{fill:#26e0b0;}.linkerd-19{fill:#21d4bc;}.linkerd-20{fill:#23dab6;}.linkerd-21{fill:#20d4bc;}.linkerd-22{fill:#27e3ae;}.linkerd-23{fill:#11aedc;}.linkerd-24{fill:#12b0da;}.linkerd-25{fill:#0ba2e7;}.linkerd-26{fill:#20d3bd;}.linkerd-27{fill:#22d7b9;}.linkerd-28{fill:#13b5d7;}.linkerd-29{fill:#0da5e4;}.linkerd-30{fill:#0ca2e6;}.linkerd-31{fill:#0ea9e1;}.linkerd-32{fill:#20d3bc;}.linkerd-33{fill:#14b7d5;}.linkerd-34{fill:#0ba0e8;}.linkerd-35{fill:#0594f3;}.linkerd-36{fill:#099bec;}.linkerd-37{fill:#0faadf;}.linkerd-38{fill:#24ddb4;}.linkerd-39{fill:#1ccac4;}.linkerd-40{fill:#22d8b8;}.linkerd-41{fill:#1bc8c6;}.linkerd-42{fill:#27e4ad;}.linkerd-43{fill:#038ff7;}.linkerd-44{fill:#038ef8;}.linkerd-45{fill:#0492f5;}.linkerd-46{fill:#0490f7;}.linkerd-47{fill:#28e6ac;}.linkerd-48{fill:#038df9;}.linkerd-49{fill:#29e7ab;}.linkerd-50{fill:#25deb2;}.linkerd-51{fill:#25ddb3;}.linkerd-52{fill:#13b3d8;}.linkerd-53{fill:#20d2bd;}.linkerd-54{fill:#18bfcd;}.linkerd-55{fill:#15b9d3;}.linkerd-56{fill:#1dccc3;}.linkerd-57{fill:#1ac5c8;}.linkerd-58{fill:#fcfcfc;}.linkerd-59{fill:#25dfb2;}.linkerd-60{fill:#28e5ac;}.linkerd-61{fill:#0ea8e2;}.linkerd-62{fill:#13b4d7;}.linkerd-63{fill:#0ba1e7;}.linkerd-64{fill:#089aed;}.linkerd-65{fill:#10addd;}.linkerd-66{fill:#0da6e3;}.linkerd-67{fill:#1bc6c8;}.linkerd-68{fill:#1dccc2;}.linkerd-69{fill:#23d9b7;}.linkerd-70{fill:#10acde;}</style></defs><title>linkerd</title><path class="linkerd-1" d="M418.16,184.05V178a4,4,0,0,1,2-1.84c10.34-5.92,20.68-11.82,30.86-18,.81-.9.65-2,.66-3.07,0-3.07,0-6.13,0-9.2-.09-3.78-.05-7.55,0-11.32.11-1.91,0-3.82.08-5.73a3.34,3.34,0,0,0-2-3.31c-2.09-1.11-4.16-2.28-6.17-3.54-7.14-4.41-14.55-8.35-21.78-12.59-1.31-.76-2.86-1.23-3.65-2.69.75-2,2.87-2.19,4.36-3.1,6.42-3.92,13-7.56,19.53-11.32,3.12-1.81,6.22-3.65,9.31-5.48a1.55,1.55,0,0,1,1.83.07Q474.12,99,495.08,111.15c13.32,7.68,26.67,15.3,40,23q31,17.91,62,35.87c15.5,8.95,31.05,17.83,46.55,26.78,16.29,9.41,32.55,18.89,48.84,28.31,11.46,6.62,23,13.17,34.43,19.77,11.2,6.45,22.38,12.95,33.61,19.35,1.74,1,2.62,2.1,2.33,4.16a32,32,0,0,0-.11,4.16c-2.66,1.2-5.42.57-8.14.39-1.24-.08-2.43-.3-3.58.35-6.54,3.73-13.12,7.37-19.58,11.24a3.91,3.91,0,0,0-2.32,4.21c.07,1.14.41,2.45-.76,3.35-1.38-.8-.89-2.18-.82-3.29.14-2.21-.75-3.44-2.69-4.56-18.71-10.8-37.46-21.54-56.12-32.44a4.06,4.06,0,0,0-4.66-.16q-18.12,10.53-36.29,20.95c-2,1.13-.52,1.59.34,2.08q10.85,6.24,21.65,12.52,24.46,14.11,48.92,28.25c8.75,5.05,17.53,10.07,26.26,15.16,1.25.73,2.7,1.21,3.54,2.53a3.48,3.48,0,0,1,.22.78q.14,19-.09,37.91c-.9,2-2.18.82-3.21.26-4.19-2.31-8.29-4.77-12.43-7.16q-35.79-20.61-71.55-41.27-17.55-10.11-35-20.28a4.92,4.92,0,0,1-2.44-2,27.41,27.41,0,0,1-.24-5.43c.11-2.54,0-5.08.05-7.63a3.41,3.41,0,0,0-1.94-3.35c-5.71-3.21-11.38-6.51-17.08-9.73a3.42,3.42,0,0,0-1.69-.7c-3.62.16-7.25,0-10.86.16-1.27.05-1.41,1-1.43,2,0,2.47,0,4.93,0,7.4,0,.86.24,1.9-.9,2.37,0-6.64,0-13.27-.15-19.9,0-1.34.9-1.72,1.67-2.17,8.6-5,17.23-9.89,25.84-14.83q16.32-9.39,32.64-18.79c1.26-.72,1.13-1.09,0-1.76-6-3.43-12-6.92-18-10.4-6.64-3.85-13.29-7.69-19.91-11.58a2.74,2.74,0,0,0-3.13-.07q-14.32,8.38-28.73,16.67l-30.32,17.51a5.91,5.91,0,0,0-.87.73.42.42,0,0,1-.44.43,5.7,5.7,0,0,1-2.22-1c-6.49-3.69-12.94-7.42-19.42-11.12a4.38,4.38,0,0,0-2.65-.57c-2.61.2-5.23.1-7.84.06-.86,0-1.92.23-2.34-1,0-2.33-.07-4.65.06-7q11.1-6.48,22.21-12.95,14.16-8.22,28.33-16.38c3.51-2,7.05-4,10.9-6.22-3.3-2-6.4-3.81-9.53-5.62-7.62-4.42-15.27-8.8-22.9-13.21-2.22-1.28-4.45-2.53-6.63-3.88a3.34,3.34,0,0,0-3.83.07q-17.09,10-34.24,19.94c-7.46,4.31-15,8.54-22.47,12.81-1,.56-2,1.16-2.94,1.74-1.79.35-2.83-1.15-4.23-1.75-1-.44-2-1.1-3-1.64-5.49-3.41-11.23-6.37-16.73-9.77a4.52,4.52,0,0,0-3.51-.49C423,184.73,420.52,185.17,418.16,184.05Z"/><path class="linkerd-1" d="M879.49,198c-5.11-2.88-10.23-5.73-15.31-8.65q-13-7.49-26-15c-8.66-5-17.3-10.1-26-15.1-7.5-4.33-15-8.57-22.55-12.89s-14.84-8.67-22.28-13-14.74-8.49-22.1-12.74c-7.63-4.41-15.25-8.86-22.89-13.25C714.9,103,707.42,98.8,700,94.51s-15-8.72-22.48-13.08Q668.14,76,658.74,70.58,647.39,64,636,57.52T613.1,44.35Q602,38,591,31.53q-6.64-3.87-13.29-7.73a5.71,5.71,0,0,1,0-9.76c7.16-4.16,14.3-8.35,21.48-12.48a8.54,8.54,0,0,1,9.1-.1C619,7.66,629.81,13.79,640.55,20Q652.79,27,665,34.16a2,2,0,0,0,2.27-.15q27.51-16,55.06-31.95a10.45,10.45,0,0,1,11.59.11c6.61,4,13.34,7.82,20.06,11.64a6.85,6.85,0,0,1,3.33,3.94,4.08,4.08,0,0,1,0,2.27c-.72,2.41-2.61,3.63-4.64,4.8-9.6,5.53-19.16,11.13-28.75,16.66-6.68,3.85-13.39,7.64-20.08,11.46-.92.52-1.81,1.09-3,1.83l13.26,7.67c8.48,4.91,17,9.79,25.42,14.75a3.77,3.77,0,0,0,4.24.13q15.4-9,30.85-17.9Q787,52.25,799.44,45.13A18.62,18.62,0,0,1,802.62,44a6.61,6.61,0,0,1,2.73,0c5.45,2.12,10.18,5.57,15.28,8.33,3.16,1.71,6.26,3.55,9.31,5.46,4.41,2.76,4.22,7.41-.31,10-8.08,4.64-16.14,9.32-24.21,14l-28,16.1a6.75,6.75,0,0,0-.76.67c13.19,7.62,26.31,15.18,39.41,22.79a2.72,2.72,0,0,0,3.12,0q16-9.33,32-18.57c9.06-5.23,18.17-10.4,27.16-15.74a2.19,2.19,0,0,1,2.64.07l25,14.44,8.16,4.67a.47.47,0,0,1,.17.39c0,.14,0,.21-.08.21-2.8,2.48-6.24,3.91-9.38,5.82-5.34,3.22-10.9,6.06-16.2,9.37-1.89,1.14-3.79,2.29-5.76,3.28a3.77,3.77,0,0,0-2.41,4c.11,1.6,0,3.21.09,4.81,0,3.92.09,7.83,0,11.74,0,3,0,6.07,0,9.11a5,5,0,0,0,.76,3.25c7.25,4.4,14.59,8.62,21.94,12.84,3.14,1.8,6.24,3.68,9.42,5.42a2.72,2.72,0,0,1,1.7,2c0,1.62,0,3.24,0,4.86-.61,1.14-1.75.93-2.65.82a18.56,18.56,0,0,0-13.37,3.53c-3.71,2.56-7.8,4.57-11.7,6.87-1.71,1-3.51,1.9-5.18,3C881,198,880.32,198.56,879.49,198Z"/><path class="linkerd-1" d="M804,242q-20.58-11.83-41.14-23.67c-11.41-6.6-22.77-13.3-34.19-19.89S705.5,185.19,694,178.53c-10.32-5.95-20.58-12-30.89-17.94-8.61-5-17.27-9.86-25.89-14.82-9.15-5.25-18.27-10.55-27.4-15.82q-13.21-7.63-26.43-15.26c-7.43-4.31-14.83-8.67-22.26-13q-10.86-6.28-21.74-12.52c-6.47-3.71-13-7.38-19.42-11.12-6.12-3.55-12.25-7.11-18.3-10.79-3.3-2-3.36-7.23-.07-9.2,7.43-4.44,14.95-8.72,22.46-13a16,16,0,0,1,3-1,6.92,6.92,0,0,1,2.72,0c5.31,2,10,5.3,14.9,8.09,10.92,6.19,21.74,12.55,32.61,18.84q29.2,16.91,58.42,33.81,31,17.9,62.08,35.73,36.39,21,72.73,42.1,30.62,17.68,61.28,35.28c2.19,1.26,4.4,2.46,6.59,3.69.42,2.93.07,5.88.19,8.82-.42,1.32-1.58,1-2.5,1.05-3.3.05-6.61.17-9.9,0a8.46,8.46,0,0,0-5,1.33c-4.38,2.55-8.75,5.09-13.15,7.61C806.7,241.06,805.51,242,804,242Z"/><path d="M505.63,612.49a12.66,12.66,0,0,1,9.35,8.89,6.6,6.6,0,0,1,.14,2.3q0,64.64,0,129.29a6.55,6.55,0,0,1-.14,2.29,15.09,15.09,0,0,1-11.2,11.23c-.75.33-1.62-.15-2.34.35a16.26,16.26,0,0,1-9.23-2.81c-1.88-1.31-2.89-3.27-4.16-5-8.41-11.49-16.85-22.95-25-34.62-17.1-24.52-34.9-48.53-52.26-72.85a5.1,5.1,0,0,0-1.75-1.7V754.17c0,6.58-3.56,11.27-9.28,12.3a11.63,11.63,0,0,1-13.64-10.76c0-.46,0-.93,0-1.39q0-63.12,0-126.23c0-8.75,5.69-15,14.34-15.63a13.73,13.73,0,0,1,12.61,5.77q25,34.17,49.7,68.48,13.89,19.17,27.74,38.35a19.94,19.94,0,0,0,1.39,1.56c.7-.31.36-.93.36-1.39q0-51,0-101.91a10.83,10.83,0,0,1,9.19-10.84A13.43,13.43,0,0,1,505.63,612.49Z"/><path d="M722,765.58c-5.13-.26-9.1-2.12-10.84-7.43-.33-1,.06-2-.38-2.89a6.27,6.27,0,0,1-.13-2.07q0-63.59,0-127.18a6.7,6.7,0,0,1,.1-1.84c.41-4,1.46-7.73,5.66-9.43a16.76,16.76,0,0,1,6.38-1.26q40.35.06,80.71,0c4.88,0,9.44,3.6,10.21,7.91q1.51,8.54-6.85,11.65c-.35.14-.69.32-1,.48a11.29,11.29,0,0,1-2.53.09l-66.77,0a4.61,4.61,0,0,0-2.49.23h0a2.85,2.85,0,0,0-.24,1.79q0,20.18,0,40.35a2.78,2.78,0,0,0,.24,1.79c.83,0,1.67.15,2.51.15h64.51c6.23,0,9.7,2.67,11.39,8.74a5.93,5.93,0,0,1,0,2.3c-1.17,6.28-6.39,9.28-12,9.25-21.3-.13-42.61-.06-63.91,0-.84,0-1.68.1-2.53.15a3.46,3.46,0,0,0-.23,2c0,14.19,0,28.38,0,42.57,0,2,.59,2.4,2.46,2.39q33.31-.09,66.63,0a9,9,0,0,1,2.53.12c4.3,1.31,7.63,3.45,8.4,8.42a10.28,10.28,0,0,1-6.66,11.08c-.72.26-1.47.41-2.2.6a4.13,4.13,0,0,1-1.6.14H723.38A4.92,4.92,0,0,1,722,765.58Z"/><path d="M583.84,688.08c4.17-4.23,8-8.75,12.07-13.09,4.71-5.07,9.34-10.22,14-15.35s9.55-10.45,14.3-15.7,9.38-10.19,13.95-15.38c3.51-4,7.35-7.7,10.6-11.92a11.12,11.12,0,0,1,7-4.16,13.75,13.75,0,0,1,4.15,0c6.16,2.38,8.81,5.55,8.81,10.58a9.81,9.81,0,0,1-2.84,7Q650.78,646,635.8,661.94q-10.35,11-20.64,22.06c-2.61,2.81-2.62,2.14,0,4.94q16.41,17.5,32.89,34.93,9.72,10.33,19.38,20.7c2.69,2.9,5.74,5.59,6.5,9.78a7.76,7.76,0,0,1,0,2.76c-1.83,6.62-4.87,9.26-11.18,9.72-.74-.49-1.62,0-2.37-.36-3.92-.4-5.79-3.55-8.07-6.1-4.2-4.71-8.58-9.26-12.68-14.06-1.87-2.18-4-4.21-5.9-6.37-4.28-4.75-8.76-9.32-12.84-14.26-1.59-1.92-3.45-3.64-5.1-5.54-4-4.61-8.38-8.87-12.43-13.44-1.62-1.82-3.35-3.54-5-5.38-.69-.79-1.22-.94-2-.07-4.33,4.67-8.9,9.12-13,14a6.14,6.14,0,0,0-.18,2.52q0,17.93,0,35.86a8.29,8.29,0,0,1-.13,2.53c-1,5.43-3.92,8.83-9.5,10.27-6.58,1.7-13.08-4.26-13.38-9.81a7.72,7.72,0,0,1-.12-2.3q0-64.87,0-129.74a7.1,7.1,0,0,1,.13-2.3c1-5.29,3.94-8.73,9.36-9.82a13.13,13.13,0,0,1,4.15,0c5.46,1.56,8.68,5.06,9.4,10.75a11.36,11.36,0,0,1,.1,2.54q0,29.94,0,59.89C583.27,686.46,582.63,687.53,583.84,688.08Z"/><path class="linkerd-1" d="M728,460.54c-5.39-2.54-10.36-5.81-15.53-8.74-8.77-5-17.49-10-26.21-15.07q-9.48-5.49-18.91-11a2.12,2.12,0,0,0-2.58-.05q-18.22,10.34-36.25,21c-8,4.71-16.16,9.21-24.25,13.8a3.27,3.27,0,0,1-.64-2.61c0-12.1-.06-24.2,0-36.3a2.83,2.83,0,0,1,.14-.76c1.6-2.12,4.13-2.86,6.28-4.14,6.08-3.63,12.26-7.09,18.37-10.67,1.76-1,1.76-1.29-.11-2.36-7.35-4.2-14.66-8.47-22-12.69-1-.6-2.27-1.06-2.61-2.45-.16-12.75-.19-25.49,0-38.23.78-1.95,2-.88,3-.32,5.12,2.83,10.15,5.84,15.23,8.77q34,19.56,67.9,39.17,17.94,10.33,35.83,20.74c1,.57,2.13,1,2.72,2.07a3.21,3.21,0,0,1,.22.79c.06,12.3,0,24.6,0,36.89A4.34,4.34,0,0,1,728,460.54Z"/><path d="M189.76,688.91q0-32.42,0-64.84A11.66,11.66,0,0,1,199,612.61a11.3,11.3,0,0,1,12.78,6.82,16.12,16.12,0,0,1,1,6.36q0,58.47-.05,116.94c0,2.16.41,2.8,2.71,2.79,18.84-.11,37.67-.06,56.51-.06,6.34,0,10.85,4.07,10.86,9.78s-4.53,10.28-10.75,10.28q-34.85,0-69.7,0c-8.53,0-12.59-4.18-12.59-12.7Z"/><path d="M318,689.52q0-32.64,0-65.29a11.1,11.1,0,0,1,6.32-10.5,10.69,10.69,0,0,1,11.78.76c3.48,2.48,4.85,6,4.84,10.22,0,11.81,0,23.62,0,35.43q0,47,0,94c0,6.56-3.56,11.29-9.25,12.33A11.57,11.57,0,0,1,318,755.05c0-14.36,0-28.71,0-43.07Z"/><path class="linkerd-2" d="M418.16,267.44V254.93c.87-.85,2-.74,3-.74q14.07,0,28.14,0c3.08,0,3.22.22,3.24,3.26,0,2.54-.1,5.08.07,7.61,0,3.7,0,7.39,0,11.09q0,42.89,0,85.78c0,.9.27,1.85-.25,2.7a3,3,0,0,1-.76-2.54c0-3.13-.08-6.26,0-9.39-.08-4.17-.09-8.33,0-12.5-.08-3.86-.09-7.73,0-11.59-.08-4-.09-8,0-12.05-.08-4.16-.09-8.33,0-12.5-.08-4-.09-8,0-12.05-.08-4-.09-8,0-12.05-.12-2.78,0-5.56-.05-8.33,0-3.38-.09-3.45-3.56-3.45-8.79,0-17.59,0-26.39,0C420.47,268.16,419.19,268.38,418.16,267.44Z"/><path class="linkerd-3" d="M879.74,364.56c0-3.55-.08-7.09-.08-10.64q0-38.88,0-77.77c0-3.54,0-7.09,0-10.63.16-2.84.11-5.69,0-8.53-.05-1.62.64-2.25,2.12-2.3.62,0,1.23-.05,1.85-.05q13.5,0,27,0c1.21,0,2.48-.19,3.57.61a84.21,84.21,0,0,1,.09,12.2c-1,.92-2.32.7-3.52.7-8.85,0-17.7,0-26.55,0-3.5,0-3.54.07-3.57,3.65,0,2.69.07,5.39-.05,8.08.08,4.17.09,8.34,0,12.51.08,3.86.09,7.73,0,11.6.08,4.32.09,8.64,0,13,.08,4,.09,8,0,12,.08,3.86.09,7.72,0,11.58.08,4.15.09,8.29,0,12.43.08,3,.05,5.94,0,8.91C880.64,362.88,880.83,364,879.74,364.56Z"/><path class="linkerd-4" d="M728.06,420.79a2.74,2.74,0,0,1-.09-.39,4.78,4.78,0,0,1-.71-3.1q0-20.82,0-41.64a4.12,4.12,0,0,1,.64-2.87q.06-17.58.11-35.17c0-1.46,0-2.93,0-4.39a1.63,1.63,0,0,1,1-.94,5,5,0,0,1,1.58-.25q14.88-.07,29.75,0a3,3,0,0,1,2.36.72v12c-1,.95-2.32.72-3.52.73-8.87,0-17.73,0-26.6,0-3.24,0-3.32.12-3.35,3.41,0,2.62.07,5.24-.05,7.86.08,4.17.09,8.34,0,12.5.08,4,.09,8,0,12.06.08,4,.09,8,0,12,.08,4,.09,8,0,12,.06,4,.09,7.93,0,11.9C729,418.55,729.73,420.05,728.06,420.79Z"/><path class="linkerd-5" d="M728.06,420.79c.77-1,.22-2.18.43-3.25a4.16,4.16,0,0,1,3-.75q14.06,0,28.1,0c1.06,0,2.17-.11,3,.74v12.51c-1,.94-2.32.72-3.53.72-8.88,0-17.75,0-26.63,0-3.16,0-3.27.14-3.31,3.23,0,2.85.07,5.71-.05,8.56.13,5,0,10,.05,15a3.84,3.84,0,0,1-.72,2.62c-.06.23-.16.41-.45.34Q728.06,440.67,728.06,420.79Z"/><path class="linkerd-6" d="M493.81,392.91l0-28.28c0-.84-.09-1.68-.14-2.52.43-3,.06-6,.2-9,0-.83-.23-1.7.26-2.48a4.85,4.85,0,0,1,3.12-.59q14,0,28,0a4.8,4.8,0,0,1,3.12.6,87.83,87.83,0,0,1,.12,12.67c-1,.93-2.32.71-3.52.71-8.92,0-17.84,0-26.76,0-3.23,0-3.33.14-3.37,3.39,0,2.46.07,4.92-.05,7.38.07,4.12.1,8.23,0,12.35C494.45,389.1,495.53,391.24,493.81,392.91Z"/><path class="linkerd-7" d="M879.67,248.84V232.63c-.1-1.41.74-1.9,2-2,.69-.06,1.38-.06,2.07-.06q13.5,0,27,0c1.21,0,2.48-.2,3.56.61a98.42,98.42,0,0,1,.1,12.62c-1,1-2.31.72-3.51.73q-13.14,0-26.29,0c-3.23,0-3.23,0-4,3.09C880.43,248.15,880.33,248.7,879.67,248.84Z"/><path class="linkerd-7" d="M452.66,233.1v15.74c-1-.31-1-1.18-1-1.9,0-2-1-2.48-2.78-2.41s-3.54,0-5.31,0c-7.31,0-14.62,0-21.93,0-1.21,0-2.49.22-3.52-.72V231.3a3.6,3.6,0,0,1,2.81-.73q14.29,0,28.58,0C451.24,230.57,452.94,230.63,452.66,233.1Z"/><path class="linkerd-8" d="M728.49,332.76l-.45.47a1.64,1.64,0,0,1,0-.38,4.17,4.17,0,0,1-.76-2.84q0-17.55,0-35.09c0-1-.15-2.2.92-2.94a7.39,7.39,0,0,0,.24-3.87,3.33,3.33,0,0,1,2.82-4,7.77,7.77,0,0,1,3.82-.75q12.16,0,24.32,0c1.14,0,2.34-.16,3.29.74v12.05c-1,.94-2.32.72-3.52.72-8.87,0-17.73,0-26.6,0-3.23,0-3.32.12-3.35,3.42,0,2.62.07,5.24-.05,7.86.08,4,.09,8,0,12.07.12,3.3,0,6.6,0,9.9A3.65,3.65,0,0,1,728.49,332.76Z"/><path class="linkerd-9" d="M880.05,353.15V340.64c.87-.86,2-.74,3.05-.75q14.11,0,28.22,0a4.58,4.58,0,0,1,2.89.58,54,54,0,0,1,.12,10.33c-.5,1.18-.79,2.49-1.92,3.29-9.61-.46-19.23-.09-28.85-.22C882.36,353.85,881.07,354.09,880.05,353.15Z"/><path class="linkerd-10" d="M804.07,318.86V306.35c.87-.85,2-.74,3.06-.74q14.11,0,28.24,0a4.38,4.38,0,0,1,2.89.61,77.18,77.18,0,0,1,0,12.72,4,4,0,0,1-2.85.66q-14.28,0-28.58,0A3.65,3.65,0,0,1,804.07,318.86Z"/><path class="linkerd-11" d="M452.28,304v12.51c-.87.85-2,.73-3.06.73q-14,0-28,0c-1.07,0-2.19.11-3.06-.74V304c.87-.86,2-.74,3.06-.74q14,0,28,0C450.29,303.3,451.41,303.18,452.28,304Z"/><path class="linkerd-12" d="M838.34,306.35H804.07V293.84c.87-.85,2-.73,3-.74q14.13,0,28.24,0a4.44,4.44,0,0,1,2.89.6A80.94,80.94,0,0,1,838.34,306.35Z"/><path class="linkerd-13" d="M804.07,379.09V366.58c.87-.85,2-.74,3.06-.74q14.11,0,28.24,0a4.38,4.38,0,0,1,2.89.6,77.3,77.3,0,0,1,0,12.73,4.06,4.06,0,0,1-2.85.66q-14.28,0-28.58,0A3.6,3.6,0,0,1,804.07,379.09Z"/><path class="linkerd-14" d="M804.07,282.26V269.75c.87-.85,2-.74,3.06-.74q14.11,0,28.24,0a4.38,4.38,0,0,1,2.89.61,77.18,77.18,0,0,1,0,12.72,4,4,0,0,1-2.85.66q-14.28,0-28.58,0A3.61,3.61,0,0,1,804.07,282.26Z"/><path class="linkerd-15" d="M418.16,267.44c10.56,0,21.13.06,31.7-.05,2.09,0,2.65.62,2.54,2.62-.17,3.31-.09,6.63-.11,9.94-.88.85-2,.73-3.07.73q-14,0-28,0c-1.07,0-2.19.12-3.06-.73Z"/><path class="linkerd-15" d="M728.48,369.36V356.85a4.25,4.25,0,0,1,3-.75q14.06,0,28.11,0c1.06,0,2.17-.11,3,.74v12.51c-.87.84-2,.73-3,.74q-14.05,0-28.11,0A4.19,4.19,0,0,1,728.48,369.36Z"/><path class="linkerd-7" d="M728.49,332.76q0-6.25,0-12.51a4.1,4.1,0,0,1,3-.74q14,0,28.09,0c1.06,0,2.17-.11,3,.74v12.51Z"/><path class="linkerd-16" d="M804.07,379.09h34.11a63.17,63.17,0,0,1,.12,12.6,3.41,3.41,0,0,1-2.39.63q-14.62.06-29.26,0a3.31,3.31,0,0,1-2.58-.74Z"/><path class="linkerd-9" d="M452.28,340.17v12.51c-1.1,1-2.47.71-3.74.72-9.54.13-19.07-.2-28.61.2a4.93,4.93,0,0,1-1.76-3.72c0-3.23,0-6.47,0-9.71.87-.85,2-.74,3.06-.74q14,0,28,0C450.29,339.43,451.41,339.32,452.28,340.17Z"/><path class="linkerd-17" d="M728.49,442.56c0-3.32.1-6.64-.06-9.95-.09-2,.46-2.64,2.56-2.61,10.56.1,21.12.05,31.69.05,0,2.15.07,4.3.07,6.45,0,3.46-1.27,5.24-4.6,6.57-3.69.48-7.4.17-11.09.21-5.09.06-10.18,0-15.27,0C730.64,443.28,729.45,443.41,728.49,442.56Z"/><path class="linkerd-18" d="M879.49,198c2.47-1,4.43-2.88,7-3.71,6-.6,12-.15,18-.27,2.31-.05,4.63,0,6.94,0a4.23,4.23,0,0,1,2.87.64,90.8,90.8,0,0,1,0,12.67,4,4,0,0,1-2.86.66q-14.22,0-28.44,0c-3.11,0-3.25-.21-3.27-3.24,0-1.62.08-3.24-.06-4.85C879.61,199.22,879.55,198.58,879.49,198Z"/><path class="linkerd-18" d="M445.88,194.24l6.91,3.69c0,.49-.09,1-.14,1.46a53.78,53.78,0,0,0,0,6.22c.07,1.62-.63,2.25-2.12,2.3-.46,0-.92,0-1.38,0q-13.85,0-27.68,0c-1.14,0-2.34.17-3.28-.73V194.7a3.32,3.32,0,0,1,2.59-.72c7.54,0,15.07,0,22.61,0C444.22,194,445,194.26,445.88,194.24Z"/><path class="linkerd-19" d="M452.66,233.1c-.22-1.49-1.06-1.85-2.54-1.84-10.66.08-21.31,0-32,0v-12c1-.94,2.32-.72,3.52-.72q12.39,0,24.76,0c2.43,0,4.95.39,6.21-2.47Q452.65,224.58,452.66,233.1Z"/><path class="linkerd-20" d="M879.68,199.85a9.84,9.84,0,0,1,.24,4.54c-.17,2.18.47,2.9,2.76,2.87,10.54-.12,21.07,0,31.61,0a83.24,83.24,0,0,1,0,12.13,4.46,4.46,0,0,1-3.1.65q-14,0-28,0c-3.37,0-3.42-.09-3.58-3.46Q879.67,208.19,879.68,199.85Z"/><path class="linkerd-20" d="M452.65,216.07a4.5,4.5,0,0,0-.27,1.32c.25,1.9-.93,1.88-2.29,1.88-10.64,0-21.29,0-31.93,0v-12c10.56,0,21.13-.06,31.69,0,2.09,0,2.67-.61,2.56-2.62-.09-1.73-.38-3.53.24-5.25Z"/><path class="linkerd-21" d="M879.67,216.53c-.09,2.7,1.57,2.78,3.7,2.77,10.31-.1,20.61-.05,30.92-.05a80.78,80.78,0,0,1,0,12.05q-16,0-32.12,0c-1.12,0-2.16,0-2.5,1.34Z"/><path class="linkerd-22" d="M804,242c4.75-2.78,9.65-5.35,14.22-8.4a17.25,17.25,0,0,1,11.62-2.81c2.82.24,5.69.05,8.53.05a138.44,138.44,0,0,1,0,15.38,3.14,3.14,0,0,1-2.17.63q-14.85.08-29.72,0a3,3,0,0,1-2.35-.72C804,244.75,804,243.37,804,242Z"/><path class="linkerd-7" d="M452.3,146.06c0,3.56,0,7.13.09,10.7A1.94,1.94,0,0,1,451,159c-.94-.64-2-.14-2.93-.14-8.79-.05-17.57,0-26.36,0-1.21,0-2.49.22-3.52-.73v-12c.87-.85,2-.74,3.06-.74q14,0,28,0C450.3,145.32,451.42,145.22,452.3,146.06Z"/><path class="linkerd-23" d="M728.5,393.45V381.4a4.1,4.1,0,0,1,3-.74q14,0,28.09,0c1.06,0,2.17-.1,3,.74v12.05c-.87.84-2,.73-3,.74q-14.05,0-28.09,0A4.15,4.15,0,0,1,728.5,393.45Z"/><path class="linkerd-24" d="M804.07,343v-12c.87-.86,2-.74,3.06-.75q14.11,0,28.24,0a4.46,4.46,0,0,1,2.89.61,72.74,72.74,0,0,1,0,12.26,3.71,3.71,0,0,1-2.62.66q-14.52,0-29,0A3.27,3.27,0,0,1,804.07,343Z"/><path class="linkerd-25" d="M418.16,316.54h34.12v12c-.87.85-2,.73-3.06.74q-14,0-28,0c-1.07,0-2.19.11-3.06-.74Z"/><path class="linkerd-26" d="M452.3,146.06H418.16V134c.87-.85,2-.73,3.06-.74q14,0,28,0c1.07,0,2.19-.1,3.07.74Z"/><path class="linkerd-3" d="M762.68,356.85h-34.2c0-3.16.11-6.33-.05-9.48-.1-2,.47-2.64,2.56-2.62,10.56.11,21.13.05,31.69.05Z"/><path class="linkerd-27" d="M838.34,269.75H804.07v-12c.87-.85,2-.74,3-.74q14.13,0,28.24,0a4.45,4.45,0,0,1,2.89.59A75.18,75.18,0,0,1,838.34,269.75Z"/><path class="linkerd-23" d="M452.28,304H418.16V292c.87-.85,2-.74,3.06-.74q14,0,28,0c1.06,0,2.18-.11,3,.75Z"/><path class="linkerd-28" d="M762.68,381.4H728.5q0-6,0-12h34.2Z"/><path class="linkerd-29" d="M838.18,366.59H804.07V354.53c.87-.85,2-.74,3.06-.74q14.11,0,28.25,0a4.36,4.36,0,0,1,2.88.61A54.6,54.6,0,0,1,838.18,366.59Z"/><path class="linkerd-28" d="M452.28,292H418.16V280h34.13Q452.29,286,452.28,292Z"/><path class="linkerd-20" d="M728.5,308.21c0-3.17.1-6.33-.07-9.49-.1-2,.47-2.63,2.56-2.61,10.56.11,21.13.05,31.69.05v12c-.87.85-2,.74-3,.74q-14,0-28.09,0A4.19,4.19,0,0,1,728.5,308.21Z"/><path class="linkerd-30" d="M762.68,417.54H728.49q0-6,0-12.05a4.15,4.15,0,0,1,3-.74q14,0,28.09,0c1.06,0,2.17-.1,3,.74Z"/><path class="linkerd-31" d="M762.68,405.49H728.5v-12h34.18Z"/><path class="linkerd-32" d="M728.5,308.21h34.18v12.05H728.5Z"/><path class="linkerd-33" d="M838.34,330.9H804.07V318.86h34.27A96.73,96.73,0,0,1,838.34,330.9Z"/><path class="linkerd-34" d="M604.27,420.78q0,19.85,0,39.67l-.46.08a4.18,4.18,0,0,1-.72-2.59c0-4-.08-8.08,0-12.11-.08-4-.09-8,0-12.06-.12-3,0-6-.06-9,0-2.53-.24-2.76-2.81-2.77-8.85,0-17.71,0-26.56,0-1.22,0-2.48.18-3.61-.52-.61-.8-.2-1.73-.32-2.59.14-3.11-.29-6.24.24-9.34a4.36,4.36,0,0,1,2.88-.6q14,0,27.93,0a5.35,5.35,0,0,1,2.92.5,2.78,2.78,0,0,1,.7,2.32A73.75,73.75,0,0,1,604.27,420.78Z"/><path class="linkerd-35" d="M493.81,392.91c.59-1.8.05-3.66.33-5.48.87-.86,2-.74,3.06-.74q14.12,0,28.23,0a4.48,4.48,0,0,1,2.88.6,85.09,85.09,0,0,1,.15,12.16c-.93.93-2.14.74-3.27.74q-9.12,0-18.23,0a33,33,0,0,0-6.88.58C496.82,399.09,494.13,396.94,493.81,392.91Z"/><path class="linkerd-4" d="M879.67,248.84A3.39,3.39,0,0,0,880,248c.29-4.18.28-4.18,4.59-4.18h29.75a74.74,74.74,0,0,1,0,11.59H882.91c-2.94,0-2.88,0-3,3-.07,2.37.36,4.75-.28,7.09Z"/><path class="linkerd-36" d="M418.16,328.59h34.12v11.58H418.16Z"/><path class="linkerd-37" d="M838.19,354.54H804.07V343h34.27a1.74,1.74,0,0,1,.15.84C838.3,347.37,838.9,351,838.19,354.54Z"/><path class="linkerd-38" d="M838.34,257.71H804.07V246.13h34.27A86.21,86.21,0,0,1,838.34,257.71Z"/><path class="linkerd-39" d="M804.07,282.26h34.27a86.06,86.06,0,0,1,0,11.58H804.07Z"/><path class="linkerd-40" d="M452.3,134H418.16V122a2.79,2.79,0,0,1,2.13-.71c7.22-.06,14.45,0,21.68,0,.54,0,1.06.19,1.59.25,2.53,1.37,5.06,2.74,7.58,4.13a2.18,2.18,0,0,1,1.25,2.21C452.28,129.89,452.32,132,452.3,134Z"/><path class="linkerd-35" d="M603.84,433.76v12c-1,.9-2.32.71-3.53.72-6.17.05-12.34-.06-18.51.06a4.07,4.07,0,0,0-1.59.19,46.65,46.65,0,0,1-8.59-4.81,4.55,4.55,0,0,1-1.93-5c.46-1.14-.47-2.56.71-3.57a5.9,5.9,0,0,1,2.49-.36q14,0,27.9,0A4.15,4.15,0,0,1,603.84,433.76Z"/><path class="linkerd-41" d="M418.16,243.81h31.22c2.95,0,2.94,0,3,3,0,.67-.19,1.39.29,2v16.22c-.67-2.5-.3-5.05-.24-7.56,0-2-.47-2.64-2.57-2.62-10.56.11-21.13.05-31.69.05Z"/><path class="linkerd-42" d="M569.75,286.37c.63-3.43.21-6.89.25-10.34,0-1.55.4-2.13,2.07-2.16,3.52-.05,7,.3,10.58-.26,1.66-.26,3,1.39,4.46,2.19,5.32,2.91,10.53,6,15.82,9a2.35,2.35,0,0,1,1.4,2.37c-.05,2.85,0,5.7,0,8.55-1.59-.58-1.11-2-1.15-3.11-.15-3.57-.11-3.58-3.64-3.58H573.9c-3,0-3.11.17-3.14,3.13,0,2.77.06,5.54,0,8.31a13.16,13.16,0,0,1-.32,4.1.65.65,0,0,1-.64.41Z"/><path class="linkerd-43" d="M419.93,353.6c.31-1.42,1.45-.9,2.26-.9q15,0,30.09,0,.06,6,.13,12a5.58,5.58,0,0,1-8.45,3.73c-6.51-3.71-12.93-7.57-19.43-11.29C422.82,356.11,421.08,355.27,419.93,353.6Z"/><path class="linkerd-4" d="M418.16,158.1q15.27,0,30.54,0c.81,0,2-.52,2.27.89l-12.31,7.12L418.16,178Z"/><path class="linkerd-44" d="M880.05,353.15h29.18c1.15,0,2.34-.11,3.18.95-4.75,2.8-9.49,5.63-14.26,8.4-3.49,2-7,4-10.54,5.95s-7,.12-7.87-3.88C880.31,360.77,879.73,357,880.05,353.15Z"/><path class="linkerd-45" d="M804.07,391.59h34.11c.49.41.37.87.1,1.34a7.6,7.6,0,0,1-4.21,6.5L830,401.8c-7.92.55-15.85.16-23.77.23a2.71,2.71,0,0,1-2.13-.71Z"/><path class="linkerd-46" d="M728.49,442.56q13.63,0,27.28,0c.81,0,1.72-.31,2.38.5a67.2,67.2,0,0,1-8.07,4.93q-9.84,5.75-19.74,11.39a17,17,0,0,1-1.85.81Z"/><path class="linkerd-47" d="M762.68,284.11H731.25c2.2-2.09,5.06-3.12,7.6-4.67,3.87-2.35,7.9-4.43,11.8-6.73a3.52,3.52,0,0,1,2.61-.61c3.12.75,6.28.3,9.42.43Z"/><path class="linkerd-48" d="M500.08,400.77c1-1.46,2.62-1.28,4.08-1.28,8.05,0,16.1,0,24.15,0a42.24,42.24,0,0,1,.14,8.78c-2.15,5.12-5.25,5.95-10.8,2.76C511.77,407.64,505.94,404.19,500.08,400.77Z"/><path class="linkerd-49" d="M445.88,194.24c-.68.75-1.59.45-2.39.45q-12.67,0-25.33,0V184.05c2.82-.17,5.71.49,8.44-.75a1.3,1.3,0,0,1,1.09.07C433.61,187.24,440.1,190.14,445.88,194.24Z"/><path class="linkerd-50" d="M443.56,121.5c-.67.76-1.58.45-2.38.45-7.68,0-15.35,0-23,0V106.7q12.31,7,24.63,14A3.78,3.78,0,0,1,443.56,121.5Z"/><path class="linkerd-44" d="M580.21,446.77c.26-1.41,1.39-.95,2.21-1,7.14,0,14.28,0,21.42,0q0,7.36,0,14.73C595.86,456.13,587.92,451.65,580.21,446.77Z"/><path class="linkerd-48" d="M804.07,401.32h23a5.17,5.17,0,0,1,2.9.48c-6,3.47-11.85,7-17.88,10.35-4.07,2.25-8-.2-8.09-4.81C804,405.33,804,403.33,804.07,401.32Z"/><path class="linkerd-24" d="M838.33,343.25l.33.3c0,8.17-.08,16.33-.1,24.5,0,7.47,0,14.95,0,22.42,0,.82.27,1.7-.27,2.47,0-.45-.07-.89-.1-1.34v-25q0-6,0-12Q838.25,348.9,838.33,343.25Z"/><path class="linkerd-51" d="M569.75,305H570c1.41,2.32.52,4.87.71,7.31-.1,3.43.38,6.88-.29,10.29a.75.75,0,0,1-.68.46Q569.76,314,569.75,305Z"/><path class="linkerd-52" d="M570.06,433.75c-.19,1.06.32,2.2-.37,3.19q0-9,0-18H570l.07,2.33a2.86,2.86,0,0,1,.66,1.9q.12,4.35,0,8.7A2.87,2.87,0,0,1,570.06,433.75Z"/><path class="linkerd-53" d="M569.74,355.45V338.31a.73.73,0,0,1,.66.45c.67,3.35.22,6.73.3,10.09-.08,2.06.29,4.15-.3,6.19A.67.67,0,0,1,569.74,355.45Z"/><path class="linkerd-54" d="M569.73,402.7q0-8.56,0-17.13a.7.7,0,0,1,.66.45c.69,3.92.22,7.88.3,11.82-.06,1.5.21,3-.31,4.48A.62.62,0,0,1,569.73,402.7Z"/><path class="linkerd-55" d="M569.73,402.7H570a7.64,7.64,0,0,1,.06,7l-.06,9.26h-.27Z"/><path class="linkerd-27" d="M570,338.32h-.26V323H570a1.61,1.61,0,0,1,.51.7c.48,4.19.19,8.38.18,12.57A2.48,2.48,0,0,1,570,338.32Z"/><path class="linkerd-56" d="M569.74,355.45H570c1.28,1.69.58,3.64.71,5.48-.1,3.12.37,6.26-.3,9.36a.72.72,0,0,1-.67.44Z"/><path class="linkerd-57" d="M569.74,370.74H570c.76.67.66,1.57.7,2.44,0,3.9.29,7.8-.19,11.69a1.54,1.54,0,0,1-.51.7h-.26Z"/><path class="linkerd-58" d="M529.7,44H527A2.45,2.45,0,0,1,529.7,44Z"/><path class="linkerd-58" d="M805.35,44h-2.73A2.45,2.45,0,0,1,805.35,44Z"/><path class="linkerd-58" d="M673.93,757.11v-2.76"/><path class="linkerd-58" d="M757.29,20l0-2.27A1.73,1.73,0,0,1,757.29,20Z"/><path class="linkerd-58" d="M501.44,766.84l2.34-.35C503.07,767.1,502.23,766.77,501.44,766.84Z"/><path class="linkerd-58" d="M660.38,766.47l2.37.36C662,766.77,661.09,767.11,660.38,766.47Z"/><path class="linkerd-51" d="M604.32,301.71q0,21.17-.07,42.33c0,1-.07,2-.1,3-1.2-.53-1-1.65-1-2.58-.06-2.69-.08-5.37,0-8-.08-4.3-.09-8.6,0-12.89-.08-3.72-.09-7.43,0-11.14-.12-2.69,0-5.38-.06-8.06-.05-2.51-.26-2.77-2.8-2.78-8.91,0-17.82,0-26.73,0-1.21,0-2.49.18-3.52-.73,0-3.55,0-7.09,0-10.64,0-1.38.41-1.9,1.85-1.89q15,.08,30.08,0c1.56,0,1.93.58,2,2,0,1.8-.55,3.67.41,5.41Z"/><path class="linkerd-59" d="M494,253.54v-12a3.85,3.85,0,0,1,2.6-.73c9.29,0,18.57,0,27.85,0a6.52,6.52,0,0,1,2,.29c.81-.07,1.21.67,1.86.93q0,5.79,0,11.58a4.13,4.13,0,0,1-3.06.74q-14.1,0-28.19,0A4.51,4.51,0,0,1,494,253.54Z"/><path class="linkerd-60" d="M526.49,241a5.16,5.16,0,0,1-2.92.46H494V229c3.68-.17,7.37.28,11.05-.26,1.35-.19,2.32,1.1,3.44,1.72,5.78,3.19,11.5,6.49,17.24,9.76A4.1,4.1,0,0,1,526.49,241Z"/><path class="linkerd-32" d="M914.22,133.55v12.51a4.1,4.1,0,0,1-3.05.74q-14.05,0-28.1,0c-1.06,0-2.17.1-3-.74V133.55c.87-.84,2-.74,3.05-.74q14,0,28.09,0A4.1,4.1,0,0,1,914.22,133.55Z"/><path class="linkerd-7" d="M880,146.06h34.19v12c-1,.92-2.31.73-3.53.73-9.24,0-18.48,0-27.72,0a5,5,0,0,0-1.6.15,2.28,2.28,0,0,1-1.42-2.37C880,153.1,880,149.58,880,146.06Z"/><path class="linkerd-40" d="M914.22,133.55H880c0-.15,0-.3,0-.46-.2-7-.21-7,6-10.15.94-.48,1.7-1.32,2.82-1.44a9.57,9.57,0,0,1,3.41-.28c6.25,0,12.5,0,18.74,0,1.14,0,2.34-.14,3.3.73Z"/><path class="linkerd-4" d="M881.37,159c.58-1.18,1.67-.89,2.64-.89h30.21l0,19.92q-12.74-7.41-25.47-14.81C886.32,161.79,883.84,160.4,881.37,159Z"/><path class="linkerd-49" d="M914.29,183.58V194.7H889.37a5.16,5.16,0,0,1-2.92-.46c4.53-3.18,9.72-5.3,14.14-8.57,3.33-2.46,6.85-2.06,10.46-2.09Z"/><path class="linkerd-50" d="M914.22,122c-7.2,0-14.41,0-21.61,0a12.13,12.13,0,0,1-3.84-.48c3.33-2.63,7.24-4.3,10.87-6.44,4.82-2.86,9.71-5.59,14.58-8.37Z"/><path d="M1138,694.54l0-10c-.45-1.1,0-2.29-.33-3.4-.65-2.81-.85-5.69-1.43-8.53-3.88-18.9-13.46-34.08-29.32-45.16-11.66-8.16-24.84-12.05-38.83-13.6-1.07-.36-2.22.2-3.27-.35h-16.43c-10.5,0-21-.14-31.5,0-7.54.14-10.84,2.81-11.92,9.69a6.7,6.7,0,0,0-.1,1.84v129a5.78,5.78,0,0,0,.14,2.07c.35.6.14,1.29.36,2,1.66,5.05,5.28,7.23,10.38,7.39,6.06.32,12.13.12,18.2.12,9.21,0,18.43.15,27.65-.08l5-.16c.91-.47,1.94,0,2.87-.33,1.65-.2,3.32-.31,5-.63,10.28-2,20.12-5.08,29.16-10.56A69.39,69.39,0,0,0,1130.09,725c4.3-8.56,6.42-17.75,7.58-27.2C1138,696.74,1137.46,695.59,1138,694.54Zm-34,29.31c-8.43,12-20.34,18.53-34.69,20.74-9.89,1.53-19.87.68-29.81.86-3.24.06-6.48-.11-9.72.06-1.8.09-2.13-.5-2.12-2.19.07-17.44,0-34.88,0-52.32v-1.62c0-17.82,0-35.65,0-53.48,0-1.72.33-2.32,2.21-2.29,10.88.15,21.76,0,32.63.24,27.07.68,46.92,18.29,51,45C1116,695.05,1113.58,710.28,1104.05,723.85Z"/><path d="M963.05,748.06c-8.78-11.69-17.09-23.73-25.58-35.64-2-2.74-3.83-5.53-5.81-8.4,10.41-2.34,18.79-7.35,25.16-15.63,5-6.53,7.32-14.08,8.47-22.08.42-1.22-.18-2.55.36-3.76V658c-.54-1.21.06-2.53-.36-3.75-.33-1.79-.64-3.59-1-5.38a42.1,42.1,0,0,0-19.16-27.81C938.67,617,931.46,615,924,613.86c-.8-.28-1.68.08-2.47-.31l-27.32,0c-9.73,0-19.45,0-29.18,0-3.89,0-7.61.66-10.21,4.1-2.1,2.79-2.16,6-2.16,9.24q0,63.45,0,126.9a25,25,0,0,0,.13,3.24,10.94,10.94,0,0,0,10.79,9.7c6.22.07,10-3.35,11.86-9.14a8.21,8.21,0,0,0,.13-2.52q0-22.66,0-45.32a4.51,4.51,0,0,1,.23-2.49,2.28,2.28,0,0,1,.64-.21c9.88,0,19.75,0,29.63,0a2.57,2.57,0,0,1,2.23,1.31c8.82,12.73,17.54,25.53,26.45,38.2,4,5.76,7.51,12,12.36,17.13s13,3.55,16.64-1.27C966.59,758.61,966.54,752.71,963.05,748.06Zm-85.63-61.25c-1.56,0-1.9-.46-1.88-1.94.06-8.25,0-16.51,0-24.77s0-16.36,0-24.55c0-1-.13-1.94,1.46-1.92,13.5.18,27-.59,40.5.37,10.22.72,18.28,5.7,22.26,15.52,4.06,10,3,19.72-4.12,28.18-5.21,6.2-12.31,8.92-20.27,9C902.74,686.9,890.08,686.75,877.42,686.81Z"/><path class="linkerd-57" d="M603.83,336.46c.22,3.52-.32,7.07.32,10.58.08.75.15,1.5.23,2.25q0,20,0,39.93a4.58,4.58,0,0,1,.73,3.09q0,12.51,0,25a4.81,4.81,0,0,1-.72,3.09,1.35,1.35,0,0,1-.08.36c-.89-2.67-.19-5.43-.4-8.14-.07-1,0-2,0-3a3.67,3.67,0,0,1-.7-2.6c0-3-.08-6,0-9-.08-4.32-.09-8.64,0-13-.08-4-.09-8,0-12.06-.08-4-.09-8,0-12.05-.12-2.84,0-5.68-.06-8.52-.05-2.52-.26-2.77-2.8-2.79-8.91,0-17.82,0-26.73,0-1.21,0-2.49.18-3.52-.73L570,338.32l.06-1.86a4.11,4.11,0,0,1,3.05-.74q13.83,0,27.67,0A4.16,4.16,0,0,1,603.83,336.46Z"/><path class="linkerd-61" d="M914.22,304v13a4.1,4.1,0,0,1-3.05.74q-14,0-28.08,0c-1.06,0-2.17.11-3-.74V304c.86-.85,2-.74,3-.75q14.05,0,28.09,0A4.1,4.1,0,0,1,914.22,304Z"/><path class="linkerd-15" d="M914.29,267.43v12.51a4.32,4.32,0,0,1-3.06.75q-14.07,0-28.14,0c-1.06,0-2.18.11-3.05-.74,0-3.46,0-6.92-.11-10.38-.08-1.8.62-2.18,2.28-2.17C892.9,267.47,903.6,267.43,914.29,267.43Z"/><path class="linkerd-62" d="M880,280h34.25v12.51a4.37,4.37,0,0,1-3.06.75q-14.07,0-28.14,0c-1.06,0-2.17.12-3.05-.73Z"/><path class="linkerd-63" d="M880.05,317h34.17v12a4.1,4.1,0,0,1-3.05.74q-14,0-28.08,0c-1.06,0-2.17.11-3-.73Z"/><path class="linkerd-36" d="M880.05,329.06h34.17v11.58H880.05Z"/><path class="linkerd-23" d="M880,292.46h34.25q0,5.79-.07,11.58H880.05Q880.05,298.25,880,292.46Z"/><path class="linkerd-64" d="M528.31,374.92v12.5H494.14v-12.5c.86-.86,2-.75,3-.75q14,0,28.08,0A4.15,4.15,0,0,1,528.31,374.92Z"/><path class="linkerd-65" d="M494,350.82c-.2-4.17-.18-8.34,0-12.51a4.45,4.45,0,0,1,3.07-.74q14.1,0,28.19,0a4.09,4.09,0,0,1,3.06.75v12.51Z"/><path class="linkerd-34" d="M528.31,374.92H494.14c0-3.09,0-6.18-.11-9.26-.09-1.8.44-2.39,2.32-2.38,10.65.09,21.31,0,32,0Z"/><path class="linkerd-64" d="M570.06,433.75q0-6.25,0-12.5c10.49,0,21,0,31.49-.05,1.87,0,2.4.56,2.33,2.37-.13,3.39,0,6.79,0,10.19Z"/><path class="linkerd-66" d="M603.83,398.08v11.58H570.06l-.06-7,.06-4.63a4.13,4.13,0,0,1,3.06-.74q13.83,0,27.65,0A4.13,4.13,0,0,1,603.83,398.08Z"/><path class="linkerd-27" d="M570.06,300.79c10.5,0,21,0,31.49,0,1.86,0,2.42.54,2.34,2.36-.14,3.08,0,6.18-.06,9.26a4.18,4.18,0,0,1-3.06.75H573.11a4.16,4.16,0,0,1-3.05-.75L570,305Z"/><path class="linkerd-53" d="M494,277.63V265.12a4.46,4.46,0,0,1,3.07-.75h28.19a4.18,4.18,0,0,1,3.06.75v12.51a4.13,4.13,0,0,1-3.06.74q-14.1,0-28.19,0A4.51,4.51,0,0,1,494,277.63Z"/><path class="linkerd-67" d="M494,302.18V289.67a4.51,4.51,0,0,1,3.07-.75q14.1,0,28.19,0a4.13,4.13,0,0,1,3.06.74v12.51a4.13,4.13,0,0,1-3.06.75H497.06A4.46,4.46,0,0,1,494,302.18Z"/><path class="linkerd-54" d="M494,302.18h34.32v12.51a4.13,4.13,0,0,1-3.06.74q-14.1,0-28.19,0a4.46,4.46,0,0,1-3.07-.75Z"/><path class="linkerd-68" d="M528.31,289.67H494v-12h34.32Z"/><path class="linkerd-52" d="M528.31,338.32H494v-12a4.51,4.51,0,0,1,3.07-.75q14.1,0,28.19,0a4.13,4.13,0,0,1,3.06.74Z"/><path class="linkerd-69" d="M528.31,265.12H494V253.54h34.32Z"/><path class="linkerd-55" d="M528.31,326.27H494V314.69h34.32Z"/><path class="linkerd-53" d="M570.06,312.37h33.77v11.12a4.13,4.13,0,0,1-3.06.74q-13.83,0-27.65,0a4.13,4.13,0,0,1-3.06-.74L570,323Z"/><path class="linkerd-54" d="M570.06,349c10.5,0,21,0,31.5,0,1.85,0,2.4.55,2.33,2.36-.13,3.24,0,6.49,0,9.73a4.23,4.23,0,0,1-3.06.74q-13.83,0-27.67,0a4.13,4.13,0,0,1-3.06-.74l-.06-5.56Z"/><path class="linkerd-70" d="M603.83,398.08H570.06L570,385.57l.06-.46a4.18,4.18,0,0,1,3.06-.75h27.67a4.21,4.21,0,0,1,3.06.75Z"/><path class="linkerd-56" d="M570.06,323.49h33.77v13H570.06Z"/><path class="linkerd-55" d="M570.06,361h33.79v12a4.24,4.24,0,0,1-3.06.75H573.12a4.13,4.13,0,0,1-3.06-.75l-.06-2.32Z"/><path class="linkerd-52" d="M570.06,373.06h33.79v12.05H570.06Z"/></svg>