<svg id="Layer_1" data-name="Layer 1" xmlns="http://www.w3.org/2000/svg" viewBox="0 0 1366 768"><defs><style>.nginx-1{fill:#009800;}</style></defs><title>nginx</title><path class="nginx-1" d="M645,186.5v3.75q0,138.14,0,276.27c0,19.07-7.17,34.73-22.7,45.77a54,54,0,0,1-84.64-33.35,66.64,66.64,0,0,1-1.13-13.59q0-204.24,0-408.46C536.54,27.2,555,5.18,584.34,1c17.89-2.52,33.25,3.86,46,16.64q29.82,29.93,59.73,59.77Q818.58,206,947.1,334.58c.8.8,1.48,1.71,2.38,2.77.92-1.77.58-3.05.58-4.27q0-138.31,0-276.63c0-17.12,5.86-31.65,18.91-42.69C984.73.41,1003-3,1022.4,3.82c19.14,6.77,30.8,20.78,35,40.76a63.84,63.84,0,0,1,1.2,13.24q0,204.06,0,408.11c0,19.11-7,34.76-22.48,46.29-20.19,15-49.84,13.61-68.1-3.74-14.06-13.36-27.57-27.3-41.29-41Q787.31,328,647.88,188.52c-.74-.74-1.4-1.57-2.09-2.36Z"/><path class="nginx-1" d="M693.21,690.81H689.9c-15.77.1-31.55.23-47.33.31-11.16.06-20.52-6.92-22.84-17-3.09-13.35,7.72-25.94,22.51-26q55.74-.2,111.5-.24h8.71c.65,1.31-.3,2.11-.72,3Q735.36,704.32,709,757.74c-.87,1.78-1.78,2.54-3.88,2.54q-57.32-.1-114.65,0a4,4,0,0,1-4-2.46Q559,709.43,531.49,661.11a5,5,0,0,1-.14-5.64q27.48-49.56,54.7-99.24c1.22-2.23,2.45-3.07,5.05-3.07q59.08.15,118.16,0c2.45,0,3.64.72,4.69,3,11.18,23.73,20.37,48.3,30.73,72.37.83,1.91.79,2.62-1.6,2.6-12.86-.08-25.71-.1-38.57,0-2.18,0-2.73-1.22-3.45-2.72-4.74-9.87-9.57-19.71-14.23-29.62a4,4,0,0,0-4.23-2.61q-33.14.14-66.27,0c-2.35,0-3.45.81-4.54,2.81q-15.37,28.05-31,56a4.73,4.73,0,0,0,.07,5.39q15.42,26.83,30.6,53.82c1.08,1.92,2.2,2.77,4.57,2.75q31-.16,62.06,0c2.11,0,3.29-.48,4.25-2.54,3.25-7,6.79-13.8,10.16-20.71C692.86,692.87,693.63,692.13,693.21,690.81Z"/><path class="nginx-1" d="M897.4,686.77q19.51-19.63,39-39.26,43-43,86-86c4.86-4.88,10.29-7.94,17.33-7.67a21.72,21.72,0,0,1,21,20.48c0,.58,0,1.17,0,1.75q0,81.69,0,163.39A21.36,21.36,0,0,1,1038.51,761c-11.65-.4-20.48-9.67-20.51-21.85-.08-27.35,0-54.7,0-82V627.24c-1.47,1.41-2.44,2.31-3.38,3.24q-61.37,61.37-122.7,122.76c-7,7-15,9.89-24.44,6.31-7.82-2.95-12.4-8.85-13.59-17.21a34.72,34.72,0,0,1-.31-4.89q0-80.64,0-161.28c0-9.74,4.33-16.73,13.27-20.75,12.27-5.52,27.35,2.81,29.23,16.17a47.45,47.45,0,0,1,.46,6.63q0,52.24,0,104.49v3.73Z"/><path class="nginx-1" d="M466.22,686.12v-3.7q0-53.82,0-107.64c0-10.74,8.11-20.24,18.06-21.37,11.88-1.34,21.83,5.47,24.3,16.75a26,26,0,0,1,.49,5.57q0,81.35,0,162.68c0,12.12-7.47,20.58-19.49,22.13A19.37,19.37,0,0,1,473,754.82c-8.08-8-16.07-16-24.08-24L347.28,629.12c-.58-.57-1.18-1.12-2-1.86-.72,1.35-.4,2.63-.4,3.82,0,35.88,0,71.76-.05,107.63,0,12.62-9.29,21.89-21.55,21.86a21.27,21.27,0,0,1-21.24-21.14c-.13-11.1,0-22.21,0-33.31q0-65.21,0-130.42c0-11.09,6.26-19.5,16.51-21.87,8.14-1.88,15.15.41,21.06,6.4,9.6,9.73,19.31,19.36,29,29q47.46,47.49,94.9,95a12.32,12.32,0,0,1,1.6,2.62Z"/><path class="nginx-1" d="M1272.36,760.62c-6.54.12-11.71-2.68-16.2-7.17-21.17-21.14-42.4-42.2-63.5-63.41-2.18-2.21-3.2-2.15-5.36,0q-31.52,31.7-63.25,63.16c-9.24,9.19-21.7,9.84-30.79,1.75a21.35,21.35,0,0,1-.78-31c16-16.18,32.24-32.21,48.38-48.3,5.46-5.45,10.82-11,16.43-16.28,2-1.87,1.75-2.81-.06-4.61Q1125.11,623,1093.17,591c-9.21-9.2-9.43-22.24-.55-31.22,8.62-8.72,21.71-8.61,31,.53,17.11,16.93,34.09,34,51.12,51,4.39,4.37,8.89,8.64,13.1,13.18,1.83,2,2.76,1.77,4.57-.05,20.86-20.95,41.85-41.76,62.71-62.71,5.58-5.61,11.87-9,20-7.91,8.34,1.12,14.28,5.55,17.29,13.43s1.89,15.64-3.84,21.9c-7.34,8-15.24,15.49-22.93,23.16q-21.46,21.42-43,42.76c-1.89,1.86-1.45,2.71.16,4.31q32.21,32,64.28,64.12c12.08,12.11,7.13,31.65-9.15,36.27A43.89,43.89,0,0,1,1272.36,760.62Z"/><path class="nginx-1" d="M784.56,695.18c0-14.6.06-29.2-.06-43.8,0-2.5.72-3.08,3.12-3,12.38.12,24.76.1,37.14,0,2.2,0,3,.47,3,2.89-.08,29,.09,57.93-.12,86.9-.11,15-14,25.42-27.7,21.33-8.71-2.59-15.35-11.44-15.4-20.83C784.5,724.15,784.56,709.66,784.56,695.18Z"/><path class="nginx-1" d="M784.56,600.68c0-8.65,0-17.29,0-25.93,0-10.75,9.22-20.67,19.75-21.42,11-.8,21.53,7.67,23,18.62a39.89,39.89,0,0,1,.39,5.23c0,16.94,0,33.87.08,50.81,0,2.64-.66,3.3-3.28,3.26-12.38-.15-24.77-.12-37.14,0-2.29,0-2.92-.59-2.89-2.88C784.64,619.13,784.56,609.9,784.56,600.68Z"/></svg>