<svg id="Layer_1" data-name="Layer 1" xmlns="http://www.w3.org/2000/svg" viewBox="0 0 1366 768"><defs><style>.optl-1{fill:#4b5faa;}.optl-2{fill:#f5a71c;}.optl-3{fill:#fcfcfc;}</style></defs><title>opentelemetry</title><path class="optl-1" d="M518.73,289.11v-3c.37-.62,0-1.34.26-2a26.49,26.49,0,0,1,8.16-16.06c38.09-37.39,75.58-75.38,113.39-113a26.11,26.11,0,0,1,36.65-.08q70.63,70.53,141.17,141.17a26.07,26.07,0,0,1-.16,36.65q-27.84,27.87-55.69,55.76c-1.26,1.27-1.81,1.06-3-.06a127,127,0,0,0-123.95-30.82,122.72,122.72,0,0,0-37,17.61c-1.63,1.15-2.47.94-3.81-.4Q561,341,527.14,307.17A26.8,26.8,0,0,1,519,291.1C518.76,290.46,519.1,289.74,518.73,289.11Z"/><path class="optl-2" d="M897,303.68c-8.46,0-14.63-2.6-19.74-7.71L677.33,96.05a25.9,25.9,0,0,1,0-37q25.42-25.49,50.91-50.91a25.9,25.9,0,0,1,37,0L965.15,208.05a25.91,25.91,0,0,1,0,37Q939.75,270.53,914.26,296A24.85,24.85,0,0,1,897,303.68Z"/><path class="optl-1" d="M441.27,636.8a23.76,23.76,0,0,1-14.42-7q-41.61-41.74-83.35-83.36a24.07,24.07,0,0,1-7-14.46,34.59,34.59,0,0,1,0-6.19,25.73,25.73,0,0,1,7.87-15.78q72.22-72.19,144.42-144.45a27.23,27.23,0,0,1,17.5-8.4,12.53,12.53,0,0,1,3.46,0,27.08,27.08,0,0,1,16.81,8.09q19.62,19.83,39.46,39.46c1.06,1.06,1.16,1.68.27,2.95a126,126,0,0,0-19.46,44.46,62.3,62.3,0,0,0-2,13.67c-.4.61,0,1.34-.28,2l-.12,2.25c-.39.91,0,1.89-.26,2.81a126.82,126.82,0,0,0,0,14.06c.27.9-.14,1.88.26,2.77l.12,2.28c.27.63-.13,1.35.29,1.95.26,6.45,1.81,12.66,3.39,18.86a119,119,0,0,0,7.91,21.59c.34.72.33,1.17-.28,1.64a6.41,6.41,0,0,0-.7.68q-46.22,46.21-92.43,92.45a25.84,25.84,0,0,1-15.2,7.67A34.59,34.59,0,0,1,441.27,636.8Z"/><path class="optl-2" d="M328.36,597.32A25.56,25.56,0,0,1,344,605q12,12.3,24.34,24.33A25.67,25.67,0,0,1,376,644.93a19,19,0,0,1,0,3.84,25.83,25.83,0,0,1-7.71,15.59c-17.2,17.09-34.3,34.29-51.49,51.39-1.25,1.25-1.3,1.9,0,3.15,4.53,4.36,9,8.82,13.37,13.31,11.2,11.42,5.92,31-9.57,35-6.86,1.76-13.39.85-19-4.1-1.1-1-2.24-1.93-3.28-3L212.18,674c-6.73-6.73-8.6-14.77-5.47-23.55,2.58-7.26,8.06-11.71,15.89-13,8-1.28,14.47,1.45,20,7.12,3.89,4,7.92,7.86,11.79,11.87,1.08,1.13,1.61,1.22,2.77,0,17.06-17.15,34.21-34.21,51.26-51.36a25.46,25.46,0,0,1,16.13-7.85A17.52,17.52,0,0,1,328.36,597.32Z"/><path class="optl-3" d="M328.36,597.32h-3.83"/><path class="optl-2" d="M754.54,475.65c-.47-1.15.05-2.38-.31-3.53-.18-1.6-.3-3.21-.55-4.8-3.87-24.53-16-43.92-36.5-57.91-13-8.86-27.53-13.3-43.21-14.07a45,45,0,0,0-6.57,0l-3.46.12c-.63.37-1.34,0-2,.26a90.85,90.85,0,0,0-21.86,5.22,80.28,80.28,0,0,0-26.67,16.77,93.62,93.62,0,0,0-9.9,11,82.32,82.32,0,0,0-12.61,24,74.07,74.07,0,0,0-3.82,19.74c-.27,1,.17,2.13-.26,3.15v6.9c.44,1,0,2.1.26,3.13.31,2.85.38,5.75,1,8.55a89.32,89.32,0,0,0,9.66,26.44,85.87,85.87,0,0,0,21.79,25,78.6,78.6,0,0,0,23.74,12.74,75.92,75.92,0,0,0,18.31,4c.75.33,1.61-.14,2.35.3l3.11.11a59.92,59.92,0,0,0,7.34,0l3.12-.11c.73-.44,1.59,0,2.34-.3,1.2-.17,2.4-.32,3.6-.51a80.94,80.94,0,0,0,21.17-6.18,85.1,85.1,0,0,0,27.67-19.89,84.18,84.18,0,0,0,13.72-20,86.83,86.83,0,0,0,8.26-29.83c.36-1.16-.16-2.39.31-3.53ZM670.6,520.51a41.41,41.41,0,1,1,41.53-41.36A41.51,41.51,0,0,1,670.6,520.51Z"/></svg>