<svg id="Layer_1" data-name="Layer 1" xmlns="http://www.w3.org/2000/svg" viewBox="0 0 1366 768"><defs><style>.python-1{fill:#646464;}.python-2{fill:#4280b2;}.python-3{fill:#4584b5;}.python-4{fill:#4686b8;}.python-5{fill:#656565;}.python-6{fill:#fee773;}.python-7{fill:#fed33b;}.python-8{fill:#3a76a6;}.python-9{fill:#306997;}.python-10{fill:#fede58;}.python-11{fill:#3e7bab;}.python-12{fill:#fee366;}.python-13{fill:#3772a1;}.python-14{fill:#3c78a9;}.python-15{fill:#3974a4;}.python-16{fill:#407dae;}.python-17{fill:#fee05f;}.python-18{fill:#356f9e;}.python-19{fill:#4787b9;}.python-20{fill:#fedc54;}.python-21{fill:#fee56d;}.python-22{fill:#fee162;}.python-23{fill:#fedf5c;}.python-24{fill:#316b9a;}.python-25{fill:#fee46a;}.python-26{fill:#fed747;}.python-27{fill:#fed540;}.python-28{fill:#fed94b;}.python-29{fill:#3c78a8;}.python-30{fill:#fed746;}.python-31{fill:#4888ba;}.python-32{fill:#417eaf;}.python-33{fill:#4989bc;}.python-34{fill:#3f7cad;}.python-35{fill:#4381b3;}.python-36{fill:#336d9c;}.python-37{fill:#fed643;}.python-38{fill:#417fb1;}.python-39{fill:#417fb0;}.python-40{fill:#feda4e;}.python-41{fill:#3974a5;}.python-42{fill:#fedb51;}.python-43{fill:#336c9c;}.python-44{fill:#feda4f;}.python-45{fill:#fee56e;}.python-46{fill:#4584b6;}.python-47{fill:#4a8bbd;}.python-48{fill:#4b8cbe;}.python-49{fill:#fefefe;}</style></defs><title>python</title><path class="python-1" d="M505.85,766.84c-.9-11.28-.84-11,11.3-14.11,4.28-1.08,8.65-2,12.86-3.79,13-5.61,18.7-15.39,18.51-29.13-.07-5.1,1.66-12.15-1-14.77-2.84-2.85-8.73,2.52-13.5,3.27-16.07,2.53-32.36,6.24-47.08-4.67-7.07-5.24-12-11.7-12-21.13,0-24.75-.28-49.5-.35-74.24,0-4.62,12.73-12.56,16.35-10.24,2.29,1.48,1.11,4.14,1.12,6.23.09,21.06.05,42.12.05,63.17,0,26.27,18.81,38.58,43.1,28.21,13.25-5.65,13.25-5.65,13.25-19.95,0-22.76.36-45.53-.2-68.28-.18-7.38,2.72-8.23,8.77-8,5.56.16,9.32-.22,9.19,7.74-.63,37.54.35,75.14-1,112.65-.86,23.75-8.53,34.65-37.51,43.73-5,1.57-10.56.12-15.1,3.36Z"/><path class="python-2" d="M702.21,7a1.62,1.62,0,0,1,.2,1.27c1.34,3.67-1.31,6-3.19,8.24-26.21,31-52.34,62-79,92.66H596.41c-1-2.41,0-4.5,1.51-6.16,6.47-7.26,11.86-15.49,19.19-22,13.49-2.38,18.43-11.58,19.19-24.1C650.16,43,661.82,27.24,674.83,12.62c1.7-1.9,3.33-3.86,5.18-5.62Z"/><path class="python-3" d="M680,7c-1.85,8-8.72,12.3-13.42,18.18-7.22,9-14.67,17.89-22.16,26.7-1.78,2.11-3.58,4.54-6.82,4.64-4-3.93-8-7.88-9.44-13.59C636.65,29.8,648,19,657.81,7Z"/><path class="python-4" d="M657.81,7c-1.55,7.63-8.06,11.86-12.38,17.52-5,6.59-11.18,12.31-16.84,18.41-3.54,2.14-6.69.45-9.87-1-2.88-4-.21-7.06,2.07-9.81,6.5-7.82,13-15.71,20-23.11,4.46-1.31,9.52,1.54,13.66-2Z"/><path class="python-5" d="M1042,582.43c-7.31-2.4-.73-9-4.37-12.5-1.16,2.94-2.4,6.23-3.77,9.47-.48,1.15-.48,3.25-2.42,2.71a5,5,0,0,1-2.88-2.69c-1.58-4.31-2.84-8.73-5.44-12.9v14.73h-1.61c0-5.66,0-11.32,0-17,0-1.26-.62-3.07,1.19-3.6,2.08-.61,3.21,1,3.71,2.58,1.48,4.77,2.74,9.61,4.18,14.77,3.45-3.4,3.48-8.21,5.36-12.15,1.28-2.7,1.58-6.34,6-5.65Z"/><path class="python-6" d="M570.94,338.26c-.07-16.45-.53-32.92-.11-49.36.5-19.48,20.35-41.23,41.37-46.13a73.64,73.64,0,0,1,17.61-1.92c25.82.27,51.64.25,77.46.34.41,5.25-3.78,7.36-7.1,9.73q-59.31,42.39-118.66,84.74C578.49,337.82,575.44,341.43,570.94,338.26Z"/><path class="python-1" d="M678.26,534.46v76.09a85.64,85.64,0,0,1,33.62-11.94c18.33-2.36,36.62,12.6,36.48,29.66-.2,24.46-.41,48.94.16,73.4.18,7.61-3.55,7.24-8.71,7.19s-9,.62-8.78-7.11q.93-30.71,0-61.45c-.32-10.93-2-22.15-13.92-27.44-8.86-3.92-17.12-.45-25.21,2.92-9.41,3.92-14.76,9.38-14,21.35,1.35,21.54,0,43.23.59,64.84.23,8-4.27,7.14-9,6.74-4.3-.36-10.24,3-10.17-6.41.38-52.06.24-104.13.08-156.19,0-4.78,1.36-7.26,6.14-8.15C669.63,537.2,673.57,535.78,678.26,534.46Z"/><path class="python-7" d="M785.83,359c.46.28,1.32.57,1.32.86.12,16.75,2.19,33.8-.26,50.17-3.53,23.56-22.3,34.8-42.74,42.43a186.24,186.24,0,0,1-73.61,12c-7.12-.31-14.43-.64-21.34-3.07-2.4-4.28.93-6.39,3.54-8.26q29.29-21.06,58.7-42c2.33-1.65,4.86-3,7.91-2,2.73,1.5,3.35,4.44,4.72,6.88,5.47,9.82,16.85,13,25.36,7.19,9.69-6.63,11.71-18.55,4.63-27.41-1.59-2-3.64-3.61-4.78-6-1.13-3.61.88-6,3.43-7.88C763.54,374.05,774,365.6,785.83,359Z"/><path class="python-8" d="M758.55,20.93c3.75,2.39,8.09,4,10.45,8.18-2.38,8.37-9.44,13.39-14.67,19.54Q685.93,129,617.61,209.45c-7,8.23-14,16.38-21.26,24.36-18.67,9-30.48,24-37.85,43-18.74,22-37.61,43.94-56.07,66.21-4.18-1.77-8.55-3.18-12-6.27-.61-5.27,3.43-8.21,6.23-11.48,39.23-45.74,78.14-91.74,117.17-137.64,16.21-19.05,32.65-37.9,48.53-57.22a40.2,40.2,0,0,1,7.45-7l8.37-.31c-.95-11.63,7.64-18.2,14.05-25.68q30.73-35.91,61.29-72A17.73,17.73,0,0,1,758.55,20.93Z"/><path class="python-9" d="M787.3,118c.09,20.18,1.4,40.44,0,60.51-1.93,27.33-24.64,47.93-50.94,48.68-14.19.4-28.41-.1-42.62-.2-1.25-4.38,2-6.84,4.27-9.59,26.9-32.34,54.44-64.14,81.71-96.16C781.6,119,783.36,115.75,787.3,118Z"/><path class="python-1" d="M883.2,660.88c0-13.37,0-26.74,0-40.1,0-3.23,0-6.16,3.18-8.19,20.2-13.06,41.44-21,65.73-13.05A29,29,0,0,1,972,626.93c.06,25-.34,50.06.23,75.07.18,8.08-4.33,7.08-9,6.71-4.32-.34-10.4,2.93-10.14-6.43.58-21.31-.82-42.72.45-64,1.43-24-17.77-34.79-39.49-27.79-8.25,2.67-12.73,6.67-12.32,16.88,1,24.7-.13,49.48.55,74.2.25,8.69-4.55,7.25-9.52,7.17-4.77-.07-10.18,1.84-9.69-6.95C883.75,688.21,883.2,674.53,883.2,660.88Z"/><path class="python-10" d="M577.48,425.5c-2.84-3.54-5-7.39-5.13-12.08,2.18-4.7,6.77-6.76,10.65-9.5,63.89-45.13,127.43-90.76,191-136.29q56.21-40.23,112.54-80.29c3-2.17,5.81-5.72,10.44-4.56,1.9,3.82,3.28,7.76,3,12.12-1.19,3.17-4,4.64-6.58,6.45q-97.39,69.83-195,139.4c-2.09,1.5-4.46,2.49-6.48,4.06-1.67.09-3.39.52-5,.22-7.13-1.32-9.45,2.1-8.9,8.6-11.32,10.32-24.45,18.21-36.75,27.2-19,13.85-38,27.65-57.29,41C582,423.23,580.17,425.16,577.48,425.5Z"/><path class="python-11" d="M630.45,123.39H651c2.89,3.81,0,6.35-2.12,8.88C616,171.07,583,209.66,550.07,248.39q-31.7,37.32-63.49,74.57c-1.83,2.15-3.31,4.68-6.43,5.24a31.89,31.89,0,0,1-10.35-15.48c2.41-8.37,9.44-13.43,14.7-19.57C529,241.2,572.92,188.68,617.81,137,621.87,132.35,624.73,126.54,630.45,123.39Z"/><path class="python-12" d="M882.94,145.39c2.22,3.17,5,6,5.57,10.11-19.61,15.48-40.35,29.4-60.65,43.93Q710.75,283.3,593.39,366.78c-6.9,4.9-12.55,12.71-22.45,12.41V365.58c12-11,25.87-19.44,39-28.88q63-45.33,126.33-90.27a85.28,85.28,0,0,1,8.65-5.43c13.45-4.71,26.84-9.6,36.69-20.63,3.87-4.34,7.29-9.09,10.92-13.66q40.93-30,82.59-59C877.4,146.1,879.78,144.27,882.94,145.39Z"/><path class="python-13" d="M778.76,39.49c2.84,5.47,7.62,10.16,6.83,17.08-3.65,7.91-10.55,13.24-16,19.69q-41.08,48.88-82.71,97.31c-15.29,17.88-30,36.24-46.16,53.41H618.59c-1.21-4,1.59-6.38,3.72-8.93,22.21-26.57,44.87-52.76,67.26-79.17q31.95-37.66,64.06-75.19C759.34,57,764.72,50,771,43.82,773.13,41.72,775,38.77,778.76,39.49Z"/><path class="python-14" d="M480.15,328.2Q505.58,298,531,267.85c17.49-20.77,34.87-41.63,52.45-62.32C598.1,188.27,613,171.19,627.74,154c7.2-8.37,14.38-16.75,21.62-25.08A7.68,7.68,0,0,0,651,123.4h18.78c-5.7,10.17-14.12,18.2-21.48,27-21.35,25.62-43,51-64.64,76.38C569,244,554.05,261,539.42,278.27c-16.45,19.39-32.7,39-49,58.46C486,335.1,482.78,332,480.15,328.2Z"/><path class="python-15" d="M778.76,39.49C763,53.42,750.88,70.66,737,86.31c-15.55,17.55-30.44,35.68-45.6,53.57q-22.18,26.19-44.35,52.41c-9.67,11.42-20.46,21.92-28.48,34.69-7.22,2.9-15.34,2.9-22.24,6.83,1.84-9,9.6-13.91,14.93-20.25,30.55-36.44,61.77-72.31,92.64-108.48,21.3-25,42.4-50.09,63.62-75.13a5.08,5.08,0,0,1,1.46-.84C772.84,32,776.51,35.09,778.76,39.49Z"/><path class="python-16" d="M630.45,123.39c-5.8,10.53-14.66,18.65-22.22,27.77-18.92,22.86-38.32,45.34-57.61,67.89q-31.71,37.07-63.6,74c-5.69,6.61-11.48,13.13-17.22,19.69a33.88,33.88,0,0,1-6.36-15.45c19.24-23.78,39.47-46.74,59.25-70.07,21.26-25.06,42.4-50.22,63.94-75,8.35-9.61,15.71-20.08,25.08-28.79Z"/><path class="python-17" d="M891.83,163.92a16,16,0,0,1,3.2,10.42c-17.18,13.58-35.38,25.75-53.16,38.48q-105.43,75.51-211,150.82-25,17.87-50,35.68c-2.83,2-5.79,5.17-9.87,2.12,0-3.42,0-6.83,0-10.25,37.3-26.92,74.81-53.53,112.22-80.29q98.75-70.63,197.57-141.14C884.14,167.33,887.19,164.08,891.83,163.92Z"/><path class="python-18" d="M640.74,227c3.81-9.07,11.18-15.51,17.29-22.79,28.53-34,57.06-68.05,86.35-101.41C758,87.28,769.67,70,785.59,56.57c3.92,7.13,1.37,14.75,1.71,22.15C745.41,128.25,703.15,177.47,661.23,227Z"/><path class="python-3" d="M456.61,266.5c-3-7.71-1.58-16-3.41-23.91,12.08-15.72,25.53-30.3,38.26-45.48,19.1-22.78,38.67-45.18,57.7-68,1.81-2.18,3.36-4.61,6.16-5.7h22.24c2.9,3.81.05,6.35-2.1,8.88q-49.08,57.63-98.1,115.31c-4.4,5.18-8.41,10.72-13.58,15.22C461.71,264.6,460,267.23,456.61,266.5Z"/><path class="python-1" d="M616.83,562.92c0,10.19.49,19.61-.16,28.94-.47,6.75,2,8.57,8.14,7.69,2.23-.32,4.58.21,6.81-.1,5.34-.74,5.81,2.1,5.91,6.48.11,4.69-1.69,5.55-5.95,5.63-14.75.3-14.75.47-14.75,15.25,0,17.35,0,34.69,0,52,0,14.77,2.16,17.63,16.62,21.43,3.77,1,3.82,3.37,4,6.37.2,3.91-2.21,3.7-4.92,3.88-14.75,1-25.93-4.61-31.11-15.3-1.56-3.23-1.66-6.45-1.66-9.83,0-22.47-.16-44.94.12-67.4.06-5.23-1.32-7.3-6.63-6.59-4.22.56-7.42.42-7.38-5.83,0-5.93,2.66-6.76,7.18-6,6,1,7.3-2.07,6.76-7.24a80.86,80.86,0,0,1,0-8.53C599.74,566.87,599.74,566.87,616.83,562.92Z"/><path class="python-19" d="M555.32,123.39c-8.81,14.61-21.27,26.27-32,39.33-14.31,17.44-28.66,34.86-43.72,51.63-8.6,9.58-15.32,21-26.41,28.24-1.07-9.78,0-19.42,1.7-29,6.87-11.22,16.49-20.19,24.88-30.15,16.09-19.12,32.41-38.06,48.51-57.18a32.69,32.69,0,0,1,3.17-2.83Z"/><path class="python-20" d="M692,344.81c4.6-8,13.1-11.36,20-16.37q89-64.23,178.57-127.79c3-2.13,6.27-3.84,9.42-5.75a20.91,20.91,0,0,1,1.85,11.89c-15.16,13-32.12,23.45-48.2,35.15-46.23,33.61-93.23,66.16-139.37,99.92a42.87,42.87,0,0,1-5.18,2.95Z"/><path class="python-21" d="M570.94,338.26c2.74.29,4.8-1,7-2.57q61.49-43.87,123-87.7c2.48-1.78,4.27-4.51,6.37-6.8h20.49c.14,5.89-4.72,8.05-8.44,10.75-34.46,25-69.22,49.57-103.84,74.35-11.07,7.93-22.14,15.88-33.28,23.71-3.22,2.26-6.3,6.25-11.27,3.62Q570.95,345.94,570.94,338.26Z"/><path class="python-22" d="M570.94,379.19c20-11.37,37.73-26,56.52-39.07,30.88-21.51,61.2-43.81,91.81-65.7q80.43-57.54,160.9-115c2.58-1.85,5.1-3.58,8.34-3.9,2,1.14,1.37,3.34,2,5-11.37,10.35-24.42,18.47-36.87,27.35Q718.32,284.49,583,381.1c-3.6,2.57-6.88,6.19-12.09,4.92Z"/><path class="python-23" d="M897,182.78q-85.36,60.93-170.74,121.83-59.14,42.13-118.41,84.1c-11.77,8.34-23.68,16.48-35.53,24.71-2.5-1.89-1.45-4.47-1.34-6.86q50.15-36,100.39-71.77Q753.06,276.31,834.83,218c17.52-12.58,35-25.17,52.75-37.47,2.57-1.79,5-5.08,9-2.72Z"/><path class="python-7" d="M898.78,282c-5.24,19.32-10.84,38.38-26.32,52.67a38,38,0,0,1-24.35,10.28c-12.17.6-24.4,0-36.61-.11-2-4.16,1.66-5.62,3.85-7.21,25.17-18.22,50.53-36.19,75.81-54.25C893.34,281.78,895.75,279.65,898.78,282Z"/><path class="python-22" d="M570.94,386c20-11.38,37.74-26,56.53-39.08,30.88-21.51,61.22-43.8,91.82-65.71q80.76-57.83,161.61-115.52c2.93-2.09,5.61-4.9,9.58-5.17l1.35,3.39q-37.51,27-75,54Q735.07,276.49,653.28,335,616,361.66,578.6,388.13c-2.32,1.66-4.51,3.52-7.66,3.06Z"/><path class="python-24" d="M787.3,118c-6.81,1.27-8.66,7.93-12.38,12.18-21.39,24.49-42.1,49.58-63.18,74.34-6.23,7.32-13.26,14-18,22.47H678.31c-2.26-4.32,1.06-7.07,3.27-9.6C703,192.84,723.72,167.76,745,143.11c11.47-13.28,22.61-26.85,34.19-40,2.11-2.4,3.77-6,8.12-3.87Z"/><path class="python-25" d="M570.93,353.62c13.7-5.28,24.19-15.53,35.94-23.73,35-24.42,69.5-49.61,104.18-74.49,6-4.28,12.43-8,16.71-14.21l17.15-.19c-7.81,9.64-18.9,15.15-28.65,22.22-45.51,33-91.39,65.45-137.23,98-2.45,1.73-4.7,4.24-8.09,4.39C570.94,361.59,570.94,357.61,570.93,353.62Z"/><path class="python-26" d="M775.64,344.8H756.86c-2.13-4.52,1.73-6,4.26-7.81Q821,294.06,881,251.31c5.54-4,10.95-8.12,16.68-11.8,2.22-1.43,4.23-4.23,7.48-2-.2,5.79,1.82,11.75-1.26,17.34-13.32,6.06-24.18,15.82-36,24.13C837,300.76,806.38,322.86,775.64,344.8Z"/><path class="python-6" d="M801.51,174.34c-.09-15-.2-30.07-.24-45.1,0-2.72-.66-6.19,3.78-6.05,18.56.59,37.36-2.4,55.59,3.45a27.5,27.5,0,0,1,3.78,1.85c2.32,4.09-1.22,5.71-3.49,7.39-16.85,12.44-34,24.49-51,36.74C807.57,174.34,804.89,176.66,801.51,174.34Z"/><path class="python-27" d="M785.83,359c-8.49,9.76-20.43,15.05-30.15,23.24-2.4,2-5.34,3.3-5.65,6.91a3,3,0,0,1-2.29.84c-17.12-1.12-19.64.43-25.83,15.9-.62,1.56-1.19,3.17-2.8,4.06-11.59,4.26-20.07,13.29-30.22,19.78-11.84,7.57-22.9,16.37-34.39,24.5-2.63,1.86-5.12,3.57-5.3,7.13-5.9-.2-11.65-1-16.93-3.88-.41-5.24,3.75-7.36,7.07-9.68,28.56-19.91,56.49-40.7,85.26-60.33,13.28-9.06,26-19,39.08-28.47Z"/><path class="python-11" d="M732.92,12.13a24,24,0,0,1,13.74,3.38c-3,10.2-11.3,16.74-17.77,24.32C710.54,61.34,692.35,83,674,104.45a15.56,15.56,0,0,1-5.86,4.71H651c-2.4-3.85.31-6.56,2.42-9,24.13-27.7,47.7-55.87,71.52-83.82C726.89,14.06,728.48,10.13,732.92,12.13Z"/><path class="python-28" d="M610,450.67c-4.2-1.79-8.5-3.38-12.06-6.38-1-3.75,2.12-4.94,4.28-6.49Q657.31,398.35,712.46,359h20.43c.44,5.37-4.08,7.1-7.33,9.46-30.24,22-60.77,43.51-91.18,65.22C626.33,439.45,618.62,445.71,610,450.67Z"/><path class="python-23" d="M896.59,177.76c-13.85,6.67-25.35,16.86-37.8,25.57-34,23.81-67.66,48.24-101.44,72.44-54.7,39.17-109.3,78.48-164.21,117.35-7,4.93-12.85,12.14-22.13,13.44l-.06-5.12c3.15.46,5.35-1.41,7.66-3.07q62.13-44.47,124.27-88.91Q752.26,274.18,801.7,239c27.17-19.42,54.23-39,81.45-58.32,3.62-2.58,7-5.89,11.88-6.32Z"/><path class="python-29" d="M668.11,109.16c14.79-19.5,31.26-37.6,47.08-56.25,10.54-12.43,21-24.93,31.47-37.4,4.53.56,8,3.38,11.89,5.42-5,10.32-13.71,17.81-20.91,26.4-18.16,21.68-36.79,43-55.56,64.14-3.22,3.63-.05,8.67-3.94,11.61.08-.84.1-1.7.26-2.52C680,112.22,677.34,107.72,668.11,109.16Z"/><path class="python-30" d="M610,450.67c4.58-7.95,13.09-11.29,20-16.32,32.11-23.4,64.66-46.21,97-69.33,2.25-1.6,3.95-4,5.91-6H750c.37,5.24-3.82,7.33-7.13,9.72-39.45,28.41-79.22,56.37-118.58,84.9a6.14,6.14,0,0,1-2.37.9A28.36,28.36,0,0,1,610,450.67Z"/><path class="python-31" d="M640.74,9c-2.5,9.5-11.22,14.37-16.41,21.9-2.21,3.21-5.22,5.84-5.79,10-.16.22-.29.6-.5.66-15.59,4-20,14.67-17.4,29.48a211.51,211.51,0,0,1-25.76,29,3.68,3.68,0,0,1-3.92.9V66.77C586.19,49,600.59,30.55,616.75,13.61,624.34,10,632.83,11,640.74,9Z"/><path class="python-32" d="M620.25,109.17c1.32-8.64,8.9-13,13.77-19,20.22-24.69,41.36-48.63,62.08-72.91,2.37-2.78,4.22-6,6.31-9L717.52,9c1.06,3.22-.83,5.48-2.63,7.66-25,30.2-50.84,59.71-76,89.79a36.09,36.09,0,0,1-3.27,2.73Z"/><path class="python-27" d="M898.78,282c-10.28,3.7-17.88,11.54-26.6,17.59-19.46,13.5-38.51,27.6-57.77,41.4-1.43,1-2.79,1.92-2.91,3.85H791c-2.22-4.08,1.24-5.64,3.56-7.3,33.19-23.73,66.23-47.66,99.64-71.07,2.68-1.88,5.32-4.49,9.2-3.24C902,269.47,901.87,276.08,898.78,282Z"/><path class="python-33" d="M531.46,123.4c-2,8.21-9,12.86-14,18.82-18.84,22.54-38.22,44.63-57.46,66.83a49.6,49.6,0,0,1-5.07,4.51,126.23,126.23,0,0,1,5.13-29c16.59-19.1,32.58-38.72,49.23-57.77C516.49,124.56,523.78,122.68,531.46,123.4Z"/><path class="python-34" d="M635.62,109.17c3.81-9.8,12.14-16.19,18.53-24,19.77-24,40.25-47.4,60.39-71.09a32.07,32.07,0,0,0,3-5.14c4.68,3.26,10.83-.68,15.4,3.14-8.58,4.91-13.16,13.68-19.4,20.75-19.4,22-38.11,44.59-57.19,66.87-2.44,2.85-4.8,5.57-5.34,9.42Z"/><path class="python-35" d="M456.61,266.5c16.15-14,28.17-31.61,42.16-47.49,15.12-17.16,29.66-34.82,44.51-52.21q16.25-19,32.66-37.85a7.66,7.66,0,0,0,1.62-5.56H587.8c2.31,5.2-2.23,7.85-4.62,10.79-13,16-26.6,31.64-40,47.36q-37.75,44.26-75.49,88.54c-2.35,2.77-4.12,7.33-9.35,5C457.4,272.29,455.53,269.68,456.61,266.5Z"/><path class="python-36" d="M661.23,227c-.29-7.36,6.31-10.59,10-15.1,17.73-21.63,36.43-42.47,54.57-63.77,17.58-20.64,34.87-41.53,52.38-62.22,2.5-3,4.65-6.61,9.11-7.17v12c-32.1,36.62-63.21,74.09-95,111-7.38,8.55-13.9,17.89-22.51,25.35Z"/><path class="python-37" d="M621.88,454.55c8-10.31,19.74-15.87,29.9-23.32,29.84-21.89,60.3-42.93,90.42-64.43,2.94-2.1,5.19-5.16,7.76-7.77h13.72c-5.28,9.26-15.15,13-23.18,18.85-33.56,24.35-67.5,48.17-101.22,72.31-2.7,1.93-4.69,4.86-7,7.32C628.37,458,625,456.58,621.88,454.55Z"/><path class="python-37" d="M903.41,263.19C881.27,276.79,861,293,839.6,307.73c-14.64,10.06-28.87,20.7-43.3,31.06-2.24,1.6-5.29,2.46-5.29,6H775.64c5.06-9.06,14.69-12.74,22.45-18.44q46.45-34.07,93.7-67.06c3.27-2.29,6.19-8.26,12.07-4.43Z"/><path class="python-38" d="M596.3,123.39h6.87c2.91,3.8.05,6.35-2.1,8.87C567.52,171.47,534.38,211,500.6,250c-10.21,11.78-19.67,24.22-30.52,35.45-2.24,2.32-4.22,5.58-8.35,4.92-2.07-2.52-2.26-5.44-1.84-8.5q51.35-60.18,102.66-120.41C571.77,150.72,580.83,139.8,590,129,591.86,126.86,593.49,124.47,596.3,123.39Z"/><path class="python-39" d="M461.73,290.4c13.16-10.56,22.45-24.65,33.52-37.1,15-16.89,29.3-34.41,43.91-51.66q23-27.15,46-54.29c4.58-5.38,9.23-10.72,14-15.93,2.15-2.35,4.45-4.45,4-8h8.54c-3.53,8.88-10.8,15-16.66,22.12-22,26.49-44.41,52.57-66.71,78.77q-29.89,35.11-59.88,70.16c-1.33,1.55-2.84,2.78-5,2.83C461.85,295.24,460.89,293,461.73,290.4Z"/><path class="python-40" d="M712.46,359c-5.1,9.07-14.74,12.78-22.54,18.47C660.17,399.17,630,420.27,600,441.63a11.47,11.47,0,0,0-2,2.66l-8.3-5.69c.47-4.69,4.63-6.19,7.69-8.38,33.19-23.81,66.28-47.77,99.74-71.19Z"/><path class="python-20" d="M577.48,425.5c2.92-5.66,8.94-7.61,13.65-11,27.36-19.77,54.94-39.24,82.48-58.77a27.46,27.46,0,0,1,4.49-2.09c-.14,3.65,1.49,5.56,5.27,5.39.49,4.89-3.33,7-6.43,9.2q-43.44,30.72-86.7,61.71c-2.29,1.63-4.55,3.56-7.73,2.32Z"/><path class="python-28" d="M905.12,237.53c-14.09,7.81-26.48,18.11-39.61,27.31Q819,297.44,773.27,331c-5.73,4.17-13.11,6.63-16.41,13.78H746.61c-2.38-5.38,2.36-7,5.25-9.1,26.32-19.28,53.07-37.95,79.61-56.93,20.08-14.36,39.88-29.11,60.32-42.95,3.92-2.65,7.25-7.75,13.33-5.13Z"/><path class="python-35" d="M596.3,123.39c-6.76,11.19-16.25,20.18-24.53,30.12-24.35,29.24-49,58.2-73.66,87.22-10.77,12.69-21.66,25.27-32.53,37.87-1.49,1.72-3.15,3.32-5.69,3.3-2-1.93-2.13-4.3-1.57-6.83,3.58-.22,5.36-3,7.35-5.33q22.49-26.53,44.87-53.14,27.09-32.08,54.2-64.15c8-9.42,17.25-17.88,23.06-29Z"/><path class="python-41" d="M502.43,343c-.74-5.52,4.08-7.89,6.79-11.18,14.14-17.18,28.62-34.08,43-51,1.62-1.91,3.32-4,6.23-4-3,19.82-.65,39.78-1.54,59.65-.12,2.76,1.9,6.17-1.6,8.36-3.23-3.63-2.05-8.09-2.15-12.24-.21-8.71.09-17.42-.2-27.52-13.47,13-23,27.56-35.21,39.76C512.45,346.16,507.52,343.92,502.43,343Z"/><path class="python-42" d="M582.51,432.25q27.12-19,54.24-38c12.27-8.65,24.36-17.54,36.72-26.06a38.05,38.05,0,0,0,9.9-9.19h13.72c-1.05,5.52-6.3,7-10,9.65-32.38,23.47-65,46.66-97.48,69.92C586.31,437.57,584.44,434.88,582.51,432.25Z"/><path class="python-43" d="M669.77,227c4.81-10.13,13.37-17.37,20.34-25.79,21.8-26.38,44.14-52.32,66.34-78.37,7.89-9.26,15.92-18.41,24-27.51,1.84-2.07,3.59-4.55,6.85-4.64v8.54c-6.8,1.26-8.66,7.92-12.37,12.17-21.38,24.47-42.1,49.52-63.13,74.3q-12.63,14.88-25.67,29.41c-3.22,3.61-6.39,7.15-7.82,11.89Z"/><path class="python-44" d="M729.59,344.8h-6.88c-2.22-4.08,1.21-5.61,3.55-7.3,39.34-28.29,78.56-56.75,118.21-84.59,16.7-11.72,32.81-24.27,49.86-35.49,2.74-1.8,5.2-4.58,9.08-3.76l.14,6.77c-12.31,11-26.31,19.78-39.67,29.36q-63.4,45.45-127,90.64A46.17,46.17,0,0,1,729.59,344.8Z"/><path class="python-45" d="M801.51,174.34c9.6-2.7,16.08-10.24,23.93-15.62,11.88-8.12,23.39-16.79,35.15-25.08,1.95-1.38,3.73-2.55,3.83-5.15,3.94,2.08,7.94,4.08,10.33,8.12,1,3.57-1.66,5.19-3.85,6.8-21,15.39-42.26,30.36-63.47,45.45-2.31,1.64-4.77,3.34-7.62.85Q800.65,182,801.51,174.34Z"/><path class="python-25" d="M799.81,189.71c4.75.83,7.1-3.19,10.19-5.35,20.4-14.28,40.65-28.78,60.89-43.31,1.55-1.11,2.58-2.94,3.86-4.44,3.17,2.52,6.51,4.87,8.19,8.78-22.41,13.89-43,30.43-64.78,45.17-8.35,5.64-15.36,13.53-25.64,16.15Z"/><path class="python-40" d="M729.59,344.8c8-9.44,18.95-15.07,28.71-22.14,45.28-32.76,90.9-65,136.47-97.38,2.69-1.9,5.14-4.54,8.78-4.84.52,1.71,1.05,3.42,1.57,5.13-14.94,11.77-30.87,22.17-46.24,33.35-37.66,27.4-76,53.81-113.47,81.5a42.11,42.11,0,0,1-7.28,4.38Z"/><path class="python-42" d="M709.1,344.81c9.27-11,22-17.58,33.45-25.81C793,282.59,843.66,246.51,894.23,210.28c2.34-1.67,4.68-3.2,7.62-3.49l1.56,3.41c-13,11.41-27.73,20.49-41.71,30.58-47,34-94.68,67.06-141.31,101.56a36,36,0,0,1-4.46,2.47Z"/><path class="python-13" d="M517.8,344.8c1-7.88,8-11.49,12.27-16.95,7.2-9.21,14.36-18.63,25.29-28.19V344.8Z"/><path class="python-46" d="M571,100.88c11.08-8.15,17.4-21,28.65-29a175,175,0,0,1,17.23,10.52c-5.37,10-15.12,16.69-20.43,26.75-6,.1-12-.25-17.87.4C571.3,110.35,569.42,107.32,571,100.88Z"/><path class="python-47" d="M616.75,13.61c-.47,6.38-6.3,9.2-9.6,13.53-9.57,12.54-20.25,24.25-30.53,36.25-1.48,1.72-3.12,3.36-5.66,3.38C567.75,32.87,587.46,18.56,616.75,13.61Z"/><path class="python-28" d="M738.13,344.8c9.93-11.14,23-18.24,34.91-26.81,41.35-29.82,83-59.26,124.46-88.86,2.34-1.67,4.69-3.22,7.62-3.56v5.12c-11.25,3.83-19.75,12.12-29.17,18.73-39.19,27.46-78,55.5-116.77,83.52-4.63,3.35-10.95,5.22-12.57,11.86Z"/><path class="python-42" d="M715.93,344.81c9.91-11.1,23-18.14,34.83-26.69,49.2-35.51,98.73-70.58,148.17-105.77a27.59,27.59,0,0,1,4.48-2.15v3.47q-88,62.81-176.11,125.57c-2.1,1.49-4.55,2.47-4.59,5.57Z"/><path class="python-48" d="M509.26,126.81c-.79,7.49-7.34,11.24-11.35,16.45C488.14,156,477.33,167.84,466.84,180c-1.8,2.08-3.57,4.52-6.81,4.61C465.43,156,479.56,134.74,509.26,126.81Z"/><path class="python-5" d="M1000.16,560.53H1018c-12.54,4.36-3.42,15.08-8.21,22-3.58-3.55-1.71-7.87-1.85-11.58C1007.76,565.72,1008.67,560.19,1000.16,560.53Z"/><path class="python-1" d="M445.55,617.47c-7.86-15.57-22.24-22.2-39.14-21.16-17.52,1.09-34.07,6.1-47.41,18.56V760c3.38,6.19,10.49,4,15.37,6.83h3.41V702.49c4.57,2.12,8.51,4.21,12.63,5.8,25,9.66,48.54.26,58.43-23.53C458.33,661.94,456.49,639.15,445.55,617.47Zm-14.82,59.21c-6.15,22.62-33.35,30.18-51,14.27-2.33-2.1-1.87-4.54-1.89-7-.05-10.22,0-20.43,0-30.65,0-10.5,0-21,0-31.49,0-2.9,0-5.48,3.35-7,23.15-10.21,45.29-10.87,50.8,21.62C434.15,649.62,434.36,663.37,430.73,676.68Z"/><path class="python-49" d="M616.84,82.41c-7.19-1.14-13.12-4.34-17.23-10.52-6.32-16.55,3-31.88,18.93-31l10.05,2.06c3.13,4.45,8.28,7.56,9,13.59C636.65,75,632.15,80.57,616.84,82.41Z"/><path class="python-49" d="M719.11,410c.58-16.25,13.8-28.51,30.92-20.8,9,5.64,12.38,14.11,9.89,24-1.83,7.28-7.24,12.41-14.92,14.66-8.92,2.61-19.71-2.59-23.5-11.65C720.65,414.13,720.92,411.65,719.11,410Z"/><path class="python-1" d="M864.42,634.29c-6.56-21.82-21.06-35.13-43.5-37.8-19.07-2.27-34.55,5.85-45.27,21.87-10,15-11.92,31.51-8.59,49,6.91,36.37,39.88,55.56,72.74,38,20.32-10.88,25.91-30.29,26.48-51.74C866.12,647.06,866.33,640.64,864.42,634.29Zm-24,51c-4.93,10.24-13.53,14.81-24.45,14.91-10.43.09-18.11-4.92-22.89-14.26-9.06-17.66-9.77-36.4-4.58-54.88,3.81-13.54,12-22.37,30.1-21.34,11.72.66,21.13,9.31,25.42,23.29,2.14,7,.94,14.06,1.84,21C846.32,664.81,845.21,675.35,840.44,685.25Z"/></svg>