<svg id="Layer_1" data-name="Layer 1" xmlns="http://www.w3.org/2000/svg" viewBox="0 0 1366 768"><defs><style>.terraform-1{fill:#7b42bc;fill-rule:evenodd;}</style></defs><title>terraform</title><path d="M393.83,662.26H359.48V641.75h92v20.51H417V764.82H393.83Z"/><path d="M475.82,748.36a95.13,95.13,0,0,0,27.52-4.22l3.58,17a97.09,97.09,0,0,1-33.07,5.72c-28.27,0-38.08-13.13-38.08-34.75V708.28c0-19,8.52-35.11,37.33-35.11s35.28,16.82,35.28,36.22v19.22h-50.1v4.61C458.25,744,462.11,748.36,475.82,748.36ZM458.25,710.5h28.63v-4.44c0-8.52-2.58-14.31-13.67-14.31s-15,5.9-15,14.31Z"/><path d="M568.58,693.68a178,178,0,0,0-23.87,13.13v58H522.2v-90h19l1.5,10A100.67,100.67,0,0,1,566.36,673Z"/><path d="M623.61,693.68a177.54,177.54,0,0,0-23.83,13.13v58H577.23v-90h19l1.47,10A101.57,101.57,0,0,1,621.39,673Z"/><path d="M699,764.82H680.55l-1.69-6.09a49.41,49.41,0,0,1-26.8,7.95c-16.43,0-23.44-11.27-23.44-26.8,0-18.29,8-25.31,26.23-25.31h21.47v-9.44c0-10-2.75-13.49-17.17-13.49a124,124,0,0,0-25,2.79l-2.8-17.18A116.45,116.45,0,0,1,662.19,673c28.27,0,36.57,10,36.57,32.53Zm-22.54-34H659.83c-7.38,0-9.42,2-9.42,8.88,0,6.26,2,9,9.06,9a35.48,35.48,0,0,0,17-4.62Z"/><path d="M768.29,654.31a64.42,64.42,0,0,0-12.91-1.46c-8.88,0-10.17,3.86-10.17,10.73v11.28h22.91l-1.29,17.89H745.36v72.07H722.81V692.75H708.5V674.86h14.31V662.29c0-18.64,8.7-27.91,28.63-27.91A71,71,0,0,1,770.83,637Z"/><path d="M812.28,766.68c-30.85,0-39.19-17-39.19-35.5V708.46c0-18.47,8.34-35.47,39.19-35.47s39.36,17,39.36,35.47v22.72C851.46,749.68,843.16,766.68,812.28,766.68Zm0-74.47c-12,0-16.64,5.37-16.64,15.49v24.23c0,10.16,4.65,15.53,16.64,15.53s16.64-5.37,16.64-15.53V707.7C828.92,697.58,824.3,692.21,812.28,692.21Z"/><path d="M909.47,693.68a174.75,174.75,0,0,0-23.83,13.13v58H863.1v-90h19.14l1.47,10A101.57,101.57,0,0,1,907.36,673Z"/><path d="M971.38,764.82v-63c0-4.8-2-7.16-7.15-7.16a61.92,61.92,0,0,0-23.48,7.59v62.55H918v-90H935.2l2.22,7.59a90.29,90.29,0,0,1,36-9.42,17.13,17.13,0,0,1,17,9.6,88.15,88.15,0,0,1,36.21-9.6c15,0,20.33,10.53,20.33,26.59v65.24h-22.55v-63c0-4.8-2-7.16-7.15-7.16a59.37,59.37,0,0,0-23.48,7.59v62.55Z"/><path d="M383.35,611.3V594.05H367.53V611.3h-8V569.82h8v17.5h15.82V569.93h8.08V611.3Zm37.64,0h-6.4l-.58-2a17.53,17.53,0,0,1-9.26,2.64c-5.73,0-8.13-3.58-8.13-8.91,0-6.12,2.72-8.44,9.09-8.44h7.48v-3.12c0-3.32-1-4.51-6-4.51a47.18,47.18,0,0,0-8.62.94l-1-5.73a42.83,42.83,0,0,1,10.74-1.4c9.81,0,12.67,3.3,12.67,10.74ZM413.19,600h-5.76c-2.58,0-3.26.68-3.26,3s.68,3,3.12,3a12.8,12.8,0,0,0,5.9-1.54Zm24.16,12a36.91,36.91,0,0,1-10.74-1.75l1.07-5.69a37.6,37.6,0,0,0,9.31,1.29c3.58,0,3.94-.75,3.94-3s-.36-2.79-5.44-3.93c-7.63-1.79-8.52-3.58-8.52-9.42s2.75-8.66,11.67-8.66a42.58,42.58,0,0,1,9.34,1l-.76,6a52.58,52.58,0,0,0-8.58-.9c-3.4,0-4,.75-4,2.62s0,2.57,4.44,3.57c8.7,2.22,9.52,3.33,9.52,9.45S446.76,611.94,437.35,611.94Zm35.78-.64V590.4c0-1.57-.68-2.4-2.47-2.4a22.14,22.14,0,0,0-8.16,2.54V611.3h-7.83V569.43l7.8,1.14v13.17a28.6,28.6,0,0,1,11.41-2.86c5.19,0,7.16,3.58,7.16,8.84v21.69Zm14.32-34.18V570h7.8v7.15Zm0,34.18V581.38h7.8V611.3Zm14-29.67c0-7.51,4.54-11.88,15.17-11.88a50.23,50.23,0,0,1,11.59,1.36l-.89,6.69a65,65,0,0,0-10.41-1c-5.59,0-7.38,1.86-7.38,6.22V598.7c0,4.37,1.79,6.23,7.38,6.23a66.17,66.17,0,0,0,10.41-1l.89,6.69a49.69,49.69,0,0,1-11.59,1.36c-10.74,0-15.17-4.36-15.17-11.88Zm44,30.31c-10.73,0-13.56-5.65-13.56-11.81v-7.58c0-6.12,2.9-11.78,13.56-11.78s13.6,5.66,13.6,11.78v7.58c0,6.16-2.86,11.81-13.56,11.81Zm0-24.8c-4.15,0-5.76,1.79-5.76,5.19v8c0,3.37,1.61,5.16,5.76,5.16s5.76-1.79,5.76-5.16v-8c0-3.4-1.53-5-5.72-5Zm35.57.5A62.65,62.65,0,0,0,572.8,592V611.3H565V581.38h6.59l.53,3.33a34.23,34.23,0,0,1,8.2-3.94Zm31.25,13.71c0,6.66-3.08,10.74-10.31,10.74a47.67,47.67,0,0,1-8.34-.86v12.2l-7.8,1.18V581.67h6.19l.79,2.5a16.82,16.82,0,0,1,9.84-3.11c6.3,0,9.63,3.58,9.63,10.38Zm-18.65,3.58a36.49,36.49,0,0,0,6.91.79c2.82,0,3.9-1.29,3.9-4V590.9c0-2.47-.93-3.83-3.83-3.83a11.34,11.34,0,0,0-7,2.72Z"/><path class="terraform-1" d="M633.81,89.57l139,80.24V330.23L633.81,250Z"/><path class="terraform-1" d="M788,169.81V330.23L927,250V89.57Z"/><path class="terraform-1" d="M479.65,0V160.47l139,80.23V80.23Z"/><path class="terraform-1" d="M633.81,428l139,80.23V347.84l-139-80.23Z"/></svg>