<svg xmlns="http://www.w3.org/2000/svg" viewBox="0 0 255.98 116"><defs><style>.cls-1{fill:#fff;}</style></defs><title>Asset 1</title><g id="Layer_2" data-name="Layer 2"><g id="Layer_1-2" data-name="Layer 1"><path class="cls-1" d="M211.34,80.29A9,9,0,0,1,205,77.66l-12.9-12.85a8.94,8.94,0,0,1-2.64-6.35V40.67a9,9,0,0,1,18,0V54.74L217.71,65a9,9,0,0,1-6.37,15.33Z"/><path class="cls-1" d="M57.54,84.31a9,9,0,0,1-9-9V61.26l-11-10.92a9,9,0,0,1,12.75-12.7L63.91,51.19a9,9,0,0,1,2.64,6.35V75.33A9,9,0,0,1,57.54,84.31Z"/><path class="cls-1" d="M58.19,116c-1,0-1.93,0-2.88-.07A58.29,58.29,0,0,1,0,59.72,57.38,57.38,0,0,1,16.45,17.6,57.85,57.85,0,0,1,58.19,0h.4A48.39,48.39,0,0,1,90.51,12.57l86.55,77.55a30.2,30.2,0,0,0,17.87,7.81,42.79,42.79,0,0,0,4.94,0A40.26,40.26,0,0,0,238,59.19,40.1,40.1,0,0,0,197.79,18c-.67,0-1.36,0-2,.05A30.38,30.38,0,0,0,177,26L156,44.93A9,9,0,1,1,143.87,31.6l21-19a48.56,48.56,0,0,1,30-12.55c1,0,1.93-.08,2.93-.08a58,58,0,0,1,3,115.9,62.23,62.23,0,0,1-7.1-.07A48.33,48.33,0,0,1,165,103.46L78.45,25.91a30.35,30.35,0,0,0-20-7.95h-.22a40,40,0,0,0-2,80,43.11,43.11,0,0,0,5,0A30.31,30.31,0,0,0,79,90.07l21-18.94a9,9,0,1,1,12.08,13.33l-21,18.93a48.37,48.37,0,0,1-28.66,12.46c-1.4.1-2.82.15-4.24.15Z"/></g></g></svg>