<svg id="Layer_2" data-name="Layer 2" xmlns="http://www.w3.org/2000/svg" viewBox="0 0 1366 768"><defs><style>.argo-1{fill:#ed794b;}.argo-2{fill:#c1d7ec;}.argo-3{fill:#ec744b;}.argo-4{fill:#c7daee;}.argo-5{fill:#e8654b;}.argo-6{fill:#e0f0f5;}.argo-7{fill:#c2b4c2;}.argo-8{fill:#ed784b;}.argo-9{fill:#cfe7ef;}.argo-10{fill:#eb7047;}.argo-11{fill:#010101;}.argo-12{fill:#fefefe;}.argo-13{fill:#f4ab86;}.argo-14{fill:#806358;}.argo-15{fill:#101010;}.argo-16{fill:#c7ddef;}.argo-17{fill:#c9deef;}.argo-18{fill:#c7dcee;}</style></defs><title>argo</title><path class="argo-1" d="M867.08,541.07a100.1,100.1,0,0,0-.83,13.18c-.11,1.15.19,2.28.15,3.43a28.28,28.28,0,0,1-.2,4.87,8.81,8.81,0,0,0-.31,3.5,29.49,29.49,0,0,1-.21,5,12.08,12.08,0,0,0-.32,4.4,22.26,22.26,0,0,1-.21,4,10.55,10.55,0,0,0-.35,3.75c.05,2.12-.17,4.22-.24,6.33-1,.76-.78,1.88-.84,2.9q-1.47,24.32-2.89,48.65c-1.14,18.93-2.16,37.87-3.52,56.79-.36,5,1.51,8.24,5.64,10.59,6.17,3.51,13,5.33,19.71,7.25,12.4,3.54,24.89,6.79,37.34,10.16a3.66,3.66,0,0,1,2.15,1c-21.21,0-42.31.13-63.4-.07-8.68-.08-16.74-2.32-22.32-9.78a26.43,26.43,0,0,1-5.13-14.44c-1.13-17.88-2.16-35.76-3.32-53.64-1.32-20.24-2.75-40.47-4.13-60.7-.81-1.55-.19-3.23-.75-4.82a16.57,16.57,0,0,1-.12,6.87q-.35,22.8-.7,45.6c-.33,18.45-.58,36.9-1.1,55.34-.25,8.79-.19,17.58-.51,26.36-.22,5.75,2.25,10,6.75,13.2,6.23,4.47,13.41,6.34,20.8,7.76,14.3,2.76,28.58,5.66,42.87,8.52a4,4,0,0,1,1.94.91h-2.89c-17.94,0-35.88.08-53.82,0-6.31,0-12.65-.22-18.8-2-9.13-2.65-16.49-7.37-19.74-16.9-1-3-1-6.06-1.21-9.11q-2.43-35.22-4.74-70.44-1.16-17.22-2.26-34.44a3.8,3.8,0,0,1-.46-2.42,2.9,2.9,0,0,0,0-.51c0-.24,0-.2,0,.1-.25,2.89-.14,5.81-.44,8.7q-.61,33.61-1.21,67.24c-.3,15.9-.56,31.81-1,47.71-.21,7.42,3.13,12.59,9.28,16.24,6.58,3.9,13.91,5.75,21.26,7.53q22.77,5.52,45.52,11.12a3.74,3.74,0,0,1,.73.36,3.89,3.89,0,0,1-2.58.34c-20.67,0-41.35.19-62,0-13.2-.15-25-4.14-34.37-14.09-5.3-5.67-7.07-12.71-8.45-20.06-3.6-19.14-7.45-38.24-11.31-57.89a64.58,64.58,0,0,0-2.29,10.14c-3.62,18.26-7,36.57-10.82,54.77-2.09,9.81-8.77,16.43-17.34,21.15a48,48,0,0,1-23,6c-21.28.14-42.57.05-63.85,0a3.74,3.74,0,0,1-1.86-.45c6.88-1.67,13.8-3.14,20.61-5,12.85-3.58,26-5.89,38.72-10a35.84,35.84,0,0,0,10.74-5.5c4.4-3.35,6.79-7.65,6.7-13.33-.33-18.72-.51-37.44-.84-56.17-.28-16.25-.68-32.5-1-48.76-.11-4.83-.27-9.66-.41-14.49-.88-1.54-.35-3.1-.13-4.5-.68,1.31.1,3.06-.77,4.51l-4.38,66.27c-.88,13.23-1.68,26.47-2.67,39.7-.73,9.74-6.26,16.15-14.85,20.13a46.92,46.92,0,0,1-18.7,3.91c-20.93.61-41.86,0-62.87-.12,4.25-.89,8.48-1.81,12.74-2.66,12.64-2.52,25.33-4.87,37.94-7.58a37.28,37.28,0,0,0,16.56-7.72,14.31,14.31,0,0,0,5.36-11.79c-.39-20.56-.7-41.13-1.08-61.69q-.5-26.76-1.05-53.51c-.12-5.53-.29-11.06-.43-16.6a8.89,8.89,0,0,1-.17-2.44,8.89,8.89,0,0,1-.17,2.44q-1.38,19.46-2.75,38.9-1.75,25.37-3.48,50.74c-.5,7.63-.88,15.26-1.24,22.89a45.32,45.32,0,0,1-1.25,9.65c-2.79,10.46-10.8,17.11-21.75,18.21a91.3,91.3,0,0,1-9.21.44c-19.52,0-39.05,0-58.69-.45l7.92-2.11c14.77-3.89,29.57-7.65,44-12.67a29,29,0,0,0,9.73-5.14,7.53,7.53,0,0,0,2.91-6.45q-1.59-26.16-3.13-52.34c-.6-10.26-1.15-20.53-1.78-30.79-1.14-18.67-2.34-37.34-3.5-56-.11-1.84-.07-3.69-.11-5.53,1.16-.29,1.77.59,2.48,1.2C639.16,568.31,655,576.61,671.9,583c15.08,5.66,30.76,8.82,46.72,10.62a186.85,186.85,0,0,0,54.84-2.33A216.44,216.44,0,0,0,835.65,570a162.34,162.34,0,0,0,24.24-15.42,5.54,5.54,0,0,0,2.43-4.91c-.11-4.58,0-9.15,0-13.73,0-2.72-.24-2.82-2.61-1.5-10.75,6-21.46,12.08-32.56,17.43-19.57,9.43-39.75,17.16-61.32,20.61a167.44,167.44,0,0,1-94.47-11.9c-14.74-6.35-28.66-14.24-42.65-22a27.23,27.23,0,0,1-3.22-1.81c-1.65-1.23-2.91-1.22-3.92.69-1.42-1-1-2.46-1.06-3.8-.15-2.19.3-4.4-.36-6.56-.4-7.09-.81-14.18-1.28-21.26-.48-7.27-.8-14.54-1.42-21.79-.28-3.32,0-6.68-.6-10-1-13.56-1.78-27.14-2.6-40.71-.61-10.07-1.45-20.13-1.73-30.22-.06-2.09-.89-4.16-.15-6.26,1.15-1.57,2.38-.52,3.47,0a88.22,88.22,0,0,0,22.72,7.38c1.56.28,3.14.34,4.69.61a7.75,7.75,0,0,0,2.83.33c14,.77,27.51-1.36,40.29-7.38a81.7,81.7,0,0,0,45-55.93c.5-2.23.5-4.55,1.31-6.72a6.54,6.54,0,0,0,.31-2.85,14.87,14.87,0,0,1,.22-3.05,32.32,32.32,0,0,0,0-9.77,14.73,14.73,0,0,1-.23-3,7.12,7.12,0,0,0-.27-2.83c-1.41-6.87-2.86-13.73-5.56-20.26a81.16,81.16,0,0,0-18.25-26.78c-13.22-13.15-29.26-20.26-47.54-22.79a7.76,7.76,0,0,0-2.84-.25c-11.83-.47-23.41.68-34.59,4.85-3.69,1.38-7.12,3.34-10.85,4.6a6.64,6.64,0,0,1,.92-8.36,3.62,3.62,0,0,0,.95-2.64,144.48,144.48,0,0,1,2.81-18.75,132.78,132.78,0,0,1,27.68-56,136.79,136.79,0,0,1,45.65-35.89,130.69,130.69,0,0,1,41.29-12.17,7,7,0,0,1,2.88.15,70.38,70.38,0,0,1,17.55,12c20.42,18.45,31,41.92,35,68.74.84,5.73,1.78,11.45,1.43,17.27-.66,1.4,0,2.61.53,3.86a53,53,0,0,1,.1,9.08,5.74,5.74,0,0,0,.44,5.1c.5,5.5.16,11,.21,16.5-.25,1.78-.62,3.54-.82,5.32-1.87,3.09-5.14,4.68-7.72,7a82,82,0,0,0-20,28,76,76,0,0,0-6.08,23.57,8,8,0,0,0-.19,3c0,3.74,0,7.48,0,11.21a7.51,7.51,0,0,0,.21,3,78.81,78.81,0,0,0,20.64,45.86c13.29,14.52,29.63,23.3,49.14,25.81a79.14,79.14,0,0,0,46.65-7.77c1.14-.58,2.42-2.17,3.93-.45a18.16,18.16,0,0,1,.23,6.28c-.61,8-1,16.09-1.53,24.13-.65,9.79-1.17,19.59-1.88,29.37-.29,3.85-.69,7.7-.66,11.55,0,2.3-.44,4.52-.58,6.79-.36,7.35-.88,14.69-1.35,22-.42,6.64-.92,13.29-1.21,19.94-.18,4.11-.81,8.2-.65,12.33-.08,3.37-.64,6.71-.56,10.09A2.61,2.61,0,0,1,867.08,541.07Z"/><path class="argo-2" d="M867.08,541.07a114.22,114.22,0,0,1,.7-12.12c2.93-3,6.89-4.17,10.38-6.17a282.28,282.28,0,0,0,48.51-34.9,273.46,273.46,0,0,0,51.57-62.39,269.31,269.31,0,0,0,32.56-81.74,145.8,145.8,0,0,0,3.62-34c-.32-19.78-.12-39.57-.07-59.36,0-8.27-1.87-16.24-3.59-24.21a271,271,0,0,0-57.69-116.9c-5.39-6.39-11-12.63-16.94-18.44A277.46,277.46,0,0,0,877.46,46.8a271.6,271.6,0,0,0-96.79-32.22,219,219,0,0,0-29.4-2.25,11.52,11.52,0,0,1-2.62-.24,29.68,29.68,0,0,0-9.36.14,93,93,0,0,1-9.88.21,7.61,7.61,0,0,0-3,.2,308.82,308.82,0,0,0-39.12,5.46,271.47,271.47,0,0,0-77.83,29.64,282.1,282.1,0,0,0-49,35.54,265.76,265.76,0,0,0-47.65,57.1A268.75,268.75,0,0,0,473,255.54c-.53,5.15-.89,10.31-1.22,15.48a11.23,11.23,0,0,0-.18,4c0,6.71.05,13.41,0,20.11a9.27,9.27,0,0,0,.17,3.52,260.63,260.63,0,0,0,2.86,28.55,266.91,266.91,0,0,0,20,68.39A271,271,0,0,0,537.47,463q4.32,5,8.8,9.8a5,5,0,0,1,1.34,1.93,2.68,2.68,0,0,1-1.22,2.46c-2,1.79-3.46,4.16-5.95,5.4-5.65-5.15-10.48-11.07-15.37-16.91a261.79,261.79,0,0,1-19.68-26.87,299.9,299.9,0,0,1-23.22-44.18,303,303,0,0,1-13.78-41c-.38-1.42-.61-2.89-1-4.93-2.41,4-5.48,6.47-9.74,7.16a13.09,13.09,0,0,1-5.29,0,11.45,11.45,0,0,1-10.06-10,7.64,7.64,0,0,1-.21-3.12q0-52.59,0-105.19a7,7,0,0,0-.23-3.12c2.49-7.78,6.87-10,13.55-10a13.12,13.12,0,0,1,8.74,3.06c1.07.93,1.61,1.24,2-.57a283.42,283.42,0,0,1,53.24-115.63,264.4,264.4,0,0,1,28.82-32A304.4,304.4,0,0,1,580.1,53,279.23,279.23,0,0,1,689.82,6,242.23,242.23,0,0,1,718.36,2.1c.82-.53,1.85.12,2.67-.46l3.67-.06c1.36-.62,2.88.19,4.24-.48L735.78,1a141,141,0,0,1,17.44,0l6.31.05c1.36.67,2.88-.13,4.25.47l3.67.06c.81.59,1.84-.06,2.66.46a278.25,278.25,0,0,1,30,4.35A270.14,270.14,0,0,1,838,16.81a286.68,286.68,0,0,1,91.77,53A261.64,261.64,0,0,1,957.21,97a298.43,298.43,0,0,1,25.37,33.38,282.72,282.72,0,0,1,27.28,53.8,267.93,267.93,0,0,1,11.64,39.19c.2,1,.28,2.13,2.16,1.6,7.63-2.16,16.17.81,17.8,10.48a4.86,4.86,0,0,1,.22,2.33V342.4a5,5,0,0,1-.21,2.34c-.53,5.73-4.57,10-10.59,11.11a13.14,13.14,0,0,1-5.3,0,4.73,4.73,0,0,1-2.78-.64c-2.09-1.36-3-1-3.68,1.63a274.33,274.33,0,0,1-18.07,49.78A286.47,286.47,0,0,1,970.4,457a277.61,277.61,0,0,1-22,25.43A284,284,0,0,1,897.84,524,244.82,244.82,0,0,1,867.08,541.07Z"/><path class="argo-3" d="M621.74,537.47c0-.53,0-1.06,0-1.58-.08-1.39.43-1.79,1.69-1.08,5,2.85,10.06,5.72,15.12,8.53,13.43,7.45,27,14.52,41.46,20a179.6,179.6,0,0,0,36.52,9.38c8.77,1.33,17.64,1.2,26.5,1.16,14.81-.06,29.18-2.77,43.37-6.79,17.64-5,34.27-12.47,50.49-20.88,7.86-4.07,15.49-8.58,23.24-12.86.74-.41,1.55-1.25,2.37-.85s.45,1.57.46,2.4c0,5.36,0,10.72,0,16.09a3.94,3.94,0,0,1-1.77,3.49A171.19,171.19,0,0,1,827.37,575a211.45,211.45,0,0,1-49,16.13,227,227,0,0,1-31.14,4c-8.27.49-16.41-.07-24.61-.63A180.9,180.9,0,0,1,672.7,584c-16.42-6-31.83-13.82-45.42-25-1.49-1.21-3-2.45-4.45-3.67-1-4.54-.69-9.19-1.18-13.77C621,540.2,620.63,538.82,621.74,537.47Z"/><path class="argo-4" d="M540.44,482.59l6.92-7.51c1.29-.24,1.89.78,2.59,1.49a279.55,279.55,0,0,0,52.54,41.55c5,3.08,10.11,6,15.36,8.68.91.46,1.81,1.19,2.93.5a21.79,21.79,0,0,1,.39,6.34c-2-.24-2.57.57-2,2.53a3.33,3.33,0,0,1-.54,3.39c-7.31-3-14.06-7.13-20.84-11.16a272.32,272.32,0,0,1-37.29-26.81A208.9,208.9,0,0,1,540.44,482.59Z"/><path class="argo-5" d="M550.88,584.81c12.33-2,24.53-4.48,36.62-7.56,2.36-.61,4.88-.53,7.28-1,7.46-1.5,12.62-6.28,16.78-12.29A76.11,76.11,0,0,0,619.65,548a3.4,3.4,0,0,1,1.14-1.74v9.07c0,9.15,0,18.29,0,27.44a4.58,4.58,0,0,1-1.47,3.74c-4.55,4.25-10.09,5.84-16.12,6.22a1.81,1.81,0,0,1-1-.18c-4.88-3.26-10.56-2.11-15.88-2.85-11.47-1.61-23-3.12-34.45-4.67C551.55,585,551.22,584.89,550.88,584.81Z"/><path class="argo-5" d="M865.64,562.74c0-1.76,0-3.52,0-5.28.84-.68-.51-2.17,1-2.61,2.61,4.88,5.21,9.74,9,13.84a23.68,23.68,0,0,0,15.59,7.91c6.42.57,12.48,2.78,18.75,4,7.58,1.49,15.17,2.88,22.85,4.26-5.18.71-10.35,1.47-15.54,2.11q-12.15,1.5-24.32,2.86c-1.82.21-3.67.22-5.51.26a12,12,0,0,0-5.41.91c-6.17,3.18-11.87,1.22-17.51-1.51-1.18-2-.14-4.13-.5-6.17.71-1.16-.15-2.54.53-3.7v-4.22c.73-1.34-.17-2.88.52-4.23,0-1.75,0-3.51,0-5.27C865.8,564.93,865,563.72,865.64,562.74Z"/><path class="argo-4" d="M441.8,234.41c.71.62.49,1.46.49,2.23l0,109.2c-.66-.64-.49-1.46-.49-2.24Z"/><path class="argo-6" d="M1041.47,344.74q0-54.64,0-109.29c.8.8.48,1.83.48,2.75q0,51.89,0,103.78C1041.94,342.9,1042.25,343.92,1041.47,344.74Z"/><path class="argo-7" d="M618.59,539.56a16,16,0,0,0-.4-4.92c-.22-.68-.48-1.68.25-2.18s1.15.54,1.79.73a5.78,5.78,0,0,1,.94.45c.34,1.26-.21,2.64.57,3.83l-.09,4.11C620.6,541,619.3,540.71,618.59,539.56Z"/><path class="argo-6" d="M753.22,1.05H735.78c3-1.07,6.17-.4,9.24-.42C747.75.61,750.54,0,753.22,1.05Z"/><path class="argo-6" d="M452.32,355.84h5.29A6.35,6.35,0,0,1,452.32,355.84Z"/><path class="argo-6" d="M1025.58,355.84h5.3A6.37,6.37,0,0,1,1025.58,355.84Z"/><path class="argo-6" d="M763.78,1.57c-1.42-.14-2.92.5-4.25-.47C761,1.26,762.45.62,763.78,1.57Z"/><path class="argo-6" d="M728.94,1.1c-1.32,1-2.83.33-4.24.48C726,.62,727.53,1.26,728.94,1.1Z"/><path class="argo-8" d="M866.61,554.85c-.87.67,0,2-1,2.61.18-1.07-.47-2.3.6-3.21Z"/><path class="argo-6" d="M770.11,2.09c-.9,0-1.88.35-2.66-.46C768.35,1.7,769.34,1.31,770.11,2.09Z"/><path class="argo-6" d="M721,1.64c-.78.8-1.76.41-2.67.46C719.14,1.31,720.12,1.7,721,1.64Z"/><path class="argo-6" d="M620.78,527.3c0,1.68-.77,1.32-1.78.81-4.45-2.25-8.76-4.77-13.09-7.26A271.73,271.73,0,0,1,570,495.8c-5.43-4.41-10.49-9.26-15.67-14-2.39-2.18-4.67-4.5-7-6.75-4.53-5.1-9.18-10.08-13.56-15.32a277.35,277.35,0,0,1-23.59-33.08,268.27,268.27,0,0,1-22.09-45.29,274.53,274.53,0,0,1-16.38-72.9c-.25-3.24-.26-6.46-.43-9.69-.61-1,.15-2.2-.49-3.19q0-10.53,0-21.07c.67-1.17-.13-2.54.5-3.71.17-12.18,1.92-24.18,4.05-36.14a258.92,258.92,0,0,1,10.74-40.54,277.44,277.44,0,0,1,45.24-81.09c3.8-4.79,7.81-9.43,12.07-13.86,4.55-4.73,9-9.51,13.89-14a286.76,286.76,0,0,1,46.75-35.16,269.07,269.07,0,0,1,57.7-26,261.56,261.56,0,0,1,40.33-9.36,228.71,228.71,0,0,1,24.21-2.6c.81-.58,1.85.12,2.65-.49l10.55,0a39.64,39.64,0,0,1,9.49,0,262.19,262.19,0,0,1,56.36,6.74,274.74,274.74,0,0,1,90.58,38.85,259.52,259.52,0,0,1,25.3,19.18c6.16,5.33,12.31,10.7,18,16.55a278.19,278.19,0,0,1,42,55.26,275,275,0,0,1,24.13,54.8,260.53,260.53,0,0,1,9.24,39.8,47.82,47.82,0,0,1,.45,7.06c0,21.64-.18,43.28.09,64.91.12,9.3-1.35,18.3-3.26,27.29a263.08,263.08,0,0,1-13.76,45.2,271.88,271.88,0,0,1-17.55,35.63,290.11,290.11,0,0,1-24.38,35.19,282.16,282.16,0,0,1-28.54,29.83,270.16,270.16,0,0,1-36.08,27.59A207.32,207.32,0,0,1,867.78,529c.62-10.86,1.2-21.73,1.85-32.59.43-7.27,1-14.54,1.43-21.81a5,5,0,0,1,2.18-2.55,213.53,213.53,0,0,0,35.89-31.75A220.9,220.9,0,0,0,955,363a226.66,226.66,0,0,0,11.17-51.7,187.9,187.9,0,0,0,1.11-22.61c-.71-31.37-6.75-61.59-19.82-90.29a226.55,226.55,0,0,0-32.21-51.21,222,222,0,0,0-63.62-52.29A219.11,219.11,0,0,0,771.29,69a199.89,199.89,0,0,0-31-1.71c-23.95.81-47.38,4.66-70,12.62-1,.35-1.91,1-3,.52-.79-1-.22-2,0-3a12.21,12.21,0,0,0-5.39-13.26,12.07,12.07,0,0,0-14.1.22,12.91,12.91,0,0,0-4.9,13.56c.79,3.31,3.15,5.4,5.63,7.4.68.55,1.56.85,2,1.7.12.9-.55,1.27-1.18,1.52-4.1,1.63-7.78,4.06-11.73,6-.83.4-1.66,1.07-2.7.47a3.28,3.28,0,0,1-.49-2.28c.36-5.58-4.1-7.52-8-8a9.93,9.93,0,0,0-6.54,1.63,258.33,258.33,0,0,0-30.4,22.26,255.5,255.5,0,0,0-19.69,18.68c-19,20-34.62,42.23-45.38,67.77A234.22,234.22,0,0,0,506,300.64a221.91,221.91,0,0,0,10.88,58.68,211.59,211.59,0,0,0,34.86,65.86c3.5,4.45,8.54,5.08,13.14,1.69a3.2,3.2,0,0,1,1.65-.75c1.33,0,2,1,2.67,1.89a226.24,226.24,0,0,0,19.44,21.72,216.57,216.57,0,0,0,26,21.74,13,13,0,0,1,2.95,2.59c.47,6.55,1,13.09,1.39,19.65C619.58,504.9,620.16,516.1,620.78,527.3Z"/><path class="argo-9" d="M667.16,80.26a220.18,220.18,0,0,1,35.94-9.75,203.61,203.61,0,0,1,22.58-3c7.25-.49,14.51-1.25,21.77-1a266.22,266.22,0,0,1,38.28,3.94A225.8,225.8,0,0,1,830,83.62a219.45,219.45,0,0,1,48.72,27.93,216.15,216.15,0,0,1,29,25.9,231,231,0,0,1,28.12,37.27,219.1,219.1,0,0,1,29.61,82.84c1.22,8.5,1.61,17.05,2.27,25.59a156.33,156.33,0,0,1-.36,22.3,215.36,215.36,0,0,1-8.07,46.38,226,226,0,0,1-45,83.7,230.35,230.35,0,0,1-20.7,21,284.85,284.85,0,0,1-22.55,18c.55-9.29,1.08-18.57,1.65-27.86.37-6.13.84-12.26,1.21-18.39q1-16.17,1.85-32.35c.33-1.27,1.48-1.67,2.43-2.26,22.34-14.13,35.68-34.19,38.46-60.52,3-28.43-6.9-52.07-28.44-70.86a72.73,72.73,0,0,0-7.82-5.82c-1-.67-2.13-1.26-2.57-2.54a27.27,27.27,0,0,1-.21-5.78c.08-17.25-3.82-33.65-10.57-49.42a126.35,126.35,0,0,0-28.79-41.59c-19.86-19.11-43.42-31.15-70.73-35.59-5.45-.89-10.92-1.75-16.49-1.46-5.26-.15-10.54.44-15.79-.28a114.46,114.46,0,0,0-37.36,9.36c-40.84,18.12-67.37,48.65-78.92,91.95a124.85,124.85,0,0,0-3.42,22.35c-.08,1.07.05,2.19-1.6,2-1.22-.12-1.16.77-1.14,1.58,0,1.93.07,3.87.11,5.8-.33,1.14-1.35,1.56-2.23,2.11-22.16,13.73-35.28,33.56-38.64,59.31-3.07,23.51,3.52,44.5,18.81,62.72a82.79,82.79,0,0,0,20,16.94c.94.59,2.11,1.05,2,2.49q.86,14.69,1.72,29.37c.35,5.85.75,11.7,1.1,17.56q.9,15.33,1.78,30.68c-4.13-2.15-7.68-5.15-11.3-8a197.54,197.54,0,0,1-22-19.86c-5.55-5.94-11.18-11.82-15.95-18.44a8.34,8.34,0,0,0-1.36-1.21c-.31-.91.32-1.51.73-2.15,2.61-4,2.06-7.77-.81-11.43A207.77,207.77,0,0,1,524.4,310.39a197.61,197.61,0,0,1-1.46-32.61,213.41,213.41,0,0,1,16.48-74.51,216.4,216.4,0,0,1,32.1-53.09,208.16,208.16,0,0,1,50.23-44.27c2.67-1.69,5.32-3.42,8.12-4.9a8.3,8.3,0,0,0,3.6-4.41c.29-.67.39-1.61,1.48-1.57l15.33-7.9c1.24-.8,2.57-.18,3.83-.14a12.37,12.37,0,0,0,11.09-5.27C665.68,81.06,666,80.12,667.16,80.26Z"/><path class="argo-10" d="M735.25,119.83c5.45-.9,10.93-.6,16.4-.42a132.37,132.37,0,0,1,78.89,33.18c15.52,13.82,26.83,30.6,35,49.56,4,9.18,5.93,18.94,7.54,28.77.92,5.63,1.47,11.32,2.13,17,.17,1.52.51,3.18-.62,4.57-1.24.26-2.19-.48-3.22-.94-26-11.9-51.37-10.61-76.26,3.24-1.62.9-2.93,2.62-5.11,2.3-1.06-1.5.36-3.2-.39-4.73V234.93c-.94-1.31-.28-2.83-.52-4.22,0-3.35,0-6.69,0-10-.82-1-.28-2.13-.52-3.17A136.52,136.52,0,0,0,778,167.79c-6-14.18-15-26.09-26.23-36.41C746.79,126.8,741,123.31,735.25,119.83Z"/><path class="argo-5" d="M790.16,257.1a82.3,82.3,0,0,1,37.28-13.77,80.22,80.22,0,0,1,47.18,9c1.6-.34,2.64.62,3.66,1.6,3.52,3,7.61,5.3,11.12,8.39,16.06,14.13,25.78,31.68,28,53,2.82,27.44-6.16,50.64-26.23,69.54A82.31,82.31,0,0,1,875.77,396c-7.37,3.72-14.92,6.89-23.09,8.49A85,85,0,0,1,823,405a77.63,77.63,0,0,1-33.27-13.49c-14.05-9.92-24.28-22.82-30.1-39.06-2.25-6.26-4.21-12.61-4.27-19.36-.62-.79.12-1.85-.53-2.64V318.33c.65-.78-.09-1.84.53-2.63.31-8.7,2.88-16.83,6.32-24.7a82.27,82.27,0,0,1,17.2-24.87,71.2,71.2,0,0,1,10.27-8.51C789.4,257.34,789.56,256.77,790.16,257.1Z"/><path class="argo-5" d="M612.92,396.45c-.47-1.2-1.68-1.48-2.63-2.07-22.65-14.17-36.43-34.45-38.94-61-3.33-35.3,11.19-62.19,41.57-80.49,6-4,12.83-6,19.7-7.87,8.55-2.29,17.32-2.36,26.1-2.16.79.65,1.85-.09,2.64.52a77.94,77.94,0,0,1,23,5.93,79.58,79.58,0,0,1,29.78,21.84,77.28,77.28,0,0,1,18.52,39.62c.14.95.34,1.88.52,2.82.61.8-.13,1.86.52,2.64v3.17a40.08,40.08,0,0,1,0,10v3.16c-.65.79.09,1.85-.52,2.64-2,14.25-7,27.26-15.93,38.6a82.42,82.42,0,0,1-57.22,32c-4.6.51-9.3.11-14,.13-.78-.65-1.84.09-2.63-.52-7.92-.23-15.29-2.69-22.57-5.51C618.16,398.89,615.56,397.62,612.92,396.45Z"/><path class="argo-11" d="M790.69,463c-2.05,19.06-7.78,36.48-22.59,49.68a35.19,35.19,0,0,1-21.78,9.06,12.69,12.69,0,0,1-4.17,0c-10.7-.81-18.76-6.16-25.48-14.24-10.67-12.81-15.6-27.89-18.26-44-.67-4-.91-8.06-1.28-12.1-.33-1.1.11-2.28-.35-3.37.09-1.45.18-2.91.27-4.51,1.23.68,1.15,2.33,2.31,2.94a1.4,1.4,0,0,1,.45.6c.22.86.32,1.75.59,2.6.82,10.47,4.31,19.9,11.25,27.85a41,41,0,0,0,28.65,14.4,52.28,52.28,0,0,0,29.07-5.57,38.06,38.06,0,0,0,19.1-22.21c.41-1.2.5-2.64,1.87-3.32C791.35,461.34,791,462.15,790.69,463Z"/><path class="argo-12" d="M699.39,446.45l0-.06c1.36-1.16,1.6.47,2.06,1a85.31,85.31,0,0,0,22.4,17.36c15,7.84,30.38,9.47,46.13,2.41a50.06,50.06,0,0,0,19.7-16.28c.57-.75,1.11-1.53,2.15-3-.15,2.17-.25,3.59-.35,5a22.87,22.87,0,0,1-.28,5.16,12.22,12.22,0,0,1-.91,2.82c-5.89,21.75-24.38,30.81-42.34,31.76-12.19.65-23.17-2.32-32.46-10.42s-14.1-18.61-15.56-30.75c-.1-.87-.17-1.75-.25-2.62A5.45,5.45,0,0,0,699.39,446.45Z"/><path class="argo-13" d="M710,179.86c.81,9.58-8.39,18.31-18.25,18.34-9.51,0-18.43-8.89-18.44-18.4s8.91-18.6,18.63-18.47C701.34,161.45,710.82,169.88,710,179.86Z"/><path class="argo-8" d="M733.68,329.42v-10A20.28,20.28,0,0,1,733.68,329.42Z"/><path class="argo-8" d="M790.16,257.1l-1,.52a19.5,19.5,0,0,1,.52-5.27C790.69,253.83,789.93,255.52,790.16,257.1Z"/><path class="argo-8" d="M789.11,230.71c1,1.29.29,2.82.52,4.22C787.88,233.72,788.53,232.21,789.11,230.71Z"/><path class="argo-14" d="M790.74,458.22c.24-1.77.47-3.54.71-5.32a9.61,9.61,0,0,1-.15,5.81A.77.77,0,0,1,790.74,458.22Z"/><path class="argo-15" d="M790.74,458.22l.56.49c-.24,1.41.21,2.92-.61,4.24-.12-.69.21-1.48-.43-2.07C789.87,459.9,790.64,459.12,790.74,458.22Z"/><path class="argo-8" d="M788.58,217.51c.95.93.36,2.11.52,3.17C787.57,219.85,788,218.69,788.58,217.51Z"/><path class="argo-8" d="M742.15,521.66l4.17,0A4.67,4.67,0,0,1,742.15,521.66Z"/><path class="argo-8" d="M865.11,571.18c-.22,1.41.53,2.93-.52,4.23C864.82,574,864.07,572.48,865.11,571.18Z"/><path class="argo-8" d="M864.59,579.63c-.2,1.23.48,2.58-.53,3.7C864.27,582.1,863.58,580.74,864.59,579.63Z"/><path class="argo-8" d="M696.78,448c.62,1.07.36,2.23.35,3.37C696.38,450.27,696.85,449.09,696.78,448Z"/><path class="argo-8" d="M865.64,562.74c-.16,1.06.43,2.24-.52,3.17C865.29,564.85,864.69,563.67,865.64,562.74Z"/><path class="argo-8" d="M661.36,243.37c-.89-.12-1.9.35-2.64-.52C659.61,243,660.62,242.5,661.36,243.37Z"/><path class="argo-8" d="M733.16,335.22c.12-.89-.35-1.89.52-2.64C733.55,333.47,734,334.48,733.16,335.22Z"/><path class="argo-8" d="M733.68,316.22c-.87-.74-.4-1.75-.52-2.64C734,314.32,733.55,315.33,733.68,316.22Z"/><path class="argo-8" d="M754.79,330.47c.88.74.41,1.75.53,2.64C754.44,332.37,754.92,331.36,754.79,330.47Z"/><path class="argo-8" d="M755.32,315.7c-.12.89.35,1.89-.53,2.63C754.92,317.45,754.44,316.44,755.32,315.7Z"/><path class="argo-8" d="M643.42,405.44c.89.12,1.89-.35,2.63.52C645.17,405.83,644.16,406.31,643.42,405.44Z"/><path class="argo-16" d="M749,11.62h-9.49A18.4,18.4,0,0,1,749,11.62Z"/><path class="argo-17" d="M471.31,270.83c-.17,1.23.47,2.57-.5,3.7C471,273.3,470.34,272,471.31,270.83Z"/><path class="argo-18" d="M470.82,295.61c.9.95.35,2.12.49,3.19C470.39,297.85,471,296.68,470.82,295.61Z"/><path class="argo-17" d="M728.94,11.66c-.76.83-1.75.4-2.65.49C727.05,11.3,728.05,11.76,728.94,11.66Z"/><path class="argo-12" d="M635,95c-1.68,6.62-7.93,8.2-12.68,11.31A232.41,232.41,0,0,0,598.39,124c-4.81,4.11-9.47,8.36-13.91,12.86a212.87,212.87,0,0,0-32,41.89,209.17,209.17,0,0,0-23.28,58.15,220.54,220.54,0,0,0-4.67,28.94,193.63,193.63,0,0,0-.87,28.37,212.36,212.36,0,0,0,4.63,35.3,207.55,207.55,0,0,0,18.57,51.27A210.19,210.19,0,0,0,566.82,412c4.34,5.67,4.36,9,0,14.6a2.34,2.34,0,0,0-1.6.8,9.57,9.57,0,0,1-14-1.49,212.53,212.53,0,0,1-22-34.55,224.13,224.13,0,0,1-19.44-55.95,270.28,270.28,0,0,1-4.12-27.69c-1-9.8-.64-19.65-.56-29.48.08-8.84,1.26-17.58,2.47-26.33a222.37,222.37,0,0,1,8.8-37.76A235.93,235.93,0,0,1,534.93,172c6.62-11.93,14.76-22.8,23.46-33.22a256.06,256.06,0,0,1,29.22-29.51c7.78-6.71,16-12.83,24.32-18.75,2.5-1.77,5.11-3.4,7.75-5a11.41,11.41,0,0,1,13.49,1.25A6.3,6.3,0,0,1,635,91.34C635,92.56,635,93.8,635,95Z"/><path class="argo-12" d="M667.16,80.26c-1.61,1.9-2.79,4.14-5.08,5.48a15.18,15.18,0,0,1-11.8,1.39c-8.29-4.2-10.82-11.59-6.67-19.42,3.15-5.93,11.72-8.18,17.59-4.83C666.92,66.15,669.93,72.48,667.16,80.26Z"/><path class="argo-1" d="M878.28,253.94l-3.66-1.59c-.86-16.68-3.14-33.15-9.22-48.75-5.25-13.46-12.94-25.6-22.15-36.81a127.48,127.48,0,0,0-44.07-34.21,137.18,137.18,0,0,0-38-11.69l-9.51-1.48a114,114,0,0,1,34.62,5.89c35.7,11.76,62.2,34.41,79,68.05A122.26,122.26,0,0,1,878.28,253.94Z"/><path class="argo-12" d="M899.51,324.38a63.16,63.16,0,1,1-63-63.14A63,63,0,0,1,899.51,324.38Z"/><path class="argo-12" d="M647.24,261.24c35.15.05,63.09,28.41,63,63.94-.08,34.25-28.66,62.43-63.28,62.38-35.37-.05-63.19-28.41-63.13-64.36C583.9,289.31,612.67,261.19,647.24,261.24Z"/><path class="argo-8" d="M699.39,446.45a2.45,2.45,0,0,1,.26,2.41C699.56,448.05,699.47,447.25,699.39,446.45Z"/><path class="argo-11" d="M854.82,316.62A18.47,18.47,0,1,1,836.36,298,18.33,18.33,0,0,1,854.82,316.62Z"/><path class="argo-11" d="M628.63,316.26A18.44,18.44,0,1,1,646.94,335,18.33,18.33,0,0,1,628.63,316.26Z"/></svg>