<svg id="Layer_3" data-name="Layer 3" xmlns="http://www.w3.org/2000/svg" viewBox="0 0 1366 768"><defs><style>.aws-1{fill:#ff8e04;}.aws-2{fill:#fefefe;}.aws-3{fill:#ff9a00;}.aws-4{fill:#1a2b3c;}.aws-5{fill:#c8c2c5;}.aws-6{fill:#d4ccce;}.aws-7{fill:#fff;}</style></defs><title>aws</title><path class="aws-1" d="M664,767.62q-183.51,0-367,0a254.33,254.33,0,0,1-35.74-2.7c-13.05-1.85-25.76-5.27-38.32-9.05a136.44,136.44,0,0,1-23.71-9.26c-8-4.15-16.35-7.6-24.12-12.22-8.08-4.81-15.67-10.32-23.3-15.8a227.2,227.2,0,0,1-30.94-27.34A234.62,234.62,0,0,1,103,670,220.15,220.15,0,0,1,85,642.88c-4.49-8.23-8.75-16.56-12.45-25.19-3.17-7.39-5.86-14.94-8.29-22.58-2.32-7.28-4-14.76-5.75-22.2-2-8.33-2.47-16.84-3.9-25.23a87.81,87.81,0,0,1-.88-13.48c-.09-10.38-.45-20.78.75-31.11,1-8.68,1.79-17.41,3.72-26,1.66-7.35,3-14.8,5.38-21.94,1.92-5.84,3.94-11.69,6.11-17.48a239.24,239.24,0,0,1,26.45-50.32A229.86,229.86,0,0,1,120.79,357q8.77-9.12,18.29-17.42c4-3.53,8.36-6.74,12.64-10a193.34,193.34,0,0,1,24.05-16c12.21-6.59,24.47-13.06,37.7-17.54,5.06-1.71,10-3.74,15.17-5.27,6.42-1.91,12.93-3.41,19.44-5,5.95-1.42,12-2.23,18-3.08a135.82,135.82,0,0,1,19.65-1.69c1.59,0,3.18-.07,4.76-.18a3.75,3.75,0,0,0,3.73-3.3,159.88,159.88,0,0,1,5.43-16.95c2.85-8,6-16,9.3-23.84a369.2,369.2,0,0,1,18.44-37.38,390.35,390.35,0,0,1,23.28-36.3,368.4,368.4,0,0,1,27-33.17c8.37-9.23,17.23-18,26.45-26.31,5.6-5.07,11.6-9.71,17.47-14.48A374.34,374.34,0,0,1,474.3,53.53a331.92,331.92,0,0,1,34.07-16.76c6.93-2.93,14.12-5.27,21.08-8.14,9.13-3.78,18.69-6.17,28.09-9.07,7.55-2.33,15.26-4.11,23-5.84C587,12.28,593.41,11,599.89,10.1c8.55-1.17,17-3.08,25.75-3.15a112.6,112.6,0,0,0,18.18-1.69,12.35,12.35,0,0,1,1.83-.06c6.34,0,12.69.07,19,0,5.26-.07,10.49.27,15.72.71,3.5.29,7-.21,10.53.71,3.33.88,6.82.29,10.22.62,4.72.47,9.41,1.45,14.09,1.85,6.48.56,12.69,2.3,19.1,3.14A93.49,93.49,0,0,1,750,15.75c3.69,1.14,7.56,1.78,11.33,2.69,7.47,1.81,14.73,4.25,22,6.58a308.3,308.3,0,0,1,29,11C822.12,40.33,832,44.6,841.26,50c6,3.47,12.23,6.56,18.17,10.14,11.29,6.79,22.07,14.35,32.65,22.23,9.11,6.79,17.8,14.1,26.18,21.71q13.41,12.17,25.64,25.6c7.13,7.87,14,15.94,20.52,24.31A385,385,0,0,1,996,201.88c.36.64.73,1.27,1.12,1.89,1.53,2.4,2.58,3.11,5.1,2.27a18,18,0,0,1,5.72-.7c9.28-.12,18.52-1.43,27.8-.86,8.51.52,17,1,25.5,1.92a235.47,235.47,0,0,1,24.13,3.75c7.84,1.72,15.66,3.61,23.34,6,8.69,2.71,17.23,5.71,25.7,9.07a236.83,236.83,0,0,1,32.19,15.56,326,326,0,0,1,32.13,21,300,300,0,0,1,40.36,36.58,270.71,270.71,0,0,1,31.11,41.5,260.32,260.32,0,0,1,14.34,26.23,298.28,298.28,0,0,1,18.78,52.11,269.13,269.13,0,0,1,6.8,37.27,250.2,250.2,0,0,1,1.66,40.88c-.5,9.5-1.22,19-2.5,28.37a263.08,263.08,0,0,1-8.61,39.11A284,284,0,0,1,1282.15,611a289.56,289.56,0,0,1-26.34,42.49,279.47,279.47,0,0,1-38.93,42.59,263.17,263.17,0,0,1-41.53,30.4c-8.83,5.17-17.63,10.37-26.84,14.76a251,251,0,0,1-25.67,10.4,307.14,307.14,0,0,1-35.55,9.91c-7.63,1.68-15.35,2.78-23.09,3.83-14.68,2-29.43,2.24-44.21,2.23Q842,767.56,664,767.62Z"/><path class="aws-2" d="M663.43,730.2H367.62q-33.93,0-67.85,0c-6.6,0-13.23.06-19.79-.53a193.37,193.37,0,0,1-21-3.14,210.12,210.12,0,0,1-29.6-8,232.19,232.19,0,0,1-34.15-15.69c-20.85-11.6-38.4-27.2-54.18-44.94-13.86-15.58-24.25-33.29-32.94-52.14a184,184,0,0,1-11.21-32.48c-1.69-6.72-2.76-13.61-3.85-20.48-1.75-10.93-1.95-21.89-1.85-32.87a199.54,199.54,0,0,1,2.41-27.69,197.21,197.21,0,0,1,19.73-60.49,200.14,200.14,0,0,1,49.06-62.25,218.26,218.26,0,0,1,23.71-17.8,196.9,196.9,0,0,1,39.24-19.56,236.15,236.15,0,0,1,40.22-10.9,182.81,182.81,0,0,1,39.78-3c8.36.38,14.19-3.53,18.6-10.16a7.13,7.13,0,0,0,1.39-2.95c.39-3.93,2-7.52,3.07-11.24,1.11-4.06,1.88-8.27,3.69-12.16,1.23-2.62,1.78-5.54,2.73-8.31a344.5,344.5,0,0,1,26-57.2,336,336,0,0,1,60.75-77.65,355.85,355.85,0,0,1,46.81-37.62C483.7,90.54,500,82,516.64,74c10.92-5.19,22.3-9.25,33.62-13.39,6.27-2.3,12.81-3.85,19.22-5.76,13.47-4,27.26-6.51,41.11-8.68,6.62-1,13.33-1.52,20-2.17,9.5-.93,19-1,28.55-1.38,5.85-.22,11.72.38,17.59.57,10.75.33,21.47,1.29,32.14,2.58,7.13.86,14.22,2.21,21.26,3.68,8.83,1.84,17.62,3.9,26.37,6.11,3.4.86,6.77,2,10.11,3.07,5.89,2,11.78,3.91,17.5,6.34,6.72,2.84,13.6,5.27,20.21,8.42,5.39,2.57,10.9,4.94,16.16,7.76,16.56,8.9,32.84,18.25,47.81,29.77a390.37,390.37,0,0,1,45.59,41.28A329.32,329.32,0,0,1,962,217.58c3.64,6.47,7.21,13,11.12,19.32,3.64,5.88,9.14,8.37,15.86,7.82,6.33-.51,12.69-.78,19-1.91a7.1,7.1,0,0,1,1.45-.18c8.79,0,17.57-.95,26.38-.53,14.65.7,29.29,1.82,43.59,5.17,13.05,3.06,26,6.45,38.54,11.5A292.25,292.25,0,0,1,1159,279.63c17.43,10.48,32.58,23.66,46.81,38a221.36,221.36,0,0,1,35.4,46.56A260.12,260.12,0,0,1,1262.06,410c2.29,6.83,4,13.81,6,20.7a84.35,84.35,0,0,1,2.29,11.47c1,6.63,2.21,13.23,2.73,19.94,1,12.82.73,25.63.57,38.46-.11,8.45-1.31,16.78-2.56,25.11-1,6.51-2.55,12.88-4.06,19.28a221.13,221.13,0,0,1-10.62,32.27,264.61,264.61,0,0,1-15,30.54,230.26,230.26,0,0,1-25.66,36.06,244,244,0,0,1-39.43,37.1,260.09,260.09,0,0,1-39.61,24.27,245.17,245.17,0,0,1-41.23,15.91c-4.92,1.44-9.91,2.61-14.86,3.84a140.89,140.89,0,0,1-14.8,2.43,230.68,230.68,0,0,1-24.76,2.5c-4.64.12-9.29.27-13.94.27Z"/><path class="aws-3" d="M683,635.82c-47.16-.28-93.1-7.74-137.67-23.32A409.56,409.56,0,0,1,412,535.37c-2.31-2-4.62-4-6.87-6.07-3.42-3.15-4.14-5.76-2.37-8.24s4.76-2.61,8.58-.41c9.84,5.67,19.82,11.09,30,16.13a558.23,558.23,0,0,0,115.07,41.88,574.77,574.77,0,0,0,67,12.26,541,541,0,0,0,87.87,3.64,545.23,545.23,0,0,0,92.95-11.95,555.17,555.17,0,0,0,99.08-31.12c3-1.26,6-2.11,9.21-.79,5,2,6.66,7.18,3.72,11.73a15.07,15.07,0,0,1-4,3.77,319.64,319.64,0,0,1-64.09,35.95,424,424,0,0,1-95.08,27.65A398.92,398.92,0,0,1,701,635.36C695,635.6,689,635.82,683,635.82Z"/><path class="aws-4" d="M645.16,432.58q8.51-36.15,17-72.3,5.85-24.93,11.73-49.85c.23-.95.5-1.89.77-2.82q1.82-6.23,8.29-6.43c6.6-.2,13.2-.25,19.8,0,3.53.15,5.87,1.93,7.26,5.21a43.81,43.81,0,0,1,1.92,7.05q13.76,58.59,27.47,117.19c.33,1.4.4,2.92,1.26,4.17a.66.66,0,0,1,.24.93c.23-.29.18-.7.43-1q5.92-22.86,11.84-45.72,9.95-38.64,19.85-77.29a36,36,0,0,1,2.05-5.86,7.32,7.32,0,0,1,6.51-4.64,212.34,212.34,0,0,1,21.26-.1c2.58.08,3.82,1.72,3.88,4.42a18.14,18.14,0,0,1-1,5.75Q794,349.13,782.29,386.87,771,423.22,759.73,459.56c-.22.7-.45,1.4-.71,2.08-2,5.27-4.16,6.95-9.83,7.07-6,.12-12,.13-17.94,0s-8.17-2.13-9.65-8.06-2.82-11.62-4.21-17.43q-9-37.93-18.06-75.86-3.18-13.35-6.41-26.7c-.13-.57-.11-1.23-1.09-1.65-1.57,6.59-3.14,13.13-4.7,19.67L663.64,457.3a38.6,38.6,0,0,1-1.9,6.29,7.34,7.34,0,0,1-6.74,4.85c-7.21.36-14.43.34-21.64,0-3.67-.16-6.1-2.4-7.3-5.8-1.49-4.25-2.88-8.55-4.18-12.87q-19.74-65.13-39.43-130.29-1.43-4.72-2.73-9.49a19.07,19.07,0,0,1-.66-3.59c-.28-3.79,1-5.29,4.73-5.34,6.61-.07,13.21.09,19.81.05,4.26,0,6.85,2.11,8.28,5.94a113.6,113.6,0,0,1,3.3,12q14.09,55.72,28.14,111.46a11.94,11.94,0,0,0,.51,1.37C644.19,432.28,644.3,433.15,645.16,432.58Z"/><path class="aws-4" d="M532,447.05c-6.36,7.41-13.22,13.48-21.47,17.71-18.16,9.31-37.14,11.39-56.35,4.15-16.64-6.28-25.62-19.25-28.31-36.67a57.22,57.22,0,0,1,1.6-25.39c4-13.23,12.54-22.7,24.51-29.27,9.73-5.35,20.31-7.54,31.29-8,14.65-.65,29,1.55,43.22,4.75a6.9,6.9,0,0,0,3.5.27c-.14-10.17.66-20.39-1.92-30.51-2.84-11.16-9.85-17.66-20.94-20-13.54-2.86-27-2-40.26,1.61A142.07,142.07,0,0,0,448.13,332a42,42,0,0,1-6.24,2.09c-3.06.74-4.89-.34-5.28-3.39a57.3,57.3,0,0,1,.18-16.07c.41-2.55,2.42-3.89,4.43-5.08A80.77,80.77,0,0,1,457,302.8,123.29,123.29,0,0,1,508,297a86.14,86.14,0,0,1,17.22,3.37c18.5,5.62,29.16,18.28,33.45,36.76a90.27,90.27,0,0,1,2.23,20.72c0,18.09.06,36.18,0,54.27,0,5.38.49,10.72.86,16.07.5,7.21,3.6,13.63,6.72,20,.48,1,1.14,1.89,1.54,2.91,1.08,2.72,1,5.38-1.35,7.38a90.94,90.94,0,0,1-15.47,10.42c-3,1.65-6,.4-8.33-1.94a45.14,45.14,0,0,1-7.65-10.25C535.45,453.64,533.83,450.51,532,447.05Z"/><path class="aws-4" d="M884.07,296.16a114.24,114.24,0,0,1,37.34,6.53,33.87,33.87,0,0,1,8.15,4.1c3.35,2.31,5.21,5.37,5.07,9.57-.11,3.17,0,6.35-.08,9.53-.19,4.56-2.41,6.15-6.72,4.87a41.18,41.18,0,0,1-4.77-1.84,86.69,86.69,0,0,0-51.62-5.67,33.41,33.41,0,0,0-6.93,2.32c-13.94,5.89-15.14,25.71-3.15,33.67a71.66,71.66,0,0,0,17.56,8.08c10.55,3.46,21.15,6.78,31.69,10.28a59.41,59.41,0,0,1,15.92,8.12c10.83,7.78,16.5,18.48,17.4,31.64,1.71,24.95-13.7,42.73-33.69,50.45a93.57,93.57,0,0,1-40.31,5.72,127,127,0,0,1-36.4-7.76,42.09,42.09,0,0,1-8.48-4.26,10.39,10.39,0,0,1-5-8.88c-.09-3.54-.14-7.1,0-10.63.19-4.34,2.32-6,6.52-5a40.41,40.41,0,0,1,6.52,2.38,105.5,105.5,0,0,0,47.55,8.49c7.23-.34,14.34-1.57,20.8-5.15,9.77-5.43,13.23-15.16,10.31-25.26a17.19,17.19,0,0,0-7.14-9.46c-5.29-3.66-11.3-5.72-17.34-7.67C877.19,397.1,867,394,857,390.69a59.39,59.39,0,0,1-15.9-8.2c-23.16-16.6-27.52-52.87-.72-73.19,11.53-8.74,24.75-12.38,39-13.13C880.88,296.08,882.48,296.16,884.07,296.16Z"/><path class="aws-3" d="M909.32,530.2c-14.09-.13-28,1.71-42,3.23-.37,0-.72.16-1.09.18-1.77.11-3.5-.07-4.42-1.85-.83-1.62-.1-3.09.89-4.41a14.92,14.92,0,0,1,3.87-3.33c10.41-7,22-11.11,34.18-13.52a135,135,0,0,1,48.85-.84,53.71,53.71,0,0,1,11.62,3.22,8.9,8.9,0,0,1,5.79,7.35c1,5.9.46,11.73-.41,17.52-2.89,19.31-9.23,37.41-19.91,53.86a82.8,82.8,0,0,1-16,18.53,8.59,8.59,0,0,1-4.82,2.44c-2.68.23-4.23-1.35-3.76-4a16.26,16.26,0,0,1,1.07-3.1c5.45-13.73,10.77-27.5,14.62-41.78A88.83,88.83,0,0,0,941,546.06c.07-1.21,0-2.44,0-3.66-.23-4.94-2.62-8.26-7.38-9.82A49.69,49.69,0,0,0,920,530.23C916.42,530.09,912.87,530.2,909.32,530.2Z"/><path class="aws-5" d="M645.16,432.58c0,.58.17,1.48-.59,1.37-1.13-.17-.75-1.27-.74-2.06Z"/><path class="aws-6" d="M741.33,434.8c.14.47.08,1.18-.29,1.19s-.51-.66-.38-1.15A1.88,1.88,0,0,1,741.33,434.8Z"/><path class="aws-7" d="M497.59,392A145.86,145.86,0,0,1,527,395.44c3.26.67,3.28.72,3.28,4a127.48,127.48,0,0,1-.78,16.09c-1.3,10.28-6.46,18.14-14.83,23.8a50,50,0,0,1-37.74,8c-9.47-1.66-15.36-7.59-17.75-16.86a34.58,34.58,0,0,1,.52-19.9c3-9,9.74-14.07,18.6-16.63C484.63,392.13,491.1,391.91,497.59,392Z"/></svg>