<svg id="Layer_4" data-name="Layer 4" xmlns="http://www.w3.org/2000/svg" viewBox="0 0 1366 768"><defs><style>.azure-1{fill:#fefefe;}.azure-2{fill:#0072c5;}</style></defs><title>azure</title><path class="azure-1" d="M186,682.45c4.5-3.24,9.71-2.4,14.71-2.41,64,0,128-.28,192,.23,10.74.08,15.71-4,19.83-13.3,28.78-64.82,58.29-129.32,87.43-194q47.8-106.1,95.87-212.07c31.48-69.52,62.77-139.13,94.39-208.58,6.89-15.12,14.43-30,20.75-47.51-9,5.34-14.92,11.45-21.21,16.92C653.2,53.53,616.46,85.09,580,116.91c-35.56,31-71.51,61.52-106.89,92.72-10,8.79-20.09,17.43-30.21,26-7,5.92-12,12.91-16.32,20.7Q358.66,377.89,291,499.49q-48.37,86.68-96.62,173.45c-1.86,3.36-2.74,8.19-8.34,7.61"/><path class="azure-1" d="M1159.32,762.3c-5.17,0-6.55-4.41-8.46-7.8q-70.09-124.62-140.13-249.27-54.09-96-108-192.12c-41.35-73.39-82.42-146.94-123.82-220.3-6.18-11-11.37-22.53-19-32.46-2.85.58-3.09,2.68-3.7,4.39-38,106.48-75.67,213.07-113.74,319.53-3.32,9.27-1.89,15.64,4.18,23.2C719.09,497.57,790.8,588.25,863,678.54c12.25,15.31,11.71,16.53-7.89,19.9Q664.53,731.14,474,763.87c-8.23,1.42-16.55,2.11-24.86,2.86A190.65,190.65,0,0,1,471,765.42q336.87,0,673.74,0c5,0,10.22-1.14,14.58,2.55"/><path class="azure-2" d="M1159.32,768H444.71l-.24-1.72,424.8-72.95c.68-4.24-2.88-6.11-4.85-8.59Q753,544.58,641.22,404.63c-4.16-5.2-5.48-9.29-3.08-16q58.62-164,116.7-328.08c.9-2.53.93-5.7,4.43-7.88,9.15,16.23,18.28,32.35,27.36,48.5Q970.07,427.59,1153.53,754c1.64,2.92,2.42,6.55,5.79,8.31Z"/><path class="azure-2" d="M186,680.55c3.6-1.53,4.18-5.3,5.79-8.19Q309.3,461.85,426.61,251.22a58,58,0,0,1,13-16Q571.88,120.83,704,6.33c2.88-2.49,6-8.29,9.67-5.64s-1,7.39-2.51,10.85Q561.77,342.32,412.34,673.08c-3.37,7.46-7.13,10-15.37,9.91-70.32-.49-140.65-.43-211-.54Z"/></svg>