<svg id="Layer_5" data-name="Layer 5" xmlns="http://www.w3.org/2000/svg" viewBox="0 0 1366 768"><defs><style>.bash-1{fill:#b7babc;}.bash-2{fill:#283037;}.bash-3{fill:#fff;}.bash-4{fill:#4da825;}.bash-5{fill:#96969a;}</style></defs><title>bash</title><path class="bash-1" d="M603.07,767.35a1.77,1.77,0,0,1-.05.65H563.87l0-.77c1.18-1.19,2.73-1.16,4.22-1.17q15.39-.07,30.8,0C600.39,766.08,602,766,603.07,767.35Z"/><path class="bash-2" d="M603.07,767.35l-32.84-.1-6.34,0c-12.86-3-24.29-9.12-35.55-15.82Q411.68,682,294.9,612.84,261.47,593,250.35,555.91a96.44,96.44,0,0,1-4-27.83c0-96.12-.31-192.24.13-288.35.17-36.9,16.41-65.67,48.38-84.72Q415,83.4,535.36,12.07c17.23-10.25,35.73-15,55.72-13.44A92.32,92.32,0,0,1,631.8,11.9q36.81,22,73.7,43.8,83.4,49.55,166.82,99.08c24.78,14.69,40.19,36.08,46.51,64.11a94.78,94.78,0,0,1,2.11,20.91c0,96,.2,192-.11,288-.12,37.49-16.78,66.22-49.08,85.44Q754.14,683.22,636.4,753C625.87,759.27,615,764.45,603.07,767.35Z"/><path class="bash-3" d="M901.29,223.54c-7.51-12-19-16.34-33.13-12.35a57.77,57.77,0,0,0-14.63,6.73Q749.25,282.39,645,346.86c-11.4,7.06-23,13.75-34.13,21.3a100,100,0,0,0-20.24,17.9c-9.94,11.76-14.8,25.42-15.34,40.72,0,1.5,0,3,0,4.52q0,139.84,0,279.69a67.14,67.14,0,0,0,2.12,18.24c2.66,9.5,7.69,17.09,17.09,21.15.2.08.32.34.7.75a56.45,56.45,0,0,1-17.83.8,80,80,0,0,1-33.56-11.26Q424,669.51,304.14,598.48c-21.84-12.93-35-31.79-39.58-56.66a84.44,84.44,0,0,1-1.13-15.73q0-113.13,0-226.24c0-20.33-.09-40.66,0-61a79.85,79.85,0,0,1,39.83-69.1Q367.2,131.92,431,94q56.43-33.48,112.84-67c14.35-8.57,29.74-12.43,46.38-11.08a75.58,75.58,0,0,1,32.9,10.84q40.38,24.06,80.84,48,79.88,47.39,159.75,94.77c19.84,11.75,32.3,28.85,37.92,51.09.19.73.26,1.49.39,2.23S902,223.78,901.29,223.54Z"/><path class="bash-3" d="M666.26,618.07a71.77,71.77,0,0,1-12.72,3.51c-4.5.64-9,.89-13.44-.35-3.05-.85-3.85-1.76-3.19-4.86,1.44-6.73,3-13.44,4.85-20.07.94-3.37,3.24-4.32,6.71-3.54,17.94,4,38.13-8.53,42.32-26.39a25.9,25.9,0,0,0,.39-10.08,11.68,11.68,0,0,0-7.81-9.73,26.85,26.85,0,0,0-7.32-1.55c-5.74-.5-11.52-.22-17.24-1.26-12.76-2.32-20-10.25-21.17-23.23-1.48-17.11,3.54-32.42,13-46.48a69,69,0,0,1,13.26-14.81,5.38,5.38,0,0,0,2.1-4.84c-.18-5.26-.08-10.53-.26-15.79-.15-4.29,1.25-7.48,5.23-9.55,3.22-1.68,6.2-3.79,9.33-5.63,2.89-1.68,4.53-.87,4.64,2.51.19,5.26.11,10.53.13,15.8,0,1.47,0,2.95,0,4.68,4.79-1.47,9.19-2.84,13.84-3.26a32.8,32.8,0,0,1,8.23.36c2.33.37,3,1.2,2.91,3.56a11.94,11.94,0,0,1-.4,2.59c-1.36,5.47-2.78,10.92-4.14,16.39a11,11,0,0,1-1.58,3.78,4.48,4.48,0,0,1-4.81,2.06c-13.5-2-24.3,3-32.76,13.33a23.37,23.37,0,0,0-5.21,16.12c.22,6,2.82,9.19,8.67,10.67a58.57,58.57,0,0,0,12.31,1.31,76.12,76.12,0,0,1,10.86.9c12.17,2.25,19.52,9.66,21.5,21.94,2.46,15.27-.46,29.67-7.23,43.4A79.63,79.63,0,0,1,687.66,605a5.42,5.42,0,0,0-2.08,4.83c.21,5.51.15,11,.34,16.55a8.26,8.26,0,0,1-4.66,8.29c-3.42,1.83-6.73,3.88-10.13,5.76-3.22,1.78-4.68,1-4.77-2.66-.12-5-.08-10-.1-15C666.25,621.38,666.26,620,666.26,618.07Z"/><path class="bash-4" d="M746.81,604.07a56,56,0,0,0,0-5.65c-.3-3,.93-5,3.51-6.44,5.43-3.11,10.78-6.37,16.16-9.58q20.64-12.35,41.3-24.67c1.34-.79,2.71-2.41,4.35-1.55s.9,3,.94,4.5c.1,3.39-.13,6.79.08,10.16s-1,5.38-3.84,7c-10.66,6.34-21.22,12.85-31.83,19.27q-13,7.89-26.06,15.75c-.43.26-.83.56-1.28.79-2,1.06-3.12.56-3.24-1.73-.15-2.63,0-5.27,0-7.9Z"/><path class="bash-5" d="M901.29,223.54l.77-.7c.09.08.22.14.27.24.33.62.76,1.46-.1,1.77C901.73,225,901.35,224.18,901.29,223.54Z"/></svg>