<svg id="Layer_7" data-name="Layer 7" xmlns="http://www.w3.org/2000/svg" viewBox="0 0 1366 768"><defs><style>.docker-1{stroke:#066da5;stroke-width:103px;}.docker-2{fill:#066da5;}</style></defs><title>docker</title><path class="docker-1" d="M802.12,310H911.87m-240.39,0H781.22m-237.78,0H653.19m-237.78,0H522.54m-237.78,0H394.5m20.91-122.51H522.54m20.9,0H653.19m18.29,0H781.22M671.48,65H781.22"/><path class="docker-2" d="M1262,315.35s-47-45.28-143.71-29.3c-10.45-77.23-91.45-122.51-91.45-122.51s-75.78,93.22-20.91,197.08c-15.68,8-41.8,18.65-81,18.65H206.37c-13.06,50.6-13.06,386.17,347.52,386.17,258.68,0,452-122.51,543.49-346.22C1233.26,429.87,1262,315.35,1262,315.35"/></svg>