<svg id="Layer_1" data-name="Layer 1" xmlns="http://www.w3.org/2000/svg" viewBox="0 0 1366 768"><defs><style>.grafana-1{fill:#f05a29;}.grafana-2{fill:#fac70c;}.grafana-3{fill:#f8ad12;}.grafana-4{fill:#f69e17;}.grafana-5{fill:#f8b610;}.grafana-6{fill:#f7a913;}.grafana-7{fill:#f7a315;}.grafana-8{fill:#f8b211;}.grafana-9{fill:#f48a1c;}.grafana-10{fill:#f69c17;}.grafana-11{fill:#f58f1a;}.grafana-12{fill:#f16526;}.grafana-13{fill:#f9bd0e;}.grafana-14{fill:#f7a116;}.grafana-15{fill:#f9bc0f;}.grafana-16{fill:#f9b90f;}.grafana-17{fill:#f16925;}.grafana-18{fill:#fac30d;}.grafana-19{fill:#f26d24;}.grafana-20{fill:#f58d1b;}.grafana-21{fill:#f37721;}.grafana-22{fill:#f69818;}.grafana-23{fill:#f8b311;}.grafana-24{fill:#f27222;}.grafana-25{fill:#f05e28;}.grafana-26{fill:#f8b410;}.grafana-27{fill:#f69619;}.grafana-28{fill:#f9b80f;}.grafana-29{fill:#f16825;}.grafana-30{fill:#f4841d;}.grafana-31{fill:#f59419;}.grafana-32{fill:#f16227;}.grafana-33{fill:#f7a714;}.grafana-34{fill:#f4821e;}.grafana-35{fill:#f5931a;}.grafana-36{fill:#f27322;}.grafana-37{fill:#f37f1f;}.grafana-38{fill:#f4861d;}.grafana-39{fill:#f5911a;}.grafana-40{fill:#f16127;}.grafana-41{fill:#f37a20;}.grafana-42{fill:#f4831e;}.grafana-43{fill:#f4891c;}.grafana-44{fill:#f26c24;}.grafana-45{fill:#f16a25;}.grafana-46{fill:#f69718;}.grafana-47{fill:#f7a515;}.grafana-48{fill:#f16426;}.grafana-49{fill:#f37522;}.grafana-50{fill:#f37b20;}.grafana-51{fill:#f27223;}.grafana-52{fill:#f37621;}.grafana-53{fill:#f26f23;}.grafana-54{fill:#f4801f;}.grafana-55{fill:#f4851e;}.grafana-56{fill:#f58e1b;}.grafana-57{fill:#f16326;}.grafana-58{fill:#f27425;}.grafana-59{fill:#fac20d;}.grafana-60{fill:#f9bf0e;}.grafana-61{fill:#f37e1f;}.grafana-62{fill:#f37c20;}</style></defs><title>grafana</title><path class="grafana-1" d="M384.48,250.52c-11.41-22.57-16.82-46.79-19.43-71.73a224.41,224.41,0,0,1-1.1-35.17c.25-4.93,1.73-8,6.85-10,46.33-18.1,93.11-21.16,140.48-4.61,4.85,1.69,8.24,1.05,12.32-1.69A267.69,267.69,0,0,1,597.09,92.6c3.3-1,6-1.86,7.26-6.16,10.38-34.68,32.19-60.94,61.24-81.73,1.94-1.39,4.66-2,5.44-4.71h3c14.91,9.61,29.29,19.81,41,33.43,11,12.85,19.83,26.94,25.42,42.92,1.43,4.09,3.47,5.7,7.85,6.35A284.36,284.36,0,0,1,814.47,101c3.92,1.61,6.7,1.29,10.26-.94,20.32-12.72,42.82-17.2,66.51-17.26,4.75,0,7.15,2,9.11,6.05,10.79,22.16,15.52,45.25,10.8,69.75-.86,4.42,1.1,6.92,3.86,9.71a278.58,278.58,0,0,1,51.78,72.13c1.11,2.21,1.9,4.57,2.84,6.86.28,3.22-1.94,4.82-4.43,4.89-13.74.41-27.58,2.75-41.14-1.53-21.18-22.82-44.18-43.54-72-58C764.7,147.29,677.74,148.71,592,197c-23.59,13.3-41.55,33.35-57.68,54.91a22.76,22.76,0,0,1-8.12,1c-43.42-.06-86.84,0-130.26,0C392,252.89,387.87,253.37,384.48,250.52Z"/><path class="grafana-2" d="M792.53,768c-16.12-5.23-32.6-9.58-47-18.94-4.53-2.94-9.49-5.3-13.12-9.48,1.49-3.29,4.55-3.78,7.55-3.83,24.46-.35,48.92-.26,73.37,0,2.49,0,5,.3,6.81,2.47-6.3,11-13.52,21.32-23.06,29.83Z"/><path class="grafana-3" d="M464.28,639l5.7-19.5c2.8-2.81,6.44-2.37,9.87-2.38q89.31-.11,178.63,0c6.67,0,13.36,1.51,20-.36,15,1.32,30,1.88,45.06.06,3.82,2.37,7.81.49,11.72.47,48.74-.37,97.48-.16,146.23-.08,3.74,0,7.59.21,10.06,3.81-4.1,7.73-10.31,13.64-16.64,19.46-2,1.35-4.26,1.16-6.51,1.16-129.91-.38-259.81,0-389.72-.23C473.82,641.39,468.6,642.64,464.28,639Z"/><path class="grafana-4" d="M980.32,541c4,7.43,5.14,15.7,7,23.75.55,2.33.24,4.42-2.43,5.37a25.55,25.55,0,0,1-11.64,2.31c-46,0-92,.08-138-.15-5.24,0-11.83,1.71-14.47-5.66l19.26-25.35c4.36-1.7,8.88-.67,13.32-.68,39.82-.08,79.64,0,119.46-.1A41.94,41.94,0,0,1,980.32,541Z"/><path class="grafana-5" d="M461.15,673.5c.05-3.5.11-7,.16-10.5,1.48-1.55,3.43-2,5.43-2.24,21-.45,41.95-.19,62.92-.19q149.1-.06,298.19,0c6.61,0,13.62-1.1,19.22,4-1.28,2.5-4.3,2.61-6.07,4.44-1.49,5.37-5.25,7.19-10.5,6.83-1.73-.11-3.49,0-5.24,0q-175.23,0-350.45,0C470.17,675.91,465.23,676.94,461.15,673.5Z"/><path class="grafana-6" d="M678.48,616.74c-4.53,2.34-9.39,2.79-14.41,2.79q-97-.06-194.09,0C464.5,613,458,607.36,453.42,600c3.36-4.59,8.41-3.84,13-3.85q67.47-.09,134.94,0c1.74,0,3.5.36,5.17-.44,12.49,4.74,24.68,10.25,37.57,14C655.43,613,666.74,615.86,678.48,616.74Z"/><path class="grafana-7" d="M820.85,566.65c3.53,3.5,8,3.35,12.5,3.35l151.59.15c-14.42,12.5-30.87,20.76-49.78,23.89-13.41.41-26.82.94-40.25.9-27.74-.08-55.49,0-83.23,0-3.5,0-7.06.24-10.44-.73-2.7-.78-6.22-1-6-5.27Z"/><path class="grafana-8" d="M464.28,639q199.05,0,398.1,0a40.36,40.36,0,0,1,12.53,1.5C871.44,644.53,868.28,649,863,651a14.2,14.2,0,0,0-4.13-.8c-85.73-.29-171.44,0-257.16-.12-44.48-.06-89,.18-133.45-.12a7.3,7.3,0,0,1-4.09-1.42,3.4,3.4,0,0,1-.33-4C464,642.69,464.15,640.84,464.28,639Z"/><path class="grafana-9" d="M292.94,470.84a51.35,51.35,0,0,1,7.48-16.38c1.74-1.25,3.74-1.18,5.75-1.16,56.94.64,113.87.09,170.81.33,5.26,0,10.45-.71,15.68-.87l5.82,19.74c-2.8,2.81-6.44,2.4-9.88,2.41q-92.86.09-185.75-.06C299.25,474.84,294.62,476.15,292.94,470.84Z"/><path class="grafana-10" d="M426.44,561c-2.41-4.07-5.81-5.64-10.68-6.41-16.12-2.54-31.81-6.89-46.41-14.53,3-5.17,8.24-3.91,12.75-3.92,37.85-.13,75.69-.07,113.54-.07,12.44,0,24.88.06,37.32-.21l19.85,21.6c-.67,5.13-4.95,4.15-8,4.28-9.93.41-19.88.11-29.83.17-27.6.15-55.19-.35-82.79.27C430.15,562.25,428.17,562.28,426.44,561Z"/><path class="grafana-11" d="M309.65,500.94A72.17,72.17,0,0,1,296,487.63c0-3.66,2.95-4.25,5.56-5a30.69,30.69,0,0,1,8.18-.6q90.95,0,181.88,0c4,0,8.07-.48,11.43,2.42L509.09,498c-2.84,4.94-7.77,3.86-12.08,3.88-32.49.13-65,.06-97.48.07H320.05C316.55,501.94,313,502.08,309.65,500.94Z"/><path class="grafana-12" d="M657.36,299.66a103.52,103.52,0,0,1,27-16.5c41.93,2.09,83.88.61,125.82.89,4.14,0,8.48.2,12.36-1.94,12.88,3.37,23.18,11.64,34.4,18.17-.69,3.49-3.8,3.57-6.32,4.28-3.63,1-7.42.86-11.16.86H673.3c-3.24,0-6.53.19-9.68-.66C660.87,304,657.45,303.8,657.36,299.66Z"/><path class="grafana-13" d="M710.06,717c-2.56-2.32-5.68-1.41-8.59-1.39-29.46.29-58.5-2.81-87-10.5-1.67-.46-3.26-1.18-4.89-1.77.75-3.83,4-4,6.87-4.6a38.74,38.74,0,0,1,7.47-.3H822.38a33.26,33.26,0,0,1,7.47.35c3.48.78,6.22,2.27,4.83,6.66a31.83,31.83,0,0,1-4.67,13c-8.78-2.22-17.73-2.15-26.7-2.12-24.65.07-49.3.17-73.95-.08C722.89,716.17,716.54,718.38,710.06,717Z"/><path class="grafana-14" d="M426.44,561A41.21,41.21,0,0,1,439,559.45q52.8.12,105.59,0c2.83,0,6.11,1.16,8.27-2,7.86,7.18,16.91,13,23.85,21.26-1.37,5-5.68,4-9.08,4-14.46.26-28.93.14-43.4.1-24.95,0-49.89.24-74.83-.17-2.82-.05-5.38.89-8.08,1.26A107.45,107.45,0,0,1,426.44,561Z"/><path class="grafana-15" d="M462.72,697.5c-.89-3.92-1.83-7.84-1.39-11.92,6.26,2,12.71,2,19.2,2q172.28-.11,344.54,0c4.62,0,9.58-1.17,13.64,2.37-.51,3.63-.73,7.33-2.63,10.61-3-1.64-6.21-1.63-9.48-1.63-68.9,0-137.8-.35-206.71.14q-72.85.51-145.7.46C470.29,699.58,466.11,700.52,462.72,697.5Z"/><path class="grafana-16" d="M838.71,690h-275c-31.43,0-62.85-.07-94.28.09-3.88,0-6.73-.63-8.14-4.51l-.08-3.08c2.65-2.56,6-2.09,9.23-2.09q179.94-.06,359.88,0c3.18,0,6.59-.57,9.19,2.12Z"/><path class="grafana-17" d="M657.36,299.66c3.08,3.08,7,3.34,11,3.34H844.81A27.23,27.23,0,0,0,857,300.28c6.46,3.28,12.89,6.61,16.81,13.15-4.25,4.74-10,3.92-15.38,3.92q-73,.09-145.91.06c-19.2,0-38.41.2-57.61-.15-4.61-.08-10.32,1-12.4-5.42C647.46,307.82,651.47,302.59,657.36,299.66Z"/><path class="grafana-18" d="M710.06,717a35,35,0,0,1,13.53-3c31.37,0,62.75-.07,94.13.08,4.41,0,9.46-.64,12.29,4.35-2.43,7-5.4,13.77-9.92,19.74q-40.27-.09-80.57-.2a14.27,14.27,0,0,0-7.16,1.61C723.27,733.67,716.1,725.86,710.06,717Z"/><path class="grafana-19" d="M388.93,343.48a112.18,112.18,0,0,1,6-27.2c31.37,1.82,62.76.32,94.14.87,4.13.07,8.56-.91,12.11,2.35l-7.14,24c-2.88,2.56-6.45,2.41-9.93,2.41q-42.66.09-85.32,0C395.37,345.89,391.73,346.27,388.93,343.48Z"/><path class="grafana-20" d="M503,484.5H307c-3.95,0-8.09-.6-11,3.12-6.8-4.56-7.92-10.13-3-16.79,2.39,2.77,5.61,1.61,8.45,1.61q98.55.1,197.09.05Z"/><path class="grafana-21" d="M358.86,385.16c6.09-5.41,13.14-9.4,20.31-13.08,3.57-1.82,5.88-4.08,6.6-8,7.43-1.22,14.9-.45,22.35-.49,23.38-.11,46.77-.07,70.16,0,4,0,8-.41,11.42,2.4l-2,19.55a4.8,4.8,0,0,1-3.06,3,25.26,25.26,0,0,1-8.16.83c-35.72.05-71.44.12-107.16-.1C365.64,389.26,360.52,391.12,358.86,385.16Z"/><path class="grafana-22" d="M980.32,541c-1.93,2.85-4.91,1.93-7.53,1.94q-62,.06-124,0c-3,0-6-.13-8.65-1.72l9-16.46c3.24-2.37,7-2.28,10.76-2.28q51.21,0,102.41,0c3.76,0,7.51,0,10.78,2.27C976.29,529.86,979,535.12,980.32,541Z"/><path class="grafana-23" d="M463.88,644.54c.07,1.15.14,2.31.2,3.46,3.36,2.47,7.25,1.46,10.9,1.46q187.59.07,375.19.17c3.37,0,8.19-2.56,10,3.16q-3.75,3.78-7.49,7.58c-5.66-1.27-11.42-.9-17.14-.9q-179.06-.06-358.11-.07c-4.92,0-10,.92-14.66-1.8a1.94,1.94,0,0,1-.42-2.66C462.33,651.4,462.08,647.81,463.88,644.54Z"/><path class="grafana-24" d="M489.7,366q-47.81,0-95.61-.05c-2.83,0-6.08,1.13-8.32-1.84a75.46,75.46,0,0,1,3.16-20.63l105.12,0C494.19,351.31,490.56,358.39,489.7,366Z"/><path class="grafana-25" d="M384.48,250.52l141.16,0c3,0,6-.32,8.68,1.45l-10.54,16.54a8.38,8.38,0,0,1-5,1.12q-60-.51-120.1,0a8.48,8.48,0,0,1-5-1.13A66.48,66.48,0,0,1,384.48,250.52Z"/><path class="grafana-26" d="M462.7,657q190.09,0,380.19,0c3.54,0,7.76-1.37,9.8,3.33l-5.62,4.29c-13.85-2.73-27.86-1.61-41.8-1.62q-169.86-.1-339.74,0C462.76,661.86,460.3,660.58,462.7,657Z"/><path class="grafana-27" d="M690.56,505.67c21.73,7.82,43.26,9.34,64.43-1.91,4.22-2.24,7.88-1.26,10.39,2.64,2.85,4.41,1.16,8.13-2.66,11-11.13,8.5-23.68,14.13-37.49,15.88-31.11,3.95-59.38-3.19-83.88-23.39,2.65-2.54,6-2.06,9.21-2.11,10.23-.14,20.47.18,30.7-.19C684.41,507.52,687.8,507.93,690.56,505.67Z"/><path class="grafana-28" d="M461.15,673.5q184.59,0,369.19.06c4.36,0,8.27-.16,10.66-4.46q-.4,3.75-.8,7.48c-.54,2.84-2.14,4.38-5.14,4.37-2,0-4,0-6,0q-178.86,0-357.7,0c-3.41,0-7.05.92-10.16-1.45Q461.19,676.5,461.15,673.5Z"/><path class="grafana-6" d="M891.55,621a40.74,40.74,0,0,0-12.49-1.54q-73.62.09-147.24-.06c-2.82,0-6.74,2-8.28-2.6,16.66-2.27,32.47-7.47,47.86-14.08,39.9,1.85,79.83.41,119.74.92,4.14.05,8.58-.91,12.14,2.35C900.72,612.05,895.47,616,891.55,621Z"/><path class="grafana-29" d="M501.19,319.5c-32.79,0-65.58,0-98.37-.07-2.84,0-6.84,1.8-7.88-3.15a74,74,0,0,1,5.77-19.82c27.1,2.51,54.27.47,81.39,1.22,8.91.25,17.89-1.19,26.75.84Q505,309,501.19,319.5Z"/><path class="grafana-30" d="M945.29,445.45l.18,4.55c-2.61,2.42-5.91,2.38-9.13,2.39q-31.27.12-62.56,0c-3.22,0-6.52.08-9.12-2.39l-4.44-27c2.81-1.44,5.84-.81,8.78-.86,24-.46,48.1,1,72.12-.88a43.34,43.34,0,0,1,3,16.46C945.57,440.16,944,443,945.29,445.45Z"/><path class="grafana-31" d="M334.67,520.64c-5.11-2.11-9.17-5.66-13.05-9.47.2-3.64,3-4.22,5.73-4.73a40.5,40.5,0,0,1,7.47-.37q83.87,0,167.74,0c4.23,0,8.55-.35,12.24,2.42,2,2.63,4,5.27,5,8.5.22,3.66-2.73,3.65-5,4.08-3.19.6-6.46.36-9.7.36-54.11.1-108.21-.17-162.31.12C340.06,521.58,337.27,521.83,334.67,520.64Z"/><path class="grafana-32" d="M822.55,282.11c.27,1.11,1.18,2.54-.83,2.84-3.66.55-7.18,1.65-11,1.63-37.16-.13-74.33-.08-111.49-.08-5.2,0-10.29-.49-14.85-3.34,33.54-16.29,68.76-18.19,104.68-11.24C800.45,274.12,811.4,278.65,822.55,282.11Z"/><path class="grafana-22" d="M533,535.89c-2.13,3.56-5.66,2.58-8.79,2.58q-72.31.06-144.62,0c-3.48,0-7-.41-10.2,1.59a86.75,86.75,0,0,1-20.78-10.62l1-1c4.82-2.59,10.06-2.56,15.32-2.55,53.63,0,107.26-.09,160.89.09Z"/><path class="grafana-33" d="M903.28,606H785.55c-5,0-9.92-.09-14.15-3.28l23.86-13.81c3.38,3.75,7.89,3.59,12.36,3.59q52.67,0,105.33,0c7.45,0,14.9-.29,22.21,1.55-4.51,2.38-9.73,2.57-14.32,2.21C912.33,595.59,907.06,599,903.28,606Z"/><path class="grafana-34" d="M486.51,387l1.22-1.45.21,44.95c-2.87,2.63-6.47,2.37-9.94,2.37-48.71,0-97.42.22-146.13-.1-5.31,0-11.69,1.34-14.87-5.33,2-3.47,3.94-7,7.33-9.33a117.69,117.69,0,0,1,14.18-.5q67.32,0,134.66,0c4.47,0,10,1.36,11.09-5.64.15-2.68-.11-5.37.16-8.05-.06-2.22-.09-4.43,0-6.65C484.37,393.67,484,390,486.51,387Z"/><path class="grafana-35" d="M514.8,508.5q-91.84,0-183.69,0c-3.32,0-7.18-1.28-9.49,2.63a54.48,54.48,0,0,1-12-10.23c3-1.85,6.25-1.44,9.47-1.44H498.89c3.47,0,7,.48,10.2-1.51Q512,503.23,514.8,508.5Z"/><path class="grafana-36" d="M906.46,346.79c5,4.18,7.67,10,10.81,15.51,1.42,3.76-1,4.91-3.91,5.58-3.17.72-6.43.47-9.65.52-25.08.42-50.17-.88-75.23.78-6.29-6.84-13.91-12.11-21.08-17.89.26-5.33,4.4-5.29,8-5.51,6.71-.43,13.45-.16,20.17-.17,19.19,0,38.37,0,57.55,0A55.64,55.64,0,0,1,906.46,346.79Z"/><path class="grafana-37" d="M941.12,421.29c-.3,2.48-1.86,3.21-4.17,3.21-24.42-.05-48.85,0-73.27-.14-1.16,0-2.31-.87-3.46-1.33q-3.68-9.76-7.34-19.54c3.31-3.1,7.47-2.24,11.36-2.32,23.62-.5,47.26.87,70.87-.85A66.14,66.14,0,0,1,941.12,421.29Z"/><path class="grafana-38" d="M492.66,452.76c-1.49,3.53-4.59,3.25-7.62,3.25q-87.93,0-175.86-.08c-2.92,0-5.84-1-8.76-1.47.57-4.38,3.4-7.5,5.95-10.79a11,11,0,0,1,4.07.68c12.65,1.24,25.32.43,38,.48,18.13.08,36.27.33,54.41-.18,26.18-.17,52.36-.07,78.54-.07,3.5,0,7,0,10,2.31C492.75,448.63,492.62,450.71,492.66,452.76Z"/><path class="grafana-39" d="M856.91,505.28c.53-5.7,2.34-11.07,4.26-16.41,3.23-2.44,7-2.29,10.75-2.29,20.92,0,41.83-.06,62.75,0,3.68,0,7.56-.51,10.62,2.4,3,7,11.13,9.44,14.31,16.25-1.87,3.85-5.52,4-9,4.06q-43.07.33-86.12,0C861.6,509.24,857.61,510,856.91,505.28Z"/><path class="grafana-40" d="M393.68,268.5a37.49,37.49,0,0,1,11-1.55q54.09.14,108.16,0a35.24,35.24,0,0,1,11,1.54l-6.67,12.21A26.68,26.68,0,0,1,505.5,283q-46.71-.06-93.41,0c-3.77,0-7.5-.1-10.73-2.44A41.78,41.78,0,0,1,393.68,268.5Z"/><path class="grafana-41" d="M935.11,400.32c-.82,4.54-4.45,3.12-7.13,3.13-25,.08-50.06.05-75.1,0l-11.13-19.44c3.32-2.11,7.16-2.13,10.81-2.16,25.07-.25,50.14-.62,75.21.14A60.15,60.15,0,0,1,935.11,400.32Z"/><path class="grafana-42" d="M317,427.44c4.35,2.77,9.23,3.07,14.2,3.07q78.38,0,156.74,0c.24,3.07,2.87,5.67,1.81,9-2.93,2.45-6.47,2.42-10,2.42-52.24,0-104.49.11-156.73-.11-4.55,0-10.46,1.39-12.13-5.57A26.94,26.94,0,0,1,317,427.44Z"/><path class="grafana-43" d="M864.66,450h80.81l.22,5.45c2,16.09,1.68,16.5-14.3,16.5-19.12,0-38.24.14-57.37-.1-3.56-.05-8.22,1.28-9.67-4.17Q864.5,458.85,864.66,450Z"/><path class="grafana-44" d="M881,318.49a14.57,14.57,0,0,1,6,5.62c1.5,3.74-1.48,4.17-3.76,4.77-2.91.78-6,.54-9,.55-77.35.32-154.7-.5-232-.32a28.93,28.93,0,0,1-6.71-.35c-2.54-.59-5.07-1.4-3.58-5l4.11-4.51c4.43-1.12,8.94-.69,13.42-.69,74.17,0,148.33.08,222.5-.08C875,318.49,878,319,881,318.49Z"/><path class="grafana-45" d="M881,318.49c-1.76,2.85-4.6,2.51-7.34,2.51Q758.78,321,644,321a15.52,15.52,0,0,1-7.91-1.76c2.05-2.54,3.44-5.66,6.4-7.43,3.43,3.09,7.63,3.17,11.9,3.17q103.42,0,206.85.08c4.34,0,8.32-1.47,12.55-1.66Z"/><path class="grafana-46" d="M334.67,520.64A41,41,0,0,1,347.89,519q81.47.09,162.92,0c3,0,6.58,1.35,9-1.94,1.17,2.81,4.42,4.44,4.48,7.89-2.21,3.6-5.81,2.28-8.86,2.29q-76.77.11-153.56.05c-4.47,0-9-.21-13.11,2.08l-.18.16A53.91,53.91,0,0,1,334.67,520.64Z"/><path class="grafana-47" d="M606.57,595.75c.93,5.27-3.27,2.6-4.76,2.61-26.38.19-52.77.14-79.16.14-18.92,0-37.84.06-56.76,0A40.91,40.91,0,0,0,453.42,600a23.16,23.16,0,0,1-5.91-7.49c1.35-5.72,6.11-5,10.14-5.07,16.24-.2,32.49-.09,48.73-.08,28.48,0,57-.06,85.43,0Z"/><path class="grafana-48" d="M508.85,298.52c-2.21,1.41-4.66,1.5-7.19,1.5q-46.37,0-92.74,0c-3.27,0-6.63.32-8.21-3.55a23.81,23.81,0,0,1,3.32-10c2.08-1.12,4.34-1,6.58-1,30.68.17,61.37,0,92.05.11,3.68,0,7.57-.52,10.65,2.37C512.7,291.88,510.76,295.2,508.85,298.52Z"/><path class="grafana-44" d="M632,323.78c1,5,5.08,3.14,7.92,3.14q91.83.15,183.65.08c19,0,37.9,0,56.85-.05,2.45,0,5.82,1.34,6.63-2.84l6.12,7.23c-1.71,5.27-6.33,4-10,4q-35.94.3-71.9,0c-13.95-.12-27.93,1-41.85-.69l-28-3.62a20,20,0,0,0-8.82.16l-7.1.42c-15.36,1.25-30.76.67-46.14.75-13.43.07-26.86.14-40.29-.06-3.88-.06-8.18.41-10.47-4A5.75,5.75,0,0,1,632,323.78Z"/><path class="grafana-49" d="M603.38,379.44A70.29,70.29,0,0,1,612.31,355c15.27,2.31,30.65.6,46,1.22,4,.16,8.65-.92,11.24,3.76L653,381a8.43,8.43,0,0,1-5.45,2.17c-12.46.36-24.92.4-37.37,0C607.42,383.05,604.68,382.44,603.38,379.44Z"/><path class="grafana-38" d="M310.91,436.24c2.82,3.84,7,3.25,10.94,3.26h167.9c.54,2.46,1.07,4.92,1.61,7.39l-88.83.11c-2.56-1.46-5.36-.73-8-.73-26.13-.07-52.26,0-78.39-.08-2.69,0-5.48.69-8.07-.69l-1.66-1.83C306.77,440.52,309.07,438.52,310.91,436.24Z"/><path class="grafana-50" d="M603.38,379.44c4.64,2.63,9.72,1.44,14.61,1.51,11.67.16,23.35.05,35,.05q-4.68,12-9.37,24.08c-1.61,3.15-4.6,3.6-7.62,3.67-10.19.23-20.39.34-30.57-.08-2.68-.1-6.35.42-6.63-4A68,68,0,0,1,603.38,379.44Z"/><path class="grafana-13" d="M462.72,697.5q182.31,0,364.62.1c3,0,7.34-2.28,8.74,3,.09,1.76,0,3.46-1.4,4.79-.41-5-4-4.93-7.64-4.92-13,0-26,0-39,0q-82.82,0-165.63,0c-4.52,0-9,0-12.85,2.81-3.09.31-5.73-1.18-8.41-2.28a8.81,8.81,0,0,0-9.45,1.39c-34.4,1.12-68.81.19-103.22.49-8.22.07-16.47-.35-24.64,1C462.41,701.93,462.55,699.72,462.72,697.5Z"/><path class="grafana-28" d="M461.2,679.5q184.44,0,368.88,0c3.59,0,7.64,1.2,10.12-2.89a9.31,9.31,0,0,1-.65,5.95l-378.3,0C461.23,681.5,461.22,680.5,461.2,679.5Z"/><path class="grafana-31" d="M856.91,505.28c2.07,2.66,5,1.67,7.62,1.68,28.57.06,57.14,0,85.7.06,3.27,0,6.46,0,9.37-1.77l6.86,9.46c-2.41,5.61-7.74,4.76-12.15,5-10.73.56-21.49.2-32.24.2-18.75,0-37.5.26-56.24-.17-4.49-.11-10.42,1.18-12-5.7A19.59,19.59,0,0,1,856.91,505.28Z"/><path class="grafana-51" d="M669.51,360c-3.16-2-6.69-1.48-10.13-1.48-13.37,0-26.74,0-40.12,0-2.8,0-6.27,1-7-3.46a50,50,0,0,1,9.06-16.33c19.78,1.95,39.61.43,59.41,1.05,3.58.12,8.18-1.37,9.83,3.94Z"/><path class="grafana-52" d="M828.48,369.18c.82-4.6,4.5-3.11,7.17-3.12,24.68-.1,49.36,0,74-.1,3,0,6.88,1.32,7.58-3.66a44.71,44.71,0,0,1,7.57,13.61c.06,4.66-3.78,4.19-6.38,4.24q-37.08.69-74.18.13c-2.59,0-4.82-1.19-7.13-2.14Z"/><path class="grafana-53" d="M769.42,334.68c38.37-3.7,76.84-.7,115.25-1.72,2.85-.08,6.07,1.16,8.45-1.62,4,1.76,5.25,5.91,7.66,9.05-1.31,3-4,3.74-6.8,3.75-33.42.07-66.84,1.15-100.25-.53Z"/><path class="grafana-19" d="M690.61,343.67c-2.11-2.64-5.07-1.61-7.69-1.63-17.74-.08-35.48,0-53.21-.05-3.21,0-6.69.63-8.34-3.31a31.07,31.07,0,0,1,7.22-10.37c2.93,1.76,6.16,1.71,9.43,1.71q30.35-.06,60.69,0c9,0,17.95-.47,26.78,1.63A152.08,152.08,0,0,0,690.61,343.67Z"/><path class="grafana-54" d="M598.82,404.63a4.14,4.14,0,0,0,3.78,1.84c12.3,0,24.6,0,36.9-.06,1.38,0,2.76-.87,4.14-1.33q-1.46,7.5-2.92,15c-1.08,2.55.19,5.4-1,7.92l.05,2.5c-1.63,1.79-3.83,2.17-6.05,2.25-9.59.31-19.18.29-28.77,0a10.74,10.74,0,0,1-6.17-2.17A62.11,62.11,0,0,1,598.82,404.63Z"/><path class="grafana-39" d="M690.56,505.67c-.26,6-5.2,4.1-8.08,4.17-13.71.33-27.42.11-41.13.09a74.86,74.86,0,0,1-19-19.22c2.13-2.9,5.39-3.55,8.57-3.67,10.84-.39,21.72-1.17,32.51.78C672.45,493.84,679.54,502.74,690.56,505.67Z"/><path class="grafana-55" d="M598.74,430.6l41-.1c1.8,7.25.56,14.91,3,22.06.45,2.81-1.73,3.56-3.57,3.71-11.06.93-22.13,1.34-33.17-.24a5.49,5.49,0,0,1-2.5-1.53A61.46,61.46,0,0,1,598.74,430.6Z"/><path class="grafana-27" d="M853.79,514c3,3.12,6.91,3.49,10.94,3.48q44.82,0,89.63,0a26.26,26.26,0,0,0,12.1-2.8c3.37,2.61,5,6.36,6.58,10.11l-123.95,0C849.55,520.75,851.86,517.47,853.79,514Z"/><path class="grafana-56" d="M945.29,489l-84.12-.13c.36-3.5.27-7.09,1.89-10.37,2.42-2.21,5.45-2.31,8.46-2.34,22-.2,43.91.33,65.87,0,3,0,6.07-.11,8.38,2.37Z"/><path class="grafana-47" d="M441.27,584c1.77-4.29,5.56-3.48,9-3.48q59,0,118.06-.06c2.83,0,6.06,1.17,8.37-1.7,3.53.62,5.8,3.47,8.8,5-1.07,4.23-4.65,4.14-7.78,4.15q-63.73.18-127.47,0c-2.54,0-4.91-.83-7.34-1.37C441.53,586.21,441.37,585.12,441.27,584Z"/><path class="grafana-57" d="M513.31,288H413.44c-3.22,0-6.48.33-9.41-1.5.17-2.47-2.06-3.88-2.67-6l115.75.2Z"/><path class="grafana-56" d="M945.77,478.56l-82.71-.06c.06-3.65-.35-7.36,1.29-10.82,2,2.75,5,1.77,7.62,1.78,21.23.07,42.46,0,63.68,0,9.79,0,9.78,0,9.89-9.55,0-1.5.1-3,.15-4.49A57.78,57.78,0,0,1,945.77,478.56Z"/><path class="grafana-9" d="M603.54,454.5c10.6,0,21.19.05,31.79,0,2.58,0,5.53.92,7.45-1.9l7.56,17.85c.54,2.81-1.64,3.71-3.48,3.79-11.81.52-23.64,2-35.43-.21C607.83,467.89,604.8,461.55,603.54,454.5Z"/><path class="grafana-25" d="M924.06,250.68q19-.09,38-.17c3,0,6.1.32,7.61-3.19,4.46,5.19,4.56,12.28,7.8,18a5.68,5.68,0,0,1-5.26,3.56,200.34,200.34,0,0,1-31.18,0,8.64,8.64,0,0,1-4-1.87Q930.51,258.83,924.06,250.68Z"/><path class="grafana-56" d="M611.43,474c10.17-2.55,20.54-1.08,30.81-1.52,2.8-.12,6,1.11,8.1-2.06,4.92,5.39,7.56,12.5,13.12,17.41-4.94,2.39-10.2.94-15.29,1.11-8.63.29-17.31-.52-25.79,1.78A61.49,61.49,0,0,1,611.43,474Z"/><path class="grafana-53" d="M793.73,343.61A40.89,40.89,0,0,1,806.2,342c28.39.1,56.78,0,85.17.06,3.24,0,6.49.18,9.41-1.62,2.89,1.25,4.27,3.84,5.68,6.4-2.37,2.06-5.24,1.16-7.88,1.17-27.38.07-54.75,0-82.13.07-3.34,0-7.2-1-9.05,3.26Z"/><path class="grafana-40" d="M937,267c10.62,0,21.24,0,31.86,0,3,0,5.92-.14,8.59-1.7a55.67,55.67,0,0,1,5.75,16.41,2.55,2.55,0,0,1-2.38,3.18c-10.8.95-21.68,3-32.25-1.42Z"/><path class="grafana-12" d="M948.55,283.5c9.24,0,18.48,0,27.73,0,2.39,0,5.09.77,6.9-1.73A49.22,49.22,0,0,1,987.7,298c.87,2.53,1,4.8-1.83,6.33-4.92,2.64-22.49.84-26.82-2.82Z"/><path class="grafana-8" d="M860.18,652.79c-2.56-3.07-6.06-1.73-9.13-1.73q-189.1-.1-378.2-.17c-3,0-7.3,2.36-8.77-2.89H467c2.84,1.51,5.89.73,8.83.73q188.42.07,376.83.08c2.94,0,6-.73,8.84.69.51.51,1,1,1.51,1.54Z"/><path class="grafana-19" d="M978.75,348l-9.44-25.47c3.48-3.27,7.85-2.11,11.9-2.22,3.69-.09,7.3-.72,10.94-1.11a102.54,102.54,0,0,1,3,30.27C989.35,352.4,983.75,353.6,978.75,348Z"/><path class="grafana-17" d="M992.15,319.23c-.45,3.56-3.12,3.26-5.64,3.27l-17.2.06L959.05,301.5c8.35,3,17,1,25.5,1.36,3.11.13,2.88-2.72,3.15-4.87A69,69,0,0,1,992.15,319.23Z"/><path class="grafana-21" d="M837.15,378.14c26.51-.05,53-.06,79.52-.19,2.81,0,6.08,1.15,8.17-2l2.93,6.12c-2.16,3.08-5.42,1.91-8.23,1.92-21.35.09-42.71.23-64-.09-4.6-.07-9.15,3.06-13.74.19A15.4,15.4,0,0,1,837.15,378.14Z"/><path class="grafana-47" d="M442.87,586.58c4.05-3.22,8.15-.07,12.23-.07q60.63,0,121.25,0a16.1,16.1,0,0,0,9.11-2.73c2.69.23,4.48,2,6.35,3.65-2.35,3.41-5.92,2-9,2q-62.15.13-124.29.07c-3.95,0-8.09-.62-11.05,3C445.28,591.09,444.18,588.75,442.87,586.58Z"/><path class="grafana-58" d="M978.75,348c5.25,2.79,10.91.93,16.36,1.47,1.38,5.41,1,10.91.66,16.38-.16,2.94-1.41,5.45-4.65,6-3.48.54-5.84-1.21-6.83-4.46C982.34,361,980.58,354.49,978.75,348Z"/><path class="grafana-22" d="M348.75,529.31c1.26-5,5.36-2.69,8.07-2.7q78.63-.23,157.27-.11c3.48,0,7,.37,10.19-1.61l1.53,1.08c-2.4,3.33-5.95,2-9,2q-68.06.13-136.12.07C370,528,359.35,527.5,348.75,529.31Z"/><path class="grafana-19" d="M732.59,331.22c2.91-1.91,5.85-1.75,8.82-.16Z"/><path class="grafana-43" d="M945.29,445.45c-2.15-2.3-1-5.1-1.17-7.7C945.58,440.15,945.48,442.79,945.29,445.45Z"/><path class="grafana-55" d="M639.68,428c.12-2.67-1-5.5,1-7.92C640.82,422.78,641,425.49,639.68,428Z"/><path class="grafana-37" d="M486.34,411c1.66,7.37-1.46,9.2-8.67,9.15-48.34-.29-96.69-.13-145-.2-2.83,0-6.08,1.17-8.31-1.84,2.06-4.32,5.57-7.37,9.11-10.39a97.75,97.75,0,0,0,15.67.91c41.69,0,83.38.06,125.06,0C478.33,408.66,482.75,407.83,486.34,411Z"/><path class="grafana-50" d="M486.51,387q-.09,5.25-.19,10.5c-2.6,2.54-5.95,2.36-9.16,2.36-40.19,0-80.38.19-120.57,0a20.88,20.88,0,0,1-6.68-.72c-2.23-.76-4.37-1.69-2.92-4.77a42.81,42.81,0,0,1,11.87-9.23c2.26,3,5.5,1.78,8.32,1.79Q426.85,387.05,486.51,387Z"/><path class="grafana-59" d="M563.4,718.69C536.07,732.36,507,737.5,476.63,737c-3-.06-4.51-1.45-5.31-4.16-1.56-5.24-3.22-10.45-4.83-15.68,2.71-2.91,6.34-2.52,9.75-2.53,25.33-.09,50.66-.13,76,0C556.31,714.65,560.9,714,563.4,718.69Z"/><path class="grafana-60" d="M563.4,718.69a14.39,14.39,0,0,0-7.16-1.72q-44.88.15-89.75.17a30.14,30.14,0,0,1-2.27-10.64c2.82-2.7,6.42-2.39,9.86-2.4q48.85-.09,97.69,0c4.09,0,8.68-.64,11.18,4.08A68.56,68.56,0,0,1,563.4,718.69Z"/><path class="grafana-61" d="M486.34,411q-72.52,0-145-.07c-2.85,0-6.88,1.79-7.86-3.21a27.29,27.29,0,0,1,7.47-7.56c20.43,1.94,40.9.69,61.35.88,24.46.23,48.92,0,73.38.09,3.68,0,7.58-.53,10.66,2.36C486.31,406,486.33,408.5,486.34,411Z"/><path class="grafana-62" d="M486.3,403.49q-68.79,0-137.57-.06c-2.86,0-6.87,1.73-7.82-3.27a18.83,18.83,0,0,1,6.08-5.77c1.12,5,5.16,3,8,3q65.69.18,131.37.08C486.31,399.5,486.31,401.5,486.3,403.49Z"/><path class="grafana-13" d="M583,708.22c-3.15-2-6.67-1.73-10.16-1.73H464.22c-.12-.88-.23-1.77-.35-2.65.44-3.5,3-3.35,5.61-3.35H586.4c2,0,4.07-.18,5.33,1.89A24.58,24.58,0,0,1,583,708.22Z"/><path class="grafana-26" d="M462.7,657c-.9,2.87,1.28,4.29,2.83,6h-4.22c-.15-2.75-.42-5.51,1.05-8C462.47,655.63,462.59,656.32,462.7,657Z"/><path class="grafana-8" d="M861.53,649.5q-192.61,0-385.22-.06c-3.1,0-6.54,1.26-9.28-1.44q192.62,0,385.23.06C855.36,648.06,858.8,646.8,861.53,649.5Z"/><path class="grafana-38" d="M308,445.5q43.38,0,86.75,0c2.62,0,5.55-1,7.75,1.46q-43.36,0-86.74,0C313.17,447,310.24,448,308,445.5Z"/></svg>