<svg id="Layer_1" data-name="Layer 1" xmlns="http://www.w3.org/2000/svg" viewBox="0 0 1366 768"><defs><style>.jaeger-1{fill:#66cde1;}.jaeger-2{fill:#648b1a;}.jaeger-3{fill:#dec9a2;}.jaeger-4{fill:#67cee2;}.jaeger-5{fill:#221f1f;}.jaeger-6{fill:#6d9227;}.jaeger-7{fill:#262323;}.jaeger-8{fill:#9e9d9d;}.jaeger-9{fill:#fefefe;}</style></defs><title>jaeger</title><path class="jaeger-1" d="M713,269.89a76.15,76.15,0,0,0,9-3.69q19.21-7.81,38.23-16.11c10.82-4.73,21.61-9.53,32.33-14.51q12.06-5.61,24-11.43c4.38-2.14,8.82-4.16,13.06-6.56,1.27-.72,2.12-.22,3.12.65,11.43,10,19.82,22.28,26.39,35.88a176.66,176.66,0,0,1,11.59,32.09c2.69,10.28,5.19,20.6,7.57,31,3.44,15,6.78,30,9.7,45.06,2,10.54,4.27,21,6.21,31.59,2.28,12.39,4.36,24.81,6.49,37.23,1.62,9.42,3.25,18.85,4.76,28.3,1.36,8.54,2.55,17.1,3.83,25.65.2,1.34.5,2.67.71,4,.15.91,0,1.41-1.19,1.6a37.17,37.17,0,0,0-14.12,4.79c-6.79,4.25-10.32,10.3-10.48,18.32a4.34,4.34,0,0,0,0,2.69c0,5.58,2.54,10.09,5.9,14.26,3.8,4.74,8.36,8.81,12.13,13.6a49.88,49.88,0,0,1,10.35,22.53c2.36,13.62,5.38,27.09,8.46,40.55,1,4.32,2.07,8.63,3.08,12.95a9.05,9.05,0,0,1,.1,1.48c-.55.52-1.33,0-1.89.41l-1.49.07c-.59.31-1.3-.1-1.88.3l-5.23.47c-.6.27-1.3-.12-1.88.28l-1.86.09c-.6.27-1.3-.11-1.88.28l-1.86.1c-.61.26-1.3-.11-1.89.27l-1.84.08c-.72.33-1.54-.13-2.25.3l-1.87.09c-.61.26-1.31-.09-1.91.27l-2.2.1c-.73.31-1.55-.13-2.26.29l-2.24.1c-.61.24-1.3-.1-1.9.26l-2.2.09c-.85.34-1.79-.15-2.62.3l-2.25.09c-.73.28-1.55-.13-2.26.27l-2.61.11c-.73.27-1.54-.13-2.25.27l-2.6.1c-.85.3-1.78-.16-2.61.28l-2.63.1c-.86.28-1.78-.16-2.62.27l-2.61.08c-1,.33-2-.15-3,.3l-2.62.08c-1,.33-2-.15-3,.28l-3,.09c-1,.33-2-.14-3,.28l-3.34.12c-1,.28-2-.16-3,.26l-3.33.09c-1.11.34-2.29-.15-3.4.28l-3.71.11c-1.12.29-2.29-.15-3.4.26l-3.7.09c-1.35.36-2.77-.16-4.12.3l-4.12.1c-1.35.31-2.75-.19-4.1.28l-4.11.07c-1.49.36-3-.16-4.53.29l-4.82.09c-1.73.36-3.51-.19-5.23.3l-5.25.09c-1.86.31-3.75-.18-5.6.28l-6,.1c-2.11.31-4.26-.19-6.37.26l-7.08.09c-2.62.35-5.26-.17-7.87.29l-9,.08c-2.95.27-5.92,0-8.88.12a4.39,4.39,0,0,0-2,.17l-14.56.11a5.27,5.27,0,0,1-1.48.09H654.71a4.67,4.67,0,0,1-1.49-.1l-14.55-.1c-2.82-.38-5.66-.07-8.49-.18a9.54,9.54,0,0,1-2.39-.11l-8.95-.08c-2.62-.46-5.26.06-7.88-.29l-7.08-.09c-2.11-.45-4.26.05-6.37-.26l-6-.1c-1.85-.46-3.74,0-5.6-.28l-5.58-.11c-1.61-.44-3.28.06-4.9-.28l-4.82-.09c-1.49-.45-3,.07-4.52-.28l-4.12-.08c-1.47-.49-3,.07-4.49-.31l-3.74-.07c-1.34-.47-2.76.06-4.11-.3l-3.72-.08c-1.1-.42-2.27,0-3.38-.27l-3.72-.1c-1.1-.45-2.28.05-3.39-.29l-3.34-.09c-1.1-.45-2.29.06-3.39-.29l-3-.08c-1-.43-2,0-3-.28l-3-.09c-1-.45-2,0-3-.29l-3-.1c-.86-.41-1.8,0-2.66-.28l-2.62-.07c-.83-.44-1.76,0-2.6-.28l-2.64-.1c-.83-.44-1.75,0-2.6-.27l-2.61-.11c-.84-.43-1.78,0-2.64-.3l-2.22-.08c-.71-.4-1.52,0-2.25-.26l-2.59-.12c-.73-.39-1.55,0-2.29-.28l-2.2-.09c-.72-.4-1.55,0-2.28-.29l-1.88-.07c-.66-.51-1.77.28-2.25-.77q-4.5-10.6-9-21.23-4.89-11.67-9.7-23.36-4.54-11.1-9-22.24-4.35-10.89-8.57-21.82-3.37-8.68-6.63-17.41-4-10.55-7.82-21.12c-1.45-4-2.67-8.07-4.15-12.06-2.41-6.52-4.45-13.16-6.53-19.79a356.14,356.14,0,0,1-9.71-35.9q-2.6-12.87-4.76-25.82a115.25,115.25,0,0,1-1.66-13c-.29-.59.11-1.29-.3-1.87l-.07-1.49c-.33-.72.14-1.54-.3-2.25l-.08-1.87c-.3-.74.11-1.56-.28-2.28l-.11-3c-.29-1.1.16-2.27-.27-3.36l-.09-7.47a3.51,3.51,0,0,1,0-1.82c0-2.36.07-4.72.1-7.09.43-1,0-2,.27-3l.1-2.6c.39-.59,0-1.29.28-1.89a107.45,107.45,0,0,1,6.06-28c1.37-3.74,2.4-7.64,4.81-10.93.72.39,1.53,0,2.27.26l2.62.1c.83.43,1.76,0,2.62.28l3,.1c1,.43,2,0,3,.27l3.72.11c1.23.43,2.54-.05,3.78.29l4.11.07c1.72.49,3.51-.07,5.23.3l6,.08c2.73.47,5.49-.06,8.23.28l18.67.1a18.72,18.72,0,0,0,5.69,0c4.38-.43,8,1.86,11.82,3.37,15.41,6.08,30.85,12.07,47,15.81,5.11,1.18,10.22,2.4,15.5,2.51.71.42,1.52,0,2.24.27a58.82,58.82,0,0,0,8.29,0c.61-.28,1.31.09,1.91-.28,9.4-.63,19.14-6.62,20.52-16.8a11.91,11.91,0,0,0,0-4.57,15.94,15.94,0,0,0-.64-2.77c-.49-1.19,0-1.44,1-1.37.85-.34,1.8.13,2.64-.3l2.22-.08c.73-.31,1.56.11,2.28-.28l2.22-.11c.6-.26,1.3.11,1.88-.27,3.64,0,7.06-1.15,10.53-2a1.91,1.91,0,0,1,2.31.73c5.69,6.45,12.76,10.23,21.47,10.6a19.58,19.58,0,0,0,5.72,0,45.12,45.12,0,0,0,22.44-7.77,119.8,119.8,0,0,0,13.14-10.43c5.43-4.82,10.6-9.89,15.74-15,2.15-2.14,4.17-4.41,6.22-6.65a15.46,15.46,0,0,1,6.63-4.49C705.8,273,709.39,271.35,713,269.89Z"/><path class="jaeger-2" d="M509.59,95.59c2.34-1.62,4.67-3.25,7-4.87,9-6.22,18.41-11.82,28.89-15.35,8.52-2.88,17.27-3,26-2.32C596.71,74.91,621,81.29,645,88.36a663.55,663.55,0,0,1,62.88,21.79c3.42,1.39,5.2,3.35,6,6.91a5.37,5.37,0,0,1-1.18,5.28c-6.3,7.85-9.29,17.07-10.55,26.92a39.28,39.28,0,0,0-.31,8.39c.11,1.2-.63,1.48-1.44,1.83-15.68,6.8-31.54,13.15-47.67,18.82q-18.64,6.57-37.68,12a6.85,6.85,0,0,0-.84.36c-5.13,1.32-10.25,2.67-15.39,3.94C585,198,571.06,200.86,557,203c-5.44.83-10.88,1.56-16.33,2.27-.61.29-1.32-.11-1.91.28l-1.84.12c-.6.24-1.29-.13-1.87.27l-1.86.08c-.73.3-1.55-.14-2.26.29l-2.24.11c-.76.23-1.58-.11-2.33.24l-2.9.13c-1,.26-2.06-.15-3,.25l-4.05.12c-2.12.32-4.26-.2-6.37.27l-9.59,0c-2-.41-4.06,0-6.07-.24l-3.72-.12c-1-.43-2,0-3-.28l-2.52-.11c-.63-.32-1.32,0-2-.24a123,123,0,0,1-14.48-1.7,160.14,160.14,0,0,1-21.29-4.9c-1.15-.37-2.82,0-3.35-1.24-.46-1.06-.14-2.45-.17-3.69,0-.43,0-.86-.07-1.3-.35-2.62.18-5.27-.29-7.89v-16c.45-1.09,0-2.27.28-3.37.24-3.73,2.71-6.37,4.68-9.18A154.07,154.07,0,0,1,458.86,144c3.37-3.85,6.84-7.59,10.24-11.4,4.7-5.24,9.67-10.2,14.78-15,4.94-4.65,9.93-9.25,15.22-13.53Z"/><path class="jaeger-3" d="M622.15,198.42a663.81,663.81,0,0,0,66.15-23.09c4.72-1.93,9.42-3.9,14.08-6,1.24-.55,1.55-.16,2,.92,2.16,5.51,5.59,9.81,11.57,11.49a19.06,19.06,0,0,0,2.92.56c.9.1,1,.49.7,1.26q-2.58,7.29-5.08,14.61a3.07,3.07,0,0,1-1.93,1.86c-10.77,4.85-21.67,9.4-32.63,13.79-3.69,1.47-7.49,2.65-11,4.43-8.66,3-17.28,6.17-26,9.07-15.12,5-30.41,9.51-45.91,13.2-12.22,2.9-24.53,5.43-37,7.31-6.66,1-13.31,2-20,2.66l-3.87.39c-.59.3-1.3-.12-1.87.3l-2.25.07c-.71.32-1.53-.13-2.24.3l-2.62.07c-.85.34-1.79-.14-2.63.3l-3.35.06c-1.35.39-2.77-.16-4.12.32l-6.73.06a92.48,92.48,0,0,1-10.79,0l-6.35-.07c-1.22-.45-2.52.07-3.75-.31l-3-.06c-.83-.45-1.78.06-2.62-.31l-1.88-.06c-.7-.44-1.52,0-2.23-.31-3.59-.12-7.11-.8-10.67-1.18-1.21-.12-1.33-1.09-1.6-1.79a208.29,208.29,0,0,0-8.85-19.85A160.16,160.16,0,0,0,449,211.68a12,12,0,0,1-.64-1.21c3.55.82,6.87,1.67,10.22,2.35a129.91,129.91,0,0,0,19.23,2.89c.57.42,1.29,0,1.88.31l1.85.07c.58.4,1.29,0,1.88.3l2.25.06c.83.46,1.77,0,2.61.3l3.36.08c1.35.47,2.76-.06,4.12.3h19.12c1.48-.39,3,.17,4.5-.31l3.73-.08c.85-.33,1.79.15,2.63-.29l2.6-.06c.84-.38,1.78.14,2.61-.32l2.26-.07c.59-.31,1.29.11,1.86-.3l1.87-.07c.59-.32,1.3.11,1.87-.31a120.32,120.32,0,0,0,14.19-1.6q13.39-2,26.66-4.73,18.47-3.84,36.61-8.95Z"/><path class="jaeger-2" d="M676.38,225.73c9.52-3.42,18.82-7.4,28.15-11.3l2-.84-21.13,24.55c-6.62,7.14-13.13,14.39-19.89,21.4-6.3,6.53-12.59,13.08-19.6,18.88-2.72,2.25-5.56,4.29-9.13,5.08a1.59,1.59,0,0,1-1.62-.34c-6.76-5.34-14.64-5.93-21.74-.84a16,16,0,0,0-7,13.62c0,1.29-.3,1.82-1.64,2.08a79.05,79.05,0,0,1-8.51,1.55c-.61.23-1.3-.12-1.89.25l-2.22.12c-.74.25-1.55-.14-2.27.26l-2.21.08c-.87.32-1.82-.12-2.68.28l-2.56.11c-.88.28-1.84-.12-2.71.26-3.13.59-5.86-1.13-8.82-1.48a9,9,0,0,0-3.86,0,8.11,8.11,0,0,0-4.26.9,10.3,10.3,0,0,1-5,1c-.72-.41-1.55,0-2.28-.29-7.16-.78-14-2.73-20.9-4.8-11.91-3.58-23.37-8.31-34.91-12.86-8.28-3.26-16.61-6.45-25.14-9-4.67-1.41-9.3-2.92-14.15-4.33,3.75-1.44,7.46-3,11.25-4.29,1.44-.5,1.73-1.12,1.16-2.43a23.38,23.38,0,0,1-.76-2.37c.1-.84.7-.47,1.15-.47a18.8,18.8,0,0,0,5.18.5c.6.36,1.31,0,1.93.27l2.15.12c.75.35,1.58,0,2.34.26l2.55.1c1,.4,2.05,0,3.05.25l4.4.13c3.75.37,7.52.14,11.28.14a66.52,66.52,0,0,0,9-.16l4.48-.09c1.24-.32,2.54.16,3.77-.28l3-.1c.86-.29,1.79.15,2.64-.27l2.21-.09c.76-.29,1.59.09,2.34-.27l2.15-.12c.63-.24,1.33.1,1.93-.26l1.81-.11c.61-.27,1.31.11,1.9-.27l1.47-.09c.6-.29,1.31.1,1.9-.29,5.26-.2,10.44-1.2,15.63-2,6-.87,11.83-2.15,17.74-3.24,11-2,21.75-4.65,32.51-7.49,13.19-3.49,26.24-7.48,39.17-11.85Q663.21,230.77,676.38,225.73Z"/><path class="jaeger-3" d="M786,102.76a39,39,0,0,0-16.25,5.62C760.18,114,753,122,746.4,130.68q-.28.36-.6.69s-.11,0-.27.1c-.6-2-1.1-4-1.83-5.94-1.46-3.83-3.48-7.31-7-9.71-5.36-3.69-10.83-3.41-16.35-.39-.53.29-1,.62-1.68,1,1.24-14.89,3.86-29.58,1.78-44.6.47-.35,1,.22,1.5.44,3.58,1.54,7,3.35,8.87,7,.63,1.21,1.09.27,1.5-.15a67.92,67.92,0,0,0,7.47-9.52,77.52,77.52,0,0,0,10.84-23.43,57.44,57.44,0,0,0,2-17c0-.59-.35-1.41.25-1.73s1.31.25,1.85.62c2.35,1.62,3.05,4.13,3.5,6.75.05.31.07.62.12.92,0,0,.09,0,.18.09.7-.41.71-1.23,1-1.87,4.3-8.92,8.75-17.76,14.88-25.62a26.84,26.84,0,0,1,7.88-7.31c4.48-2.5,8.07-1,9.37,3.95a32.33,32.33,0,0,1,.48,11.51,147.76,147.76,0,0,1-7.47,32.79c-2.4,7.12-5.07,14.15-9.46,21,6.89-2.42,12.9-5.11,15.67-12.51a25.49,25.49,0,0,1-.23,12.15c2-1.69,3.76-3,5.36-4.49,7.56-7,15.32-13.89,21.37-22.37a20.62,20.62,0,0,0,3.73-8.22c2.12,5.75,3.31,11.08,2.89,16.83,6.27-4.56,24-20.28,26.56-28.85a83.14,83.14,0,0,1-1.28,15.26c-.08.48-.11,1-.16,1.47-.62,2.26-1.21,4.53-1.86,6.79a68.17,68.17,0,0,1-13.37,25.1A71.19,71.19,0,0,1,811.26,89c-1.65.84-3.4,1.51-5.1,2.26a1.18,1.18,0,0,1-.43.43c.24-.09.75.27,1.18-.09,4.93-.4,9.79-1.27,14.66-2.09a2.84,2.84,0,0,1,1.68,0c-2.91,3.69-5.77,7.33-8.64,11-1.34,1.7-2.74,3.36-4.06,5.08-.9,1.18-1.6,1.59-3.21.72a31.85,31.85,0,0,0-11.79-3.55A34.3,34.3,0,0,0,786,102.76Z"/><path class="jaeger-4" d="M792,205.58c-1.32-.57-2.71-.26-4.05-.29-9.9-.19-19.8,0-29.67.77-10.79.84-21.51,2.22-32,5.23-1.79.52-3.18-.75-4.73-1.21-.69-.2-.05-1.15.12-1.67,1.71-5.45,3.37-10.93,5.28-16.32a272.19,272.19,0,0,1,15.65-36.31c5.87-11.1,12.51-21.67,21.49-30.6a54.54,54.54,0,0,1,15.54-10.8,43.77,43.77,0,0,1,7.81-2c.84-.34,1.78.15,2.61-.3h2.21c.83.44,1.76,0,2.61.28,10.53,1.52,16.36,8.17,19.41,17.82a70.85,70.85,0,0,1,2,9.58c.3.6-.1,1.31.29,1.9l.09,2.6c.19,3.59.17,7.19,0,10.78l-.09,3c-.45.83,0,1.77-.3,2.61-1.83,15.37-4.7,30.49-10.53,44.92-.48.72-1.17.57-1.85.45L800.6,206c-1.11-.41-2.28,0-3.4-.26Z"/><path class="jaeger-3" d="M978.61,566.45c-.38,8.8-2.61,17-7.87,24.2-3.38,4.62-7.81,8.13-12.25,11.61a43.18,43.18,0,0,1-9.47,5.87c-7.54,3.23-12.11,2.16-16.57-5-3.84-6.12-5.43-13.07-7-20-1.64-7.34-2.06-14.89-4.09-22.16a64.31,64.31,0,0,0-12.08-23.61c-3.84-4.72-8.41-8.76-12.14-13.57-4.72-6.09-4.32-14,1.17-19,2.79-2.51,6.37-3.45,10-4.14,1-.18,1.95-.3,2.93-.45.59-.32,1.3.11,1.86-.31l3.38-.07a14.16,14.16,0,0,1,4.06,0l3.37.07c.57.41,1.28,0,1.87.31l1.51.06c1,.46,2-.05,3,.31,8.2,1.1,15.3,4.63,21.79,9.65,8.28,6.39,14.31,14.57,18.95,23.79a63.63,63.63,0,0,1,6.79,21.68c.09.73.28,1.45.42,2.18.31.59-.11,1.29.31,1.86,0,1,0,2,.05,3A11.42,11.42,0,0,1,978.61,566.45Z"/><path class="jaeger-5" d="M610.49,713.08c.82-3.8,3.84-5.15,7-6.29,5.25-1.86,10.75-2.42,16.23-3.15.72-.29,1.54.14,2.26-.28l2.22-.09c1-.32,2,.15,3-.28l3.33-.09c1.65-.33,3.34.14,5-.26l8.11-.13c4.1-.21,8.2,0,12.3-.1a5,5,0,0,0,2-.15l7.74-.13c1.15-.26,2.34.13,3.48-.24l2.87-.13c.73-.27,1.55.15,2.26-.27,5.2-.33,10.28-1,14.79-4,2.82-1.9,3.33-4.84,3.53-7.7.16-2.3-2.22-2.91-4-3.71a32.69,32.69,0,0,0-8.68-2.22c-6.29-1-12.67-1.6-18.79-3.41-2.41-.71-4.9-1.71-6.34-4.17a9.74,9.74,0,0,1-.44-1.36,9,9,0,0,1,0-3c.42-2.86,2.26-4.61,4.63-5.94,5-2.81,10.53-3.85,16.07-4.87,2.84-.53,5.72-.85,8.58-1.26.6-.26,1.3.12,1.88-.28l1.86-.09c.73-.28,1.55.13,2.27-.27l2.59-.11c1-.28,2.06.15,3.05-.26l4-.12c2.14-.29,4.3.17,6.42-.25l25.33,0c1.36.46,2.77,0,4.13.27l2.58.11c.6.39,1.3,0,1.91.28,2.92.62,5.92.9,8.65,2.32,3.53,1.85,4.47,4.35,3,8.08-1.66,4.13-5,6.6-8.64,8.74-2.3,1.35-4.74,2.52-6.45,4.71a2,2,0,0,0-.63,1.65,2.26,2.26,0,0,0,0,1.92,5.26,5.26,0,0,0,2.72,4.16q2,1.35,4,2.54a8.65,8.65,0,0,1,4.54,6,6.69,6.69,0,0,1,0,2.6c-.5,3.89-3.42,5.63-6.52,7-5.23,2.41-10.83,3.71-16.44,4.91-6.07,1.3-12.19,2.27-18.36,3-5.2.63-10.4,1.3-15.61,2-.61.27-1.31-.11-1.9.28l-1.84.11c-.61.24-1.3-.13-1.88.27l-1.86.1c-.61.25-1.31-.12-1.9.27l-1.84.09c-.72.3-1.54-.14-2.25.29l-1.86.08c-.73.3-1.55-.14-2.26.29l-1.85.09c-.74.29-1.56-.13-2.28.28l-2.21.11c-.65.21-1.35-.07-2,.24l-2.12.11c-.77.29-1.61-.09-2.36.27l-2.13.11c-.75.28-1.58-.11-2.31.27l-2.18.11c-.75.27-1.57-.11-2.31.26l-2.55.11c-1,.31-2-.16-3,.29l-3.35.1c-1.49.29-3-.18-4.5.27H636.39c-1.22-.46-2.52,0-3.76-.29l-2.22-.08c-.71-.44-1.54,0-2.27-.3-4.93-.48-9.82-1.2-14.31-3.48a5.74,5.74,0,0,1-3.37-4.08A4,4,0,0,1,610.49,713.08Z"/><path class="jaeger-5" d="M475.16,720.92c-7.6.78-15.19,1.59-22.05,5.37a7.09,7.09,0,0,0-2.8,2.34,2.81,2.81,0,0,0,1.06,4.33,11.7,11.7,0,0,0,5.49,1.38c3.22.17,6.45.06,9.68.06,1.1.44,2.29,0,3.4.28,4.24.6,8.55.89,12.49,2.79a6.72,6.72,0,0,1,3.69,3.66,4.28,4.28,0,0,1,0,1.85c-1.08,3.54-3.69,5.33-7.11,6.23a84.78,84.78,0,0,1-15.92,2.38l-6.63.47c-.8.21-1.65-.07-2.43.25l-10.65.12a72.54,72.54,0,0,1-8.21,0l-11.77-.11c-.91-.35-1.89,0-2.81-.26l-5.41-.12c-.67-.28-1.39-.06-2.07-.24l-3.92-.13c-.66-.3-1.4,0-2.07-.27-5.81-.54-11.68-.77-17.43-1.69-6-1-12.08-1.85-17.51-5a18.36,18.36,0,0,1-4.62-3.69c-1.61-1.83-1.1-4.89,1.27-6.77,4.36-3.46,9.64-4.61,14.92-5.66,15.89-3.15,31.94-5.41,47.89-8.27a179,179,0,0,0,30.24-8c9.54-3.51,18.94-7.42,28.29-11.41,6.1-2.61,12.13-5.42,18.54-7.25a36.72,36.72,0,0,1,6.49-1.12c.77-.22,1.6.1,2.36-.23l4-.11c4.36-.19,8.72-.18,13.08,0l4.82.09c1.11.43,2.29,0,3.4.27l2.61.1c.84.45,1.78,0,2.63.3l1.83.08c.6.39,1.3,0,1.91.28,5.8.91,11.67,1.48,17.27,3.45a16.76,16.76,0,0,1,4.3,2c2.44,1.71,2.41,3.81-.16,5.32a33.19,33.19,0,0,1-8,3.11,238.59,238.59,0,0,1-27.78,5.65c-8,1.2-15.91,2.44-23.92,3.36-5.81.66-11.61,1.52-17.42,2.29-.6.29-1.31-.12-1.89.29-1.52-.17-3,.33-4.47.45-.59.3-1.3-.11-1.88.3-1.53-.18-3,.32-4.47.45-.6.3-1.31-.11-1.89.3-1.52-.18-3,.32-4.47.45C476.45,720.92,475.74,720.51,475.16,720.92Z"/><path class="jaeger-4" d="M406.72,189.8c6.66.55,12.32,3.41,17.4,7.58,8.24,6.76,14.23,15.34,19.63,24.37a223.39,223.39,0,0,1,17,36.11c.43,1.14.05,1.53-.92,1.92-9.53,3.83-18.91,8-28,12.79a187.71,187.71,0,0,0-22.34,13.2c-1.45,1-2.05.51-2.82-.59-4.15-5.93-8-12-11.66-18.28a149.22,149.22,0,0,1-11.69-25.24,66.41,66.41,0,0,1-3.9-17.4c-.28-.85.16-1.77-.27-2.61v-4.06c.45-.83,0-1.77.3-2.61a27.27,27.27,0,0,1,25.15-25.15A5.06,5.06,0,0,1,406.72,189.8Z"/><path class="jaeger-3" d="M402.27,609.84l-.06-3a45,45,0,0,1,0-7.43l.07-3.37c.44-.7,0-1.52.3-2.24a109.6,109.6,0,0,1,4.79-24.44,82.11,82.11,0,0,1,11-23.83,71.22,71.22,0,0,1,8.94-10.67c1.48-1.42,1.81-1.37,2.5.47,4.8,13,10,25.93,15.18,38.79,6,14.89,12.16,29.74,18.6,44.45a8.55,8.55,0,0,0,.64,1.55c1.6,2.31,1,4.19-.68,6.28-6.72,8.3-14.94,14.09-25.63,15.93-.43.08-.87.08-1.31.12-.71.34-1.53-.13-2.23.31h-5.19c-.71-.43-1.54,0-2.26-.31A23.4,23.4,0,0,1,407.9,630a41.74,41.74,0,0,1-5.33-18.33C402.27,611.11,402.68,610.41,402.27,609.84Z"/><path class="jaeger-2" d="M872.41,158.88h6.21c1,.42,2.06,0,3,.28,2.34.47,4.76.62,7,1.66,2.53,1.2,2.92,2.51,1.5,5a24.36,24.36,0,0,1-4.57,5.57c-7.39,7-15.89,12.45-24.5,17.78s-17.81,10.32-26.91,15.16c-7.37,3.92-14.9,7.54-22.35,11.31-.41.21-.82.65-1.48.26,5-5.63,6.87-12.7,9-19.67,2-6.46,3.34-13.06,4.7-19.66.58-2.84.84-5.76,1.2-8.65a2.21,2.21,0,0,1,1.89-2.26c9.69-2,19.43-3.83,29.23-5.23,1.35-.19,2.7-.35,4-.52.6-.28,1.3.12,1.88-.29l1.87-.11c.62-.22,1.32.11,1.92-.25l2.56-.1C869.86,158.84,871.17,159.29,872.41,158.88Z"/><path d="M570.92,309.87c2.49,1.14,4.48,2.61,4.91,5.66a6.87,6.87,0,0,1-3.09,7.12c-3.48,2.45-7.5,2.79-11.55,3.07a5.77,5.77,0,0,1-2.23,0l-3.7-.11c-.6-.38-1.29,0-1.91-.26a114.74,114.74,0,0,1-21.27-4.29c-6-1.71-11.86-3.66-17.73-5.74-9-3.2-17.85-7-26.85-10.33-6.25-2.32-12.47-4.73-18.8-6.82a146.45,146.45,0,0,0-19.08-5.05,24.58,24.58,0,0,0-4.74-.46,6.12,6.12,0,0,1-6.47-4.8c-.72-2.95-.28-6.1,2.85-8.17a10.27,10.27,0,0,1,2.52-.9,26.19,26.19,0,0,1,4.85,0c12.75,1.87,24.86,6,36.93,10.36,11.41,4.09,22.51,9,34,13,9.89,3.46,19.84,6.71,30.19,8.54a28.25,28.25,0,0,0,6.21.73c1,.44,2-.05,3,.29l1.88,0c.9-.26,1.85.11,2.74-.25,1.27-.38,2.27-1.38,3.62-1.59A12,12,0,0,1,570.92,309.87Z"/><path d="M692.49,245.69c4.91-5.11,9.4-10.6,14-16,1.83-2.11,3.61-4.28,5.42-6.41,2.85-3.37,7.22-4,10.22-1.4,3.2,2.74,3.42,6.9.48,10.43q-10.26,12.35-20.93,24.35c-.25.28-.46.58-.69.87-2.92,3.12-5.88,6.19-8.74,9.36-6.13,6.78-12.46,13.38-19.1,19.67-5.71,5.4-11.43,10.78-18,15.2a41.51,41.51,0,0,1-17,6.36,43.42,43.42,0,0,1-6.35,0,19.14,19.14,0,0,1-12.5-6c-3.29-3.49-3.54-8.18.3-11.58,1.92-1.7,6.37-1.49,8.73.47a1.29,1.29,0,0,1,.27.25c2.68,4.39,6.63,3.46,10.55,2.5,5.5-1.35,9.93-4.6,14.21-8.15,7.93-6.57,14.82-14.21,22.15-21.39,3.73-3.65,7-7.74,10.52-11.6C688.22,250.28,690.36,248,692.49,245.69Z"/><path class="jaeger-2" d="M714.52,258.79c-.63-1,.46-1.23.82-1.66,5.09-6,10.25-12,15.36-18.06,4.62-5.45,5.73-11.56,3.23-18.27-.36-1-.22-1.2.8-1.43A170.09,170.09,0,0,1,758,216.08c9.68-.81,19.39-.83,29.09-.85l7,.12c1.36.42,2.79,0,4.16.25l3.34.11c1,.44,2,0,3,.28l2.18.11c.73.38,1.55,0,2.3.26.45.15.66.26,0,.56-3.93,1.9-7.82,3.87-11.76,5.74-3.32,1.58-6.68,3.09-10,4.6q-8.79,4-17.6,7.9-8.06,3.59-16.14,7.1-9.43,4.1-18.9,8.12C728,253.22,721.26,256,714.52,258.79Z"/><path class="jaeger-2" d="M422.85,302.93l-3.28-.13c-.87-.37-1.82,0-2.71-.25l-2.56-.12c-.73-.37-1.55,0-2.29-.25l-2.53-.13c-.63-.32-1.33,0-2-.24l-2.19-.12c-.61-.36-1.31,0-1.93-.27l-1.81-.11c-.61-.37-1.32,0-1.93-.28a146.37,146.37,0,0,1-17.73-2.39c-7.78-1.49-15.62-2.94-22.74-6.71a17,17,0,0,1-2.45-1.57c-2.14-1.68-2.43-3.18-1.22-5.69,2.18-4.53,6.06-7.42,10-10.2a125.93,125.93,0,0,1,15.9-8.94c1-.51,1.42-.33,1.93.65A181.28,181.28,0,0,0,398,289.89c2.33,3.18,4.76,6.29,7.1,9.48.51.7.77.6,1.44.14,6-4.13,11.94-8.36,18.28-12,.1-.06.17-.18.28-.25,2.09-1.26,2.16-1.24,2.6,1.1,1.69,9,9.41,15.16,17.71,14.82.31,0,.62,0,.93.06-.33.93-1.12.41-1.68.46-1,.1-2.07,0-3.1,0a21.87,21.87,0,0,1-3-.09l-4.81-.11c-1.37-.43-2.8,0-4.17-.28l-3.65-.11C424.93,302.8,423.86,303.18,422.85,302.93Z"/><path class="jaeger-5" d="M1012.66,599c-2,4.19-6,5.81-9.92,7.41-9.35,3.86-19.21,5.94-29.09,8-7.57,1.53-15.19,2.73-22.81,3.94-.33-.11-1,.12-.73-.63a63.61,63.61,0,0,0,11.93-7c2.2-1.67,4.47-3.26,6.51-5.12,4.21-3.82,8.25-7.82,11.24-12.74a41.14,41.14,0,0,0,4-8.1c.3-.87.63-1,1.46-.75,7.31,1.81,14.59,3.71,21.31,7.25,2.52,1.33,4.93,2.81,6.12,5.61A5.53,5.53,0,0,1,1012.66,599Z"/><path class="jaeger-5" d="M393,591.15,392.9,593c-.44,1,0,2-.28,3a79.82,79.82,0,0,0,0,10.49c.27.86-.17,1.79.27,2.63a10.11,10.11,0,0,0,.07,3c.42,1.3-.56,1.16-1,1-5.91-1.56-11.87-3-17.67-4.88a41.23,41.23,0,0,1-10.92-5.13c-4.36-3.08-4.43-7.48,0-10.46,6.1-4.09,13.11-5.81,20-7.76,3-.85,6.08-1.52,9.13-2.22.81-.18,1.68-.59,1.27,1.14a16.41,16.41,0,0,0-.55,5.33C392.93,589.79,393.25,590.51,393,591.15Z"/><path class="jaeger-5" d="M634.48,724.94c3.39.71,6.92.95,9.88,3,2.06,1.45,2.07,3.17,0,4.6-3,2-6.46,2.43-9.88,3-.73.27-1.54-.15-2.25.27l-6.58,0c-.76-.35-1.6,0-2.37-.27a22.34,22.34,0,0,1-9.7-2.77c-2.22-1.25-2.19-3.79,0-5.1,3-1.79,6.38-2.15,9.7-2.75.74-.29,1.56.13,2.29-.28h7C633.16,725,633.86,724.72,634.48,724.94Z"/><path class="jaeger-5" d="M412.53,764.64a18.62,18.62,0,0,0-4.83-.11c-2.9.18-5.67-.54-8.45-1.06a3.19,3.19,0,0,1-2.84-2.43c-.22-1.58,1.08-2.42,2.28-3,5-2.3,10.36-2.95,15.76-3.47l1.29-.11a50.08,50.08,0,0,1,6.71,0,28,28,0,0,1,7.41,1.45c1,.4,2.24.71,2.3,2.11s-1,1.93-2,2.47c-3.59,2-7.61,2.67-11.59,3.37-1.33.24-2.67.33-4,.48C413.92,764.61,413.19,764.35,412.53,764.64Z"/><path class="jaeger-5" d="M464.33,755.61a16.58,16.58,0,0,1,4.3.86c2.14.76,2.49,2.32.84,3.93a15.59,15.59,0,0,1-5,3.13,55.54,55.54,0,0,1-16.61,4.21c-.67.24-1.41,0-2.07.26-2.14-.32-4.35.17-6.46-.7-1-.43-2.14-.53-2.29-1.93a3.25,3.25,0,0,1,1.57-3.14,37.49,37.49,0,0,1,12.1-5,60.72,60.72,0,0,1,10.63-1.64A10.55,10.55,0,0,1,464.33,755.61Z"/><path class="jaeger-5" d="M670,734.08a24.4,24.4,0,0,1-5.48-1.21,5.66,5.66,0,0,1-3.21-3,3.19,3.19,0,0,1,0-1.86c1.17-2.6,3.73-2.92,6-3.45a20.86,20.86,0,0,1,13.85,1.25,6,6,0,0,1,1.66,1.15,2.57,2.57,0,0,1,0,4c-2.22,2.23-5.17,2.59-8.06,3.09A24.46,24.46,0,0,1,670,734.08Z"/><path class="jaeger-5" d="M704.88,721.32h5.83c.61.37,1.32,0,1.94.28a26.27,26.27,0,0,1,5.42,1.57c.94.47,1.95,1,2,2.18s-.93,1.82-2,2.34a22.5,22.5,0,0,1-8.84,1.9,8.29,8.29,0,0,1-3,0,25.29,25.29,0,0,1-7.7-1.22c-1.55-.58-3.25-1.36-3.37-2.86-.13-1.68,1.66-2.47,3.22-2.89s3-.69,4.49-1C703.56,721.33,704.27,721.68,704.88,721.32Z"/><path class="jaeger-5" d="M389.54,751.52l3.4.82a2.07,2.07,0,0,1,1.71,1.53,2.24,2.24,0,0,1-1.21,2.14,19.33,19.33,0,0,1-6.26,2.6,38.07,38.07,0,0,1-11.69,1.08,6.37,6.37,0,0,1-3.39-1c-1.58-1.06-1.77-2.63-.2-3.7,2.63-1.79,5.69-2.39,8.73-3,1.22-.24,2.46-.34,3.69-.5A25.3,25.3,0,0,1,389.54,751.52Z"/><path class="jaeger-5" d="M732.11,725.12a9,9,0,0,1-5.09-2c-1.76-1.59-1.71-3.68.38-4.79a15.26,15.26,0,0,1,14.85,0c2.31,1.18,2.26,3.59.08,5a15,15,0,0,1-4.63,1.71A33.66,33.66,0,0,1,732.11,725.12Z"/><path class="jaeger-5" d="M761.26,711.87a18.19,18.19,0,0,1,4.31,1.54c2.5,1.52,2.6,3.54.12,5.08a11,11,0,0,1-3.94,1.41,18.6,18.6,0,0,1-10.23-.88c-1.36-.54-2.58-1.51-2.52-3a3.88,3.88,0,0,1,2.82-3.22,28.86,28.86,0,0,1,3.85-.95A34.77,34.77,0,0,1,761.26,711.87Z"/><path class="jaeger-5" d="M348.94,748.92a14.49,14.49,0,0,1-5.07-.64c-1.59-.6-1.73-1.18-.66-2.41,1.55-1.8,3.79-2,5.86-2.56a33.18,33.18,0,0,1,14-1.09,6.23,6.23,0,0,1,1.9.67c.9.47.87,1.07.28,1.78a5.59,5.59,0,0,1-2.44,1.65A40.49,40.49,0,0,1,348.94,748.92Z"/><path class="jaeger-5" d="M352.17,755.43c-1-.33-2.08.05-3-.51-.54-.32-1.48-.33-1.45-1.17a2.22,2.22,0,0,1,1.2-1.81,20.13,20.13,0,0,1,7.12-2.5c2-.42,4.15-.63,6.22-.93a23.73,23.73,0,0,1,4.46,0,16,16,0,0,1,2.7.56c.56.21,1.36.32,1.44,1.24a1.72,1.72,0,0,1-1,1.63,21.48,21.48,0,0,1-7.23,2.6c-2,.44-4,.61-6,.9A25.44,25.44,0,0,1,352.17,755.43Z"/><path class="jaeger-5" d="M360,735.05c.88.51,2.54,0,2.58,1.54s-1.42,1.86-2.57,2.27c-5,1.77-10.14,2.74-15.51,1.87-.94-.16-1.92-.6-1.87-1.25a2.72,2.72,0,0,1,1.68-2,37.44,37.44,0,0,1,9.73-2.38A35.94,35.94,0,0,1,360,735.05Z"/><path class="jaeger-6" d="M441.46,303.61c1.62-.28,3.31.33,4.91-.34l3,.41,0,.23h-7.7A.23.23,0,0,1,441.46,303.61Z"/><path class="jaeger-7" d="M950.11,617.67l.73.63-1.82.19c-.39.13-.47,0-.36-.38Z"/><path class="jaeger-8" d="M948.66,618.11l.36.38c-.59.52-1.27.37-2.27.29"/><path d="M711.8,155.38c.26-10,2.71-19.26,8.9-27.31a14.77,14.77,0,0,1,5.06-4.33,4.83,4.83,0,0,1,6.6,1.5c2.22,2.85,3,6.26,3.42,9.73a46.49,46.49,0,0,1-.36,12.63,7.37,7.37,0,0,1-1,2.4c-3.18,6-6.07,12.07-8.77,18.28-1.1,2.53-3.34,3.63-5.88,4-2.35.32-3.84-1.24-4.94-3C712.27,165,711.8,160.23,711.8,155.38Z"/><path class="jaeger-9" d="M715.78,426.65a65.43,65.43,0,1,1,65.6-63.79A65.4,65.4,0,0,1,715.78,426.65Z"/><path class="jaeger-9" d="M578.44,408.48A65.44,65.44,0,1,1,513.76,343,65.22,65.22,0,0,1,578.44,408.48Z"/><path class="jaeger-9" d="M655.79,444.25c13.59-.15,27.12.43,40.32,4.06,7.45,2,14.53,4.86,20.36,10.15a18.82,18.82,0,0,1,6.31,12.11c2.07,17.44-10.65,29.55-25,33.05a83.82,83.82,0,0,1-14.39,1.93c-7.65.5-15.31.4-23,.21-5-.13-10.09-.06-15.12-.33-10.67-.59-20.58,2-30.12,6.54a184.13,184.13,0,0,0-21,12.15c-5.7,3.67-11.65,6.37-18.54,6.67-10.57.45-24.58-3.74-30.86-15.32-5.46-10.06-4-19.82,2.41-29,4.27-6.14,10.06-10.65,16.35-14.55a95.46,95.46,0,0,1,24.2-10.6,1.06,1.06,0,0,1,.73.53c3.43,6.1,9.17,8.82,15.56,10.32,12.33,2.89,24.24,1.13,35.73-3.89a35.09,35.09,0,0,0,12.34-8.57c2.7-3,4.53-6.4,4.37-10.6a11.06,11.06,0,0,0-.53-2.92C655.71,445.57,655.33,444.93,655.79,444.25Z"/><path class="jaeger-5" d="M655.79,444.25c2.58,6.11.77,11.31-3.46,15.91-5.53,6-12.65,9.36-20.36,11.49-10.65,2.94-21.35,3.53-32-.17-5.3-1.85-9.88-4.73-12.3-10.14-1.66-5.86.48-10.61,4.45-14.74,5.89-6.11,13.32-9.43,21.39-11.48,9.75-2.48,19.53-2.84,29.27.05C648.15,436.74,652.73,439.41,655.79,444.25Z"/><path class="jaeger-9" d="M649.62,512.72h9.52c.78,0,1.54,0,1.62,1.07.51,6.29,2,12.57.84,18.9-1.4,7.72-7.7,10-14,9.39-3.47-.36-5.58-2.45-7.13-5.33-2.93-5.43-4.23-11.38-5.54-17.33-.22-1-.35-2-.55-2.93-.6-3-.6-3,2.43-3.44C641,512.37,645.33,512.64,649.62,512.72Z"/><path class="jaeger-9" d="M628.93,535.48a25.41,25.41,0,0,1-.21,3.4c-.65,3.68-2.16,6.76-6,8.06-4.55,1.52-8.77.95-12.38-2.29-4.56-4.1-6.38-9.67-7.91-15.37-.17-.67.2-1,.72-1.34,6.55-4.11,13.17-8.07,20.36-11,.64-.26,1.24-.68,1.59.38C627,523.21,628.82,529.09,628.93,535.48Z"/><path d="M787,176.3c1.5-6.25,3-12.18,4.32-18.16a34.53,34.53,0,0,0,1-10.87,2.52,2.52,0,0,0-2.18-2.54,11.64,11.64,0,0,0-9.59,1.69c-4.39,2.85-7.46,6.91-10.36,11.13-4.21,6.1-7.65,12.64-11.38,19.3a8.35,8.35,0,0,1-.14-3.89c1-9.43,3.5-18.41,8.8-26.39,4-6,9-10.61,16.46-11.83A18.64,18.64,0,0,1,796,136.82c4.35,2.34,5.71,7.39,5.13,12C800,157.89,794,169.39,787,176.3Z"/><path class="jaeger-5" d="M409.4,251c-5.32-5.75-9.23-12.22-10.88-19.87a17,17,0,0,1,.35-9.55,10.85,10.85,0,0,1,14.86-6.38c4.41,1.91,7.52,5.29,10.21,9.06,6.72,9.4,10.66,20,12.76,31.28.12.6.23,1.21.36,1.89-.86-.17-1.11-.86-1.48-1.37-5.74-7.83-11.42-15.7-17.2-23.5a33.09,33.09,0,0,0-7.49-7.77c-2.24-1.57-3.53-1.09-4.14,1.57-.85,3.7-.4,7.42.21,11.11C407.72,242,408.58,246.52,409.4,251Z"/><path class="jaeger-5" d="M686.41,383a20.7,20.7,0,1,1,20.53,20.81A20.7,20.7,0,0,1,686.41,383Z"/><path class="jaeger-5" d="M507.15,452.11a20.7,20.7,0,1,1,20.7-20.61A20.6,20.6,0,0,1,507.15,452.11Z"/><path class="jaeger-3" d="M670.94,495.78c-6.71-.19-13.46.34-20.15-.11-9.72-.67-19.24-.09-28.55,2.9a115.46,115.46,0,0,0-23.43,11c-5.08,3-9.79,6.71-15.18,9.13-9.06,4.07-17.83,2.66-25.76-3-8.38-5.95-8.11-16.68-2.21-24.32,4-5.17,9.15-8.91,14.72-12.16a99.23,99.23,0,0,1,13-6.14,1.91,1.91,0,0,1,2.58.49c4.25,5.08,10,7.66,16.29,8.63a80.8,80.8,0,0,0,37.18-3c9.22-3,16.53-8.52,21-17.36a20.74,20.74,0,0,0,2.07-6.16c.18-1.08.63-1.46,1.71-1.45,12.81.14,25.42,1.45,37.41,6.39a36,36,0,0,1,6.67,3.72c4.72,3.24,5.5,7.92,4.55,13.07-1.74,9.41-8.41,14-16.89,16.43a58.93,58.93,0,0,1-14.56,1.9C677.9,495.87,674.42,495.78,670.94,495.78Z"/></svg>