<svg id="Layer_1" data-name="Layer 1" xmlns="http://www.w3.org/2000/svg" viewBox="0 0 1366 768"><defs><style>.jenkins-1{fill:#d33833;}.jenkins-2{fill:#ef3d3a;}.jenkins-3{fill:#231f20;}.jenkins-4{fill:#f0d6b7;}.jenkins-5{fill:#335061;}.jenkins-6{fill:#6d6b6d;}.jenkins-7{fill:#dcd9d8;}.jenkins-8{fill:#f7e4cd;}.jenkins-9{fill:#49728b;}.jenkins-10{fill:#fff;}.jenkins-11{stroke:#d33833;stroke-width:2px;}.jenkins-12{fill:#81b0c4;}.jenkins-13{fill:#1d1919;}</style></defs><title>jenkins</title><path class="jenkins-1" d="M831.54,315.45c0,126.92-100.63,229.9-224.83,229.9s-224.82-103-224.82-229.9S482.52,85.55,606.71,85.55s224.83,103,224.83,229.9"/><path class="jenkins-2" d="M391.14,372.38S374.82,132.69,595.84,125.8l-15.41-25.75L460.58,140.3l-34.27,39.35L396.4,236.94l-17,66.72,5.08,44.61"/><path class="jenkins-3" d="M452.78,158.62a226.84,226.84,0,0,0,0,315.47c39.53,40.44,93.74,65.28,153.93,65.28s114.41-24.84,153.94-65.27a226.85,226.85,0,0,0,0-315.48c-39.53-40.26-93.74-65.27-153.94-65.27-60,0-114.4,24.83-153.93,65.27Zm-10,325.08a240.63,240.63,0,0,1,0-334.88c41.88-42.78,99.9-69.44,163.91-69.44s122,26.66,163.9,69.44a240.63,240.63,0,0,1,0,334.88c-41.88,43-99.9,69.45-163.91,69.45s-122-26.48-163.9-69.45Z"/><path class="jenkins-4" d="M701.36,316.72l-34.27,5.07-46.23,5.26-29.92.73-29.19-.91L539.45,320l-19.77-21.39-15.41-43.7-3.44-9.43-20.49-6.89-12-19.76-8.52-28.29,9.43-24.83,22.3-7.8,17.95,8.52,8.52,18.86,10.34-1.63,3.44-4.35-3.44-19.77-.91-24.84,5.08-34.26-.18-19.59,15.59-25,27.38-19.76,47.86-20.49,53.13,7.8,46.23,33.36L744,91l13.77,24.84,3.45,61.64L750.86,230.6,732,277.74l-17.77,25.2"/><path class="jenkins-5" d="M672.35,464.85,550,469.93v20.48l10.34,72-5.08,6-85.58-29.19-6-10.34L455.14,432,435,374l-4.35-13.78,68.54-47.14,21.39-8.52,18.86,23.21,16.32,14.5,18.85,6,8.52,2.54,10.34,44.6,7.8,9.43L621,398,607.26,424.6l74.34,35.17-9.25,5.08"/><path class="jenkins-6" d="M469.28,166.05l22.3-7.8,17.95,8.52,8.52,18.86L528.39,184l2.54-10.34-5.08-19.76,5.08-47.14L526.58,81,542,63.07l33.36-26.48-9.43-12.87L518.78,46.93,499,62.34,488,86.27l-17,23.21-5.07,27.38,3.44,29.19"/><path class="jenkins-7" d="M504.46,85.55s12.87-31.73,64.18-47.14,2.54-11.06,2.54-11.06L515.51,48.74l-21.39,21.4-9.43,17,19.77-1.63m-25.75,74.52s-17.95-60,50.58-68.54L526.76,81.2,479.62,92.26l-13.78,44.6,3.44,29.19,9.43-6"/><path class="jenkins-8" d="M506.09,239.66l11.24-10.88s5.08.55,6,6.53,3.45,60,40.25,89c3.45,2.72-27.37-4.35-27.37-4.35l-27.38-42.79m154.84-53.85s2-25.92,9.06-23.93,7.07,9.06,7.07,9.06-17,10.88-16.13,14.87m71.07-95s-14.14,2.9-15.41,15.41,15.41,2.54,18,1.63M631.19,129.24s-18.86,2.54-18.86,14.51,21.4,11.06,27.38,6M514.79,184.91s-32.45-19.77-35.9-.91-11.06,32.45,5.08,52.22l-11.06-3.45L462.58,206.3l-3.45-25.75,19.76-20.48,22.3,1.63L514.07,172l.72,12.88m15.41-54s14.51-75.43,88.12-89.94c60.55-12,92.47,2.54,104.43,16.32,0,0-54-64.18-105.34-44.6-51.31,19.76-89,55.66-88.12,78.69,1.46,39.52.91,39.52.91,39.52M728.74,65.78s-24.84-.9-25.75,21.4a18,18,0,0,0,1.63,6.89s19.76-22.3,31.73-10.34"/><path class="jenkins-8" d="M620.13,96.43s-4.35-34.09-33.36-14.33c-18.86,12.88-17,30.82-13.78,34.27,3.45,3.45,2.54,10.33,5.08,5.62s1.81-20.12,11.24-24.48c9.25-4.35,24.84-9.06,30.82-1.08"/><path class="jenkins-9" d="M539.63,327.78l-80.5,35.89s33.36,132.72,16.31,173.88l-12-4.35-.91-50.58-22.3-95.74-9.43-26.47,83.95-56.57,24.84,23.94m8.16,73.43,11.42,14v51.31h-13.6S544,430.58,544,426.23s1.63-19.76,1.63-19.76m2.54,67.81-38.62,1.63,11.06,7.79L548,488.06"/><path class="jenkins-5" d="M680,465.76l31.72-.91,7.8,78.69L687,547.89,680,465.75"/><path class="jenkins-5" d="M688.49,465.76l47.86-2.54s19.77-49.68,19.77-52.22,17-72,17-72l-38.62-40.25-7.8-6.89-20.49,20.49V392l-17.76,73.8"/><path class="jenkins-9" d="M709.88,459.77l-29.92,6,4.36,23.93c11,5.08,29.91-8.52,29.91-8.52m-3.44-171.34,60,44.6,1.63-20.49-45.32-41.88-16.32,17.77"/><path class="jenkins-10" d="M577.89,634.37l-17.77-72-8.89-53.12-1.45-39.34,80.32-4.36H680l-4.53,89.93,7.8,69.45-.91,12.87-65.09,5.08-39.34-8.53"/><path class="jenkins-7" d="M668.9,464.85s-4.35,89,8.53,152.48c0,0-25.75,16.32-63.28,20.49l72-2.54,8.52-5.08L684.32,489.87l-2.72-30.1"/><path class="jenkins-10" d="M720.76,536.83l33.36-9.43L817.4,524l9.43-29.2-17.05-50.58L790,441.64l-27.38,8.52L736.53,463l-14-2.54-10.88,4.35"/><path class="jenkins-7" d="M720.21,519.6s22.31-10.33,25.75-9.42L736.53,463l11.06-4.36s7.8,44.61,7.8,49.68c0,0,47.86,2.54,52.22,2.54,0,0,10.33-19.76,7.79-40.25L824.83,498l.91,15.41L812,533.93l-15.41,3.44-25.75-.9-8.52-11.06-29.92,4.35-9.43,3.44"/><path class="jenkins-10" d="M686.49,458.86,667.63,411l-19.76-28.29s4.35-12,10.34-12H678l18.86,6.89-1.64,31.73-8.7,49.49"/><path class="jenkins-7" d="M690.3,442.55s-23.93-46.24-23.93-53.13c0,0,4.35-10.33,10.33-7.79s18.86,9.43,18.86,9.43V374.74l-29.19-6-19.77,2.54,33.36,79,6.89.91"/><path class="jenkins-10" d="M585.5,329.59l-23.75-2.54-22.3-6.89V328l10.88,12,34.26,15.41"/><path class="jenkins-7" d="M547.25,332.13s26.47,11.06,35.17,8.52l.9,10.34-23.93-5.08-14.5-10.34,2.36-3.44"/><path class="jenkins-1" d="M720.76,373.65c-14.51-.36-27.74-2.18-39.16-5.44.72-4.71-.73-9.25.54-12.69,3.26-2.36,8.52-2.36,13.42-2.9A23.16,23.16,0,0,0,680.69,351c-.18-3.27-1.63-5.26-2.54-7.8,8.16-2.9,27.38-21.94,38.26-15.78,5.26,3.09,7.43,20.13,7.79,28.65.37,6.89-.72,13.78-3.44,17.59"/><path class="jenkins-11" d="M720.76,373.65c-14.51-.36-27.74-2.18-39.16-5.44.72-4.71-.73-9.25.54-12.69,3.26-2.36,8.52-2.36,13.42-2.9A23.16,23.16,0,0,0,680.69,351c-.18-3.27-1.63-5.26-2.54-7.8,8.16-2.9,27.38-21.94,38.26-15.78,5.26,3.09,7.43,20.13,7.79,28.65.37,6.89-.72,13.78-3.44,17.59Z"/><path class="jenkins-1" d="M651.32,349.9a18.78,18.78,0,0,1-.19,3.26c-4.53,2.9-11.78,2.9-16.86,5.44a47.55,47.55,0,0,1,18.13,4.53c-.18,2.72-.18,5.62-.36,8.34-8.34,5.62-15.95,14.15-25.74,19.58-4.72,2.54-20.85,9.07-25.75,7.8-2.72-.72-3.08-4.17-4.17-7.43-2.36-6.89-7.8-18.13-8.34-28.65-.55-13.23-2-35.54,12.33-32.82a125.28,125.28,0,0,1,33.9,12.33c5.62,3.27,8.71,6.89,17.05,7.62"/><path class="jenkins-11" d="M651.32,349.9a18.78,18.78,0,0,1-.19,3.26c-4.53,2.9-11.78,2.9-16.86,5.44a47.55,47.55,0,0,1,18.13,4.53c-.18,2.72-.18,5.62-.36,8.34-8.34,5.62-15.95,14.15-25.74,19.58-4.72,2.54-20.85,9.07-25.75,7.8-2.72-.72-3.08-4.17-4.17-7.43-2.36-6.89-7.8-18.13-8.34-28.65-.55-13.23-2-35.54,12.33-32.82a125.28,125.28,0,0,1,33.9,12.33c5.62,3.27,8.71,6.89,17.05,7.62Z"/><path class="jenkins-1" d="M659.48,365.67c-1.27-7.25-2.72-9.24-2.18-15.59,19.4-12.87,22.84,22.12,2.17,15.59"/><path class="jenkins-11" d="M659.48,365.67c-1.27-7.25-2.72-9.24-2.18-15.59,19.4-12.87,22.84,22.12,2.17,15.59Z"/><path class="jenkins-2" d="M687.4,371.47s-6-8.52-1.63-11.06,8.52,0,11.06-4.35,0-6.89.9-12,5.08-6,9.43-6.89,16.32-2.54,18,1.63L720,323.43,709.7,320l-32.46,18.86-1.63,9.43v18.85m-78.14,32.64c-1.09-13.42-2.18-26.65-3.27-40.07-1.81-19.94,4.72-16.5,22.12-16.5,2.72,0,16.32,3.08,17.23,5.08,4.71,9.61-7.8,7.43,5.44,14.68,11.06,6,30.82-3.62,26.29-17.22-2.54-3.09-13.06-.91-16.86-2.9l-20.13-10.34c-8.52-4.35-28.1-10.88-37.17-4.71-23,15.59,1.45,54.75,9.61,71.07"/><path class="jenkins-3" d="M620.13,96.43c-23.39-5.44-35,9.79-42.06,25.56-6.35-1.45-3.81-10.15-2.18-14.5,4.17-11.43,21-26.84,34.81-24.66,5.8.72,13.78,6.16,9.43,13.6M733.81,122.9h1.09c5.26,10.88,9.79,22.48,16.5,32.27-4.53,10.52-33.72,19.58-33.36,1.09,6.34-2.72,17.22-.55,22.84-4.17-3.26-8.89-7.79-16.5-7.07-29.19m-101.89.36c5.07,9.25,6.7,18.86,13.78,25.75,3.26,3.08,9.42,6.89,6.34,15.59-.72,2-6,6.53-9.06,7.43-11.06,3.27-37,.73-28.29-13.23,9.25.36,21.58,6,28.47-.73-5.26-8.34-14.69-25-11.24-34.81m97.72,93.19c-16.68,10.7-35.35,22.49-62.91,19.77-5.8-5.08-8.16-16.5-2.36-23.94,2.9,5.08,1.09,14.51,9.43,16,15.59,2.72,33.72-9.61,45-13.78,6.89-11.79-.54-16-6.88-23.57C699,175.48,682,156.26,682.5,133.23c5.26-3.81,5.62,5.8,6.35,7.44,6.71,15.59,23.57,35.71,35.72,49.13,3.08,3.26,8,6.53,8.52,8.7,1.63,6.17-4.17,13.78-3.45,17.95M508.81,205.21c-5.26-3.08-6.53-16.13-12.7-16.5-8.88-.54-7.25,17-7.25,27.38-6-5.44-7.07-22.48-2.72-31.18-5.07-2.54-7.25,2.72-10.15,4.53,3.81-26.29,38.62-12.15,32.82,15.77m231.35,22.3c-7.8,14.87-18.86,31.19-41.7,31.73-.55-4.71-.91-12.14,0-15.05,17.58-1.81,28.46-10.69,41.7-16.68m-109.51,9.61c14.5,7.62,41.34,8.52,61.28,8,1.09,4.35,1.09,9.79,1.09,15-25.57,1.09-55.66-5.26-62.37-23m-2.72,14.15c10.15,25.38,44.78,22.48,74,21.75-1.27,3.27-4,7.25-7.61,8.52-9.43,3.81-35.18,6.71-48.23-.18-8.16-4.35-13.6-14.32-18.13-20.12-2-2.72-12.87-9.79,0-10"/><path class="jenkins-12" d="M728.37,391.05c-11.78,20.31-23.2,41.16-37.16,58.93,5.8-17.22,8.33-46.23,9.24-68.35,12.33-5.81,22.85,1.27,27.92,9.43"/><path class="jenkins-3" d="M792,463.94c-13.23,2.72-22.48,15.59-35.53,14.69,7.25-10,19.58-14.33,35.53-14.69m5.81,20.67c-10.88,1.09-23.57,2.9-34.45,2,5.25-8,25.2-5.08,34.45-2m3.8,17.95c-12.14.18-27.19,0-38.8-.91,6.89-7.43,31-2.72,38.8.91"/><path class="jenkins-7" d="M705.53,551.51c1.81,15.23,7.8,30.65,7.07,47.33C705.89,601,702.08,603,693,603c-.55-14.15-2.54-35.9-2-49.5,4.35.36,10.88-3.08,14.51-2"/><path class="jenkins-4" d="M686,326.69c-6.17,4-11.24,8.88-17.23,13.24-13.05.72-20.12-.91-29.55-8.34.18-.55,1.09-.37,1.09-1.09,14,6.16,31.73-2.54,45.69-3.81"/><path class="jenkins-12" d="M613.06,421.52c3.81-16.5,18.86-25.21,32.45-34.27C659.47,405,668,427.86,677.43,450c-22.31-6.71-45-17.4-64.37-28.46"/><path class="jenkins-3" d="M691,553.69c-.54,13.6,1.27,35.18,2,49.5,9.06,0,12.87-2,19.58-4.17.73-16.68-5.26-32.09-7.07-47.32C701.9,550.43,695.37,553.87,691,553.69Zm-140-76.87c6,54.57,14.51,100.26,30.28,148.67,35,10.7,77.06,11.6,108.06,2-5.62-27.19-3.26-60.37-6.52-89.56-2.54-21.94-1.27-43.88-4.72-66.18-37.53-7.8-90.47-1.81-127.1,5.08Zm136-4.72c-.37,23.39,1.08,46.6,2.9,70a225.85,225.85,0,0,0,23.39-4.17c-2.72-22.49-2.36-48-8-68-6.35.18-12,0-18.31,2.17Zm45.5-3.81c-4.35-.9-9.24,0-13.23,0,2,19,6.53,40.07,8.16,60.2,6.34.18,9.79-2.9,15-3.81.36-17.59-1.45-41.88-10-56.39Zm69.08,63.1c13.42-3.26,21.76-19.58,18-36.44-2.54-11.25-6.89-32.64-11.78-39.89-3.45-5.26-13.06-12.33-20.85-7.44-12.51,8-34.45,10.34-43.52,19.95,4.53,15.23,6,35.9,7.8,55.12,15.59.9,34.63-4.35,47.68,1.27-9.06,2.9-20.67,2.9-28.46,7.25,6.52,3.08,21.39,2.54,31.18.18ZM677.24,450c-9.42-22.12-17.94-45-31.91-62.73-13.6,9.06-28.46,17.77-32.45,34.27,19.58,11.06,42.25,21.75,64.36,28.46Zm23.21-68.35c-.91,22.12-3.44,51.13-9.24,68.35,14-18,25.38-38.62,37.16-58.93-5.07-8.15-15.59-15.23-27.92-9.42Zm-26.29-9.25c-5.26-.54-9.79,6.17-16.68,3.26-1.63,1.82-3.08,3.63-4.71,5.44,15.23,18.5,22.3,44.61,34.08,66.18,6.35-20.85,5.62-43.51,7.08-66.18-8.71.37-13.6-8.16-19.77-8.7Zm-16.86-22.3c-.54,6.34.91,8.34,2.17,15.59C680.14,372.2,676.7,337.21,657.3,350.08Zm-23-7.62a124.93,124.93,0,0,0-33.9-12.32C586.05,327.41,587.49,349.72,588,363c.54,10.52,6,21.58,8.34,28.65,1.09,3.26,1.45,6.71,4.17,7.43,4.9,1.09,21.21-5.25,25.75-7.79,9.79-5.26,17.4-13.78,25.74-19.59.18-2.71.18-5.62.36-8.33a43.72,43.72,0,0,0-18.13-4.54c4.9-2.54,12.33-2.54,16.86-5.44a18.78,18.78,0,0,1,.19-3.26c-8.34-.91-11.43-4.53-17.05-7.62Zm-85.21-15.41c-7.44,7.62,20.85,17.77,29.73,18.32,0-4.72,2.72-9.25,2.18-12.7-10.7-1.81-24.66-.54-31.91-5.62Zm91.38,3.45c0,.72-.91.54-1.09,1.09C649,339,656,340.65,668.9,339.93c5.81-4.17,11.06-9.25,17.23-13.24-14.14,1.27-31.91,10-45.69,3.81Zm83.76,25.38c-.36-8.34-2.54-25.56-7.79-28.65-10.88-6.34-30.1,12.88-38.26,15.78.91,2.54,2.36,4.53,2.54,7.79a23.08,23.08,0,0,1,14.87,1.64c-4.9.54-10.16.54-13.42,2.9-1.09,3.44.36,8-.54,12.69,11.42,3.26,24.65,4.89,39.16,5.44,2.72-3.63,3.81-10.52,3.44-17.59ZM536.55,334.31c-2.36-1.64-18.13-22.13-20.31-21.22-28.46,11.24-55.12,30.64-78.87,49.14C460,411,469.28,470.65,470.91,528.13c25.93,12.14,48.77,29.73,84.13,31.54-4.17-28.82-7.79-54.75-10.15-81.95-8.89-3.81-21.58.18-29.92-1.09,0-10,12.69-4.35,13.78-11.06.73-5.07-7.07-5.44-4.53-13.41,6.53,2.35,10,7.61,16.86,9.61,6.35-13.78,0-38.26.91-49.86.18-2.18,1.08-12,6-10.34,4.35,1.45-.18,26.29.18,37.17.36,10.15-1.27,19.76,2.9,26.11a970.52,970.52,0,0,1,105.71-8.7c-8.16-3.45-17.77-6.71-28.29-12.7-5.8-3.26-23.75-10-25.38-15.41-2.72-8.7,6.89-13.23,8.52-20.67-17.22,9.43-20.49-9.06-24.66-21.94-3.63-11.78-5.8-20.66-6.71-27.37-15-7.62-31-14.69-43.69-23.75Zm172.6-18.86c23.76-11.42,28.11,43,18.68,60.56,1.45,5.25,6.35,7.25,8.34,12-13.24,23.75-27.92,45.87-41.52,69.26,10-6.34,24.48-1.08,36.26-5.8,4.35-1.63,7.44-11.6,10.7-19.58,9.06-21.76,18.49-49.32,22.66-70,.91-4.72,3.63-15.06,2.9-19.23-1.08-7.61-11.24-13.23-16.5-17.76-9.6-8.71-15.59-16.14-25.74-24.3-3.81,6-12.51,10-15.78,14.87ZM482.34,105c-11.25,12.51-8.89,35.72-7.62,52.4,20.49-12.88,47.5,1.08,47.32,22.84,9.79-.18,3.63-12.15,1.82-19.94-5.81-25.2,9.79-52.4.72-75.43C507,86.27,492.67,93.34,482.34,105ZM563.2,32.61c-25.56,7.25-58.38,25.92-68.9,49,8.16-1.27,13.78-5.26,21.76-5.8,3.08-.18,7.07,1.27,10.52.36,6.88-1.81,12.87-17.41,18.13-23.21,5.07-5.62,11.24-8.16,15.41-13.23,2.72-1.27,6.7-1.27,6.89-5.26-1.09-1.27-2.36-2.18-3.81-1.81Zm133.26,6.88c-26.65-15-71.61-26.28-99.9-12.14-22.84,11.42-53.67,30.27-64.18,54,9.79,23-2.9,44.05-3.81,67.44-.36,12.51,5.8,23.21,6.35,36.81-3.45,5.62-13.6,6.16-20.67,5.8-2.36-12-6.53-25.38-18.86-26.83-17.41-2-30.28,12.51-31,27.56-.91,17.77,13.59,47.14,34.26,45.14,8-.72,10-8.7,18.68-8.7,4.71,9.43-7.25,12.33-8.52,19-.37,1.81.9,8.52,1.81,11.78,3.81,15.42,12.15,35.54,20.31,47.33,10.51,15,31,17.22,53.12,18.67,4-8.52,18.49-7.8,27.92-5.62-11.42-4.53-21.94-15.41-30.64-25-10-11.06-20.12-22.84-20.67-37.35,19,26.29,34.63,49.32,69.08,60.92,26.11,8.7,56.57-4,76.7-18.13,8.33-5.8,13.23-15.23,19.21-23.57,22.12-31.91,32.46-77.24,30.28-121.3-.9-18.13-.9-36.26-7.07-48.41-6.34-12.69-27.92-24.29-40.61-12.69-2.36-12.51,10.51-20.13,25.56-15.59-10.69-14-21.93-30.46-37.35-39.17Zm49.68,410c20.85-10.34,59.65-27.74,72.53,0,4.89,10.33,10.51,27.56,12.87,38.25,3.44,14.87-3.81,46.42-19.22,51.31-13.6,4.36-29.37,4.17-45.69.91a26.49,26.49,0,0,1-5.62-7.25c-11.6-.36-22.66.54-31.73,5.44.91,8.7-4.9,10-10.52,11.78-4,16.14,8.16,37.17,5.26,51.68-2,10.51-14.87,12.14-24.29,14a70.87,70.87,0,0,0,1.08,15.59c-2.17,8-11.78,12.51-21,13.6-30.28,3.62-76.15,5.26-105.16-5.26-8.16-19.94-14.5-44.06-21.21-66.72-28.29,3.08-51.31-12.15-72.89-22.3C473.09,547,462.75,545,459.85,539c-2.72-5.81-1.63-16.87-2.35-27.2-1.64-26.65-3.27-52.4-10.16-79.6-3.08-12.33-8.7-23-12.51-34.81-3.62-10.88-9.79-24.48-11.42-35.35-2.36-16.14,12.87-17.05,22.48-24.12,15.05-10.88,26.84-16.86,43.15-26.65,4.9-2.9,19.4-10.15,21-13.6,3.26-6.71-5.62-16.14-8-21.39-3.81-8.34-5.8-15.42-6.35-23.58a45.61,45.61,0,0,1-30.27-19.39C455.14,218.09,447.89,190,457,168.77c.73-1.63,4.17-5.08,4.72-7.62,1.08-5.07-2-11.78-2.18-17.22-.91-27.74,4.72-51.68,23.39-60,7.61-30.27,34.81-40.24,60.38-55.29,9.61-5.62,20.12-9.25,31-13.24,39-14.32,99-11.6,131.45,12.87,13.78,10.34,35.72,32.28,43.51,48.23,20.85,41.88,19.22,112.05,4.72,163.18-2,6.89-4.72,16.86-8.7,25.2-2.72,5.81-11.25,17.23-10.34,22.3,1.09,5.26,19.58,19.22,23.57,23,7.07,6.89,20.67,16,21.76,24.66,1.27,9.25-4,21.94-6.71,30.82-8.7,29.74-17.4,57.12-27.38,83.77Z"/><path class="jenkins-8" d="M607.44,243.47c1.09-1.45,7.25-3.81,16,.36,0,0-10.34,1.63-9.43,18.86l-4.35-.91c.18.18-4.36-15.41-2.18-18.31"/><path class="jenkins-13" d="M682.5,390.69a4.72,4.72,0,1,1-4.71-4.71,4.67,4.67,0,0,1,4.71,4.71m4.72,21.94a4.72,4.72,0,1,1-4.72-4.71,4.57,4.57,0,0,1,4.72,4.71"/><path class="jenkins-3" d="M440.27,690q-2.17.27-3.81.54c-1.08.18-2.17.36-3.62.73-1.63.36-2.54,1.08-2.9,2.17a10.77,10.77,0,0,0-.73,3.63v44.24a26.17,26.17,0,0,1-2.54,11.24,23.82,23.82,0,0,1-6.7,8.52,31.72,31.72,0,0,1-9.8,5.08A39.83,39.83,0,0,1,398.75,768c-7.07,0-12.69-1.63-17-5.08s-6.53-8-6.53-14a13,13,0,0,1,2.9-8.7,10.07,10.07,0,0,1,8.16-3.45,10.4,10.4,0,0,1,7.8,2.91,9.59,9.59,0,0,1,2.9,7.07,10.66,10.66,0,0,1-2.54,6.7,34.44,34.44,0,0,1-5.8,5.63v.72a4.73,4.73,0,0,0,2.17,2,7.8,7.8,0,0,0,3.45.73c4.53,0,8.16-1.63,10.7-4.9s3.8-8.15,3.8-14.68V697.65a9.82,9.82,0,0,0-.54-3.44c-.36-.91-1.45-1.64-3.08-2.36a19.16,19.16,0,0,0-4.17-1.27c-1.63-.36-2.9-.54-4-.72V685.5h42.79V690Zm67.09,62.37a36.85,36.85,0,0,1-4.72,6.16,28.39,28.39,0,0,1-6.34,4.9,34.22,34.22,0,0,1-7.62,3.26,32.91,32.91,0,0,1-8.88,1.09,39.32,39.32,0,0,1-14.51-2.36,27.82,27.82,0,0,1-10-6.34,27.12,27.12,0,0,1-6-9.43,35.87,35.87,0,0,1-2-11.79,28.7,28.7,0,0,1,2.18-11.06,32.07,32.07,0,0,1,6-9.43,27.24,27.24,0,0,1,9.79-6.52,34,34,0,0,1,13.06-2.54,37.94,37.94,0,0,1,13,2,22.54,22.54,0,0,1,8.34,5.26,20.75,20.75,0,0,1,4.72,7.62,31,31,0,0,1,1.45,9.24v3.63H467.65c0,7.8,1.45,13.6,4.53,17.59,2.9,4,7.8,6,14.14,6a16.27,16.27,0,0,0,9.61-2.9,25.73,25.73,0,0,0,7.26-7.44l4.17,3.09Zm-21.58-21.58c0-2.18-.18-4.53-.36-6.89a16,16,0,0,0-1.27-5.8,8.2,8.2,0,0,0-2.72-4,6.34,6.34,0,0,0-4.17-1.27c-2.9,0-5.26,1.45-6.89,4.35-1.81,2.9-2.72,7.62-2.9,14l18.31-.36Zm101.53,35H553.23v-4.17a14.45,14.45,0,0,0,2.54-.36,15.81,15.81,0,0,0,2.36-.54,4.07,4.07,0,0,0,1.63-1.82,8.54,8.54,0,0,0,.54-3.44V729c0-3.81-.73-6.71-2.17-8.7s-3.45-2.9-6.35-2.9a10.71,10.71,0,0,0-4.17.72,12.93,12.93,0,0,0-3.81,2,11.92,11.92,0,0,0-2.72,2.36,8.36,8.36,0,0,0-1.63,2.18V755a8.83,8.83,0,0,0,.54,3.26,3.88,3.88,0,0,0,1.82,2,5.82,5.82,0,0,0,2.17.91l2.72.55v4.17H512.25v-4.17a18.27,18.27,0,0,0,2.9-.37c.91-.18,1.82-.36,2.54-.54a4.12,4.12,0,0,0,2.54-2,8.86,8.86,0,0,0,.72-3.44v-33a8.12,8.12,0,0,0-.9-3.44,8.5,8.5,0,0,0-2.36-2.72,8,8,0,0,0-2.54-1.09,10.59,10.59,0,0,0-3.44-.55v-4.17l27-1.45.91.91V718h.18q2-1.63,3.81-3.45c1.33-1.15,2.73-2.24,4.17-3.26a25.66,25.66,0,0,1,5.44-2.36,23.53,23.53,0,0,1,7.25-.9c6.17,0,10.7,1.81,13.78,5.26s4.53,8.15,4.53,14V755a7.42,7.42,0,0,0,.55,3.26,4.35,4.35,0,0,0,2.35,2,14.08,14.08,0,0,0,2.18.73c.91.18,1.81.36,3.08.54v4.35Zm78,0H638.63q-4.23-7.53-9.07-14.68c-2.72-4-5.26-7.8-7.62-11.06l-3.26,2.9v12.33a8,8,0,0,0,.55,3.26,3.75,3.75,0,0,0,2.35,2,8.7,8.7,0,0,0,2.36.73,14.1,14.1,0,0,0,2.72.36v4.17H591.48v-4.17a18.29,18.29,0,0,0,2.91-.36c.9-.18,1.81-.36,2.54-.54a4.14,4.14,0,0,0,2.53-2,8.67,8.67,0,0,0,.73-3.44v-63.1a9.66,9.66,0,0,0-.91-3.81,6.7,6.7,0,0,0-2.36-3.08,9.91,9.91,0,0,0-3.26-1.09,16.28,16.28,0,0,0-4-.54v-4.17l28.1-1.45.91.91v58.38c2.72-2.54,6-5.44,9.43-8.7s6.35-6,8.34-8.16c1.27-1.27,2-2.18,2-2.91a4.51,4.51,0,0,0,.19-1.26c0-.73-.55-1.27-1.82-1.64a36.31,36.31,0,0,0-5.44-1.27v-4H660v4a67.6,67.6,0,0,0-8.7,2.91,60.48,60.48,0,0,0-6.53,3.62c-1.54,1-3,2.13-4.53,3.27s-3.09,2.54-5.08,4.17c3.63,5.44,7.07,10.33,10.15,14.86s6.35,9.43,9.79,14.51a8.45,8.45,0,0,0,4.36,3.62,26.52,26.52,0,0,0,5.25,1.09v4.35Zm36.26,0H665.82v-4.17a15.86,15.86,0,0,0,2.9-.36,24.06,24.06,0,0,0,2.36-.54,4.16,4.16,0,0,0,2.54-2,6.49,6.49,0,0,0,.72-3.44v-33a7,7,0,0,0-.9-3.45,5.56,5.56,0,0,0-2.18-2.35,12.81,12.81,0,0,0-3.08-1.27,17.49,17.49,0,0,0-3.81-.73v-4.17l27.74-1.45.91.91v45a7.53,7.53,0,0,0,.9,3.44,5,5,0,0,0,2.36,2,10.16,10.16,0,0,0,2.54.91c.91.18,1.81.36,2.9.55v4.17h-.18Zm-8.16-77.05a9.41,9.41,0,0,1-3.26,7.25,11.48,11.48,0,0,1-7.8,3.08,11.92,11.92,0,0,1-8-3.08,9.68,9.68,0,0,1-3.26-7.25,10.08,10.08,0,0,1,3.26-7.44,11.59,11.59,0,0,1,8-3.08,11.15,11.15,0,0,1,7.8,3.08,9.79,9.79,0,0,1,3.26,7.44Zm88.12,77.05H747.41v-4.17a14.32,14.32,0,0,0,2.54-.36,15.81,15.81,0,0,0,2.36-.54,4,4,0,0,0,1.63-1.82,8.54,8.54,0,0,0,.54-3.44V729q0-5.71-2.17-8.7c-1.45-2-3.45-2.9-6.35-2.9a10.71,10.71,0,0,0-4.17.72,19.34,19.34,0,0,0-3.81,2,12.14,12.14,0,0,0-2.72,2.36,8.59,8.59,0,0,0-1.63,2.18V755a8.62,8.62,0,0,0,.55,3.26,3.86,3.86,0,0,0,1.81,2,5.89,5.89,0,0,0,2.17.91l2.72.55v4.17H706.44v-4.17a18.41,18.41,0,0,0,2.9-.37c.9-.18,1.81-.36,2.54-.54a4.1,4.1,0,0,0,2.53-2,8.84,8.84,0,0,0,.73-3.44v-33a8.14,8.14,0,0,0-.91-3.44,8.47,8.47,0,0,0-2.35-2.72,8.17,8.17,0,0,0-2.54-1.09,10.65,10.65,0,0,0-3.45-.55v-4.17l27-1.45.9.91V718H734q2-1.63,3.8-3.45,2-1.72,4.17-3.26a25.89,25.89,0,0,1,5.44-2.36,23.61,23.61,0,0,1,7.25-.9c6.17,0,10.7,1.81,13.78,5.26s4.54,8.15,4.54,14V755a7.59,7.59,0,0,0,.54,3.26,4.33,4.33,0,0,0,2.36,2,13.91,13.91,0,0,0,2.17.73c.91.18,1.82.36,3.09.54v4.35Zm31.36,2a35.81,35.81,0,0,1-10.69-1.63,35.35,35.35,0,0,1-8.16-3.45l-1.63,3.81H788l-.72-21h4.17a24.52,24.52,0,0,0,2.9,5.8,35.82,35.82,0,0,0,4.53,5.8,30.55,30.55,0,0,0,6.17,4.35,17.08,17.08,0,0,0,7.25,1.82c3.45,0,6-.73,7.62-2s2.53-3.44,2.53-6.16a6.75,6.75,0,0,0-1.08-3.81,11.12,11.12,0,0,0-3.09-2.54,30.73,30.73,0,0,0-4.89-2c-1.82-.55-4-1.09-6.53-2a37.87,37.87,0,0,1-6.53-2.36,19.69,19.69,0,0,1-5.62-3.62,16.14,16.14,0,0,1-4-5.26,15.54,15.54,0,0,1-1.46-7.43A15.16,15.16,0,0,1,796,713.24c4.53-3.26,10.34-4.89,17.59-4.89a38.26,38.26,0,0,1,9.43,1.09,42.67,42.67,0,0,1,7.25,2.35l1.27-3.26h4.35l.91,19.22h-4a23.8,23.8,0,0,0-6.71-10.16q-4.89-4.35-10.33-4.35c-2.91,0-5.26.55-6.89,1.82a6.08,6.08,0,0,0-2.54,5.07A6.51,6.51,0,0,0,810,726.3a45.23,45.23,0,0,0,10.16,3.62c6.7,1.82,11.6,4.17,14.86,7.07a15.59,15.59,0,0,1,4.72,11.43c0,6.16-2.36,11.06-7.25,14.32a37,37,0,0,1-19.59,5.08Z"/></svg>