<svg id="Layer_1" data-name="Layer 1" xmlns="http://www.w3.org/2000/svg" viewBox="0 0 1366 768"><defs><style>.pwsh-1{fill:#487edd;}.pwsh-2{fill:#487edc;}.pwsh-3{fill:#4372c3;}.pwsh-4{fill:#4878ca;}.pwsh-5{fill:#3f6ebf;}.pwsh-6{fill:#497ad1;}.pwsh-7{fill:#4478d2;}.pwsh-8{fill:#4274cc;}.pwsh-9{fill:#4071c6;}.pwsh-10{fill:#4979cd;}.pwsh-11{fill:#467bd8;}.pwsh-12{fill:#497eda;}.pwsh-13{fill:#4574c7;}.pwsh-14{fill:#fefefe;}.pwsh-15{fill:#3e6dbf;}.pwsh-16{fill:#4477d0;}.pwsh-17{fill:#4375cd;}.pwsh-18{fill:#4273ca;}.pwsh-19{fill:#4579d3;}.pwsh-20{fill:#467ad6;}.pwsh-21{fill:#477cd9;}.pwsh-22{fill:#4071c5;}.pwsh-23{fill:#3f6fc2;}.pwsh-24{fill:#497fdf;}.pwsh-25{fill:#4172c7;}.pwsh-26{fill:#4a81e3;}.pwsh-27{fill:#3561a6;}.pwsh-28{fill:#4375ce;}.pwsh-29{fill:#4172c8;}.pwsh-30{fill:#4070c5;}.pwsh-31{fill:#5390fd;}.pwsh-32{fill:#528ffa;}.pwsh-33{fill:#518ef8;}.pwsh-34{fill:#508cf6;}.pwsh-35{fill:#4f8af1;}.pwsh-36{fill:#508bf4;}.pwsh-37{fill:#518cf6;}.pwsh-38{fill:#4e89ef;}.pwsh-39{fill:#4e88ef;}.pwsh-40{fill:#4c84e8;}.pwsh-41{fill:#4b83e5;}.pwsh-42{fill:#4d86eb;}.pwsh-43{fill:#4e88ee;}.pwsh-44{fill:#4e88ed;}.pwsh-45{fill:#4a81e2;}.pwsh-46{fill:#4980e1;}.pwsh-47{fill:#4980df;}.pwsh-48{fill:#4a81e1;}.pwsh-49{fill:#3d6fc0;}.pwsh-50{fill:#3f71c4;}.pwsh-51{fill:#537ec3;}.pwsh-52{fill:#2c5591;}.pwsh-53{fill:#3663ab;}.pwsh-54{fill:#375f99;}</style></defs><title>powershell</title><path class="pwsh-1" d="M934.12,10.49c75.49-.21,151-.8,226.48-.43,30.11.15,45.86,23.73,38.68,56.49-8.14,37.14-17,74.12-25.51,111.18-25.13,109.83-47.15,220.49-76.42,329.2-19.17,71.21-34,143.32-52.76,214.53-8.59,32.68-31.2,50.31-64.19,50.27-74.78-.09-149.56-.46-224.35-.72-4.81-2.69-7.54-5.73-1.73-10.23,6.65-3.08,13.75-3,20.85-3,62.72-.58,125.44,0,188.15-.31,44.89-.19,58.23-10.87,69.64-54.46s20-87.94,29.5-132c12.86-60,34.41-117.67,45-178.15,7-24.09,11.73-48.75,17.28-73.2,6.31-21.26,9.5-43.27,15.24-64.66,1.24-9.82,4.23-19.25,6.25-28.89,3.17-11.55,6.28-23.11,8.53-34.89,5.66-23.67,10-47.65,16.44-71.14,5.43-24.08,12.47-47.82,15-72.48-3.66-18-15.94-24-32.92-23.42-15.44.35-30.85.58-46.27.17-16.25.55-32.48.38-48.71.34-15.4-.66-30.83.21-46.21-.43-16.16-3-28.7,2.85-39,15.25C921.66,101.06,863.13,156.11,811,217c-21.43,25-42.64,50.52-66.89,73.11-9.23.84-13.25-4.54-15-12.6,11.2-26.68,34.81-43.42,52.57-64.81,47.53-57.3,100.77-109.45,150.75-164.56,16.67-18.39,16.27-19.46.89-29.29C931.75,15.9,931.61,13.06,934.12,10.49Z"/><path class="pwsh-2" d="M752,763.43l4,7.58c-97.36.31-194.71.79-292.06.87-79,.07-158-.34-237-.54-2.56-3-2.23-6.05-.05-9.09,4.7-3.48,10.2-3.87,15.74-4.09,9.13-.08,18.28-.12,27.4.17,12.34.38,20.81-5.08,28.82-14.31,23-26.5,45.52-53.43,70.22-78.42,4.38-2,8.09-.2,11.73,2.06,7.35,8.18,18.84,11.38,25.25,20.76C398.85,708,382.69,720.71,369.9,736c-4.78,5.72-15.16,10.75-12.22,17.88,3.61,8.79,14.77,3.37,22.61,4.24,5.5.6,11.13-.25,16.74-.42,14.27-.47,28.51-.59,42.76-.22,17.9-.52,35.78-.75,53.66-.08,15.54-.26,31.07-.76,46.6,0,15.56-.31,31.11-.62,46.66-.19,15.56.24,31.12-.74,46.67.18,18.12-.34,36.23-.76,54.35,0,15.41-.22,30.82-.47,46.24-.09C740.39,758.19,747.19,758,752,763.43Z"/><path class="pwsh-3" d="M277.57,284.55c17.32-77.4,34.51-154.83,52.16-232.15,1.5-6.56,4.59-13.36,10.86-17.55,4.51-1.37,6.17,1.39,7.25,5-13,51.63-24.43,103.66-36.23,155.6-5.72,17.95-7.92,36.73-12.82,54.88-4.23,12.48-5.92,25.59-9.23,38.31-1.76,4.33-4,8.23-8.68,10.07C273.09,295.55,275.41,290,277.57,284.55Z"/><path class="pwsh-4" d="M277.57,284.55c.53,4.67-.7,9.91,4.24,13.15,7.78,9.54,1.1,19,0,28.56-1.81,6.24-3.15,12.61-4.63,18.94-3.9,18-7.83,36-12.48,53.89-8.71,23.16-11.94,47.8-19,71.4-2.83,6.42-6.67,12.4-8.61,19.23-1,3.88-2,7.76-4.55,11-4.93,3.16-7.21,0-9.2-3.86Z"/><path class="pwsh-5" d="M353.83,22.17c9-9,20.1-12.41,32.45-12.37q72.77.27,145.54.69c2.64,3.54,2.23,6.78-1,9.74-6.73,4-14.19,4-21.66,3.94-13.62.29-27.23.64-40.85.12-36,1.19-72.18-2.56-107.85,5.13C356.54,28.59,353,27.35,353.83,22.17Z"/><path class="pwsh-6" d="M179.69,755.39c-12.24-12.16-9.43-27.64-6.47-41.36,8.18-37.83,18.31-75.24,27.66-112.82,4.38,2.07,6.3,5.95,7.61,10.29,1.39,7.77-1.44,15.16-2,22.77-6.75,23.25-12.19,46.83-17,70.55-5.32,15.08-2.16,30.6-2.37,46C185.79,754.19,184,756.87,179.69,755.39Z"/><path class="pwsh-7" d="M739.33,10.49H845.19c2.59,3.67,2.22,7-1.23,9.89-10.59,5.57-22,3.68-33.25,3.85-16.13.34-32.27.57-48.4,0-7.47-.24-15.09.31-21.85-3.89C737.13,17.4,736.73,14.12,739.33,10.49Z"/><path class="pwsh-8" d="M739.33,10.49q0,3.84,0,7.68c-7.29,7.24-16.62,6-25.61,6.23-16.41.08-32.83.34-49.25.16-9.93-1.12-20.37,1.34-29.71-4.11-3.48-2.92-3.86-6.25-1.29-10Z"/><path class="pwsh-9" d="M633.46,10.49l0,7.59c-4.61,5.27-10.86,5.76-17.22,6-13.37.5-26.75.5-40.13.15-5.91-.18-11.83.21-17.75,0-7-.53-14.13.2-21-2a11.86,11.86,0,0,1-5.55-4.2c0-2.5,0-5,0-7.5Z"/><path class="pwsh-10" d="M205.73,611.09c-3.85-2.2-4.2-6.11-4.85-9.88,3.82-35.58,15.05-69.56,22.45-104.36L231.1,501c2.5,4,1.67,8.31,1.13,12.59-3.24,15.78-7.71,31.3-10.1,47.27C216.11,577.42,217,596.24,205.73,611.09Z"/><path class="pwsh-11" d="M845.19,18.23V10.49h88.93c0,2.59,0,5.17,0,7.76-4.84,5.28-11.29,5.72-17.8,6-17.76.23-35.52.62-53.3.19C856.64,23.63,849.92,23.77,845.19,18.23Z"/><path class="pwsh-12" d="M179.69,755.39l4.92-4.55c4.29-2.17,7.93,0,11.66,1.68,9.1,6.79,22,3,30.68,11q0,3.88,0,7.79C208.77,773.24,191.2,773.31,179.69,755.39Z"/><path class="pwsh-13" d="M353.83,22.17l4.57,4.64c.69,9.26-3.46,13.63-12.85,12.71q-2.48-2.34-5-4.67A26.53,26.53,0,0,1,353.83,22.17Z"/><path class="pwsh-14" d="M379.17,670.32l-7.67-5.26c-9-7.26-11.34-17.79-13.84-28.25-3.55-28.08,15.17-42.69,34.44-57,5.47-4.47,10.39-9.61,16.07-13.84,19.11-13.39,39.21-25.31,58.28-38.78,28.06-19.49,57.87-36.47,84-58.77,35.63-29.77,75.52-53.55,113.44-80.07,20-14,21.19-13.53,3.87-31.47-4.42-4.58-9.49-8.32-14.49-12.18-5.24-4.12-8.87-9.73-13.37-14.53-5.43-6.1-11.3-11.78-17.15-17.48-5.65-5.87-11.45-11.58-17.28-17.27-7.67-7.77-12.65-17.79-21-25-8.34-8.68-16.91-17.13-25.55-25.53-8-8.35-16.41-16.31-24.36-24.7-4.72-5.39-8-11.93-13-17.09q-3.69-3.85-7.55-7.56c-1.4-1.22-2.69-2.53-4-3.86-7.86-8.4-16.78-15.91-22.22-26.37-7.72-10.07-8.71-21.6-7.46-33.66,10-30.81,25.33-42,57.82-42.36a45.38,45.38,0,0,1,18.4,5.82c9.21,6.18,16.18,14.84,24.28,22.27,8,8.55,16.78,16.34,24.34,25.31a48.69,48.69,0,0,1,3.35,4.73c5,8.26,12.44,14.33,19.13,21.08,9.28,9.68,19,18.9,28.26,28.63a90.53,90.53,0,0,1,6.79,8.84c2.64,3.79,6.41,6.13,10.47,8.13a24.61,24.61,0,0,1,6.4,5.31c5.74,7.39,12.54,13.79,19.14,20.36,3.29,3.32,6.56,6.65,9.93,9.89,6.15,10,21,12.92,22.42,26.86,2.17,6.24,7.19,9.87,12.3,13.42,7.42.73,11.37,6.48,16.11,11.11,6.15,8.44,12.46,16.75,20.3,23.76,7.81,8.57,17,15.9,23,26.1,2.87,5.32,5.83,10.59,7.79,16.35,5.79,26.18-5.48,45.46-25.73,60.15C679.35,503.92,570.9,576.33,466.2,654c-8.51,6.31-18.55,10.1-27.17,16.31C419.16,684.62,399.12,686.91,379.17,670.32Z"/><path class="pwsh-15" d="M1111.87,390.92c-1,31.11-9.32,61.34-18.88,90.05-20,60.07-29.51,122.32-44.57,183.37-4.7,19-8.23,38.38-13.59,57.21-7.8,27.47-28,41.71-58.68,41.78-67.59.16-135.18-.1-202.77-.19-3.25-8.84,2.4-14.7,7.44-20.26,22.4-24.66,44.57-49.53,65.75-75.27,11.77-5.2,24.78-.51,36.66-4.67a105.08,105.08,0,0,0,10.2-5.75c17.76-11.45,15.24-28.46,12.46-45.54a22,22,0,0,1,0-6c19.66-27.39,44.82-50,66.61-75.52,30.5-35.8,62.38-70.44,93.63-105.61C1078.73,410.36,1089.53,392.42,1111.87,390.92Z"/><path class="pwsh-16" d="M1158.58,18.33c17.72-.13,27.71,10,33.72,25.41-17.5,30.17-42.51,54.38-66.22,79.11C1047.22,205.13,974.53,293,896.59,376c-40,42.53-78.53,86.23-118.09,129.07-24.29,26.3-46,54.91-71.72,80-16.13,3.76-32.55,2.09-48.83,2.78-13-14.06,1.31-21.21,8.58-28.08,25.09-23.72,46.67-50.51,69.25-76.43,4.61-5.29,9.42-10.52,9.84-18.12,3.36-9.52,12-13.6,19.63-18.44,23-14.67,41.43-33.3,52.38-58.69,13.9-6.84,20.6-20.88,31-31.23,67.69-67.5,128.91-140.88,192.33-212.28C1079.13,101.51,1120.83,61.74,1158.58,18.33Z"/><path class="pwsh-17" d="M709.7,580.75c14.54-29.46,40.65-49.54,60.89-74.37,29.22-35.86,58.89-71.75,91.95-103.95,29.69-28.93,57-59.75,84.62-90.44,40.79-45.36,79.38-92.79,121.5-136.85,28.54-29.85,56.76-59.95,85.1-90,12.94-13.72,21.44-31.66,38.54-41.44a332,332,0,0,1-16.79,76.14c-18.65,25.74-40.51,48.8-62.56,71.42-65,66.58-124.43,138-186.63,207-38.6,42.84-80.11,83-117.64,126.84-13.71,16-27.13,32.39-41.66,47.75-4.84,5.11-8.63,11.26-16.13,13C736.8,587,722.25,591.73,709.7,580.75Z"/><path class="pwsh-18" d="M756.29,580.75c21.36-33.2,49.56-60.8,76.08-89.46C899.83,418.39,967.58,345.8,1032,270.12c16.34-19.22,34-37.32,51.24-55.77,25.87-27.7,52.11-55,77.64-83.06,4.42-4.85,8.89-8.74,14.67-11.41-4.42,24.29-8.35,48.68-16.89,72-14.3,22.86-33.41,42-52.28,60.54-57.4,56.34-108.22,118.49-161.55,178.4-38,42.64-78.59,82.74-116.53,125.39-8.74,9.82-13.67,23.25-26.4,29.55C786.3,587.27,770.39,592.12,756.29,580.75Z"/><path class="pwsh-19" d="M1158.58,18.33c-13.14,30.46-38.27,52.07-60.92,73.93-31.37,30.27-58.13,64.41-88.4,95.49-26.83,27.54-50.83,57.87-75.65,87.32-32,38-70.94,69.62-101.17,109.29a15.35,15.35,0,0,1-12.68,6.53c-10.46-5.1-4.65-18.86-13.26-24.95l-7.31-13.17c29-29.62,55.8-61.27,84.89-90.86,44.84-45.61,84.87-95.65,128.07-142.78,31.3-34.14,59.4-71.36,95.62-100.84Z"/><path class="pwsh-20" d="M1107.77,18.29C1105.25,36.63,1087.11,42.07,1077,54c-39.45,46.68-82.91,90-122.09,136.86-43.39,51.92-92.46,98.39-137.19,149-5,5.62-9.58,12.62-18.52,12.92l-22.45-24.09c-2-3.9.18-6.63,2.66-9.24Q913.71,177.53,1042.92,31c4.23-4.79,8.54-9.36,14-12.69Z"/><path class="pwsh-21" d="M1056.94,18.27c-11.18,22.43-30.49,38.4-46.7,56.54-51,57-100.6,115.29-155,169.33-27.21,27-48.89,59.52-78.52,84.54-9.23-6.88-16.69-15.16-20.75-26.14-2.8-7.59,2.83-11.79,6.94-16.27,49.67-54.37,97.91-110,149.25-162.92,32.68-33.67,62.6-70.07,93.94-105.09Z"/><path class="pwsh-22" d="M1145.75,255.41c-7,20.8-6.73,43.51-16.76,63.51-8.9,19.36-27.6,29.74-41.22,44.79-64.27,71-127,143.45-191.3,214.43-3.27,3.61-5.89,8-11.08,9.44-12.71-.25-25.53.78-37.9-3.25-8.73-10.13-.42-17.45,5.39-23.31,45.14-45.51,86-94.83,129-142.31,28.79-31.82,56.09-65,86.05-95.71,19.14-19.62,38.54-38.92,56.72-59.46C1129.65,257.83,1135.34,249.21,1145.75,255.41Z"/><path class="pwsh-23" d="M887.59,584.41c6.85-18.49,23.41-29.54,35.47-43.67,54.21-63.51,110.19-125.52,166.25-187.42,11.67-12.88,26.37-23,39.68-34.4-3.41,24.55-6.64,49.13-17.12,72-32.56,17.67-51.86,49.11-76,75.12C994,511.1,956.05,559.83,911.44,602.47c-1.46,1.4-2.17,3.58-3.23,5.4C897.05,603.81,890.55,595.68,887.59,584.41Z"/><path class="pwsh-24" d="M731.07,276.51c-11.24-5.44-19.29-14.29-26.14-24.42-2.53-6.22,2.81-8.64,5.88-12.13,47.85-54.35,94.92-109.47,144.71-162,19.54-20.61,36.82-44.31,61.67-59.71h16.94c6.58,1.17,15.34-3.49,19.37,4,4.37,8.11-4.58,12.23-8.61,17.42C918.19,74,886.72,104,857.25,135.77,814.44,182,773.06,229.53,731.07,276.51Z"/><path class="pwsh-25" d="M807.1,580.75c-.65-6.83,2.23-11.94,6.88-16.9,38-40.52,76.27-80.74,113.41-122,51.17-56.85,99.49-116.41,152.86-171.06,25.83-26.44,47.93-57,78.37-78.91a66,66,0,0,1-8.46,33.88c-31.36,40.83-70.81,74.15-104.4,113-50.08,57.93-100.21,116-153.12,171.3-23.66,24.76-45.29,51.51-70.78,74.57C816.27,585.88,811,586.07,807.1,580.75Z"/><path class="pwsh-2" d="M1006.12,18.26c-7.72,27.24-31.76,42.33-48.78,62.06-25.9,30-52.85,59.42-80.87,87.81C834.25,210.9,796,257.54,756,302.54l-12.62-12.62c6.64-22,26.35-34.13,40.33-49.89,38.06-42.91,75.17-86.8,116.39-127,26-25.33,49.09-53.63,73-81C982.11,21.64,992.26,16,1006.12,18.26Z"/><path class="pwsh-25" d="M824,580.75c15.52-21.56,32.1-41.72,51.92-60,27.65-25.59,51.7-55.12,76.8-83.4,27.42-30.9,53.87-62.67,81.49-93.37,32.37-36,65.41-71.36,98.55-106.63,4.63-4.93,11.52-7.74,17.37-11.54q-2.21,14.82-4.4,29.65c-11.32.71-16.65,10.08-23,17-71.19,77.82-143.16,155-212.34,234.54-21.52,24.76-49.25,44.14-65.19,73.76Q834.62,591,824,580.75Z"/><path class="pwsh-23" d="M845.2,670.45c-8.86,28.68-35.76,43.27-52,66.26-6.31,8.94-15.81,15.64-19.82,26.44l-21.34.28-16.78-.23c-3.49-9.8,3.24-16.14,8.51-22.24,21.89-25.35,42-52.36,67.37-74.58C822.86,664.72,834.76,661.57,845.2,670.45Z"/><path class="pwsh-26" d="M608.7,291.71l16.73,17.65c4.69,8.85-1.33,14.52-6.16,20.48-28.26,34.88-59.44,67.2-88.9,101C520.71,442,511,453.06,501.53,464.3c-10.56,10.87-22.65,20.34-30.64,33.57-3.92,5.32-7.49,11-13.26,14.59-10.29,4.65-17.89,12.24-23.65,21.83a39.43,39.43,0,0,1-3.39,4.62c-11.16,14.32-29.33,23.14-33.43,42.94-17.05,14.78-38.67,26.57-35.61,54.49-32.13,28.11-57.4,62.56-86.05,93.88-10.34,11.32-20.18,23-31.62,33.32H227c-11.88-.49-24.66,2.65-33.88-8.47,13.81-29.71,41.15-47.68,62.12-71.14,52.57-58.8,105.42-117.36,156.92-177.11,24.86-28.83,53.51-54,78.39-83C526.26,382.2,563.73,342,599.56,300.32,602.31,297.12,604.65,293.52,608.7,291.71Z"/><path class="pwsh-19" d="M747.7,467.09c2.74,18.73-13.55,26.82-23.16,37.12-19.95,21.37-36.43,46.07-60.27,63.95-4.91,3.69-10.09,10-9.5,18,1.56,9.17-5.38,12.38-11.34,16.3-29.53,24.88-52.06,56.29-78.36,84.18-24,25.43-44.85,53.74-71.31,76.85l-55.06,0c-5.32-7.11-.31-12,4.14-16.26,51.45-49.85,95.4-106.52,144.37-158.62A61.58,61.58,0,0,0,600,567.05c12.69-19.65,33.11-30.38,51.87-42.16C677,509.16,701.09,492.33,725,475,731.51,470.23,738.05,463.65,747.7,467.09Z"/><path class="pwsh-20" d="M603.74,568.41c-5.83,26.61-29.63,40-45,59.31-29.61,37.13-62.84,71.35-93.66,107.56-8.39,9.87-25,12-26.34,28.22l-46.59,0c-5.83-8.13,1.13-12.89,5-18.3,16.91-23.65,38.88-42.61,59-63.31,6.35-6.54,13.64-12.47,14.52-22.54,8-14.25,22.7-20.66,35-29.84,24.32-18.14,49.29-35.39,73.95-53.06C586.47,571.53,593,562.81,603.74,568.41Z"/><path class="pwsh-27" d="M603.74,568.41c-40.73,22.2-75.65,52.83-113.82,78.75-6.14,4.17-14.17,6.85-17.55,14.62C452,686.25,426.33,696,404.7,687.6c-10.8-2.38-20.13-6.93-25.53-17.28,35.07,17.59,60.43-5.13,85.55-22.56,62.91-43.67,123.78-90.31,187.18-133.22,42.41-28.7,83.52-59.17,125.82-87.95,21.73-14.79,33.25-33.75,28.78-60.65,7.13,2.09,7.13,2.09,13.26,24.95-7.26,29.31-30,44.91-52.91,60.7-6.68,4.62-15.23,7.33-19.15,15.5C700.33,501.73,647.49,528.61,603.74,568.41Z"/><path class="pwsh-16" d="M493.76,763.46c4.94-19,22.67-27.86,34.12-41.59,34.48-41.31,70.86-81,106.72-121.2,1.52-1.7,5.23-1.44,7.91-2.1,1.37,16.42,1.31,33,5.12,49.16-33.43,29.23-60,64.87-90,97.26-5.72,6.17-10.8,13-17.27,18.43Z"/><path class="pwsh-24" d="M243.88,763.54c2.76-16.76,18.27-24.27,27.53-36.07,23.25-29.64,49.46-57,74.7-85,3.88-4.31,7.5-11.23,15.44-6.1q5,14.35,9.95,28.72c-10.39,23.06-32.7,36.49-46.21,57.08-3,4.62-9.16,7.4-11.61,12.18C298.49,763.88,272.68,767.06,243.88,763.54Z"/><path class="pwsh-28" d="M540.34,763.42C551.73,734.51,578.73,718,596,693.6c8.37-11.84,20.92-20.43,28.9-33.11,4.51-7.17,11.29-12.65,21-11.22,10.94-2.55,16.57,5.3,23,11.7a14.55,14.55,0,0,1,1.14,5.94c-23.33,35.89-53.19,66.16-83,96.47Z"/><path class="pwsh-18" d="M587,763.38c18.49-32.22,47.88-55.42,70-84.67,3.33-4.4,7-8.55,10.51-12.81a15.36,15.36,0,0,1,12.46-3.26c9.22,3.1,19.46.83,28.44,5.29,9.44,12.75-.49,21.18-7.74,28.75-21.79,22.77-43.62,45.55-67.11,66.63Z"/><path class="pwsh-29" d="M633.51,763.31c12.94-26.7,38.81-41.72,57.41-63.32,7.76-9,17.53-16.47,18.77-29.53,13.27-9.82,27.9-5.56,42.25-4.12,13.67,8.82,6.79,18-.34,26.1-20.92,23.68-41.7,47.49-63,70.81Z"/><path class="pwsh-30" d="M688.57,763.25c9.9-29.12,37-44.67,54-68.27,5.58-7.75,15.44-12.78,13.72-24.52q25.41-13.66,50.81,0c-8.57,18.42-22.93,32.44-36.56,46.83-13.4,14.14-26.19,28.55-35.26,45.93Z"/><path class="pwsh-21" d="M404.7,687.6c27.53,4.43,45.28-16.78,67.67-25.81,8.77,8.94-1.79,12.1-5.58,16.15-22.29,23.82-47.32,45-67,71.37-3.33,4.46-7.83,8-7.7,14.22-9,0-18.11.42-27.12-.13-5.84-.36-14.2,3.47-16.9-3.64s3.81-12.58,8.41-17.76Q380.62,714.82,404.7,687.6Z"/><path class="pwsh-31" d="M345.55,39.52A31,31,0,0,0,358.4,26.81c35.62-16.16,73.24-5.75,109.89-8.22,6.28,11.65-2,18.81-9,25C422.35,76.17,392.84,115.5,360,151.78c-11.74,13-24.6,24.92-35.27,38.93-4.12,5.41-9.65,10.94-17.75,5.32C317.62,143.31,325.75,90,345.55,39.52Z"/><path class="pwsh-32" d="M307,196c22.64-10.1,33.49-32.42,49.78-49,34.16-34.72,61.55-75.82,99.77-106.85a32.36,32.36,0,0,0,11.75-21.62l42.29-.07c3.46,10.91-4.76,16.76-10.39,23.63-16.54,20.15-35,38.48-53.21,57.11-45.78,46.84-86.68,98.13-131.8,145.59-5.53,5.81-10.08,14.39-20.66,9.83-.36-.16-.57-1.09-.54-1.64a8.06,8.06,0,0,1,.63-2C296.39,232.17,299.33,213.57,307,196Z"/><path class="pwsh-33" d="M294.61,251c21.56-5.52,31.34-25,44.58-39.53,40.1-44,77.5-90.37,120.43-131.8,19.17-18.49,36.78-38.45,51-61.18L531.81,18l4.24.54c6.43,11.57-2.45,18.53-8.5,25.58C480.46,98.92,428.62,149.38,381,203.74c-24,27.47-47.45,55.53-73.07,81.59-4.42,4.5-8.6,9.66-14.7,11.77-7.81,2.7-10.74-.05-7.12-8C285.85,275.69,287.63,262.78,294.61,251Z"/><path class="pwsh-34" d="M286.13,289.06c3.1,12.83,7.92,2.84,10.41.2Q329,254.93,360.89,220c31-34,59.49-70.09,93.27-101.78,27.44-25.75,50.92-55.77,75.69-84.29,3.43-3.94,4.2-10.19,6.2-15.37l21.12,0c1.8,19.85-14.51,29.79-25,41.57C471.48,128.24,407.55,193.49,348,262.67c-15.15,17.58-31.33,34.22-46.08,52.14-6.16,7.5-12.22,16-24.26,12.56l4.2-29.67Q284,293.38,286.13,289.06Z"/><path class="pwsh-35" d="M492.42,166.51q11.46,12.48,22.93,25-66.19,64.54-127.18,134C348.39,370.84,308.44,416,267.82,460.58c-6.9,7.58-14.06,19.16-27.92,10.76,8.3-23.63,8-49.76,20.89-72,11.2-.5,17.22-8.91,23.46-16.24,48.64-57.12,99.81-112,149.08-168.59,13.22-15.18,29.89-27.35,42.85-43.14C479.87,166.82,485.12,161.62,492.42,166.51Z"/><path class="pwsh-36" d="M492.42,166.51c-23.94,13.69-40.23,36.07-58.7,55.25C391.14,266,351.9,313.42,311.24,359.51c-12,13.62-24,27.29-36.48,40.47-4.06,4.28-10.09,13.8-14-.69,1.42-19,6.42-37.17,12.68-55.06,22.76-15.09,37.82-37.84,55.47-57.73,37.89-42.67,76-85.15,113.85-127.88,10.65-12,21.53-28.1,42.1-26C485.09,144.41,486,156.07,492.42,166.51Z"/><path class="pwsh-37" d="M484.89,132.59a138.62,138.62,0,0,0-42.68,32.91c-26.81,30.47-52.51,61.94-80,91.81-21.83,23.74-43,48-64.08,72.34-6.12,7-11.29,18.65-24.69,14.59.61-5.82-1.74-12.36,4.15-16.87,24-12.25,36.72-35.93,54.58-54.35,43.82-45.17,82.63-94.79,127-139.74,35.15-35.62,71-71.7,98-114.79h17c5.36,6.85.39,11.88-3.61,16.24-9.82,10.7-17,23.8-28.37,32.91-10.48,8.42-8.69,16.51-2.22,25.68C511.18,91.8,493,105.09,484.89,132.59Z"/><path class="pwsh-38" d="M239.9,471.34c19.89-.56,28-17.65,38.84-29.49C320.28,396.3,361.59,350.46,401,303.06c29.25-35.19,65.38-63.79,92.86-100.47,5.27-7,12.07-11.82,21.51-11.11l-.13,0c5.18,9.06-2,14.24-6.39,20.27-26.65,36.39-61.57,65.17-91,99C366.23,370.09,313,428,261.52,487.43a88.76,88.76,0,0,1-7.09,7.79c-13.3,12.19-17.49,10.94-23.05-6.83Z"/><path class="pwsh-39" d="M231.38,488.39c5.33,10.74,10.5,14.35,20.32,3,48.92-56.56,98-113,147.88-168.71C427,292,456.09,262.9,484.33,233c11.91-12.62,23.92-25.22,30.89-41.55l8.35,8.39c5.74,10.19-2.88,15.3-7.74,21.67-29.47,38.61-66.3,70.44-98.35,106.69q-74.66,84.45-149.3,168.91c-6.06,6.85-11.62,14.17-19.06,19.6-10.47,7.63-18,5.5-22-7.17l4-8.54Q231.24,494.69,231.38,488.39Z"/><path class="pwsh-40" d="M561.88,241.75l25.21,25.83c5.44,9.09-1.57,14.38-6.38,20.11-38,45.23-76.27,90.45-117.53,132.52-71.94,73.37-136.7,153-206.53,228.13-16.18,17.4-33.89,33.51-50,51.09-5.55,6-12.71,12.16-22,4.82,3.15-24.58,9.84-48.34,17-72,66.78-65.81,126.64-137.95,189.17-207.62,51.7-57.59,107.59-111.36,156.13-171.8C550.84,247.93,555.16,243.11,561.88,241.75Z"/><path class="pwsh-41" d="M184.64,704.25c6.72.56,12.36-1.38,17.07-6.48C242.15,654,283,610.64,323.06,566.59c28.82-31.67,55.88-65,85.15-96.19,59-62.94,117.53-126.26,173.91-191.54,2.57-3,3.35-7.49,5-11.28,9.78,5.74,15.36,15.24,21.62,24.13-3.16,17.22-17.49,27.32-27.94,38.6-52.09,56.23-101.54,114.81-155,169.91-51.25,52.85-97.17,110.84-146.47,165.63-27.66,30.72-57.43,59.55-86.24,89.23l-8.46-4.24C178.15,735.31,178.11,719.78,184.64,704.25Z"/><path class="pwsh-42" d="M561.88,241.75c-38,45-76,89.67-118.15,131.16C405.32,410.73,372.44,454.1,336,494c-40.73,44.7-78.79,91.89-123.16,133.23a16.67,16.67,0,0,1-11.28,5l4.14-21.17a139.56,139.56,0,0,1,12.76-50.79c20-9.16,31.92-27.5,45.75-43,51-57.07,102.22-114,152.55-171.75,26.79-30.72,57.68-57.58,84-88.9,11.66-13.9,21.2-29.85,35.92-41.12C546.85,222.6,554.34,232.2,561.88,241.75Z"/><path class="pwsh-41" d="M676.73,221.53l-5.14-5.36c-3.48-3.08-8.26-4.14-11.62-7.4l-6.11-6.89c-2.49-6.46,1.37-10.9,5.26-14.89C712,132.66,760,74,811.32,18.29l33.87-.06,16.94.05c3.39,8-1.46,13.68-6,18.74C801.32,97.86,747.73,159.77,692.58,220.29a14.75,14.75,0,0,1-7.27,4A11,11,0,0,1,676.73,221.53Z"/><path class="pwsh-40" d="M811.32,18.29c-9.55,28.48-34.42,45.27-52.86,66.52-32.46,37.41-64,75.84-100.11,110-2,1.86-3,4.67-4.48,7l-29.13-30a7.26,7.26,0,0,1-1.07-5.71c46.41-48.51,91.75-98,136.82-147.8Z"/><path class="pwsh-42" d="M760.49,18.33c-2.5,14.09-14.06,22.55-22.44,32.05C704,89.06,668.24,126.29,632.92,163.88c-1.64,1.75-5.14,1.75-7.78,2.57-8.24-3.93-12.86-12.3-20.61-16.82a13.37,13.37,0,0,1-.92-3.9c-2.27-12.27,6.86-19.08,13.43-26.71,9.08-10.55,18.19-21.36,28.11-30.87,23.61-22.62,44.09-48.27,68.74-69.8l25.43-.18Z"/><path class="pwsh-43" d="M713.89,18.35c-11.34,20.27-28,35.92-44.31,52-23.79,23.48-47.12,47.49-66,75.35l-26-24.27c-2.17-5.38.46-9.65,3.61-13.43,25.92-31.12,51.38-62.66,81.85-89.63Z"/><path class="pwsh-35" d="M663.06,18.4c-12.58,24-34.27,40.39-51.09,60.86-11.51,14-24.24,27-34.37,42.2l-21-21.54c-3.66-9.67,3.32-15.49,8.11-22,15.62-21.25,35.14-39.11,51.76-59.49l16.93-.34Z"/><path class="pwsh-36" d="M616.51,18.42c-6.44,27-33.36,38.38-46.46,60.53-4.16,7-9.9,13.33-13.41,21L540,93.31c-20.68-7.56-20.92-8.82-5.3-25,14.82-15.32,29.8-30.51,39.51-49.88Z"/><path class="pwsh-44" d="M536.69,215.56c-2.84,15.62-15.44,25-24.81,35.74-25.49,29.08-53.58,55.86-79.39,84.66C381,393.46,330.3,451.69,279.29,509.64c-13,14.77-28.12,27.49-40.35,43.17-3.2,4.11-9.9,15.78-20.45,7.49-2-17.75,7.5-33.55,8.62-50.77,8,11.88,15.59,8.52,23.53-.39,26.58-29.81,53.55-59.29,80-89.23,26.87-30.42,53.06-61.44,80-91.85,34.71-39.23,73.67-74.54,106.79-115.27,3.21-3.94,6.09-7.7,6.2-13C530.28,203.12,534.32,208.64,536.69,215.56Z"/><path class="pwsh-45" d="M684.21,221.55Q757.92,138.5,831.61,55.4c10.62-12,24.71-21.17,30.52-37.12l55.06,0C897.08,47,869.58,68.92,846.65,95.08Q785.17,165.24,723.23,235c-5.51,6.21-12.17,11.41-18.3,17.07l-8.19-8.26C695.21,234.92,683,232,684.21,221.55Z"/><path class="pwsh-46" d="M498,462.89c28.56-39.68,64-73.39,95.61-110.45,11.61-13.62,25.51-25.55,31.85-43.08l16.8,17.44c2.79,10.54-6.12,14.88-11.41,20.86-54.14,61.12-109,121.63-162.32,183.47-18.83,14.28-38.06,27.93-59.3,38.48-1.56-16.76,15.1-22.49,21-34.73a105,105,0,0,1,25.41-25.41l12.7-12.71C476.51,484,489.94,475.81,498,462.89Z"/><path class="pwsh-47" d="M468.5,531.13c6.84-26.91,30.42-41.56,46.71-61.06,39.57-47.36,82.32-92.07,123.73-137.89,1.39-1.53,2.21-3.57,3.29-5.38,7.28,1.87,6.71,10.71,12.41,14,5.73,10.52-3.61,15.16-8.59,21.15-26.6,32-55.71,61.76-81.85,94.12-3.94,4.88-8.8,9.22-10.58,15.59C527.5,494.69,497.71,512.49,468.5,531.13Z"/><path class="pwsh-1" d="M553.62,471.63c1.22-15.91,12.17-26.34,21.73-37.24,24.84-28.29,50.25-56.08,75.22-84.26,2.14-2.42,2.75-6.2,4.07-9.36,16.49,7.28,26.72,20.94,36.38,34.62Z"/><path class="pwsh-48" d="M430.21,534.88c-2.78,14.13-16.59,21.59-21,34.73-3.63,4.46-5.61,10.54-12,12.24-9-8-.72-14.14,3.45-18.79C409.68,553,420.25,544.19,430.21,534.88Z"/><path class="pwsh-49" d="M684.21,221.55c3.14,8,13.89,11.74,12.53,22.28-7-7.12-15.87-12.6-20-22.29Z"/><path class="pwsh-50" d="M604.53,149.63c10.48,1.18,15.15,9.48,20.61,16.82-.13,1.79-.26,3.59-.4,5.39C617.78,164.65,608.78,159.3,604.53,149.63Z"/><path class="pwsh-51" d="M660,208.77c5.43,0,11-.15,11.62,7.4C665.52,217.15,661.47,215,660,208.77Z"/><path class="pwsh-14" d="M667.34,662.1l-21.42-12.83c-9.51-16.33-12-33.15-3.41-50.7q6.13-6.23,12.26-12.44c17.59-9.13,36.77-2.13,54.93-5.38H845.21c14.06,2,28.58-1.34,42.38,3.66,8.17,6.68,15.4,14.18,20.62,23.46a3,3,0,0,0,.78,3.29c5.36,21.77.15,39.23-20.58,50.37-3.72,2-7.32,4.32-11.71,4.28-67.81-.58-135.65,2.86-203.43-1.89A18.87,18.87,0,0,1,667.34,662.1Z"/><path class="pwsh-52" d="M667.34,662.1c64.36-.06,128.73-.21,193.1-.1,10.57,0,20.89-.63,30.79-4.61,4.41-1.5,5.45.58,4.78,4.49l-8.44,4.32c-23.61,4.53-47.47,1.95-71.16,1.76-45.49-.36-91,2.65-136.48-1.59l-12.47-.47C667.41,664.63,667.37,663.36,667.34,662.1Z"/><path class="pwsh-53" d="M679.93,666.37l207.64-.17c-13.41,8.56-28.31,2.23-42.37,4.25H709.69C699.81,668.76,689,674.06,679.93,666.37Z"/><path class="pwsh-54" d="M896,661.88l-4.78-4.49c14.38-12.16,19.37-27.92,17.76-46.23C917.54,631.36,915.13,648.76,896,661.88Z"/><path class="pwsh-48" d="M498,462.89c-4.48,16-18.14,24-29.65,33.87C472.79,480.74,486.46,472.75,498,462.89Z"/><path class="pwsh-48" d="M455.62,509.47a91.48,91.48,0,0,1-25.41,25.41Q435.54,514.8,455.62,509.47Z"/></svg>