<svg id="Layer_1" data-name="Layer 1" xmlns="http://www.w3.org/2000/svg" viewBox="0 0 1366 768"><defs><style>.prometheus-1{fill:#f6bfb2;}.prometheus-2{fill:#e85f3b;}.prometheus-3{fill:#fceae5;}.prometheus-4{fill:#fceeea;}.prometheus-5{fill:#f7cdc2;}.prometheus-6{fill:#ec7d60;}.prometheus-7{fill:#ec7c60;}.prometheus-8{fill:#f7c6ba;}.prometheus-9{fill:#f2a38e;}.prometheus-10{fill:#fdeeeb;}.prometheus-11{fill:#f19e8a;}.prometheus-12{fill:#fbe8e3;}.prometheus-13{fill:#e6522c;}.prometheus-14{fill:#fff;}.prometheus-15{fill:#f2a895;}.prometheus-16{fill:#f7d2c8;}.prometheus-17{fill:#f0a795;}.prometheus-18{fill:#ea7152;}</style></defs><title>prometheus</title><path class="prometheus-1" d="M241,403c-.85-.89-.49-2-.66-3.07-1-2.18.29-4.61-.74-6.79V375c1-2.19-.2-4.61.69-6.82.27-1.26-.25-2.66.71-3.79,2.11,2.5,1.51,5.56,1.19,8.26-1,8.38-.25,16.7.07,25C242.27,399.49,242.55,401.47,241,403Z"/><path class="prometheus-2" d="M631.81,768H617.48a.84.84,0,0,1,.33-1.18,29,29,0,0,1,13.67,0A.84.84,0,0,1,631.81,768Z"/><path class="prometheus-3" d="M240.24,368.16c-.14,2.29.55,4.65-.69,6.82v-6.79Z"/><path class="prometheus-4" d="M239.55,393.09c1.26,2.15.53,4.52.74,6.79h-.74Z"/><path class="prometheus-5" d="M609.18,768h-4.53a.75.75,0,0,1,.18-1.08,4.16,4.16,0,0,1,4.18,0A.76.76,0,0,1,609.18,768Z"/><path class="prometheus-6" d="M617.44,767.28c0,.24,0,.48,0,.72H613a.79.79,0,0,1,.24-1.12C614.68,766.19,616.12,766,617.44,767.28Z"/><path class="prometheus-7" d="M631.81,768l0-.73c1.32-1.23,2.76-1.08,4.26-.39a.79.79,0,0,1,.24,1.12Z"/><path class="prometheus-8" d="M643.88,768h-4.53a.75.75,0,0,1,.18-1.08,4.16,4.16,0,0,1,4.18,0A.76.76,0,0,1,643.88,768Z"/><path class="prometheus-9" d="M612.88,767.35c0,.21,0,.43.07.65h-3.77l-.06-.61A2.39,2.39,0,0,1,612.88,767.35Z"/><path class="prometheus-10" d="M604.64,767.31c0,.23,0,.46,0,.69h-3v-.81A2,2,0,0,1,604.64,767.31Z"/><path class="prometheus-11" d="M639.41,767.38c0,.21,0,.41-.06.62h-3c0-.23,0-.46,0-.69A1.93,1.93,0,0,1,639.41,767.38Z"/><path class="prometheus-12" d="M643.88,768c0-.23,0-.47,0-.7a2,2,0,0,1,3-.09c0,.26,0,.53,0,.79Z"/><path class="prometheus-13" d="M646.89,767.21a7.17,7.17,0,0,0-3,.09l-4.49.08-3-.07-4.54,0h-14.4l-4.56.07-3.76,0-4.48-.08a7,7,0,0,0-3-.12c-4.44-1-9-.86-13.49-1.29a384.38,384.38,0,0,1-335-284.21,367.17,367.17,0,0,1-10.74-60c-.59-6.25-1.1-12.5-1.45-18.77a17,17,0,0,0,.14-2.24,310.32,310.32,0,0,1,0-34.1,18.58,18.58,0,0,0-.14-2.24c3.76-70.63,25-135.55,64.44-194.26Q367.87,77.2,470.47,31.85A374.23,374.23,0,0,1,557.08,5.57,369.21,369.21,0,0,1,611,0a400.78,400.78,0,0,1,45.59,1A383.42,383.42,0,0,1,1007.66,359.7a384.47,384.47,0,0,1-.35,53.88c-3.43,43.31-13.59,85-31.36,124.69Q922.64,657.42,808.41,720.71a374,374,0,0,1-116.67,41,335.82,335.82,0,0,1-40.38,4.86C649.86,766.71,648.38,767,646.89,767.21Z"/><path class="prometheus-14" d="M720.21,106.59a90.58,90.58,0,0,0-5.16,35.18c.88,16.34,4.9,32,10.78,47.17,4.87,12.6,11.66,24.19,18.17,35.95,9.64,17.41,17.85,35.42,22.38,54.93a197.74,197.74,0,0,1,5,36.15,229.73,229.73,0,0,1,.2,24.48c-1.83,29.56-11.8,56.07-29.25,79.87-.89,1.22-1.84,2.4-2.76,3.59l-3,3.87c21.3-3.71,41.61-8.92,62.18-12.79s41.34-8,62-12c.71,1.18.13,2.09-.15,3-5.93,19.08-14.77,36.79-25.49,53.6a255,255,0,0,1-29.44,37.67,6.51,6.51,0,0,1-5.22,2.22q-176.13-.06-352.24,0c-1.95,0-3.53-.21-4.94-1.92-15.59-19-30.39-38.45-41.74-60.34a241.89,241.89,0,0,1-13.52-32.28,1.69,1.69,0,0,1-.08-1.66,140.42,140.42,0,0,1,16,3q41.94,9.07,83.86,18.26c4.17.91,8.37,1.66,12.57,2.43a5.68,5.68,0,0,0,3,0,9.62,9.62,0,0,0-2.15-3.21,152.22,152.22,0,0,1-31.33-68.1,143.47,143.47,0,0,1-1.39-39.8c2.35-24.47,9.83-47.62,18.1-70.58,6-16.53,12.43-32.88,17.33-49.78,3.2-11,5.62-22.17,6.11-33.65a71.55,71.55,0,0,0-3.14-24.92c-.38-1.19-.74-2.39-1.1-3.54.86-.85,1.7-.4,2.52-.18A25.72,25.72,0,0,1,519,139.4a62,62,0,0,1,12.63,17.25c6.63,12.69,10.63,26.27,13.44,40.23a240.81,240.81,0,0,1,4.65,41.9c0,.71.07,1.42.12,2.45,1.69-.79,2.16-2.14,2.85-3.23,7.45-11.63,12.51-24.32,16.52-37.46a278.78,278.78,0,0,0,10.7-55.37c.81-8.64,1-17.3,1.39-26a101.47,101.47,0,0,1,22.11-59.76,44.77,44.77,0,0,1,14.25-12.13c3.62-1.9,6.06-2.58,9.26-2.57.26.52,0,.94-.28,1.35-6.9,12-7.78,24.71-5,37.94,2.64,12.47,7.42,24.22,12.11,36,7.65,19.25,15.36,38.47,21.76,58.19a155.41,155.41,0,0,1,6.4,31.31c1.74,16.11,3.07,32.26,4.74,48.38a151.23,151.23,0,0,0,3,19.73,2.71,2.71,0,0,1,.64,1.26c-.49.11.29-.11,0,.32-.16.28,0,.29,0-.09.2-1,.32-2.06.61-3.06,1.47-33.52,4.93-66.79,12.91-99.46,3.79-15.52,8.68-30.65,16-44.89,5-9.76,11-18.86,19.45-26.08C720.1,105.47,720.42,105.77,720.21,106.59Z"/><path class="prometheus-14" d="M624.64,598.42H448.55c-5.25,0-4.54.47-4.55-4.69q0-27.9,0-55.81v-1.51c.05-3.25.05-3.25,3.35-3.3h352.2c6.1,0,5.3-.77,5.31,5.48,0,18.23,0,36.45,0,54.68,0,.75,0,1.51,0,2.26-.07,2.81-.08,2.85-3,2.87-4.65,0-9.3,0-14,0Z"/><path class="prometheus-14" d="M624.53,628.36H728.61a21,21,0,0,0,2.63,0c2.11-.25,2.51.81,2.44,2.65A76,76,0,0,1,724,665.48c-10.36,18.53-25.77,31.61-44.73,40.66-21.49,10.25-44.18,13.78-67.84,11.46-21.82-2.14-41.87-9.16-59.61-22.17-16.82-12.34-28.85-28.17-34.24-48.62a84.74,84.74,0,0,1-2.32-16.39c-.09-1.42.32-2.15,1.84-2.07,1,0,2,0,3,0Z"/><path class="prometheus-15" d="M670.91,276.09a22.32,22.32,0,0,1,0,5.78c-1-1-1.46-1.73-1.28-2.76.43-.38.14-1.1.69-1.42A2.61,2.61,0,0,1,670.91,276.09Z"/><path class="prometheus-16" d="M720.21,106.59l-.92-.93.68-.82a.72.72,0,0,1,1,.09A2.11,2.11,0,0,1,720.21,106.59Z"/><path class="prometheus-17" d="M721,104.93l-1-.09c.26-.49.64-.81,1.18-.51C721.4,104.46,721.29,104.77,721,104.93Z"/><path class="prometheus-18" d="M670.31,277.69a1.3,1.3,0,0,1-.69,1.42l0-1.45Z"/></svg>