<svg id="Layer_1" data-name="Layer 1" xmlns="http://www.w3.org/2000/svg" viewBox="0 0 1366 768"><title>vault</title><path d="M502.19,637.67h25.23L489.09,766h-36L414.89,637.67h25.23l31.06,107Z"/><path d="M597.55,766H578.29l-1.71-6.38a51.41,51.41,0,0,1-28,8.28c-17.13,0-24.48-11.76-24.48-27.92,0-19.07,8.28-26.42,27.35-26.42h22.4v-9.82c0-10.41-2.88-14.07-17.92-14.07a130.31,130.31,0,0,0-26.12,2.91L527,674.69a121.11,121.11,0,0,1,32.18-4.44c29.48,0,38.14,10.41,38.14,33.92ZM574,730.56H556.72c-7.73,0-9.82,2.13-9.82,9.26,0,6.53,2.09,9.44,9.45,9.44A37,37,0,0,0,574,744.45Z"/><path d="M634.58,672.15V737.8c0,5,2.09,7.47,7.46,7.47a64.89,64.89,0,0,0,24.49-7.92v-65.2H690V766H672.09l-2.32-7.91a93.81,93.81,0,0,1-37.5,9.81c-15.64,0-21.2-11-21.2-27.73v-68Z"/><path d="M702.58,766V633.82l23.52-3.28V766Z"/><path d="M796.23,764.27A65.1,65.1,0,0,1,775.59,768c-17.13,0-25.79-8.06-25.79-24.86V690.89H735.73V672.23H749.8V648.94l23.51-3.29v26.58h24.08l-1.53,18.66h-22.4V740a7.6,7.6,0,0,0,.37,3.38,7.44,7.44,0,0,0,1.82,2.86,7.53,7.53,0,0,0,2.9,1.76,7.63,7.63,0,0,0,3.39.29,45.55,45.55,0,0,0,11.75-1.94Z"/><path d="M439.9,606.2v-18H423.44v18H415V562.94h8.44v18.11H439.9V562.91h8.43v43.26Zm39.26,0h-6.68l-.6-2.12a18.13,18.13,0,0,1-9.66,2.76c-5.94,0-8.48-3.74-8.48-9.3,0-6.34,2.88-8.77,9.48-8.77H471v-3.28c0-3.44-1-4.67-6.19-4.67a45.63,45.63,0,0,0-9,1l-1-6a44.5,44.5,0,0,1,11.2-1.49c10.22,0,13.21,3.47,13.21,11.2ZM471,594.41h-6c-2.65,0-3.39.71-3.39,3.1s.74,3.13,3.25,3.13A13.34,13.34,0,0,0,471,599Zm25.2,12.43a39,39,0,0,1-11.2-1.79l1.12-6a37,37,0,0,0,9.7,1.38c3.74,0,4.15-.78,4.15-3.17s-.41-2.87-5.68-4.1c-7.95-1.83-8.88-3.74-8.88-9.78s2.87-9.07,12.13-9.07a43.7,43.7,0,0,1,9.74,1.12l-.78,6.19a59.91,59.91,0,0,0-9-.89c-3.54,0-4.14.78-4.14,2.69,0,2.5.22,2.68,4.63,3.73,9.07,2.31,9.92,3.43,9.92,9.85S506,606.84,496.22,606.84Zm37.32-.64V584.41c0-1.68-.75-2.51-2.61-2.51a22.78,22.78,0,0,0-8.47,2.65V606.2h-8.18V562.38l8.18,1.24v13.69a29.64,29.64,0,0,1,11.86-3c5.42,0,7.47,3.73,7.47,9.26v22.62Zm14.93-35.64v-7.47h8.14v7.47Zm0,35.64V575h8.14v31.2Zm14.67-31c0-7.8,4.74-12.35,15.82-12.35A52.11,52.11,0,0,1,591,564.29l-.93,7a68.32,68.32,0,0,0-10.87-1.08c-5.82,0-7.68,1.9-7.68,6.45v16.42c0,4.56,1.86,6.46,7.68,6.46a68.32,68.32,0,0,0,10.87-1.08l.93,7A52.62,52.62,0,0,1,579,606.84c-11.19,0-15.82-4.56-15.82-12.36Zm45.91,31.62c-11.2,0-14.19-5.9-14.19-12.32v-7.88c0-6.41,3-12.31,14.19-12.31s14.14,5.9,14.14,12.31v7.88c0,6.42-3,12.32-14.11,12.32Zm0-25.83c-4.37,0-6,1.87-6,5.37v8.4c0,3.55,1.64,5.41,6,5.41s6-1.86,6-5.41v-8.4c0-3.5-1.46-5.33-6-5.33Zm37.06.52a63,63,0,0,0-8.59,4.56V606.2h-8.13V575h6.9l.52,3.43a37.79,37.79,0,0,1,8.55-4.1Zm32.58,14.3c0,6.9-3.21,11-10.75,11a46.09,46.09,0,0,1-8.69-.9v12.77l-8.14,1.23V575.15h6.49l.79,2.61a17.55,17.55,0,0,1,10.26-3.28c6.57,0,10,3.73,10,10.86Zm-19.44,3.5a37.08,37.08,0,0,0,7.2.86c2.95,0,4.11-1.34,4.11-4.18V585c0-2.57-1-4-4-4a11.65,11.65,0,0,0-7.46,2.84Z"/><path d="M371,.44,605.28,470.71,841.28.44ZM633.16,94.83h27.28V122H633.16Zm-54.27,109H551.61V176.61h27.28Zm0-41H551.61V135.7h27.28Zm0-41.06H551.61V94.49h27.28ZM620,244.42H592.7V217.51H620Zm0-41H592.7V176.12H620Zm0-41.06H592.7V135.7H620Zm0-41H592.7V94H620Zm13.4,13.62h27.28V163H633.16Zm.22,68.15V175.79h27.28V203Z"/></svg>