<svg id="Layer_1" data-name="Layer 1" xmlns="http://www.w3.org/2000/svg" viewBox="0 0 1366 768"><defs><style>.cls-1{fill:#0c395c;}.cls-2{fill:#fcfcfc;}.cls-3{fill:#54c2fe;}.cls-4{fill:#002d54;}.cls-5{fill:#002851;}.cls-6{fill:#002c4f;}.cls-7{fill:#002952;}.cls-8{fill:#003056;}.cls-9{fill:#012d4f;}.cls-10{fill:#053153;}.cls-11{fill:#043052;}.cls-12{fill:#003156;}</style></defs><title>boostroom</title><path class="cls-1" d="M946,767.41H548c-45.26-8.66-89.56-14-126.71-49.84-39.29-38-47.81-84-55.72-132.59V187c4.37-63.4,29-114.36,82.35-152.95C479.17,11.34,514.63,14.1,548,4.52H946c41.38,6.79,80.6,12.69,115.91,43.22C1106.3,86.15,1123,132.6,1128.41,187V585c-8.66,45.26-14,89.56-49.84,126.71C1040.61,751,994.56,759.5,946,767.41Z"/><path class="cls-2" d="M685.58,303.09c41.54,12.85,83.18,21.56,112.32,61.54,51.74,71,45.33,159.93-21.25,217.64-51,44.23-167.32,37.88-213.27-15.41-15.9-18.43-27.93-45.56-29.93-69.69a2093.73,2093.73,0,0,1-.68-342.62c29.47-4.41,60-16.9,85.12,11.42,0,106.38,2.67,212.76-1.38,319.11,13,35.74,40.75,45.9,75.48,42.63,27.67-2.61,46.32-18.86,53.63-44.61,8.29-29.17,1.55-54.33-20.91-78.2-14.78-15.71-31.78,2.37-43.53-10.53C676.24,363.64,668,332.74,685.58,303.09Z"/><path class="cls-3" d="M699.62,243.69l-19.34-6.94c-6.32-24.75-5.34-49.55-.52-74.38,25.89-13.25,51.12-1.67,74.94,5,128.85,35.88,202,124.08,230.88,252.13,9.94,66.22,9.63,132.46.21,198.71l1.62-1.94c-27.53,9.75-55,10.27-82.47-.26-.45-50.7-1.38-101.4-1.24-152.1C904,359,825.24,264.8,729.88,246.7,719.48,248.89,708.86,253.16,699.62,243.69Z"/><path class="cls-4" d="M523.45,154.06c-.4,53.74-1,107.48-1.15,161.22-.2,52.22,0,104.44-7.52,156.78,0-69.65-1.39-139.34.57-208.94,1-36.47-9.86-74.13,7.78-109.49Z"/><path class="cls-5" d="M616.51,485.08c-9.09-107.52-3.59-215.17-2.94-322.78q4.3-5.6,8.86-.22.08,141.6.06,283.19C622.47,458.74,625.08,472.81,616.51,485.08Z"/><path class="cls-6" d="M985.79,618.18l-.21-198.71c17.85,16.89,10.83,39,9.43,58.2C991.58,524.48,1007.75,572.68,985.79,618.18Z"/><path class="cls-7" d="M622.43,162.08l-8.86.22c-25.8-14.38-54.1-2.75-80.8-7.75l-9.32-.49-.33-.43C557.4,142.64,591.46,134.23,622.43,162.08Z"/><path class="cls-8" d="M685.58,303.09c-10.38,30-2.73,60.87-4.4,91.29C668.94,363.29,663.38,332.52,685.58,303.09Z"/><path class="cls-9" d="M904.94,616l82.46.26C959.86,632.07,932.37,632.53,904.94,616Z"/><path class="cls-10" d="M679.76,162.37q.27,37.19.52,74.38C667.81,212,668.41,187.24,679.76,162.37Z"/><path class="cls-11" d="M699.62,243.69l30.26,3a34.72,34.72,0,0,1-36.63,4.39C686.13,247.72,697,246.16,699.62,243.69Z"/><path class="cls-12" d="M842.41,441.6c4.88,14.87,5.42,23.75,1.06,33.84C836,465.72,838.57,456.39,842.41,441.6Z"/></svg>