<svg id="Layer_1" data-name="Layer 1" xmlns="http://www.w3.org/2000/svg" viewBox="0 0 1366 768"><defs><style>.cls-1{fill:#252525;}.cls-2{fill:#262626;}.cls-3{fill:#282828;}.cls-4{fill:#222;}.cls-5{fill:#232323;}.cls-6{fill:#212121;}</style></defs><title>hitch</title><path class="cls-1" d="M636.29,202.86c12.18,55.3,41.32,90.72,95.65,98.75,16.57,2.45,18.27,11.47,20.24,24.25,7.68,49.74,37.84,80.38,86,89.47C857.1,418.9,861.65,426,864.5,442.4c8.51,49.08,38,79,87.1,88.39,10.8,2.07,20.31,1,22.25,16.58,5.76,46.17,30.08,79.88,75.05,97C916.44,798.11,677.26,808.74,530.15,665.1c-125.44-122.48-245-251-367.72-376.29-12.78-13.05-15-20.25-1.29-35.46,80.44-89.25,176.27-93,259.14-8.51,59.53,60.72,114.43,60.59,174.12-.29C607.41,231.28,620.73,218.32,636.29,202.86Z"/><path class="cls-1" d="M853.82,363.24c-41-.89-69.84-50-42.67-81.38,58-67.05,121.93-129,183.43-193.08,7.17-7.46,13.93-6.39,20.38,1a22.65,22.65,0,0,0,2.88,2.83c69.58,55.36,69.59,55.36,8.35,118.28-42.26,43.42-84.66,86.71-126.75,130.29C886.81,354.27,873,364,853.82,363.24Z"/><path class="cls-1" d="M1263.61,380.7c-.39,34.83-12.19,59.52-32.94,80.61-35.92,36.5-71.18,73.66-107.42,109.83-28.7,28.64-58.11,30.73-81.32,7.34-21.74-21.92-20.76-56,4.81-82.87,52-54.66,106.88-106.77,157.11-163,27.47-30.77,38.37-15.06,49.75,10.17C1259.63,356.12,1265.61,370.12,1263.61,380.7Z"/><path class="cls-2" d="M898.35,4c3.62.58,11.75,1.06,19.4,3.24,47.49,13.57,52.67,31,19.43,65.14-49.69,51.1-99.32,102.26-149.48,152.89-27.54,27.8-58.74,30.34-81.28,8-23.29-23-22.93-54.3,3.49-82.38,38.7-41.12,78.48-81.24,118.4-121.19C846.12,11.94,868.44,3.37,898.35,4Z"/><path class="cls-2" d="M1069,239c5.88-1.65,11.34-1.22,15.66-8.76,15.74-27.5,35.46-30.84,57.2-5.65,4.07,11.11,10.89,19.47,22.73,22.85l9.58,10c8,19.64-9.66,29.85-16.15,44.17l-50.06,50.57c-8.08,1.87-12,7.76-14.65,15-27.85,30.17-55.54,60.5-83.61,90.46-23.71,25.29-51.19,30.86-77.55,6.62-25.83-23.76-24.85-53-2.12-78.49,25.68-28.73,54.14-55,81.38-82.31,11-5.21,23.6-6.27,34.22-12.64,35.93,1.28,25.44-15.36,12.65-32.88C1058.35,249.61,1064.08,244.54,1069,239Z"/><path class="cls-3" d="M1158,301.59c-14.13-21.86,17.38-27,16.15-44.17C1204.22,285.12,1167.77,288.47,1158,301.59Z"/><path class="cls-3" d="M1164.56,247.43c-27,11.74-29.21-1.25-22.73-22.85C1153.43,228.2,1160.3,236.52,1164.56,247.43Z"/><path class="cls-3" d="M1012.85,296.8l23.41-18.48c6.85,3.87,9.1,10,8.6,17.48-7.58,18.25-19.95,15.5-33.48,7.61A23.38,23.38,0,0,0,1012.85,296.8Z"/><path class="cls-3" d="M1093.28,367.13c-5.37-7.58-5.78-16.15.64-22.21,9-8.54,8,7.08,14,7.24C1106.81,360.84,1102.25,366.15,1093.28,367.13Z"/><path class="cls-4" d="M921.58,69.15c-1.59,8.33-7.94,14.5-18.31,14.5-7.44,0-11.87-5.12-10.85-13,1.36-10.6,8.18-16.54,18.48-16.57C918.28,54.07,922.53,59.08,921.58,69.15Z"/><path class="cls-5" d="M804.16,123.36c-8.16,4.21-10.72,17-21.84,14.94-7.73-1.4-9.82-8.24-6.83-15.52,3.47-8.47,6.72-19.72,17.54-18.11C797.52,105.34,800.41,116.66,804.16,123.36Z"/><path class="cls-4" d="M854.27,61.16c2.58,17.41-6.84,20.84-15.39,31.66C835.62,75.29,841.45,68.68,854.27,61.16Z"/><path class="cls-2" d="M1044.86,295.8c-7-3.78-8.06-10.51-8.6-17.48a40.56,40.56,0,0,1,.68-6.68c10.11-2,12.3-16.39,24.25-15.53,5.23,3.95,10.86,7.47,15.59,11.95,7.34,6.94,19.14,12.94,12,25.83-7.3,13.15-18.16,5.47-28.08,3.11C1055.6,295.79,1050.14,296.15,1044.86,295.8Z"/><path class="cls-4" d="M1060,365.88c-6.18,13.4-18.92,20.34-32.54,25.46-4.75,1.78-13.1-.81-11-7.14,5.21-15.76,18.77-24.51,33.61-29.81C1055.22,352.55,1058.88,358.83,1060,365.88Z"/><path class="cls-6" d="M971.2,444.84c-5.94,4.86-9.34,9.93-13.26,10.37-8.05.91-5.72-6.36-5.31-10.71.29-3.09,2.58-6,4-9Z"/><path class="cls-3" d="M1119.67,296.78c-2.35-5-4.84-8.2-5.31-11.7-.78-5.9,3-9.84,8.67-8.84,2.68.47,6.41,5,6.43,7.74S1125.5,289.52,1119.67,296.78Z"/></svg>