<svg id="Layer_1" data-name="Layer 1" xmlns="http://www.w3.org/2000/svg" viewBox="0 0 1366 768"><defs><style>.cls-1{fill:#ff1d25;}</style></defs><title>mop</title><path class="cls-1" d="M947.07,266.89c-.55-15.39-.8-30.85-5.52-45.81-9.64-30.6-30.86-52.13-55.78-70.33-50-36.49-101-71.52-155.29-101.29-35.79-19.62-70-44-113.24-45.46h-42.3c-27.21,1.92-51.35,12.67-74.76,25.73-16.77,9.36-33.81,18.25-50.3,28.09C393.93,91.21,338.6,125.71,288.8,167.91c-23.86,20.21-38.09,46.75-39.88,79.38-1,18.53.2,37.3-3.92,55.63V317c3.36.74,2.71,3.21,2.39,5.55l0,8.41,0,8.43h0v8.46h0c0,1.9.11,3.8.16,5.71l-1.15,2.61a4.56,4.56,0,0,1-1.38,3.13V412.9a4.58,4.58,0,0,1,1.38,3.14c.38.87.77,1.73,1.15,2.6h0c-.05,1.91-.11,3.81-.17,5.72h0c0,2.81,0,5.63,0,8.44h0l0,8.41h0c0,1.88-.06,3.76-.08,5.64,0,3,2.18,6.6-2.32,8.35v14.1c2.56,11.89,2.46,24,2.92,36,.6,15.39.82,30.84,5.53,45.81,9.63,30.61,30.9,52.11,55.79,70.31,50.34,36.77,101.8,72,156.51,102,34.61,19,67.74,42.22,109.19,44.79h42.3c29.38-1,54.91-13.38,80.1-27,7-3.79,13.75-8,20.74-11.86l187-124.16c24.58-20.16,39.12-47.12,41-80.29,1-18.54-.2-37.31,3.92-55.64V455.2c-2-1.93-1.21-4.46-1.41-6.77v-7.26c-.3,0-.61.06-.91.05l-.06-5.66a3,3,0,0,0,1,1.39v-5.64a2.93,2.93,0,0,1-1-1.37l0-5.63,1-2.48a4.61,4.61,0,0,1,1.38-3.29V353.68c-2.67-2.33-2.79-5.39-2.48-8.58h0c.06-1.89.11-3.78.16-5.67h0c0-2.81,0-5.61-.07-8.42h0c0-1.87,0-3.74,0-5.62v-5.62c-.36-2.34-1.06-4.82,2.35-5.57v-8.46C947.74,292.88,947.53,279.89,947.07,266.89ZM571.14,241c29.6-29.79,23.07-29.77,52.82.11,3.92,4,8.58,7.5,8.9,14.83-.13,5.88-5.29,9.62-9.52,13.9-28.83,29.2-23,29-51.82-.12C558.87,257,558.82,253.43,571.14,241ZM393.93,317.2c-16.47-1.94-30.14-11.78-29.25-21,1.63-17.07,11.79-31.2,21.6-30,16.33,1.94,29.94,11.77,29.12,21.05C413.9,304.25,403.81,318.37,393.93,317.2Zm400.13,33.94q-19.89,91.47-39.71,183c-3.73,17-10.1,21.22-26.82,17.57-13.28-2.9-26.52-6.13-39.55-10-13.67-4-21.71-12.41-19.43-28.08.85-5.86.14-11.94.14-21.46-17.27,14.49-31.5,26.64-46,38.52-29.2,24-21.38,23.89-51.06-.49-14.36-11.8-28.49-23.88-45.32-38,0,11-.4,18.77.1,26.49.63,9.85-3.94,16.13-12.39,20-17.23,7.95-35.74,11.78-54.25,14.31-13,1.77-17.08-8.79-19.41-19.66Q426,465.91,411.35,398.49q-5.21-24.08-10.57-48.12c-1.9-8.48-1.07-16.26,6.94-21.08,7.45-4.49,14.21-1.69,20.71,3.28,16,12.26,32.72,23.72,48.35,36.47,10.12,8.26,18.61,7.82,29.13.88,24.68-16.28,50.29-31.16,74.78-47.7,11.74-7.93,21-8.6,33.08-.35,24.8,16.92,50.84,32,76,48.46,10.07,6.59,18.3,6.88,28-.91,15.71-12.66,32.32-24.2,48.36-36.46,6.86-5.25,13.85-8.5,21.83-3.22S795.87,342.79,794.06,351.14Zm5.65-33.77c-8.58.31-20.26-17.88-20.27-31.57,0-8.25,17.17-19.38,30.65-19.86,8.41-.3,20.32,18.17,20.37,31.59C830.49,305.75,813.23,316.88,799.71,317.37Z"/><path class="cls-1" d="M246.41,324.12a12.64,12.64,0,0,1,0-1.51c-.46,0-.92,0-1.38.05v8.46a11.11,11.11,0,0,1,1.41-.08Z"/><path class="cls-1" d="M246.41,339.33V332.5c-.43.17-.9-.27-1.41-1.38v8.46c.47-.06.94-.07,1.41-.1Z"/><path class="cls-1" d="M246.41,331.71v.79c.34-.13.65-.62.94-1.52-.31,0-.63,0-.94.06Z"/><path class="cls-1" d="M948.59,331.76v7.73c.47,0,.94,0,1.41.09v-8.46c-.47,0-.94,0-1.41-.06Z"/><path class="cls-1" d="M246.41,346.89v-5.95c-.43.14-.9-.3-1.41-1.36V348c.47-.05.94-.07,1.41-.1Z"/><path class="cls-1" d="M246.41,340.94c.35-.12.67-.61,1-1.53-.32,0-.64,0-1,.07Z"/><path class="cls-1" d="M950,353.68v-8.46l-1.39-.07C948.87,348,947.65,351.14,950,353.68Z"/><path class="cls-1" d="M246.41,425.35v-1.06c-.47,0-.94-.06-1.41-.11v8.46c.47.06.94.07,1.41.1Z"/><path class="cls-1" d="M246.41,440.5v-6.38c-.53.31-1-.17-1.41-1.48v8.46l1.41.06Z"/><path class="cls-1" d="M246.41,432.89v1.23a3.1,3.1,0,0,0,1-1.32h0c-.32,0-.64,0-1-.06Z"/><path class="cls-1" d="M246.37,446.81c-.46,0-.92,0-1.37-.07v8.46C247.29,452.69,246.19,449.65,246.37,446.81Z"/><path class="cls-1" d="M948.62,319.8a10.6,10.6,0,0,1,1.38,0V314.2C948.3,315.8,948.6,317.83,948.62,319.8Z"/><path class="cls-1" d="M246.42,321.18A5.26,5.26,0,0,0,245,317v5.64C245.44,321.4,245.91,320.91,246.42,321.18Z"/><path class="cls-1" d="M246.42,321.18c0,.47,0,.95,0,1.43.34,0,.67-.05,1,0A3,3,0,0,0,246.42,321.18Z"/><path class="cls-1" d="M948.59,321.23v4.2c.47,0,.94,0,1.41.05v-5.64C949.51,321,949,321.44,948.59,321.23Z"/><path class="cls-1" d="M948.59,321.23v-.37c0-.35,0-.71,0-1.06a7.92,7.92,0,0,0-1,0C948,320.61,948.27,321.09,948.59,321.23Z"/><path class="cls-1" d="M948.59,326.87v2.76c.5-.26,1,.24,1.41,1.49v-5.64C949.51,326.61,949,327.06,948.59,326.87Z"/><path class="cls-1" d="M948.59,329.63a2.86,2.86,0,0,0-1,1.38h0l1,.05Z"/><path class="cls-1" d="M948.59,326.87v-1.44c-.31,0-.63,0-.94,0C948,326.25,948.26,326.72,948.59,326.87Z"/><path class="cls-1" d="M948.59,341v2.78c.5-.2,1,.28,1.41,1.48v-5.64C949.49,340.69,949,341.14,948.59,341Z"/><path class="cls-1" d="M948.59,341v-1.47c-.31,0-.61-.06-.91-.06C948,340.33,948.26,340.82,948.59,341Z"/><path class="cls-1" d="M948.59,344.78v-1a2.62,2.62,0,0,0-1.07,1.36h0l1.09,0C948.6,345,948.61,344.9,948.59,344.78Z"/><path class="cls-1" d="M246.38,353.62l-1.38.06v5.64l1.38-3.13C246.45,355.35,246.39,354.48,246.38,353.62Z"/><path class="cls-1" d="M246.38,416,245,412.9v5.64l1.38.06C246.39,417.74,246.45,416.88,246.38,416Z"/><path class="cls-1" d="M246.41,422.8V420c-.5.16-1-.31-1.41-1.46v5.64C245.52,423.1,246,422.66,246.41,422.8Z"/><path class="cls-1" d="M246.41,422.8v1.49l1,.07C247.08,423.42,246.76,422.92,246.41,422.8Z"/><path class="cls-1" d="M246.41,419.79V420c.36-.12.73-.55,1.12-1.36h0l-1.15,0A11.75,11.75,0,0,0,246.41,419.79Z"/><path class="cls-1" d="M948.62,424.25l1.38-.07v-5.64l-1.38,3.29C948.57,422.63,948.62,423.44,948.62,424.25Z"/><path class="cls-1" d="M948.59,425.67v5.64c.51.29,1-.21,1.41-1.49v-5.64C949.57,425.43,949.1,425.92,948.59,425.67Z"/><path class="cls-1" d="M948.59,425.67v-.56c0-.28,0-.57,0-.86l-1,.06A2.85,2.85,0,0,0,948.59,425.67Z"/><path class="cls-1" d="M950,441.1v-5.64c-.44,1.27-.91,1.76-1.41,1.49v4.22A13.31,13.31,0,0,0,950,441.1Z"/><path class="cls-1" d="M246.41,445.36v-2.77c-.5.26-1-.23-1.41-1.49v5.64C245.5,445.6,246,445.16,246.41,445.36Z"/><path class="cls-1" d="M246.41,442.59a2.86,2.86,0,0,0,1-1.38h0l-1,0Z"/><path class="cls-1" d="M246.41,445.36v.84c0,.2,0,.41,0,.61.32,0,.63.05.95,0C247,446,246.73,445.51,246.41,445.36Z"/><path class="cls-1" d="M246.41,352.22V349.4c-.43.14-.9-.3-1.41-1.36v5.64C245.44,352.53,245.91,352.06,246.41,352.22Z"/><path class="cls-1" d="M246.41,349.4c.35-.11.67-.61,1-1.53-.32,0-.64.05-1,.07Z"/><path class="cls-1" d="M246.41,352.22v.24a11.16,11.16,0,0,0,0,1.16l1.15,0C247.14,352.77,246.77,352.34,246.41,352.22Z"/></svg>