<svg id="Layer_1" data-name="Layer 1" xmlns="http://www.w3.org/2000/svg" viewBox="0 0 1366 768"><defs><style>.cls-1{fill:#272133;}.cls-2{fill:#fff;}</style></defs><title>froda</title><path class="cls-1" d="M290,76V691a77,77,0,0,0,77,77H981.92A77.08,77.08,0,0,0,1059,690.92V76.08A77.08,77.08,0,0,0,981.92-1H367A77,77,0,0,0,290,76Z"/><path class="cls-2" d="M797.54,291.22H636.05v119.2S655.27,383.5,689.88,372c47.42-15.8,76.9-11.53,76.9-11.53v46.14s-50-3.85-84.59,23.07c-21.89,17-46.14,61.52-46.14,73.05v50H589.91V245.08H797.54Z"/></svg>