<svg id="Layer_1" data-name="Layer 1" xmlns="http://www.w3.org/2000/svg" viewBox="0 0 1366 768"><defs><style>.cls-1{fill:red;}</style></defs><title>naga</title><path class="cls-1" d="M832.88,182.78,584.37,215.14l-.89-1.62c11.44-9.94,22.85-19.91,34.33-29.79,19.45-16.75,39-33.39,58.38-50.2,2.1-1.82,4.83-4.37,5-6.73,1.68-26,1.32-52-17-72.85-8.33-9.5-19.52-16.51-30.34-25.41,2.58-7.68,5.72-17,9.19-27.34,26.79,9.46,46.06,26.24,58.88,50.35a117.4,117.4,0,0,1,13.73,62c-.62,11.58,3.4,17.11,13.83,21.57,32.59,14,64.72,29,97,43.58C827.87,179.37,829.07,180.36,832.88,182.78Z"/><path class="cls-1" d="M852.26,415.17C768.72,533.75,686.45,650.53,604.17,767.3l-2.23-.54c.38-5.81.9-11.61,1.1-17.42q3.51-102.42,6.93-204.83c.58-17.23.64-34.5,1.92-51.68.7-9.43-2.6-11.63-11.46-11.26-16.16.68-32.36.2-49.43.2.75-10,1.22-20.3,2.31-30.49,7.61-71.07,15.41-142.12,22.94-213.19.71-6.7,3.48-9.51,10.17-10.39q70.64-9.3,141.2-19.16c31.55-4.41,63-9.26,94.57-13.82,4.12-.6,8.33-.64,14.81-1.11-3.66,10.61-6.62,19.89-10,29q-35,93.56-70.12,187.07c-3.39,9.07-2.56,10.18,7.14,9.66,25-1.33,50-2.8,75.07-4.15C842.85,415,846.65,415.17,852.26,415.17ZM598.6,442.29c2.12-26.14,4-50.4,6.06-74.64q5.26-61.18,10.74-122.35c.55-6.33-1.34-11.18-8.44-11.77s-9.71,3.53-10.3,10.07c-2.89,32-6,64-8.92,96-2.73,30.38-5.29,60.78-7.85,91.18-.81,9.57-1.35,19.17-2.11,30.21H632c0,5.26.12,9.13,0,13q-1.61,44.37-3.36,88.72c-.26,6.45,1.8,11.1,8.62,11.84,7.13.77,9.61-4.11,10.62-10.13a31.49,31.49,0,0,0,.4-3.88c1.37-36.39,2.64-72.79,4.16-109.17.3-7.36-2.65-9.5-9.81-9.23C628.69,442.66,614.73,442.29,598.6,442.29Zm28.3,190.94h.28c-.5,8.73-1,17.45-1.47,26.18-.34,6.76,2.27,11.94,9.52,12,6.78.08,9.11-5,9.45-11.22,1-18.38,2.08-36.77,3.07-55.15.34-6.3-2.27-11.3-8.69-12.05-6.7-.78-9.93,3.77-10.36,10.15C628,613.19,627.49,623.21,626.9,633.23Z"/></svg>